/* XPM */
static char *foguito[] = {
/* columns rows colors chars-per-pixel */
"50 64 6 1 ",
"  c None",
". c #A04800",
"X c #ED6A00",
"o c #FFD800",
"O c #FFE65A",
"+ c #FFF1A1",
/* pixels */
"                                                  ",
"                                                  ",
"                                                  ",
"                                                  ",
"                                                  ",
"                                                  ",
"                                                  ",
"                                            XX    ",
"                                            XX    ",
"                                          XXooXX  ",
"                                          XXooXX  ",
"                                                  ",
"                                                  ",
"                                   XX             ",
"                                   XX             ",
"                                   XX             ",
"                                 XXooXX           ",
"                                 XXooXX           ",
"                                 XXooXX           ",
"                                 XXooXX           ",
"                                                  ",
"                                                  ",
"                  XXXXXXXXXXXXXXXXXXX             ",
"                  XXXXXXXXXXXXXXXXXXX             ",
"           XXXXXoooooooooooooooooooooXX           ",
"           XXXXXoooooooooooooooooooooXX           ",
"         XXoooooooooooooooOOOooooooooooXXX        ",
"         XXoooooooooooooooOOOooooooooooXXX        ",
"         XXoooooooooooooooOOOooooooooooXXX        ",
"       XXoooooooooooooOOOOOOOoooooooooooooXX      ",
"       XXoooooooooooooOOOOOOOoooooooooooooXX      ",
"       XXoooooooooOOOOOOOOOOOoooooooooooooooXX    ",
"       XXoooooooooOOOOOOOOOOOoooooooooooooooXX    ",
"     XXoooooooooooOOOOOOOOOOOoooooooooooooooXX    ",
"     XXoooooooooooOOOOOOOOOOOoooooooooooooooXX    ",
"     XXoooooo+++..OOOOOOOO+++..oooooooooooooXX    ",
"     XXoooooo+++..OOOOOOOO+++..oooooooooooooXX    ",
"     XXoooooo.....OOOOOOOO.....oooooooooooooXX    ",
"     XXoooooo.....OOOOOOOO.....oooooooooooooXX    ",
"     XXoooooo.....OOOOOOOO.....oooooooooooooXX    ",
"     XXoooooo.....OOOOOOOO.....oooooooooooooXX    ",
"     XXoooooo.....OOOOOOOO.....oooooooooooooXX    ",
"     XXoooooooooooOOOOOOOOOOOoooooooooooooooXX    ",
"     XXoooooooooooOOOOOOOOOOOoooooooooooooooXX    ",
"     XXoooooooooooooooooooooooooooooooooooooXX    ",
"     XXoooooooooooooooooooooooooooooooooooooXX    ",
"       XXooooooooooooooooooooooooooooooXXXXX      ",
"       XXooooooooooooooooooooooooooooooXXXXX      ",
"         XXXXXXXXXXXXXXXXXXXXXXXXXXXXXX           ",
"         XXXXXXXXXXXXXXXXXXXXXXXXXXXXXX           ",
"                                                  ",
"                                                  ",
"                                                  ",
"                                                  ",
"                                                  ",
"                                                  ",
"                                                  ",
"                                                  ",
"                                                  ",
"                                                  ",
"                                                  ",
"                                                  ",
"                                                  ",
"                                                  "
};
