/* XPM */
static char *right__286_29[] = {
/* columns rows colors chars-per-pixel */
"55 64 220 2 ",
"   c None",
".  c #000001",
"X  c #090505",
"o  c #010B03",
"O  c #0B0A0A",
"+  c #160D0A",
"@  c #031305",
"#  c #041B08",
"$  c #1D110A",
"%  c #11180A",
"&  c #070C12",
"*  c #18191A",
"=  c #0C151E",
"-  c #22130D",
";  c #2A190D",
":  c #331C0F",
">  c #271611",
",  c #351E16",
"<  c #05240D",
"1  c #062A0F",
"2  c #072708",
"3  c #0B3D0C",
"4  c #09320A",
"5  c #083813",
"6  c #112E0F",
"7  c #392716",
"8  c #302B10",
"9  c #1B2F3B",
"0  c #352D24",
"q  c #3B3A28",
"w  c #462719",
"e  c #5A331B",
"r  c #4A3414",
"t  c #6C3C1D",
"y  c #723F1F",
"u  c #4B2A21",
"i  c #593220",
"p  c #4A3B2D",
"a  c #6B3B20",
"s  c #713E20",
"d  c #0D420D",
"f  c #0D4B12",
"g  c #094717",
"h  c #184915",
"j  c #0E5115",
"k  c #0D5B1C",
"l  c #0B531B",
"z  c #155212",
"x  c #195916",
"c  c #114A0F",
"v  c #29531C",
"b  c #0F631E",
"n  c #1A661A",
"m  c #236C19",
"M  c #28761D",
"N  c #3A7B19",
"B  c #3E5A23",
"V  c #0D6522",
"C  c #0E6C23",
"Z  c #0F7325",
"A  c #0E7B29",
"S  c #0B7A27",
"D  c #107526",
"F  c #107B29",
"G  c #107827",
"H  c #2E6E2B",
"J  c #125622",
"K  c #4D5419",
"L  c #74411F",
"P  c #656601",
"I  c #574938",
"U  c #5F503F",
"Y  c #4D4F29",
"T  c #744221",
"R  c #7A4927",
"E  c #685124",
"W  c #62523E",
"Q  c #715430",
"!  c #5C6D3F",
"~  c #53762D",
"^  c #1B2D40",
"/  c #233B53",
"(  c #2D4B6A",
")  c #2D4F70",
"_  c #325374",
"`  c #335678",
"'  c #2E5073",
"]  c #4A4E4A",
"[  c #434C79",
"{  c #676B59",
"}  c #8D651A",
"|  c #87562C",
" . c #825331",
".. c #905E2E",
"X. c #8E6931",
"o. c #A57839",
"O. c #A27728",
"+. c #88755C",
"@. c #91704E",
"#. c #A47B41",
"$. c #A67B43",
"%. c #A47954",
"&. c #2F821F",
"*. c #2E921D",
"=. c #0DA708",
"-. c #12802B",
";. c #1D8629",
":. c #228A29",
">. c #2C8D27",
",. c #348822",
"<. c #2C9429",
"1. c #349A29",
"2. c #3A9E29",
"3. c #389726",
"4. c #3FA129",
"5. c #3FAA27",
"6. c #3AB424",
"7. c #0D8A07",
"8. c #7AB717",
"9. c #439F29",
"0. c #508727",
"q. c #7B963C",
"w. c #41A529",
"e. c #48A729",
"r. c #5EB223",
"t. c #57A720",
"y. c #0ECF08",
"u. c #13FC0A",
"i. c #1AED0F",
"p. c #5D9C63",
"a. c #A48216",
"s. c #B19314",
"d. c #B89833",
"f. c #A8833A",
"g. c #AFA330",
"h. c #BEA318",
"j. c #C4AF0D",
"k. c #C9AE2D",
"l. c #91C817",
"z. c #B4D813",
"x. c #BDE10D",
"c. c #DFD117",
"v. c #CDCF1A",
"b. c #E8DA16",
"n. c #D4EB09",
"m. c #F4EC0C",
"M. c #FFFE00",
"N. c #FBF30D",
"B. c #F8FA04",
"V. c #F3E31B",
"C. c #D8C52C",
"Z. c #E9CE2B",
"A. c #EDD22E",
"S. c #EFD727",
"D. c #F0DA25",
"F. c #EACA35",
"G. c #E7C43A",
"H. c #EFD132",
"J. c #968558",
"K. c #AC8348",
"L. c #B58A45",
"P. c #B88F4F",
"I. c #A9AB44",
"U. c #988F6A",
"Y. c #A88D6D",
"T. c #BD9C76",
"R. c #B5936B",
"E. c #CA9A4C",
"W. c #DCAD4E",
"Q. c #DFB04E",
"!. c #DDAA53",
"~. c #D9A751",
"^. c #C4A648",
"/. c #E2B648",
"(. c #E2AD54",
"). c #E3B054",
"_. c #EBD84E",
"`. c #2E519D",
"'. c #2E509C",
"]. c #066E96",
"[. c #546799",
"{. c #827C80",
"}. c #3C8880",
"|. c #3BB8D4",
" X c #0BBAF6",
".X c #8C8994",
"XX c #B9B88A",
"oX c #8E96A5",
"OX c #9DADBD",
"+X c #B9BAB1",
"@X c #C9AE8A",
"#X c #D3B285",
"$X c #D4B48B",
"%X c #D8B68D",
"&X c #DBB98E",
"*X c #DDBC93",
"=X c #D5BA96",
"-X c #CCAF88",
";X c #BDC995",
":X c #96C5A0",
">X c #E3C59B",
",X c #ECD08F",
"<X c #FFEB9C",
"1X c #E8CBA3",
"2X c #EFD2AA",
"3X c #EBD1A6",
"4X c #F3D7AB",
"5X c #F5DCB5",
"6X c #FEE6BD",
"7X c #FFE8BF",
"8X c #FBE0B7",
"9X c #B8C3DD",
"0X c #BBC7E1",
"qX c #C8D6CD",
"wX c #FFEAC2",
"eX c #FFEAC9",
"rX c #FFF0C6",
"tX c #FFFFFE",
"yX c #FFFDF2",
"uX c #EEECE8",
/* pixels */
"                                                        F F b d d &.w.9.E y R o.#.#.#.#.                      ",
"                                                        A A b d d &.w.9.E y R #.#.#.#.#.                      ",
"                                                        ;.;.n d d &.w.w.X...X.d.d.d.L.L.P.                    ",
"                                      F F F 1.w.w.w.w.w.w.w.M d d &.w.e.^.!./.B.M.V.!.!.!.!.!.L.#.#.          ",
"                                      A A F 1.w.w.w.w.w.w.w.M d d &.w.e.^.!./.M.M.V.!.!.!.!.!.L.#.#.          ",
"                                      :.:.:.2.w.w.w.w.w.w.w.M d d &.w.e.C.A.A.D.D.S.A.A.A.A.A.^.P.P.          ",
"                      d d f F F F F A <.w.w.w.w.w.w.w.w.w.w.M d d &.w.e.n.M.N.W.!.F.M.M.M.M.M.G.!.~.K.#.#.    ",
"                      d d f F F F F A <.w.w.w.w.w.w.w.w.w.w.M 3 d &.w.e.n.M.N.Q.!.F.M.M.M.M.M.G.!.~.$.#.#.    ",
"                  d d b b C F A ;.<.<.2.w.w.w.w.w.w.w.3.m n M &.&.q.I.I.G.F.F.V.V.D.F.F.F.F.F.D.V.V.b.c.C.#.#.",
"                d d d D F F F A :.w.w.w.w.w.w.w.w.w.w.,.d 3 m w.w.I.(.(.!.!./.M.M.V.!.!.!.!.!.m.M.M.M.M.b.#.#.",
"                d d f Z F F F A :.w.w.w.4.4.4.4.4.w.w.,.d d m w.4.I.).Q.Q.W./.B.M.b.~.~.!.!.!.V.B.B.B.B.b.#.#.",
"            d d b Z Z F F F F A :.w.w.M z z z z x 2.w.,.d d m w.4.z.N.N.N.N.b.d.d.o.| | L.(.!.O.} } } } }     ",
"            d d b F F F F F F A :.w.w.m 3 d d 3 c 2.w.,.d 3 m w.4.x.M.M.M.M.m.f.#.X.y t o.).!...a s s s s     ",
"            f f C F F F F F F A ;.2.2.m f f z z x ,.3.,.z z N r.r.v.N.N.m.m.b.K.K.#. . .o.P.L.| y T T T T     ",
"            G G F F F F F F F F F F F F G G 1.4.3.z d x 2.2.l.B.B.F.Q.W.L.f.L.#X#X#X-X#XW X O                 ",
"            F F F F F F F F F F F F F F F F 1.w.2.c 3 x w.4.l.M.M.F.!.!.K.#.K.#X$X$X$X%XU . .                 ",
"          k F F F F F F F F F F F F F F F F <.1.>.c d x <.<.l.M.M.F.!.!.P.P.R.>X>X*X$X%XU . .                 ",
"      . . 5 F F F F F F F F F F F F F F F F F F G f d j F S 8.M.M.F.!.!.#X$X*X6X6X4X$X%XU . .                 ",
"      . . 5 F F F F F F F F F F F F F F F F F F G f d j A S 8.M.M.F.!.!.#X$X*X6XwX4X%X&XU . .                 ",
". . o 2 2 g F F F F F F F F F F F F F F F F b k k d d v q.q.g.k.k.Z.S.A.,X3X=X+.{ +.%.%.p . .                 ",
". . @ d d k F F F F F F F F F F F F F F F F j d d d d K !.(.E.#.#.c.M.B.<XwX=XX . - y L : . .                 ",
". . @ d d k F F F F F F F F F F F F F F F F j d d d d K !.!.E.#.#.c.M.B.<XwX=XO . ; T T : . .                 ",
". . @ d d k F F b j j 1 < 1 j j j j j p.;X;XXXXXXXU.U.J.....o.E.E.k.d.k.4X6X5X+X+XoX[ [ { J.J.0 . .           ",
". . @ d d k F F j d 3 o . o 3 d d d 3 U.wXwXwXwX6X*X&XT.T t o.(.!.L.#.$.2X6XeXtXtX0X'.'..X&X%X0 . .           ",
". . @ d d k F F j 3 3 o . o 3 3 3 3 3 U.8X5X6X6X8X*X*XT.T L o././.L.o.$.3X6XeXtXtX9X'.'..X%X$X0 . .           ",
". . @ d d k F F 1 o o       o o o o o E P.P.3X7X6X8X8X%XT s s.N.N.a.R  .1X7XeXtXtX9X'.'..X%X$X0 . .           ",
". . @ d d k F F 1 . .       . . . . . E $.$.>XwXwX6X7X*XT a s.M.M.a.t R 1X7XeXtXtX9X'.'..X&X$X0 . .           ",
". . @ 4 4 f Z C < . .       . . . . . r X.X.#X3X3XqXqX+X| | h.M.M.a.s R 1X7XeXyXyXqX[.[.{.Y.Y.0 . .           ",
"      . . # d d @ . .             . . . X X Q K.J. X X|.!.~.Z.M.M.a.s R 1X6X6X6XwX2X$X%XU . X                 ",
"      . . # d d @ . .             . . . . . Q $.J. X X|.!.!.A.M.M.a.t R 1X7X6X6X7X4X%X*XW . .                 ",
"      . . @ 2 2 @ . .             P P E I I I E I ].].}.F.F.C.j.j.f.@.%.>X2X2X2X2X@X+.+.p . .                 ",
"            . .                   M.M._.%X$X0 . . . . r M.M.j.a s R.&X%X$X$X$X$X%X+.. .                       ",
"            . .                   M.M._.%X$X0 . . . . K M.M.j.T T R.&X%X%X%X%X%X*X+.. .                       ",
"                                  P P E I I 6 2 2 o . 8 F.H.O.; ; Y ! ! ! ! ! I I 0 . .                       ",
"                                  . . . . . 4 d 3 o . 7 !.).Q . . 2 d d d d 4 . . . . .                       ",
"                                  . . . . . 4 d 3 o . 7 ~.!.Q . X 4 d d d d 3 . . . . .                       ",
"                                      . . . l D C V V h 8 : W Y.Y.q o @ k D k o . $ e e ; . .                 ",
"                                      . . . k F F F -.k . . ] *X&Xp . o V F V o . ; T T : . .                 ",
"                                      . . . k F G C C l @ o I T.T.Y o @ V A C @ o ; t t , & &                 ",
"                                      . . . k F C # o < C Z g + + l Z Z A A F Z Z g X X 9 ) ( = . .           ",
"                                      . . . k -.C o . # S S g . . l -.F F F A A A l . . ^ ` _ = . .           ",
"                                      $ - - g k J ] ] ] p.p.H < < g k k Z A ;.t.t.N 6 6 9 / / * + +           ",
"                                  . . w T L $ . * uXtXtXtXtX:XS F 1 . o V A 3.B.M.x.4.w.h . . , u w X . .     ",
"                                  . . w T y $ . * uXtXtXtXtX:XS F 1 . o V A 3.B.M.n.w.w.h . . , u w X . .     ",
"                                < 5 5 v K K % . = oXOXOXOXOX{ 5 5 8 : 7 B B ~ l.z.l.w.w.h . . $ > > X .       ",
"                            . . 1 A F A A A # . & ( ' ' ' ' 9 . . r T T T s E 9.4.4.w.w.h . . . . .           ",
"                            . . 1 F F F F F # . & ( _ _ _ ` ^ . . r T T T s E 9.w.w.w.w.h . . . . .           ",
"                            . . o 1 < < < < 7 r u I I ] _ ` ^ . . h H H ~ 0.0.w.w.1.;.:.3 . .                 ",
"                            . . . . . . . . e T T L L I _ ` 9 . . l A F 2.w.w.w.w.<.A A 5 . .                 ",
"                            . . . . . . . . e R R T L I ( ) 9 o o l F F 2.w.w.5.5.<.Z Z 5 . .                 ",
"                                  . . . . . T.2X*XR L e & & 5 C V >.2.2.w.w.6.i.u.=.@ @ o . .                 ",
"                                  . . . . . @XrX5X .L e . . 5 -.F 1.w.w.w.w.6.u.u.=.. . . . .                 ",
"                                  . . . . . U.=X@XR a u . . 1 V V M ,.,.,.,.*.y.y.7.X O + + +                 ",
"                                      . . . X O + w u , . . . o o o o o o o o o o $ w w e t t $ . .           ",
"                                      . . . . . X w u , . . . . . . . . . . . . . $ u u a T T $ . .           ",
"                                        . . . . X > , > . . . . . . . . + $ $ $ $ : i i a T T $ . .           ",
"                                            . . . . . . . . .     . . X 7 u u u u i T T T T T $ . .           ",
"                                            . . . . . . . . .     . . X 7 u u u u i T T T T T $ . .           ",
"                                                                        $ - - - - ; : : : : : +               ",
"                                                                        . . . . . . . . . . .                 ",
"                                                                        . . . . . . . . . . .                 ",
"                                                                                                              ",
"                                                                                                              ",
"                                                                                                              "
};
