/* XPM */
static char *right__289_29[] = {
/* columns rows colors chars-per-pixel */
"53 64 222 2 ",
"   c None",
".  c #000001",
"X  c #020A03",
"o  c #0E0807",
"O  c #0A0705",
"+  c #1A0E09",
"@  c #160D0A",
"#  c #03190A",
"$  c #041707",
"%  c #17110A",
"&  c #121417",
"*  c #24140C",
"=  c #25180C",
"-  c #291612",
";  c #321C14",
":  c #092D09",
">  c #05260C",
",  c #0A330A",
"<  c #0C3D0C",
"1  c #073509",
"2  c #083A14",
"3  c #17320F",
"4  c #3C211A",
"5  c #3C2211",
"6  c #27301B",
"7  c #182737",
"8  c #103426",
"9  c #363A38",
"0  c #44251E",
"q  c #482916",
"w  c #4B3C1A",
"e  c #532E18",
"r  c #6B3A1D",
"t  c #713F1F",
"y  c #4B2A21",
"u  c #43382B",
"i  c #4C3C2F",
"p  c #6A3A20",
"a  c #723D20",
"s  c #0D420D",
"d  c #0A4415",
"f  c #0D4C12",
"g  c #0B4F1B",
"h  c #074217",
"j  c #144B12",
"k  c #0E5416",
"l  c #0B551D",
"z  c #0C5A1C",
"x  c #175614",
"c  c #10470E",
"v  c #2B4A19",
"b  c #1D6518",
"n  c #0F631D",
"m  c #246D1A",
"M  c #216717",
"N  c #2C7C1D",
"B  c #2A751D",
"V  c #0D6521",
"C  c #0F6B22",
"Z  c #0F7426",
"A  c #0E7B29",
"S  c #107325",
"D  c #107B29",
"F  c #1C7527",
"G  c #196E21",
"H  c #2C6A26",
"J  c #2F7226",
"K  c #545401",
"L  c #5A5110",
"P  c #74411F",
"I  c #616100",
"U  c #7D7D01",
"Y  c #637507",
"T  c #554024",
"R  c #4F4334",
"E  c #594A3C",
"W  c #455B24",
"Q  c #674A25",
"!  c #744221",
"~  c #7B4A27",
"^  c #695525",
"/  c #715825",
"(  c #5B7325",
")  c #506822",
"_  c #60603A",
"`  c #315375",
"'  c #3E5D7C",
"]  c #33506E",
"[  c #4E4F4F",
"{  c #6A5A45",
"}  c #74624D",
"|  c #6F794B",
" . c #757155",
".. c #434D79",
"X. c #656669",
"o. c #757475",
"O. c #9B7818",
"+. c #8F6C1A",
"@. c #86572D",
"#. c #875834",
"$. c #814F26",
"%. c #886233",
"&. c #9D733D",
"*. c #946836",
"=. c #A6793C",
"-. c #956B48",
";. c #8E734E",
":. c #A47B41",
">. c #A67B45",
",. c #A27853",
"<. c #957E62",
"1. c #14822A",
"2. c #1D8234",
"3. c #248C29",
"4. c #298524",
"5. c #338A22",
"6. c #308723",
"7. c #2C9229",
"8. c #3D9C27",
"9. c #359A29",
"0. c #349627",
"q. c #3EA229",
"w. c #2F811F",
"e. c #4B952F",
"r. c #41A429",
"t. c #48A829",
"y. c #6AB821",
"u. c #61881B",
"i. c #8C8A08",
"p. c #AF9114",
"a. c #B79632",
"s. c #AA833A",
"d. c #B9A936",
"f. c #A8991D",
"g. c #C4AF12",
"h. c #CDB02F",
"j. c #94C512",
"k. c #A6D312",
"l. c #B1D50E",
"z. c #D1C00A",
"x. c #E6DA14",
"c. c #E1D706",
"v. c #CDE60C",
"b. c #FFFE01",
"n. c #FBF30C",
"m. c #F9FC07",
"M. c #F5E718",
"N. c #EBEB0A",
"B. c #D7C62A",
"V. c #EED22D",
"C. c #F1DB24",
"Z. c #F1D82B",
"A. c #E7C23D",
"S. c #E8C43A",
"D. c #E9D533",
"F. c #AD8448",
"G. c #B68B46",
"H. c #B38E59",
"J. c #B6AC46",
"K. c #998163",
"L. c #90916C",
"P. c #BC966A",
"I. c #B18F6B",
"U. c #95A171",
"Y. c #C6974B",
"T. c #C9A74D",
"R. c #D7A64E",
"E. c #DDAB53",
"W. c #D8A650",
"Q. c #DFB04E",
"!. c #E2B34C",
"~. c #E4BA44",
"^. c #E1AD54",
"/. c #C09B70",
"(. c #C3A37E",
"). c #E6C954",
"_. c #2E509D",
"`. c #31529D",
"'. c #2B4F9D",
"]. c #017CAB",
"[. c #4E649A",
"{. c #7C7F94",
"}. c #7B7A87",
"|. c #6A8E93",
" X c #07BCFD",
".X c #53B9D3",
"XX c #BBB88C",
"oX c #B4AD89",
"OX c #B9B9B8",
"+X c #9497A4",
"@X c #D1AE86",
"#X c #D5B48B",
"$X c #D9B68D",
"%X c #DAB88E",
"&X c #D5B284",
"*X c #DCBB91",
"=X c #D5B895",
"-X c #CBB18A",
";X c #D3C29D",
":X c #E2C49B",
">X c #ECD192",
",X c #E9CCA4",
"<X c #F1D6AC",
"1X c #F3D7AA",
"2X c #F6DCB4",
"3X c #EBD3AB",
"4X c #FFE6BD",
"5X c #FFE8BF",
"6X c #FCE1B7",
"7X c #FFEBA0",
"8X c #FFEA9F",
"9X c #CED6D0",
"0X c #D6E8DA",
"qX c #D2E1CC",
"wX c #FFEAC2",
"eX c #FFEAC7",
"rX c #C3CDE3",
"tX c #DADFE4",
"yX c #DEE3E9",
"uX c #FFFFFE",
"iX c #FFFBF3",
"pX c #E2E7ED",
/* pixels */
"                                                                                                          ",
"                                                                                                          ",
"                                                                                                          ",
"                                            D A 1.r.r.r.r.r.m s s C D F Q ! ~ =.:.:.                      ",
"                                            A A 1.r.r.r.r.r.m s s C A S Q a ~ =.:.:.                      ",
"                                            3.3.7.r.r.r.r.r.m s s F 3.7.i.p.p.G.G.Y.                      ",
"                                D D D 9.r.r.r.r.r.r.r.r.r.r.m s s 6.r.t.N.b.n.!.E.E.E.E.Y.:.:.            ",
"                                A A D 9.r.r.r.r.r.r.r.r.r.r.m s s 5.r.t.N.b.n.Q.E.E.E.E.Y.:.:.            ",
"                      s s z D D 3.7.7.q.r.r.r.r.r.r.r.r.r.r.m s s 5.r.t.B.V.V.C.C.C.C.C.h.Y.Y.G.:.:.      ",
"                      s s z D D 0.r.r.r.r.r.r.r.r.r.r.r.r.r.m s s 5.r.t.T.E.~.b.b.b.b.b.C.E.^.G.:.:.      ",
"                      s s z D D 0.r.r.r.r.r.r.r.r.r.r.r.r.r.m s s 5.r.t.T.^.~.m.b.b.b.b.C.E.E.G.:.:.      ",
"                s s k C C 4.9.9.q.r.r.r.r.r.r.r.r.r.r.5.x x B 5.5.k.v.v.M.M.M.S.A.A.A.A.Z.M.M.x.x.x.a.:.:.",
"                s s k D A 3.r.r.r.r.r.r.r.r.r.r.r.r.r.N < < B r.r.v.b.b.b.b.n.!.E.E.E.E.V.b.b.b.b.b.a.:.:.",
"                s s k D A 3.r.r.r.r.r.8.8.8.8.8.8.r.r.w.s s B r.r.v.m.m.b.b.n.Q.E.W.R.R.V.m.m.b.b.b.a.&.=.",
"          s s f Z S S D A 3.r.r.r.r.r.b j j j j b r.r.w.s s B r.r.d.~.~.n.b.N.s.F.&.$.~ =.~.~.M.b.b.O.~ ~ ",
"          s s f D D D D A 3.r.r.r.r.q.x < s s < x r.r.N s < B q.q.J.^.!.n.b.N.s.:.*.t r =.^.E.M.b.b.+.a ! ",
"          s s f D D D D A 3.9.9.9.9.9.b x x x x b 5.0.B x x 5.y.y.J.^.Q.x.N.x.G.F.>.#.#.>.R.R.B.c.c.+.a ! ",
"          s s f D D D D D D D D D D D 9.r.q.q.r.5.c s M r.q.k.b.m.A.E.E.F.=.F.@X#X#X#X#XP.:.:.@.P P       ",
"          s s f D D D D D D D D D D D 9.r.r.r.r.5.s < M r.q.k.b.b.S.E.E.F.=.F.@X#X#X#X#X/.:.>.@.P !       ",
"          k k z D D D D D D D D D D D 7.0.7.6.w.B k k b 0.7.k.b.b.S.E.E.H.H.P.:X:X:X#X#XK.Q Q Q ! !       ",
"    s s s S D D D D D D D D D D D D D D D Z f s f D A D D A j.b.b.S.E.E.&X#X*X4X5X<X#X%X} . .             ",
"    s s s S D D D D D D D D D D D D D D D S f s f A A A A A j.b.b.S.E.E.&X#X*X4XwX2X#X*X} . .             ",
"    s s s S D D D D D D D D D D D D D n z z s s f z z b W W f.h.h.V.C.Z.>X3X=X . .;.,.,.i . .             ",
"    s s s S D D D D D D D D D D D D D f s s s s s s s v ! t #.:.:.x.b.m.8XwX;XO . + t P 5 . .             ",
"    s s s S D D D D D D D D D D D D D f s s s s s s s v ! P %.:.:.x.b.m.8XwX=X@ . = ! ! 5 . .             ",
". . , s s S D S k k d > > 2 k k k k k U.XXXXXXXXoXL.L.;.P t =.R.Y.h.d.h.1X4X2XOXOX+X....X.K.K.u . .       ",
". . : s s S D Z s s : . . # s s s s j ;XwXwXwXwX2X%X%XI.t t =.^.E.G.:.>.<X4XeXuXuXrX`._.|.%X*XR . .       ",
". . , s s C D C s < : . . # < < < < c -X6X2X4X4X2X%X*XI.t t =.!.!.G.&.>.<X4XeXuXuXrX`._.{.$X#XR . .       ",
". . , s s f f < X X X     X X X X X X -.H.H.2X4X4X2X6X(.t a g.n.n.O.~ @.,X4XeXuXuXrX`._.{.$X#XR . .       ",
". . , s s s s , . . .       . . . . . %.:.F.2X5X4X4XwX@Xt t g.b.b.O.a ~ ,X5XeXuXuXrX_.'.{.%X%XR . .       ",
". . , s s < , : . . .       . . . . . Q %.-.:X1X3XqXqXoX#.#.g.b.b.O.a ~ ,X4XeXiXiX9X[.[.}.I.I.i . .       ",
". . , s < X . .                 . . . O O % -.F.L. X X.X@X@XD.b.b.O.a ~ ,X5X4XwXwX<X-X#X} O O             ",
". . , s < X . .                 . . . . . o &.=.L. X X.X#X#XD.b.b.O.r ~ ,XwX4X4X5X2X%X*X} . .             ",
". . > : : X . .                 K K K w w w ^ / [ ].].|.).).B.z.z.s.-.-.:X<X<X<X<X=X<.<.E . .             ",
"    . . .                       b.b.b.~.^.Y.% . . . . I b.b.p.a ! P.%X#X#X#X#X#X%X<.. . .                 ",
"    . . .                       b.b.b.).^.Y.% . . . . I b.b.p.a ! P.*X%X%X%X%X%X*XK.. . .                 ",
"      .                         U U U / / Q : > # . . L Z.Z.+.; 5 _ | | | | | { { E   .                   ",
"                                . . . . . X < s , . . T ^.^.Q . . : s s s s 1 . . .                       ",
"                                . . . . . X < s , . . T ^.^.Q . . : s s s s , X . .                       ",
"                                      . . X < s f l l H e.e.6 . . g C C C C V l l h . .                   ",
"                                      . . X < s k D D A A A 2 . . l D D D D D D 1.l . . .                 ",
"                                      . . X < < f 2.2.2.2.2.2 . . l D D D D D D D z X X X                 ",
"                                      . . . X X 9 0X0X0X0X0XX.. . l D D D D D D D Z V C 2 . .             ",
"                                      . . . . . 9 uXuXuXuXuXo.. . l D D D D D A A A A A h . .             ",
"                                      $ $ $ . . 9 tXyXyXyXpXX.. . l D D D D D F F N 0.0.j . .             ",
"                                . . . z Z V X . & ' ' ' ' ' 7 . . l D D D A F Q ! O.m.m.i.. . . . . . . . ",
"                                . . . V 1.C X . & ` ` ` ` ` 7 . . l 1.A A A F P t O.b.b.i.. . . . . . . . ",
"                                > > > g l g % * ; [ [ ] ` ` 7 . . v H H H H H ^ ^ u.l.l.Y . . @ * * O . . ",
"                            . . g D D # . O r ! ! ! P E ` ` 7 . . e ! ! ! ! ^ r.r.9.D D h . . q ! t + . . ",
"                            . . g D D # . O r t t ! P [ ` ` 7 . . e ! a a a ^ r.r.9.D 1.d . . q ! a + . . ",
"                            . . g D D # . @ -.,.-.! P i 7 7 8 2 2 W ( ( ( ( ( r.r.6.h h 3 * * e ! a + . . ",
"                            . . g D D # . % (.*X/.! ! q . . d 1.D 9.r.r.r.r.r.r.r.B . . * y y p ! t + . . ",
"                            . . g D D # . % (.%X/.! ! q . . d D D 9.r.r.r.r.r.r.r.B . . * y y p ! P + . . ",
"                                > > > X . O u i u = = + . . $ > > G 3.3.3.3.F 3 3 3 ; ; 4 y y ; = =       ",
"                                . . . . . . . . . . . . . . . . . l A A A A V X . @ y y y y y + . .       ",
"                                . . . . . . . . . . . . . . . . . l D Z Z D V X . @ 0 0 0 0 0 + . .       ",
"                                . . . ; 4 4 4 4 ; . . . . . . . . $ # # # # $       o o o o o             ",
"                                . . . 4 y y y y 4 . . . . . . . . . . . . . .       . . . . .             ",
"                                . . . ; 0 0 0 0 ; . . . . . . . . . . . . . .       . . . . .             ",
"                                      . . . . . . . . .                                                   ",
"                                      . . . . . . . . .                                                   ",
"                                      . . . . . . . .                                                     ",
"                                                                                                          ",
"                                                                                                          "
};
