/* XPM */
static char *right__284_29[] = {
/* columns rows colors chars-per-pixel */
"54 64 223 2 ",
"   c None",
".  c #000001",
"X  c #0B0604",
"o  c #020B04",
"O  c #0C0907",
"+  c #0A0A0B",
"@  c #120B0A",
"#  c #170D09",
"$  c #021105",
"%  c #061707",
"&  c #19130A",
"*  c #101115",
"=  c #25160D",
"-  c #261A15",
";  c #331D15",
":  c #321D0F",
">  c #05250C",
",  c #082B09",
"<  c #082407",
"1  c #0A340B",
"2  c #0B3D0C",
"3  c #073A14",
"4  c #133312",
"5  c #2C2706",
"6  c #2D2716",
"7  c #392417",
"8  c #323606",
"9  c #0E1621",
"0  c #132B30",
"q  c #283431",
"w  c #48281A",
"e  c #532E17",
"r  c #46341A",
"t  c #5A331B",
"y  c #6D3C1D",
"u  c #64391C",
"i  c #713E1E",
"p  c #4B2920",
"a  c #553721",
"s  c #47372B",
"d  c #683C23",
"f  c #733F20",
"g  c #0D420D",
"h  c #0C480F",
"j  c #10480F",
"k  c #0D4A11",
"l  c #134E11",
"z  c #1A4615",
"x  c #0E5215",
"c  c #0E5A1B",
"v  c #0A541C",
"b  c #185713",
"n  c #1A5717",
"m  c #21501C",
"M  c #29501C",
"N  c #0F631D",
"B  c #1B6218",
"V  c #226A19",
"C  c #28681A",
"Z  c #2A791D",
"A  c #395B28",
"S  c #344224",
"D  c #0E6C24",
"F  c #0C6422",
"G  c #0F7225",
"H  c #0F7B29",
"J  c #0B7826",
"K  c #107527",
"L  c #107827",
"P  c #107B29",
"I  c #1E7C24",
"U  c #166B21",
"Y  c #296B26",
"T  c #145221",
"R  c #4E431B",
"E  c #74421F",
"W  c #7F511D",
"Q  c #4B5924",
"!  c #565323",
"~  c #494437",
"^  c #53483A",
"/  c #564123",
"(  c #684428",
")  c #744221",
"_  c #774827",
"`  c #715633",
"'  c #547A25",
"]  c #796236",
"[  c #407C17",
"{  c #253A4F",
"}  c #004967",
"|  c #2D4B69",
" . c #2C4F71",
".. c #30556E",
"X. c #4A4C51",
"o. c #796D5C",
"O. c #71604A",
"+. c #66707C",
"@. c #675D4D",
"#. c #906919",
"$. c #895C36",
"%. c #835329",
"&. c #956B39",
"*. c #9C723C",
"=. c #896A31",
"-. c #A5783C",
";. c #A06F32",
":. c #80521E",
">. c #986D49",
",. c #9C724C",
"<. c #876D50",
"1. c #A47B41",
"2. c #A77D43",
"3. c #A27E5C",
"4. c #877964",
"5. c #1B852A",
"6. c #248C29",
"7. c #268927",
"8. c #338521",
"9. c #378E23",
"0. c #2A9129",
"q. c #3D9C27",
"w. c #319729",
"e. c #3A9E29",
"r. c #379526",
"t. c #3EA329",
"y. c #3FA829",
"u. c #5EA71C",
"i. c #75B61A",
"p. c #499926",
"a. c #4F8825",
"s. c #41A429",
"d. c #44A728",
"f. c #57AA2A",
"g. c #70AA31",
"h. c #579B1A",
"j. c #7EC31C",
"k. c #6F936F",
"l. c #999901",
"z. c #AF9315",
"x. c #AB853C",
"c. c #B19033",
"v. c #8EB130",
"b. c #AAAA1C",
"n. c #CFBE0C",
"m. c #CEAD36",
"M. c #E3BC3F",
"N. c #B4D60D",
"B. c #D7C61B",
"V. c #D3C30C",
"C. c #E3D60F",
"Z. c #D6EB09",
"A. c #CBE309",
"S. c #ECE808",
"D. c #F6ED0E",
"F. c #FEFE01",
"G. c #FBF30C",
"H. c #F5F403",
"J. c #F4E21C",
"K. c #F6EA14",
"L. c #EED529",
"P. c #F1DB24",
"I. c #E9C737",
"U. c #FDF537",
"Y. c #AD8449",
"T. c #BD9147",
"R. c #B9935F",
"E. c #AF8757",
"W. c #98896D",
"Q. c #BC9666",
"!. c #A89377",
"~. c #B4936F",
"^. c #BBA57B",
"/. c #C9994B",
"(. c #D09E4C",
"). c #D3A64C",
"_. c #DBB248",
"`. c #DEAB53",
"'. c #D6A653",
"]. c #CBA34C",
"[. c #E4BC43",
"{. c #E1B24C",
"}. c #E7BB49",
"|. c #E0AD52",
" X c #E3B154",
".X c #E4AD4F",
"XX c #D5AC6C",
"oX c #E9C241",
"OX c #F5E342",
"+X c #2B4E9A",
"@X c #3A589B",
"#X c #364D8A",
"$X c #717793",
"%X c #586999",
"&X c #63958D",
"*X c #748AA1",
"=X c #738ABD",
"-X c #00BCFF",
";X c #85B895",
":X c #82BA8F",
">X c #BAA58C",
",X c #BDA790",
"<X c #B1B1B6",
"1X c #CBAB84",
"2X c #D4B38A",
"3X c #D8B68A",
"4X c #D7BD96",
"5X c #CBB88D",
"6X c #E4C69D",
"7X c #D6C9A5",
"8X c #EACDA4",
"9X c #E7D2A8",
"0X c #F3D8AF",
"qX c #FFE6BC",
"wX c #FFE8BF",
"eX c #9AD6D9",
"rX c #DEDEDE",
"tX c #E3D7D0",
"yX c #FFEBC1",
"uX c #FFF2DD",
"iX c #FBECCA",
"pX c white",
"aX c #FFF6E6",
/* pixels */
"                                                                                                            ",
"                                                                                                            ",
"                                                                                                            ",
"                                              P H 6.d.d.d.d.s.b 2 k K H Y ) E $.2.1.                        ",
"                                              H H 6.d.d.d.d.s.b g k H H Y f f $.1.1.                        ",
"                                            e.6.6.w.s.s.d.d.s.b g l 7.6.a.z.z.c.T.T.(.                      ",
"                                  P P P e.d.d.d.d.d.s.s.s.s.s.b g b q.t.i.F.F.L.`.`.`.`.`.Y.1.1.            ",
"                                  P H P e.d.d.d.d.d.s.s.s.s.t.b g l q.t.i.F.F.L.`.`.`.`.`.Y.1.1.            ",
"                        g g N P P 0.0.w.t.d.d.d.d.d.s.s.s.d.s.b g b q.t.g.I.I.L.J.J.J.J.P.)././.2.1.        ",
"                        g g N P P w.d.d.s.d.d.d.s.s.s.s.d.d.s.b 2 b q.t.g.`.`.L.F.F.F.F.F.[.|.).2.1.1.      ",
"                        g g N P P e.d.s.s.s.d.d.s.s.s.s.t.q.q.b g b s.d.g.`.`.L.F.F.F.F.G.[.|.).x.x.x.      ",
"                  g g x G D 7.e.e.t.s.s.s.s.d.d.s.s.s.d.Z b b 8.r.p.A.Z.S.D.G.L.[.[.[.[.[.K.G.D.S.S.B.1.1.  ",
"                  g g x P H 0.d.d.d.d.d.d.d.d.d.d.d.d.d.V 2 g 9.d.f.H.F.F.F.F.L.`.`.`.`.{.G.F.F.F.F.C.1.2.2.",
"                  k k c P H 0.d.d.d.d.s.r.r.r.r.r.q.d.d.V 2 g 9.d.f.S.G.G.F.F.L.'.).(./.(.J.G.G.F.F.B.*.*.  ",
"            g g k K L P P H 0.d.s.s.d.q.b g j j g V d.d.V g g 9.d.f._.{.I.F.F.B.2.2.%.) _ (.{.I.F.F.n.) )   ",
"            g g k L P P P H 0.d.d.d.d.q.l 2 g g 2 V d.d.V 2 g 9.t.f.).`.I.F.F.B.1.1.%.y ) /.|.[.F.F.n.f ) ) ",
"            g g k L P P P H 6.w.w.w.w.0.V B B B B V 8.8.V B V u.j.v._.`._.C.C.m.E.E.,.>.>./.(.].V.V.z.f )   ",
"            g g k L P P P P P P H H H P e.d.d.d.d.Z g g Z d.d.Z.F.G.{.`.(.1.1.Q.3X2X2X3X2XY.1.*.) ) )       ",
"            g g k L P P P P P P P P H P e.d.d.d.d.Z g g Z d.d.Z.F.G.{.`.(.-.-.Q.2X2X2X2X2XY.2.*.) ) )       ",
"        g g c N N P P P P P P P P P P P 6.0.7.Z Z B c c I 0.0.A.F.G.{.`.'.Q.Q.2X8X8X4X2X1X( r a )           ",
"      g g g G P P P P P P P P P P P P P H H D g 2 c P P P P P A.F.G.{.`.XX3X2X8XwXwX6X2X1X- . .             ",
"      g g g G P P P P P P P P P P P P P P P D g g c P P P P P A.F.G.{.`.XX2X2X8XwXwX6X2X1X- . .             ",
"      g g g G P P P P P P P P P P P P L c x k g g g x x A ! ! c.m.m.J.K.OX0X0X!.s ~ ` &.$.# . .             ",
"      g g g G P P P P P P P P P P P P K j g g g g g g g R ) ) &.1.x.H.F.U.wXyX4.. . w E y O . .             ",
"      2 g g G P P L K H G G G G G H H K n m m m m m z z R E ) *.2.c.S.H.U.wXyXW.* * a ( d = @ @             ",
"  . . , g g G P K k k 1 $ $ $ $ $ 2 k n 5X9X9X9X9X4X^.^.>.i ) /.'.).c.c.].wXwXiXrXrX$X#X#X!.^.W.O . .       ",
". . . , g g G P K g g , . . . . . , g m 9XyXyXwXyX0X2X3X>.i ) /.|.'.2.1.Q.wXwXuXpXpX=X+X@X,X3X~.O . .       ",
"  . . , g g N G N 1 1 < . . . . . < 1 z 5X8X9XwXwX0X4X6X,.i ) m.oXM.-.&.R.wXwXuXpXpX=X+X@X>X3X!.O . .       ",
"  . . , g g g g 2 . . .           . . O &.2.R.qXwXwXqXwXE.i E C.F.S.:.i ,.wXwXuXpXpX=X+X@X>X3X!.O . .       ",
"  . . , g g g g 1 . . .           . . O &.2.R.wXwXwXwXwXE.y E C.F.S.W i >.qXwXuXpXpX=X+X@X,X4X~.O . .       ",
"  . . , g g , , < . .             . . X / ( ] 3X3X7XeXeX!.&.;.S.F.S.W i >.wXwXiXaXaX<X$X$Xo.<.O.O .         ",
"  . . , g g o . .                 . . . . . = *.-.&X-X-X;X.X|.K.F.S.W i >.wXwXwXwXwX6X2X1X- . .             ",
". . . , g g o . .                 . . . . . = 1.-.&X-X-X;X.X`.K.F.S.W y >.wXwXwXwXwX6X3X1X- . .             ",
"      % % % o                     l.l.l.=.=.` r r q } } v.J.P.z.z.z.E.E.~.6X6X6X6X6X<.^ ^                   ",
"      . . .                       F.F.F.}. XY.. . . . . l.F.F.#.d _ 1X3X3X2X2X2X2X2Xs . .                   ",
"      . . .                       H.H.H._.`.x.X . . . . l.F.H.#.y _ XX2X2X2X2X1X1X2Xs . .                   ",
"                                  8 8 8 6 6 6 1 1 % . . =.oXM.r @ & A A A A A S 6 6                         ",
"                                  . . . . . o g g , . . =. X`.6 . . 1 g g g g < . .                         ",
"                                  . . . . . $ j k 1 o o ] /.T.6 . $ 2 g g k k , o $                         ",
"                                        . . % G K H G G 4 @ @ 1 2 2 g g x K K H G G > . .                   ",
"                                        . . % P P P P P 1 . . 1 g g g g x P P P P P > . .                   ",
"                                        9 9 0 P P P P P 4 = = j x x x x x v v D P P 3 > >                   ",
"                                  . . + |  ...P P P P H Q f ) Y H P P P c . . 3 P P P P G $ . .             ",
"                                  . . . | ....H H H H H Q ) ) Y J J J J v . . 3 P P H H G $ . .             ",
"                                  @.o.o.{ 0 q A Q Y H H Q ) ) k.:X:X:X:Xk.. . 3 P P u.v.i.& . .             ",
"                            . . . >XyX0X- . # i f Q H H Q ) _ tXpXpXpXpX<X. . 3 P H N.F.H.5 . .             ",
"                            . . . >XyX9X- . # i ) Q H H Q ) _ tXpXpXpXpX<X. . 3 P H N.F.H.5 . .             ",
"                                  ~ ^ ^ T v n a.a.' ! ! 7 = = +.*X*X*X*X+.e e 6 > > [ u.h.% . . . .         ",
"                                  . . . D P 5.t.y.' f f = . . {  . . . .X.) ) 7 . . v H G $ . . . . .       ",
"                                  . . o D H 5.s.d.' ) ) 6 o o { | | ....X.) ) w @ @ v K D % . . . . .       ",
"                              . . . . o D H 5.s.d.p.p.p.9.9.8.4 + * d ( ( ) i 3.7X7X~ $ % 7 7 ; . . .       ",
"                            . . . . . o D P 5.d.d.d.d.d.d.d.s.< . O y ) ) i y ~.yXyX^ . . 7 p 7 . . .       ",
"                            . . . O # & c F U 8.8.9.d.d.d.d.t.4 o @ t t ( $.$.~.4X4X~ X @ ; 7 ; . . .       ",
"                            . . . e E u O . . . . z d.d.d.d.s.b 2 1 X . ~ 0XqX4.X + ; w w O . .             ",
"                            . . . e ) y O . . . . z d.d.d.d.d.b g 2 . . ~ yXyX4.. . ; p w O . .             ",
"                            . . . e ) y = & & & & 4 C C C C C 2 , < . . 6 !.!.X.. . = ; - X . .             ",
"                            . . . e ) f p p p p p - . . . . . . . . . . . . . . . . . . .                   ",
"                            . . . e ) ) p p p p p - . . . . . . . . . . . . . . . . . . .                   ",
"                                  = : : t d a p p 7 - - @ . . .                                             ",
"                                  . . X u ) d p p p p p & . .                                               ",
"                                  . . X u ) d p p p p p & . .                                               ",
"                                        & & # @ @ @ @ @ X . .                                               ",
"                                        . . . . . . . . . . .                                               ",
"                                        . . . . . . . . . . .                                               "
};
