/* XPM */
static char *right__281_29[] = {
/* columns rows colors chars-per-pixel */
"55 64 225 2 ",
"   c None",
".  c #000001",
"X  c #0A0604",
"o  c #020A03",
"O  c #0B0A09",
"+  c #0B0907",
"@  c #140C09",
"#  c #031306",
"$  c #081907",
"%  c #1A140A",
"&  c #0B1012",
"*  c #22130D",
"=  c #271A0E",
"-  c #261511",
";  c #331D13",
":  c #321B0D",
">  c #092B09",
",  c #06260B",
"<  c #0A320B",
"1  c #0B3D0C",
"2  c #073409",
"3  c #16370F",
"4  c #073B14",
"5  c #18290E",
"6  c #222205",
"7  c #29221C",
"8  c #3E221B",
"9  c #372414",
"0  c #2A3517",
"q  c #3D3428",
"w  c #302920",
"e  c #152B33",
"r  c #492918",
"t  c #522E17",
"y  c #493B1C",
"u  c #5B341A",
"i  c #6E3D1E",
"p  c #64381C",
"a  c #713E1E",
"s  c #4B2A20",
"d  c #4A3E31",
"f  c #493125",
"g  c #683B21",
"h  c #723F20",
"j  c #0D420D",
"k  c #0D480F",
"l  c #10470E",
"z  c #10490F",
"x  c #0E4C12",
"c  c #0A4718",
"v  c #1A4615",
"b  c #0E5416",
"n  c #0A541B",
"m  c #0E5D1A",
"M  c #165211",
"N  c #175A18",
"B  c #2A5118",
"V  c #0F631D",
"C  c #1E6116",
"Z  c #17641E",
"A  c #226818",
"S  c #26731C",
"D  c #2D751C",
"F  c #3F7E18",
"G  c #0E5B20",
"H  c #3D4F31",
"J  c #0D6421",
"K  c #0F6B23",
"L  c #0F7325",
"P  c #0E7B29",
"I  c #0B7B25",
"U  c #107325",
"Y  c #107B29",
"T  c #197827",
"R  c #157125",
"E  c #287126",
"W  c #59471D",
"Q  c #74401E",
"!  c #6A481D",
"~  c #656402",
"^  c #766619",
"/  c #5A4722",
"(  c #594639",
")  c #4C5328",
"_  c #684923",
"`  c #744221",
"'  c #7B4826",
"]  c #6A512F",
"[  c #5B7124",
"{  c #5A683C",
"}  c #517536",
"|  c #777730",
" . c #233648",
".. c #233A53",
"X. c #3D4F42",
"o. c #2D4C6B",
"O. c #325475",
"+. c #2E5071",
"@. c #4D514F",
"#. c #705E49",
"$. c #776752",
"%. c #434C79",
"&. c #66745A",
"*. c #8C631A",
"=. c #907E0B",
"-. c #845329",
";. c #8A582A",
":. c #875835",
">. c #915F2E",
",. c #886535",
"<. c #986E33",
"1. c #A77C3E",
"2. c #A17F16",
"3. c #977746",
"4. c #906F4E",
"5. c #A47A41",
"6. c #A47941",
"7. c #A57B56",
"8. c #947D61",
"9. c #2F821F",
"0. c #198229",
"q. c #1C8133",
"w. c #248C29",
"e. c #2C8925",
"r. c #328521",
"t. c #2A9229",
"y. c #399425",
"u. c #3A9E29",
"i. c #369928",
"p. c #3FA129",
"a. c #4C981D",
"s. c #4A9628",
"d. c #7C953F",
"f. c #41A529",
"g. c #46A72A",
"h. c #5CAB29",
"j. c #64B522",
"k. c #59A51D",
"l. c #769F66",
"z. c #AA833D",
"x. c #B89735",
"c. c #BE8E3D",
"v. c #B9A72C",
"b. c #89911F",
"n. c #CDB814",
"m. c #CBB129",
"M. c #E6BF3F",
"N. c #8DC216",
"B. c #B9DA0D",
"V. c #A9D713",
"C. c #DBCB15",
"Z. c #E5D814",
"A. c #D6E70E",
"S. c #EDE906",
"D. c #F5ED0B",
"F. c #FFFE01",
"G. c #F8F507",
"H. c #F4E41B",
"J. c #FFFC1D",
"K. c #EDD22D",
"L. c #EDD527",
"P. c #F0D925",
"I. c #EACA34",
"U. c #E7C538",
"Y. c #ECD032",
"T. c #AD8347",
"R. c #B78A44",
"E. c #B38C56",
"W. c #B78F4C",
"Q. c #ACAC43",
"!. c #96896C",
"~. c #AE9370",
"^. c #9FA879",
"/. c #C8994A",
"(. c #D8A84D",
"). c #DFB14B",
"_. c #DDAA53",
"`. c #D9A954",
"'. c #C6AC48",
"]. c #E3B847",
"[. c #E2AD53",
"{. c #E5B155",
"}. c #C6A17A",
"|. c #C19D6C",
" X c #2C4F9B",
".X c #2F519D",
"XX c #00709C",
"oX c #546B92",
"OX c #739281",
"+X c #70B3AA",
"@X c #02BDFF",
"#X c #9D9392",
"$X c #81859A",
"%X c #85BC92",
"&X c #B6A385",
"*X c #B8B88A",
"=X c #9BAEB9",
"-X c #B4B3B3",
";X c #8897A7",
":X c #CAAC86",
">X c #D4B38A",
",X c #D8B68D",
"<X c #D8B68C",
"1X c #D9BC95",
"2X c #CFB48F",
"3X c #BCC894",
"4X c #E4C69B",
"5X c #DAC9A3",
"6X c #EACDA4",
"7X c #ECD2A9",
"8X c #F8DDB4",
"9X c #EFD6B1",
"0X c #FEE6BC",
"qX c #FEE8BA",
"wX c #D3C499",
"eX c #9EAED0",
"rX c #A8B3CE",
"tX c #D0DBD3",
"yX c #D6E9DA",
"uX c #FFEAC1",
"iX c #FFECCC",
"pX c #FFEED1",
"aX c #FFF0C5",
"sX c #FFFFFF",
"dX c #FCFAF4",
/* pixels */
"                                                      Y Y Y b j l y.f.s.` Q -.5.5.5.5.5.                      ",
"                                                        P P b j l y.f.s._ a -.5.5.5.5.5.                      ",
"                                                      w.0.0.b j l y.f.s.;.;.<.R.R.c.x.x.m.                    ",
"                                      Y P 0.p.f.f.f.f.f.f.f.C j z y.f.h.(._._._._.K.F.F.I._._.T.5.5.          ",
"                                      P P 0.p.f.f.f.f.f.f.f.C j k y.p.h.`._._._._.K.F.F.I._._.T.5.5.          ",
"                                      w.w.t.f.f.f.f.f.f.f.f.C j j y.p.h.I.K.K.K.K.L.P.P.L.K.K.m.m.m.          ",
"                      j j V Y Y Y Y Y u.f.f.f.f.f.f.f.f.f.f.C j j y.f.j.G.F.F.F.F.P._._.H.F.F.F.F.D.z.5.5.    ",
"                      j j V Y Y Y P Y u.f.f.f.f.f.f.f.f.f.f.C 1 j y.p.j.G.F.F.F.F.P._._.H.F.F.F.F.D.z.5.5.    ",
"                j j b V V L Y Y w.i.i.p.f.f.f.f.f.f.f.r.C A D 9.r.Q.Q.Q.U.I.P.F.F.P._._.M.I.I.I.I.I.C.C.n.5.5.",
"                j j b Y Y Y Y Y i.f.f.f.f.f.f.f.f.f.f.S 1 j r.g.g.'.[.[._._.U.F.F.P._._._._._._._.].F.F.Z.5.5.",
"                j j b Y Y Y Y Y i.f.f.p.p.p.p.p.p.f.f.S j j r.f.g.'.[.).)._.U.F.F.L.(.(._._._.(.(.).G.F.Z.5.5.",
"          j j x K L U Y Y Y Y Y i.f.u.C M M M M S f.f.S j j r.f.g.A.D.D.D.D.Z.x.x.<.-.-./.[._.<.-.;.*.*.*.    ",
"          j j x Y Y Y Y Y Y Y Y i.f.u.M 1 j j 1 C f.f.S 1 j r.f.g.A.F.F.F.F.Z.5.5.>.a a R.[._.-.a a h h h     ",
"          x x b Y Y Y Y Y Y Y Y t.u.i.N M M M M A y.y.S M M a.j.j.A.G.D.D.D.C.T.T.3.:.:.1.W.R.-.Q ` ` ` `     ",
"    . . o K Y Y Y Y Y Y Y Y Y Y Y Y 0.i.u.u.u.p.9.z j S p.u.B.G.G.].[.(.z.z.E.:X>X:X:X:X( X +                 ",
"    . . o K Y Y Y Y Y Y Y Y Y Y Y Y Y u.f.f.f.g.r.j 1 S f.f.A.F.F.]._.(.5.1.E.>X>X>X>X<Xd . .                 ",
"    . . o K Y Y Y Y Y Y Y Y Y Y Y Y Y t.i.i.r.r.S b b S i.i.B.F.F.]._.`.E.E.|.4X4X1X>X<Xd . .                 ",
"    . . o K Y Y Y Y Y Y Y Y Y Y Y Y Y Y Y L j j b Y Y Y Y P B.F.F.]._._.>X>X4X0X0X6X>X<Xd . .                 ",
"    . . o K Y Y Y Y Y Y Y Y Y Y Y Y Y Y Y U j j b Y Y P I I B.F.F.]._._.>X>X4XuXuX7X<X,Xd . .                 ",
". . $ , > K Y Y Y Y L m m m m m U Y Y V m m V V m m m } d.d.v.n.n.L.P.Y.4X7X2X$.$.4.7.7.8 . .                 ",
". . < j k U Y Y Y Y V j j j j j K Y U x 1 x Y Y K j 1 | [.[.R.6.1.S.F.J.qXuX&X. . : Q Q = . .                 ",
". . < j j U Y Y Y Y V j j j j j K Y U x j x Y Y K j j | [._.R.5.z.S.F.J.qXuX&X. . ; ` ` = . .                 ",
". . < j j U Y U b b 1 # # > j j x b N ^.*X*X3X3X*X!.!.3.>.>.R././.m.v.'.qX0X9X-X-X$X%.%.$.!.8.7 . .           ",
". . < j j U Y L j j > . . , j j j j v 5XuXuXuXuX8X,X,X7.i a R.[._.T.6.E.8X0XpXsXsXeX X.X#X,X>X7 . .           ",
". . < j j U Y K 1 1 > . . , 1 1 1 1 v wXqX8X0X0X9X,X1X7.a ` c.].).T.1.E.8X0XpXsXsXeX X.X#X<X:X7 . .           ",
". . < j j U Y J o o o     o o o o o O 3.E.~.0X0X0XqX0X~.i ` n.G.D.*.` ,.8X0XpXsXsXeX X.X#X<X:X7 . .           ",
". . < j k U Y J . . .     . . . . . X ,.1.E.0X0X0X0X0X~.i a C.F.G.*.i :.8X0XpXsXsXeX X.X#X,X>X7 . .           ",
". . > < 1 J U m . . .       . . . . X ] ,.3.4X6X7XtXtX~.;.;.C.F.G.*.i :.8X0XiXdXdXrXoXoX!.~.!.7 . .           ",
"    . . o 1 j < . . .           . . . . . * 3.5.OX@X@X+X_._.H.F.G.*.a :.8X0X0X0XuX6X>X>X( . o                 ",
"    . . . 1 j < . . .           . . . . . % 1.1.OX@X@X+X[._.H.F.F.*.i :.8X0X0X0X0X7X,X,Xd . .                 ",
"      . . , > , . .             ~ ~ ~ W / / _ _ @.XXXXl.K.I.n.n.n.5.4.7.6X7X7X7X7X&X$.4.q . .                 ",
"          . . .                 F.F.F.].[.R.X . . . . =.F.F.2.h ' }.,X<X>X>X>X>X,X#.. .                       ",
"          . . .                 F.F.F.].[.R.+ . . . . b.F.F.b.h ' }.,X,X,X,X,X,X1X#.. .                       ",
"                                ~ ~ ~ W / y > > $ . . ^ Y.I.! = : { { { { { { ( ( q                           ",
"                                . . . . . o j j > . . ] [._.y . . 2 j j j j > . . .                           ",
"                                . . . . . o j j > . . ] _._.y . o < j j j j < . . .                           ",
"                                . . . r u y K K K V J v 9 9 ,.R.z.6 o $ K U n . . . . .                       ",
"                                . . . p ` _ Y P Y Y Y 4 . . <.{.(.= . # L 0.n . . . . .                       ",
"                                O & & t p W E T T Y Y c X + ,./.R.* . # L Y Z 6 6 % $ $                       ",
"                            . .  .+.o.& X % ! _ ) Y P H i i : @ @ . . # L P a.S.S.N.y.y.3 . .                 ",
"                          . . . ..O.+.& . @ i ` ) P P ) ` ` * . . . . o L P k.F.F.V.p.f.3 . .                 ",
"                          w q q  .....& # % i Q / E E H t t 5 , , H @.X.G n F B.B.N.p.f.3 . .                 ",
"                      . . #.,X>Xq . . 1 j v Q ` Q Q ` 9 . . n Y q.yXsXtX& . , Y Y t.f.f.3 . .                 ",
"                      . . #.1X,Xf . . < j v i h a a ` 9 . . n I Y yXsXtX& . , Y P t.f.f.3 . .                 ",
"                      . . q #.#.0 $ , A S D [ [ [ [ [ 0 . . &.%X%X=X=X;X .e e c 4 Z t.t.< . .                 ",
"                      . . . . . > j z y.f.f.p.f.f.f.g.B . . -XsXsXoXo.+.O.O.... . 4 P P , . .                 ",
"                      . . . . . > j z y.f.f.f.f.f.f.f.B . . -XsXdXoX+.O.O.O.... . 4 Y Y , . .                 ",
"                          . . . o # $ T w.w.p.f.f.f.f.S n n X.@.@.( ( ( ( ( f . . # , , o . .                 ",
"                          . . . . . . J P 0.p.f.f.f.f.t.P Y , . . u Q Q Q Q t . . . . . . . .                 ",
"                          . . . . X + J L T u.p.f.f.f.t.Y Y , . X g ' ' ' ' u . . . . . . . .                 ",
"                          . . . r p u $ # , T 0.w.f.f.p.u.u.3 . O :X6X6X6X7X~.. . % 8 8 8 8 8 + . . . . .     ",
"                          . . . t ` i @ . # L P w.f.f.f.f.f.3 . O 5XuXuXuXaX&X. . * s s s s r X . . . . .     ",
"                          . . . t ` i % X $ J J R r.r.r.r.r.5 . O ~.1X1X1X1X!.. . * s s s s t * @ @ . . .     ",
"                          . . . t ` h r r 8 o . . o . . . . . . . O O O O O X . . * s s g ` ` i i u X . .     ",
"                          . . . t ` ` s s 8 . . . . . . . . . . . . . . . . . . . - s s g ` ` ` ` p X . .     ",
"                            . . 9 r r r s r % % @ . . . . . . . . . . . . . . . . @ ; ; r r r r r r X .       ",
"                                . . . 8 s s s s ; . .                         . . . . . . . . . . .           ",
"                                . . . 8 s s s s ; . . .                       . . . . . . . . . . .           ",
"                                      % * * * * @ . . .                                                       ",
"                                      . . . . . . . . .                                                       ",
"                                      . . . . . . . .                                                         ",
"                                                                                                              ",
"                                                                                                              ",
"                                                                                                              "
};
