/* XPM */
static char *f__282_29__283_29[] = {
/* columns rows colors chars-per-pixel */
"49 64 222 2 ",
"   c None",
".  c #000001",
"X  c #090604",
"o  c #020A04",
"O  c #080807",
"+  c #100A09",
"@  c #190E0A",
"#  c #031206",
"$  c #061C06",
"%  c #031B0A",
"&  c #041708",
"*  c #1B120B",
"=  c #111212",
"-  c #000B10",
";  c #24170B",
":  c #271913",
">  c #361F10",
",  c #0D240A",
"<  c #082B09",
"1  c #06260A",
"2  c #0A310A",
"3  c #0A3E0B",
"4  c #15330E",
"5  c #093812",
"6  c #0F3410",
"7  c #242401",
"8  c #26221C",
"9  c #3A2614",
"0  c #323419",
"q  c #061B23",
"w  c #372E24",
"e  c #383026",
"r  c #47281B",
"t  c #46361C",
"y  c #5A3419",
"u  c #512F18",
"i  c #673A1C",
"p  c #713E1E",
"a  c #4A2920",
"s  c #593521",
"d  c #493D30",
"f  c #463A2D",
"g  c #733E20",
"h  c #653920",
"j  c #0D420D",
"k  c #11490F",
"l  c #13420E",
"z  c #0D4B12",
"x  c #094718",
"c  c #144F11",
"v  c #1D4913",
"b  c #0E5315",
"n  c #0D5B1C",
"m  c #0B551C",
"M  c #145212",
"N  c #185815",
"B  c #225716",
"V  c #0E641E",
"C  c #19641B",
"Z  c #317B1F",
"A  c #296E1B",
"S  c #0F6C22",
"D  c #0D6421",
"F  c #196925",
"G  c #0F7225",
"H  c #0E7A29",
"J  c #0E7728",
"K  c #117526",
"L  c #167628",
"P  c #107B29",
"I  c #1A7A2A",
"U  c #1D7231",
"Y  c #2A6A26",
"T  c #306E2A",
"R  c #3E5E25",
"E  c #585901",
"W  c #74431F",
"Q  c #65421E",
"!  c #594323",
"~  c #514D2F",
"^  c #654922",
"/  c #6D4D21",
"(  c #694722",
")  c #744221",
"_  c #7B4A26",
"`  c #715332",
"'  c #4F6A34",
"]  c #6E6017",
"[  c #303E4E",
"{  c #2D4258",
"}  c #004C69",
"|  c #3A4E64",
" . c #3C5168",
".. c #2E4F71",
"X. c #0F485A",
"o. c #685744",
"O. c #5C7847",
"+. c #42617F",
"@. c #746A64",
"#. c #7C6951",
"$. c #8D6A1C",
"%. c #85552C",
"&. c #85542D",
"*. c #8E6132",
"=. c #856535",
"-. c #976B38",
";. c #9B773C",
":. c #8A7B3D",
">. c #A57C3F",
",. c #A0773F",
"<. c #966945",
"1. c #9F7B41",
"2. c #9D7553",
"3. c #86714C",
"4. c #A47B42",
"5. c #A77D44",
"6. c #A57B54",
"7. c #907D68",
"8. c #168229",
"9. c #268D29",
"0. c #328B22",
"q. c #2D9429",
"w. c #3A9625",
"e. c #3D9D27",
"r. c #329529",
"t. c #359828",
"y. c #22863A",
"u. c #3EA229",
"i. c #459C28",
"p. c #449827",
"a. c #55982D",
"s. c #478A29",
"d. c #41A429",
"f. c #46A929",
"g. c #57AB22",
"h. c #63A42C",
"j. c #74A613",
"k. c #7EC11D",
"l. c #5D9957",
"z. c #949400",
"x. c #AA843C",
"c. c #BA9A32",
"v. c #B69435",
"b. c #B79734",
"n. c #BEA12E",
"m. c #88BA15",
"M. c #D0BF0B",
"N. c #C09B3D",
"B. c #C0A42D",
"V. c #D3B62F",
"C. c #91C313",
"Z. c #DCD316",
"A. c #D6CB10",
"S. c #E0D507",
"D. c #E0DF0E",
"F. c #E5D814",
"G. c #ECEC00",
"H. c #ECE40D",
"J. c #EDF703",
"K. c #FFFE00",
"L. c #F6F505",
"P. c #F5EB0F",
"I. c #DFC230",
"U. c #E9C939",
"Y. c #EAD637",
"T. c #EFD32D",
"R. c #F2E82B",
"E. c #EFE233",
"W. c #D8EC08",
"Q. c #AC8243",
"!. c #AD854E",
"~. c #B68945",
"^. c #B58D5A",
"/. c #B3A947",
"(. c #B19475",
"). c #9CA375",
"_. c #9C876B",
"`. c #C7994B",
"'. c #D19F4B",
"]. c #D4A34E",
"[. c #DFAF4F",
"{. c #DDAB53",
"}. c #D5A350",
"|. c #C4B144",
" X c #E1AE53",
".X c #E2B052",
"XX c #C19D69",
"oX c #C6A277",
"OX c #2B4E9B",
"+X c #2E509D",
"@X c #436281",
"#X c #7F8092",
"$X c #23ADD8",
"%X c #00B5F7",
"&X c #78C1CD",
"*X c #928C93",
"=X c #B4B7B6",
"-X c #AF9E82",
";X c #CEAB83",
":X c #D5B48B",
">X c #DBBA8E",
",X c #D5B488",
"<X c #DDBD95",
"1X c #CDB28D",
"2X c #E4C69B",
"3X c #EACCA3",
"4X c #E7C9A0",
"5X c #F1D7AE",
"6X c #FFE6BD",
"7X c #FFE8BE",
"8X c #FAE0B7",
"9X c #DCC1A1",
"0X c #91A4CC",
"qX c #9CCDCE",
"wX c #CFD0D1",
"eX c #FFEAC1",
"rX c #FFEBCB",
"tX c #FFF2DB",
"yX c #DEEDE2",
"uX c #E3EBEA",
"iX c white",
"pX c #ECF0EA",
/* pixels */
"                            P P P r.d.d.d.d.d.d.d.w.k j z P H Y ) W %.5.4.                        ",
"                            P P P r.d.d.d.d.d.d.d.w.k j z P H Y g g %.4.4.                        ",
"                  P P P P H 9.r.r.u.d.d.d.d.d.d.d.w.k j M r.q.h.M.M.A.F.F.I.{.{.~.4.4.            ",
"                  P P P P H q.d.d.d.d.d.d.d.d.d.d.w.k j N d.u.k.K.K.K.K.K.T.{.{.~.4.4.            ",
"                  P P P P P q.d.d.d.d.d.d.d.d.d.d.w.k j N d.u.k.K.K.K.K.K.T.{.{.~.4.5.            ",
"            j j n P H 9.t.t.u.d.d.d.d.d.d.d.e.C N C 0.0.a././.|.U.U.V.c.n.v.~.~.V.F.F.c.4.5.      ",
"            j j b P H 9.d.d.d.d.d.d.d.d.d.d.e.c 3 c e.d.h.{. X X{.{.`.4.4.4.4.4.Z.K.K.c.4.4.      ",
"            j j n P H 9.d.u.d.d.d.d.d.d.d.d.e.M j M e.u.h.{.{.{.[.[.`.4.4.5.5.4.Z.K.L.n.5.x.      ",
"      j j b S G K P P P 8.8.r.d.d.d.d.d.d.d.e.M j M e.u.a.Q.Q.B.P.P.V.4.4.~.].].N.v.v.Z.H.H.v.4.4.",
"      j j b P P P P P P H H q.d.d.d.d.d.d.d.e.c j c e.u.a.4.4.B.K.K.A.4.4.`. X X~.4.4.F.K.K.v.4.4.",
"      j j b P P P P P P P H 9.e.e.e.e.e.e.e.w.M k N f.f.h.4.4.B.K.K.Z.5.5.`.}.].~.5.5.F.K.L.v.;.,.",
"      j j b P P P P P P P P V c c c c M M c M 0.w.g.W.J.Z.5.4.B.K.K.Y.;X;X6.&.&.~.}.].P.K.L.$._ _ ",
"      j j b P P P P P P P P n 3 j j j j j j k w.d.g.L.K.H.>.4.B.K.K.E.:X:X6.p p ~..X XP.K.L.$.g ) ",
"      z z b P P P P P P P P n z z z z z j j k r.e.g.L.K.H.>.4.n.L.L.Y.:X:X6._ &.~.].'.F.L.H.$.g ) ",
"j j z K K K P P P P P P P P P K K K K K z j j K P 0.J.K.H.>.4.>.x.x.^.:X:X;X;X;X<._ _ ;.x.x.      ",
"j j z P P P P P P P P P P P P P P P P P z j j G H 0.J.K.H.5.4.4.4.,.^.:X,X:X:X:X<.p ) -.4.4.      ",
"j j z P P P P P K G G G G G K P P K G G b z M T T s.D.H.F.v.v.v.!.!.XX<X<X:X:X:X<.y y *.5.4.      ",
"j j z P P P P P V j j j j j V P P b j j S H I :.1.1.x.x.c.L.K.R.:X:X2X7X7X4X,X:X~ . .             ",
"j j z P P P P P V j j j j j V P P b j j S P I :.5.5.4.4.c.K.K.R.:X,X3XeXeX3X,X:X~ . .             ",
"2 2 3 P P K S S m 2 2 3 j j n S S n b b V S F =.-.-.4.4.c.K.K.R.,X,X<X<X<X,XoXoXf . .             ",
". . & J P S j j < . . 1 j j j j j S P P z j l Q ) _ ;.4.c.K.K.R.,X:X^.) ) *.5.5.9 . .             ",
". . & J P S j j < . . $ j j j 3 3 V H J z 3 l Q ) _ ;.4.b.K.K.R.,X:X^.p W *.5.5.9 . .             ",
". . # V S n j j < . . $ j j R O.O.l.l.l.' ' ' ( p _ ~.~.N.F.F.U.2X2X^.p W *.4.4.` f f :           ",
". . o 3 j j j j < . . $ j 3 ).eX7X7X7X7X<X:X;X&.p &.]. X].4.,.XX7XeXoXp W *.5.4.oX:X,Xe . .       ",
". . o 3 j j j j < . . $ j j ).eXeX7X7X7X<X:X;X&.W &.].{.].5.,.XX7XeXoXp p %.5.>.oX:X:Xe . .       ",
". . # b n z < < $ . . & < 1 3.>X>X5X7X7X3X4X<Xs r y I.T.V.*.*.^.7X7X9X(.(.7.@.@.(.:X:Xe . .       ",
". . & J P n . . .       . . ! 5.,.2XeX7X7X7X5X8 . 7 G.K.S.W p 2.7X7XtXiXiX0XOXOX*X:X:Xe . .       ",
". . & J P n . . .       . . ^ Q.5.2XeX7X7X7X5X8 . 7 G.K.S.W p 2.7X7XtXiXiX0XOXOX*X>X:Xe . .       ",
". . # n V x . . .       . . 9 ! s ^.,X;XqXqX&Xq . 7 G.K.S.W p 2.7X7XrXtXtX=X#X*X@.o.o.8 .         ",
". . o 3 j 2 . . .       . . . . . ` 4.1.$X%X%Xq . 7 G.K.S.W p 2.7X7X7X7X7X3X:X>Xd . .             ",
". . o j j 2 . . .       . . . . . ` Q.5.$X%X%Xq . 7 G.K.S.W p 2.7X7X7X7XeX3X:X>X~ . .             ",
"    o & $ &             z.z.$.` =.! t t X.} } - . 7 G.K.S.W p <.4X4X4X3X3X_.~ ~ w                 ",
"      . . .             K.K.T. X.Xt . . . . . . . 7 G.K.S.W p <.,X,X,X,X:Xo.. .                   ",
"      . . .             K.K.T.{. Xt . . . . . . . 7 G.K.S.W p <.:X:X:X:X>Xo.. .                   ",
"                            ] t t 4 < < x m x o . ; V.U.n.: ; 0 ' ' ~ d d w                       ",
"                            . . . < j j K P J # . * '. XQ.. . # j j 1 . .                         ",
"                            . . . < j j S H G # . ; '. XQ.X . # j j 1 . .                         ",
"                            . . . x S S 2 % , r y u 9 9 0 n n V S S D n n 2 . .                   ",
"                            . . . m P P % . X i ) i . . % P P P P P H P 8.5 . .                   ",
"                            . . . m P H % . X i ) i O . % J H P P P P P P 5 X X                   ",
"                            . . . m P J % . o F Y Y D D m % & 5 P P H P H j.A.A.E . .             ",
"                            . . . m P J % . o S H H H P D . . 1 P P P J H C.K.K.E . .             ",
"                            o o o m I L % . o U y.y.y.y.F . . 1 L L L L K m.L.J.E . .             ",
"                        . . x S S ~ ^ ^ @ . = wXyXyXyXyX=XX . ; ^ ^ ^ ^ ^ ' 0.0.4 . .             ",
"                        . . x P P ~ g p @ . = yXiXiXiXiXwXO . ; ) ) ) ) ) R H H < . .             ",
"                        . . x P P ~ / / * . = wXuXuXuXpX=XX . ; / / / / / R 8.8.< . .             ",
"                        . . x P P r.i.p., . O  .@X@X+.@X| . . 4 i.i.i.i.i.i.u.u.4 . .             ",
"                        . . x P P r.d.u., . O { ........{ . . 4 d.d.d.d.d.d.d.f.4 . .             ",
"                        . . x D D r.d.u., . O {  .| |  .[ . . 4 e.e.u.d.d.w.0.0.4 . .             ",
"                            . . . A d.u., . X i ) ) ) ) y . . 1 P P 9.d.d.B . o                   ",
"                            . . . A f.d., . X i W p p p y . . 1 P H 9.f.f.v . .                   ",
"                              . . B Z Z $ . X ` *.*.<.<.` . . % n n C Z Z v . .                   ",
"                                  . . . . . + (.:X<X8X7X1XX . . . . . . .                         ",
"                                  . . . . . + (.<X<X7XeX1XX . . . . . . .                         ",
"                                    . . . . O #.7.7.(.-X7.* @ @ @ @ * ; ; @                       ",
"                                        . . . . . . . . + r a a a a s ) ) > . .                   ",
"                                        . . . . . . . . + r a a a a s ) ) > . .                   ",
"                                          . . . . . . . + r a a s s h ) ) > . .                   ",
"                                              . . . . . + r a s ) ) ) ) ) > . .                   ",
"                                              . . . . . + a a s ) ) ) ) ) > . .                   ",
"                                                . . . . O : : : 9 9 9 9 9 ;   .                   ",
"                                                          . . . . . . . .                         ",
"                                                          . . . . . . . .                         ",
"                                                                                                  "
};
