/* XPM */
static char *right__287_29[] = {
/* columns rows colors chars-per-pixel */
"53 64 226 2 ",
"   c None",
".  c #000101",
"X  c #0B0604",
"o  c #020C04",
"O  c #0D0A05",
"+  c #08090B",
"@  c #130A06",
"#  c #160C09",
"$  c #031204",
"%  c #051A09",
"&  c #1C110C",
"*  c #14180A",
"=  c #060C12",
"-  c #1B1814",
";  c #21130D",
":  c #28190D",
">  c #281A15",
",  c #341D14",
"<  c #371E0F",
"1  c #06260B",
"2  c #0B3E0C",
"3  c #09340A",
"4  c #073412",
"5  c #073A14",
"6  c #14330F",
"7  c #3A2516",
"8  c #332D14",
"9  c #0E1924",
"0  c #162738",
"q  c #262523",
"w  c #492915",
"e  c #49281E",
"r  c #44261E",
"t  c #532E17",
"y  c #5A341B",
"u  c #4D3A1F",
"i  c #6D3C1E",
"p  c #63381C",
"a  c #713E1E",
"s  c #4B2A20",
"d  c #4F3727",
"f  c #683A20",
"g  c #713E20",
"h  c #0D420D",
"j  c #0D4A12",
"k  c #0B4818",
"l  c #0E5315",
"z  c #0E5C1A",
"x  c #0C551B",
"c  c #165312",
"v  c #195C17",
"b  c #114B10",
"n  c #38481D",
"m  c #0F641E",
"M  c #1C6318",
"N  c #236917",
"B  c #2B7A1D",
"V  c #347D1A",
"C  c #3F5F25",
"Z  c #0E6C22",
"A  c #0C6522",
"S  c #146B23",
"D  c #0E7326",
"F  c #0E7B29",
"G  c #0A7925",
"H  c #107526",
"J  c #107B29",
"K  c #1A7928",
"L  c #376A28",
"P  c #3F6F37",
"I  c #74401F",
"U  c #7B4C1E",
"Y  c #615C0A",
"T  c #656601",
"R  c #594622",
"E  c #524C2E",
"W  c #744220",
"Q  c #784422",
"!  c #7B5C31",
"~  c #6D512B",
"^  c #5C6F3F",
"/  c #4E6935",
"(  c #293A4E",
")  c #2C4258",
"_  c #2D4B6A",
"`  c #315374",
"'  c #395A7A",
"]  c #3B4F66",
"[  c #216475",
"{  c #4C4C52",
"}  c #6D5C48",
"|  c #776955",
" . c #475170",
".. c #667259",
"X. c #8E6D1A",
"o. c #87562A",
"O. c #865836",
"+. c #915E2D",
"@. c #976835",
"#. c #9E743C",
"$. c #8F682C",
"%. c #A2783F",
"&. c #956A46",
"*. c #867158",
"=. c #937354",
"-. c #A47B41",
";. c #A87E42",
":. c #A17742",
">. c #A77D57",
",. c #937D62",
"<. c #805F42",
"1. c #158129",
"2. c #1A8429",
"3. c #1E882A",
"4. c #248C29",
"5. c #2A8825",
"6. c #348421",
"7. c #358D22",
"8. c #3D9F28",
"9. c #379726",
"0. c #37902F",
"q. c #3EA229",
"w. c #2E801F",
"e. c #4D9B1E",
"r. c #4B8426",
"t. c #518426",
"y. c #439925",
"u. c #73913C",
"i. c #41A529",
"p. c #49AA28",
"a. c #59AC22",
"s. c #5CB123",
"d. c #75A836",
"f. c #6FB724",
"g. c #55A21D",
"h. c #7FC11D",
"j. c #368F4B",
"k. c #5A9D67",
"l. c #AB833E",
"z. c #B99A31",
"x. c #BB9E27",
"c. c #86AA38",
"v. c #BEA12E",
"b. c #BFA13A",
"n. c #89A729",
"m. c #CBB70F",
"M. c #C4A92B",
"N. c #D0B42E",
"B. c #8ECA18",
"V. c #AED710",
"C. c #BEC22F",
"Z. c #D1C10A",
"A. c #D9D20C",
"S. c #E7DC0C",
"D. c #FFFE01",
"F. c #F7F804",
"G. c #F4E21D",
"H. c #F9EA18",
"J. c #EDEA0A",
"K. c #EDD32C",
"L. c #F1DB24",
"P. c #EBCB34",
"I. c #E3C137",
"U. c #E7CC2C",
"Y. c #DAC424",
"T. c #AB8249",
"R. c #B68C46",
"E. c #BE9148",
"W. c #B28C56",
"Q. c #BDA44C",
"!. c #9B876B",
"~. c #A78E6E",
"^. c #BD9873",
"/. c #AF916C",
"(. c #9CA26E",
"). c #B2AC73",
"_. c #C99B4A",
"`. c #C89C55",
"'. c #D5A44E",
"]. c #DEAB53",
"[. c #D6A550",
"{. c #C3BD43",
"}. c #E2B747",
"|. c #E1AD53",
" X c #E6B255",
".X c #C6A478",
"XX c #D6AF74",
"oX c #C09B75",
"OX c #E7CC71",
"+X c #FFF363",
"@X c #2C4F9C",
"#X c #077399",
"$X c #536699",
"%X c #6F7689",
"&X c #4D6AAB",
"*X c #606C93",
"=X c #39A8C2",
"-X c #05BDFE",
";X c #12BAF4",
":X c #8F9295",
">X c #BAB78B",
",X c #B1B1B2",
"<X c #CBAB84",
"1X c #D4B48B",
"2X c #D8B68D",
"3X c #D7B589",
"4X c #DCBB92",
"5X c #D3AF87",
"6X c #E4C59D",
"7X c #CFCEBC",
"8X c #EACDA5",
"9X c #EED2A8",
"0X c #F2D6AD",
"qX c #F8DDB2",
"wX c #FEE5BD",
"eX c #FEE6BD",
"rX c #BECBD1",
"tX c #CCD6D1",
"yX c #FFE9C1",
"uX c #FFE6C1",
"iX c #DDE3E3",
"pX c #FFF7EA",
"aX c #EFF1F7",
"sX c white",
"dX c #FAFAF5",
"fX c #EBECEC",
/* pixels */
"                                        J J 9.i.i.i.i.i.i.i.6.h h m J F R W Q #.;.-.                      ",
"                                        F F 9.i.i.i.i.i.i.i.6.h 2 z F F R g W #.-.:.                      ",
"                                      2.2.2.9.i.i.i.i.q.7.7.B v v V e.e.X.X.X.l.R.R.                      ",
"                            J J J J F 4.i.i.i.i.i.i.i.9.b h M i.q.V.D.D.D.D.F.}.].].].]._.:.-.            ",
"                            F F F F F 4.i.i.i.i.i.i.i.9.h 2 M q.q.V.D.D.D.D.D.}.].].].]._.:.:.            ",
"                          1.4.4.4.4.4.9.i.i.i.i.i.w.B B N N r.c.c.C.L.L.L.L.L.K.K.K.K.K.N.E.E.R.          ",
"                h h h Z J 1.q.i.i.i.i.i.i.i.i.i.8.c 2 c q.q.d.|.|.].].].].].}.F.D.D.D.D.G.].|.E.:.-.      ",
"                h h h Z J 1.q.i.i.i.i.i.i.i.i.i.8.c h c 8.q.d.].].].].].].].}.F.D.D.D.D.G.].].E.:.:.      ",
"            h h z m m H J 1.q.i.i.i.i.i.i.i.i.i.8.c h c 8.q.f.G.G.G.G.G.M.R.E.I.P.P.P.P.K.G.G.S.A.A.z.:.-.",
"            h h m J J J J 1.q.i.i.i.i.i.i.i.i.i.8.c h c 8.q.B.D.D.D.D.D.v.:.;.[.].].].].P.D.D.D.D.D.z.:.-.",
"            h h m J J J J 1.8.q.q.q.q.q.q.q.i.i.8.c h c 8.q.h.D.D.D.D.D.v.:.;.'.].].].].P.D.D.D.D.D.z.:.-.",
"      . . % h h m J J J J J 2.2.K c c c c c 7.i.8.c h c 8.q.d.}.}.L.D.D.v.:.%.o.o.@.].].}.}.}.G.D.D.z.:.-.",
"      . . % h h m J J J J J F F Z h h h 2 2 6.i.q.c 2 c 8.q.d.].].L.D.D.v.:.#.Q i o.].].].].].L.D.D.z.:.-.",
"      . . 1 j j Z J J J J J J J Z j j b c c B 9.9.v c N a.s.c.].].U.J.J.b.T.T.O.O.@.'.'.'.'.[.Y.S.S.z.:.;.",
"      . . 4 J H J J J J J J J J J H D 4.8.8.M h b 9.8.s.J.F.G.].]._.l.l..X1X5X<X<X.X;.;.;.;.;.+.U U       ",
"      . . 4 J J J J J J J J J J J J F 4.i.i.M h b 9.i.s.F.D.G.].].E.%.:..X2X1X1X2X.X;.;.;.-.;.o.I W       ",
"      . . 4 J J J J J J J J J J J J F 4.9.9.v h h 5.9.a.F.D.G.].].`.W.W.1X6X6X2X2X.X! ~ ! ;.;.o.I W       ",
"      . . 4 J J J J J J J J J J J J J J J J l h h D F 7.F.D.G.].].XX2X1X0XwXwX4X2X~.X . .                 ",
"      . . 4 J J J J J J J J J J J J J J J J l h h D G 9.F.D.G.].].XX1X1XqXyXwX4X2X~.X . .                 ",
". . o 1 1 k J J J J J J J J J J H z z z z z z m m u.u.c.N.N.Y.K.K.OX8X8X!.| | =.>.} X . .                 ",
". . $ h h z J J J J J J J J J J Z h h h h h Z J K Q.|.[.-.:.M.D.D.+XuXwXE . X p I y X . .                 ",
". . $ h h z J J J J J J J J J J Z h h h h h Z J K Q.|.'.;.:.M.D.D.+XuXwXE . X p W y X . .                 ",
". . $ h h z J J J J J z l l l j P >X>X>X>X>X).(.(.@.+.@._._._.v.v.OXwXwX7X,X,X$X . .,.!.} . .             ",
". . $ h h z J J J J J j h h h 2 ^ yXyXyXyXyX6X2X5XO.i o.[.|._.:.:.5XwXwXdXsXaX&X@X$X2X4X*.. .             ",
". . $ 2 2 x J J J H H j 2 2 2 3 / qXqXwXwXwX6X2X1XO.a o.].}._.%.#.5XyXwXpXsXaX&X@X$X1X2X*.. .             ",
"      o o 5 J J z j j $ o o o o 8 W.T.3XeXwXwXqX0XO.a X.J.F.m.Q Q oXyXwXpXsXaX&X@X$X1X2X*.. .             ",
"      . . 4 J J z h h o . . . . , ;.%.XXyXeXwXwXqXO.i X.F.D.Z.g a ^.yXwXpXsXaX&X@X$X1X4X*.. .             ",
"      . . 4 H Z j 3 3 o . . . . : O.! /.9X8X7XtXtX&.o.X.F.D.m.g a ^.yXwXpXdXfX*X$X*X~.~.} . .             ",
"      . . % h h % . .       . . . . . u T.;.=X-X;X).].}.D.D.Z.W a ^.yXwXwXwXwX4X1X~.+ X X                 ",
"      . . % h h % . .       . . . . . u T.;.=X-X-X).|.}.D.D.Z.a i ^.yXwXwXwXwX4X4X/.X . .                 ",
"      . . $ 1 1 $ . .       T T Y R R R ~ ~ [ #X#X{.P.U.m.m.x.&.&..X9X9X9X9X8X,.*.} X .                   ",
"            . .             D.D.H.|. X! . . . . O A.D.S.U i &.2X2X1X1X1X1X1X.X- . .                       ",
"            . .             D.D.H.|. X! . . . . O A.D.S.U a &.2X2X2X2X2X2X2X<X- . .                       ",
"                            T T Y R R n k k % . O M.K.N.< : 8 ^ ^ ^ ^ ^ E E E + . . . .                   ",
"                            . . . . . 5 1.J 1 . O R.|.R.X . $ h h h h h o . . . . . . . .                 ",
"                            . . . . . 5 J J 1 . O R.].R.O . $ h h h h h $ . . . . . . . .                 ",
"                                      % % % o . o L 0.L o . 1 Z Z l h h $ . + ( ) ( y y 7 . .             ",
"                                        . . . . o A F A o . 1 J J z h h $ . + _ `  .W W w . .             ",
"                                      . . . - q q S J Z O O 6 J J m j j 1 o % ) _ ) W W w . .             ",
"                                  . . . . . :XfXiXj.G K p i E J J J H H D D Z % + & i W w . .             ",
"                                  . . . . . ,XsXdXj.G S W Q E J J J J J F F D o . @ W Q w . .             ",
"                                  . . = 9 9 :XtXrXk.k.k.y t n J J J J J y.g.e.6 6 6 t t 7 . .             ",
"                            . . . . . 0 ` ` ` ` ' iXsXtX= . 1 J J J J J V.D.F.s.i.6.o . .                 ",
"                            . . . . . 0 ` ` ` ` ' iXsXtX= . 1 F F F F F V.D.F.s.i.6.o . .                 ",
"                          . . . @ < < d { { ] ` ` %X:X| 7 < 8 L C C C / n.V.B.p.i.6.o . .                 ",
"                      . . . . . ; W W W I I { ` _ = . @ i W W W W W W W t.q.q.i.i.6.o . .                 ",
"                      . . . . . ; W W W W W { ` _ = . @ i W W W W W W W t.i.i.i.i.6.o . .                 ",
"                      . . X w w ~ /./.&.W W q 9 9 k x v r.t.t.t.t.t.t.t.y.i.q.4.4.S o . . . . . . .       ",
"                      . . @ i I &.2X4X>.a W ; . o Z J 2.q.i.i.i.i.i.i.i.i.i.q.1.F A o . . . . . . .       ",
"                      . . O i i O.<X<X=.i i : o o Z J 2.q.i.i.i.i.i.i.i.q.q.8.K D z o . . X X X X X       ",
"                      . . X e s r > > & @ @ k Z Z 9.8.8.i.i.i.i.i.i.i.i.4.1.K 1 $ $ . . ; p p p p y # . . ",
"                      . . X r s , . . . . . x 1.1.q.i.i.i.i.i.i.i.i.i.i.3.F D o . . . . : W W W W W & . . ",
"                      . . X , 7 , O O X . . k A A B 6.6.6.6.6.6.6.6.6.6.S A z * @ @ O O , g f g W W & . . ",
"                            . . # r e ; . . o o o o o o o o o o o o o o o o X y i p e r e s s f W W & . . ",
"                            . . # s s > . . . . . . . . . . . . . . . . . . X p W f s s s s s f W W & . . ",
"                            . . @ , , # . . . . . . . . . . . . . . . . . . X y f p s s s s s e w w # . . ",
"                                  . . . . .                             . . X r s s s s s s s & . .       ",
"                                  . . . . .                             . . X r s s s s s s s ; . .       ",
"                                                                              & ; & ; & ; ; ; #           ",
"                                                                              . . . . . . . .             ",
"                                                                              . . . . . . . .             ",
"                                                                                                          ",
"                                                                                                          ",
"                                                                                                          "
};
