/* XPM */
static char *f__282_29__282_29[] = {
/* columns rows colors chars-per-pixel */
"49 64 221 2 ",
"   c None",
".  c #000001",
"X  c #090604",
"o  c #020A04",
"O  c #080807",
"+  c #100A09",
"@  c #190E0A",
"#  c #031206",
"$  c #061C06",
"%  c #031B0A",
"&  c #041708",
"*  c #1B120B",
"=  c #111212",
"-  c #000B10",
";  c #24170B",
":  c #271913",
">  c #361F10",
",  c #0D240A",
"<  c #082B09",
"1  c #06260A",
"2  c #0A310A",
"3  c #0A3E0B",
"4  c #15330E",
"5  c #093812",
"6  c #0F3410",
"7  c #242401",
"8  c #26221C",
"9  c #3A2614",
"0  c #323419",
"q  c #061B23",
"w  c #372E24",
"e  c #383026",
"r  c #47281B",
"t  c #46361C",
"y  c #5A3419",
"u  c #512F18",
"i  c #673A1C",
"p  c #713E1E",
"a  c #4A2920",
"s  c #593521",
"d  c #493D31",
"f  c #463A2D",
"g  c #733E20",
"h  c #653920",
"j  c #0D420D",
"k  c #11490F",
"l  c #13420E",
"z  c #0D4B12",
"x  c #094919",
"c  c #094315",
"v  c #144F11",
"b  c #1D4913",
"n  c #0E5315",
"m  c #0B551C",
"M  c #0D5B1C",
"N  c #145212",
"B  c #185815",
"V  c #225716",
"C  c #0E641E",
"Z  c #19641B",
"A  c #317B1F",
"S  c #296E1B",
"D  c #0D6421",
"F  c #0F6C22",
"G  c #196925",
"H  c #0F7225",
"J  c #0E7A29",
"K  c #0E7728",
"L  c #117526",
"P  c #167628",
"I  c #107B29",
"U  c #1A7A2A",
"Y  c #1D7231",
"T  c #2A6A26",
"R  c #306E2A",
"E  c #3E5E25",
"W  c #585901",
"Q  c #75441F",
"!  c #65421E",
"~  c #594323",
"^  c #514D2F",
"/  c #654922",
"(  c #6D4D21",
")  c #694722",
"_  c #744221",
"`  c #7B4A26",
"'  c #725433",
"]  c #516837",
"[  c #4D6D31",
"{  c #6E6017",
"}  c #303E4E",
"|  c #2D4258",
" . c #004C69",
".. c #3A4E64",
"X. c #3C5168",
"o. c #2E4F71",
"O. c #0F485A",
"+. c #685744",
"@. c #5C7847",
"#. c #42617F",
"$. c #7C6951",
"%. c #8D6A1C",
"&. c #85552D",
"*. c #85542D",
"=. c #896434",
"-. c #976B38",
";. c #9B773C",
":. c #8A7B3D",
">. c #A47B3F",
",. c #A0773E",
"<. c #966945",
"1. c #9F7B41",
"2. c #9F7451",
"3. c #917B5F",
"4. c #87714E",
"5. c #A47B41",
"6. c #A67D48",
"7. c #A47A54",
"8. c #907E65",
"9. c #168229",
"0. c #268D29",
"q. c #328B22",
"w. c #2D9429",
"e. c #3A9625",
"r. c #3D9D27",
"t. c #329529",
"y. c #359828",
"u. c #22863A",
"i. c #3EA229",
"p. c #459C28",
"a. c #449827",
"s. c #55982D",
"d. c #478A29",
"f. c #41A429",
"g. c #46A929",
"h. c #57AB22",
"j. c #63A42C",
"k. c #74A613",
"l. c #7EC11D",
"z. c #5D9957",
"x. c #949400",
"c. c #AA843C",
"v. c #BA9A32",
"b. c #B69435",
"n. c #B79734",
"m. c #BEA12E",
"M. c #88BA15",
"N. c #D0BF0B",
"B. c #C09B3D",
"V. c #C0A42D",
"C. c #D3B62F",
"Z. c #91C313",
"A. c #DCD316",
"S. c #D6CB10",
"D. c #E0D507",
"F. c #E0DF0E",
"G. c #E5D814",
"H. c #ECEC00",
"J. c #ECE40D",
"K. c #EDF703",
"L. c #FFFE00",
"P. c #F6F505",
"I. c #F5EB0F",
"U. c #DFC230",
"Y. c #EAC838",
"T. c #EAD637",
"R. c #EFD32D",
"E. c #F6EC34",
"W. c #D8EC08",
"Q. c #AC8243",
"!. c #AD854E",
"~. c #B68945",
"^. c #B48D59",
"/. c #B58D56",
"(. c #B3A947",
"). c #B5986F",
"_. c #9CA375",
"`. c #9C876B",
"'. c #C7994B",
"]. c #D19F4B",
"[. c #D4A34E",
"{. c #DFAF4F",
"}. c #DDAB53",
"|. c #D5A350",
" X c #C4B144",
".X c #E1AE53",
"XX c #E2B052",
"oX c #C19D6C",
"OX c #C39F70",
"+X c #C8A478",
"@X c #D1B07E",
"#X c #E7D544",
"$X c #436281",
"%X c #23ADD8",
"&X c #00B5F7",
"*X c #78C1CD",
"=X c #B0B8B5",
"-X c #AF9E82",
";X c #CEAB82",
":X c #D0AE85",
">X c #D5B48B",
",X c #DABA8D",
"<X c #D5B489",
"1X c #DDBD95",
"2X c #C9B595",
"3X c #E3C59A",
"4X c #E7C9A0",
"5X c #EACDA4",
"6X c #F2D7AE",
"7X c #EDD6B0",
"8X c #FFE6BD",
"9X c #FFE8BE",
"0X c #FAE0B7",
"qX c #DFC098",
"wX c #9CCDCE",
"eX c #CFD0D1",
"rX c #FFEAC1",
"tX c #DEEDE2",
"yX c #E3EBEA",
"uX c white",
"iX c #E6EEED",
/* pixels */
"                            I I I t.f.f.f.f.f.f.f.e.k j z I J T _ Q &.5.5.                        ",
"                            I I I t.f.f.f.f.f.f.f.e.k j z I J T g g &.5.5.                        ",
"                  I I I I J 0.t.t.i.f.f.f.f.f.f.f.e.k j N t.w.j.N.N.S.G.G.U.}.}.~.5.5.            ",
"                  I I I I J w.f.f.f.f.f.f.f.f.f.f.e.k j B f.i.l.L.L.L.L.L.R.}.}.~.5.5.            ",
"                  I I I I I w.f.f.f.f.f.f.f.f.f.f.e.k j B f.i.l.L.L.L.L.L.R.}.}.~.5.5.            ",
"            j j M I J 0.y.y.i.f.f.f.f.f.f.f.r.Z B Z q.q.s.(.(. XY.Y.C.v.m.b.~.~.C.G.G.v.5.5.      ",
"            j j n I J 0.f.f.f.f.f.f.f.f.f.f.r.v 3 v r.f.j.}..X.X}.}.'.5.5.5.5.5.A.L.L.v.5.5.      ",
"            j j M I J 0.f.i.f.f.f.f.f.f.f.f.r.N j N r.i.j.}.}.}.{.{.'.5.5.5.5.5.A.L.P.m.5.c.      ",
"      j j n F H L I I I 9.9.t.f.f.f.f.f.f.f.r.N j N r.i.s.Q.Q.V.I.I.U.5.5.~.[.[.B.b.b.A.J.J.b.5.5.",
"      j j n I I I I I I J J w.f.f.f.f.f.f.f.r.v j v r.i.s.5.5.V.L.L.S.5.5.'..X}.~.5.5.G.L.L.b.5.5.",
"      j j n I I I I I I I J 0.r.r.r.r.r.r.r.e.N k B g.g.j.5.5.V.L.L.A.6.6.'.[.[.~.6.6.G.L.P.b.;.,.",
"      j j n I I I I I I I I C v v v v N N v N q.e.h.W.K.A.5.5.V.L.L.T.;X:X7.*.*.~.|.[.I.L.P.%.` ` ",
"      j j n I I I I I I I I M 3 j j j j j j k e.f.h.P.L.J.>.5.V.L.L.T.>X>X7.p p ~.XX.XI.L.P.%.g _ ",
"      z z n I I I I I I I I M z z z z z j j k t.r.h.P.L.J.>.5.m.P.P.T.>X>X7.` *.~.[.].G.P.J.%.g _ ",
"j j z L L L I I I I I I I I I L L L L L z j j L I q.K.L.J.>.5.>.c.c.^.>X>X:X;X;X<.` ` ;.c.c.      ",
"j j z I I I I I I I I I I I I I I I I I z j j H J q.K.L.J.5.5.5.5.>.^.>X<X>X>X>X<.p _ -.5.5.      ",
"j j z I I I I I L H H H H H L I I L H H n z N R R d.F.J.G.b.b.b.!.!.oX1X1X,X>X>X<.y y =.5.5.      ",
"j j z I I I I I C j j j j j C I I n j j F J U :.1.1.c.c.v.P.L.E.>X:X3X8X8X5X<X>X^ . .             ",
"j j z I I I I I C j j j j j C I I n j j F I U :.5.5.5.5.v.L.L.E.<X>X4XrXrX5X>X>X^ . .             ",
"2 2 3 I I L F F m 2 2 3 j j M F F M n n C F G =.-.-.5.5.v.L.L.E.qX3X1X1X1X:X+X+Xf . .             ",
". . & K I F j j < . . 1 j j j j j F I I z j l ! _ ` ,.5.v.L.L.E.8XrX+X_ _ =.5.5.9 . .             ",
". . & K I F j j < . . $ j j j 3 3 C J K z 3 l ! _ ` ;.5.n.L.L.E.8XrX+Xp p &.5.5.9 . .             ",
". . # C F M j j < . . $ j j E @.@.z.z.z.] ] ] ) Q ` ~.~.B.G.G.#X6X6X:X2.7.!.^.^.' f f :           ",
". . o 3 j j j j < . . $ j 3 _.rX8X8X8X8X1X>X;X*.p *.[..X[.5.5.^.>X<X4X8X8X5X<X>X>X>X<Xe . .       ",
". . o 3 j j j j < . . $ j j _.rXrX8X8X8X1X>X;X*.Q *.[.}.[.5.5.^.<X>X4XrXrX5X>X>X>X>X>Xe . .       ",
". . # n M z < < $ . . & < 1 4.,X,X6X8X8X5X4X1Xs r y U.R.C.-.=.!.3X4X3X,X,X@XoXoX;X>X>Xe . .       ",
". . & K I M . . .       . . ~ 5.>.3XrX8X8X8X7X8 . 7 H.L.D.Q p 2.8XrX,X>.>.5.5.>.OX>X>Xe . .       ",
". . & K I M . . .       . . / Q.5.3XrX8X8X8X6X8 . 7 H.L.D.Q p 2.8XrX,X,.>.>.5.>.+X,X>Xe . .       ",
". . # M C c . . .       . . 9 ~ s ^.<X:XwXwX*Xq . 7 H.L.D.Q p 2.8X8X5X@X@X+X).).4.+.+.8 .         ",
". . o 3 j 2 . . .       . . . . . ' 5.1.%X&X&Xq . 7 H.L.D.Q p 2.8X8X8X8XrX5X>X>Xd . .             ",
". . o j j 2 . . .       . . . . . ' Q.6.%X&X&Xq . 7 H.L.D.Q p 2.8X8X8X8X8X5X>X1X^ . .             ",
"    o & $ &             x.x.%.' =.~ t t O. . .- . 7 H.L.D.Q p <.3X3X3X5X5X`.^ ^ w                 ",
"      . . .             L.L.R..XXXt . . . . . . . 7 H.L.D.Q p <.<X<X<X<X>X+.. .                   ",
"      . . .             L.L.R.}..Xt . . . . . . . 7 H.L.D.Q p <.>X>X>X>X,X+.. .                   ",
"                            { t t 4 < < x m x o . ; C.Y.m.: ; 0 ] ] ^ d d w                       ",
"                            . . . < j j L I K # . * ]..XQ.. . # j j 1 . .                         ",
"                            . . . < j j F J H # . ; ]..XQ.X . # j j 1 . .                         ",
"                            . . . x F F 2 % , r u u 9 9 0 M M C F F D M M 2 . .                   ",
"                            . . . m I I % . X i _ i . . % I I I I I J I 9.5 . .                   ",
"                            . . . m I J % . X i _ i O . % K J I I I I I I 5 X X                   ",
"                            . . . m I K % . o G T T D D m % & 5 I I J K J k.S.S.W . .             ",
"                            . . . m I K % . o F J J J I D . . 1 I I I K J Z.L.L.W . .             ",
"                            o o o m U P % . o Y u.u.u.u.G . . 1 P P P P L M.P.K.W . .             ",
"                        . . c F F ^ / / @ . = eXyXtXtXtX=XX . ; / / / / / [ q.q.4 . .             ",
"                        . . x I I ^ g p @ . = tXuXuXuXuXeXO . ; _ _ _ _ _ E J J < . .             ",
"                        . . x I I ^ ( ( * . = eXiXyXyXiX=XX . ; ( ( ( ( ( E 9.9.< . .             ",
"                        . . x I I t.p.a., . O X.$X#.#.$X... . 4 p.p.p.p.p.p.i.i.4 . .             ",
"                        . . x I I t.f.i., . O | o.o.o.o.| . . 4 f.f.f.f.f.f.f.g.4 . .             ",
"                        . . c D D t.f.i., . O | X.....X.} . . 4 r.r.i.f.f.e.q.q.4 . .             ",
"                            . . . S f.i., . X i _ _ _ _ y . . 1 I I 0.f.f.V . o                   ",
"                            . . . S g.f., . X i Q p p p y . . 1 I J 0.g.g.b . .                   ",
"                              . . V A A $ . X ' =.=.<.<.' . . % M M Z A A b . .                   ",
"                                  . . . . . + ).>X1X0X8X2XX . . . . . . .                         ",
"                                  . . . . . + ).1X1X8XrX2XX . . . . . . .                         ",
"                                    . . . . O $.3.8.).-X8.* @ @ @ @ * ; ; @                       ",
"                                        . . . . . . . . + r a a a a s _ _ > . .                   ",
"                                        . . . . . . . . + r a a a a s _ _ > . .                   ",
"                                          . . . . . . . + r a a s s h _ _ > . .                   ",
"                                              . . . . . + r a s _ _ _ _ _ > . .                   ",
"                                              . . . . . + a a s _ _ _ _ _ > . .                   ",
"                                                . . . . O : : : 9 9 9 9 9 ;   .                   ",
"                                                          . . . . . . . .                         ",
"                                                          . . . . . . . .                         ",
"                                                                                                  "
};
