/* XPM */
static char *right__283_29[] = {
/* columns rows colors chars-per-pixel */
"53 64 228 2 ",
"   c None",
".  c #000001",
"X  c #0B0605",
"o  c #020904",
"O  c #0C0A07",
"+  c #130E0C",
"@  c #1A0E0B",
"#  c #120A06",
"$  c #0A1A07",
"%  c #041607",
"&  c #1E110A",
"*  c #131207",
"=  c #111515",
"-  c #21120C",
";  c #2D1A0E",
":  c #231915",
">  c #321C16",
",  c #381F18",
"<  c #331C0E",
"1  c #092C09",
"2  c #082709",
"3  c #0A360B",
"4  c #0B3C0C",
"5  c #073208",
"6  c #073613",
"7  c #143210",
"8  c #29241D",
"9  c #3B211A",
"0  c #3C2211",
"q  c #262E09",
"w  c #101823",
"e  c #172831",
"r  c #342C23",
"t  c #34312C",
"y  c #4C2C16",
"u  c #44261D",
"i  c #48281B",
"p  c #522E17",
"a  c #59331B",
"s  c #45361B",
"d  c #6D3C1E",
"f  c #60371B",
"g  c #713E1E",
"h  c #4B2920",
"j  c #4B2720",
"k  c #512D20",
"l  c #593A20",
"z  c #4B3423",
"x  c #693A20",
"c  c #723F20",
"v  c #0D430D",
"b  c #0E4C12",
"n  c #0E4E18",
"m  c #0E5A1A",
"M  c #0D5318",
"N  c #165212",
"B  c #1A5A14",
"V  c #124C10",
"C  c #2D5918",
"Z  c #0F641E",
"A  c #1C6318",
"S  c #236A18",
"D  c #2C7C1E",
"F  c #2A731C",
"G  c #36611F",
"H  c #384922",
"J  c #0E6B23",
"K  c #0D6121",
"L  c #196C23",
"P  c #0F7125",
"I  c #0E7B29",
"U  c #0C7727",
"Y  c #107325",
"T  c #107B29",
"R  c #1B7429",
"E  c #2C6A26",
"W  c #346525",
"Q  c #227128",
"!  c #267338",
"~  c #0C5F20",
"^  c #5A530D",
"/  c #73401F",
"(  c #7B4C1E",
")  c #676801",
"_  c #766A0E",
"`  c #564839",
"'  c #56553B",
"]  c #544D26",
"[  c #6B4624",
"{  c #744120",
"}  c #794723",
"|  c #675822",
" . c #705434",
".. c #5A7224",
"X. c #5B6B3E",
"o. c #586C2D",
"O. c #22384F",
"+. c #27415C",
"@. c #2F5274",
"#. c #315375",
"$. c #334D68",
"%. c #4D4C4F",
"&. c #566E4A",
"*. c #7B6D58",
"=. c #6E6352",
"-. c #435278",
";. c #775A41",
":. c #91691B",
">. c #8F6718",
",. c #8A582B",
"<. c #885A37",
"1. c #915F2E",
"2. c #8A6436",
"3. c #986C3A",
"4. c #A2783D",
"5. c #927356",
"6. c #A47B41",
"7. c #A77C42",
"8. c #A57B56",
"9. c #8D7A66",
"0. c #2E801F",
"q. c #1C8529",
"w. c #248C29",
"e. c #268526",
"r. c #348A22",
"t. c #2E9429",
"y. c #3D9B27",
"u. c #3B9E29",
"i. c #359627",
"p. c #3E8733",
"a. c #3FA128",
"s. c #4B931B",
"d. c #449F29",
"f. c #739335",
"g. c #42A529",
"h. c #44AA2B",
"j. c #5DB222",
"k. c #62B324",
"l. c #62AB1C",
"z. c #2E8B44",
"x. c #56A369",
"c. c #6A986C",
"v. c #AE833D",
"b. c #8EAC3A",
"n. c #B6A62D",
"m. c #AB8D13",
"M. c #C7B30D",
"N. c #CEB715",
"B. c #D1BC21",
"V. c #C9AC33",
"C. c #E6BF3F",
"Z. c #9FCB10",
"A. c #AFD710",
"S. c #D5CE07",
"D. c #E1D415",
"F. c #ECDD14",
"G. c #D8EC09",
"H. c #EAE409",
"J. c #FFFE01",
"K. c #F5F904",
"L. c #F4E41B",
"P. c #FAF514",
"I. c #D4CF21",
"U. c #ECD22B",
"Y. c #F1DC23",
"T. c #ECCC33",
"R. c #E8C53A",
"E. c #EAD12E",
"W. c #AC8348",
"Q. c #B78A46",
"!. c #B38D57",
"~. c #B38D54",
"^. c #BDAA4B",
"/. c #958B6B",
"(. c #B99D7A",
"). c #AD9170",
"_. c #A6A87B",
"`. c #988052",
"'. c #C9994A",
"]. c #D7A64C",
"[. c #DDAA53",
"{. c #D9A955",
"}. c #CBAD49",
"|. c #E5BC43",
" X c #E2B649",
".X c #E1AC54",
"XX c #C29E77",
"oX c #C5A178",
"OX c #E7D25A",
"+X c #2C4E9B",
"@X c #33549D",
"#X c #036F99",
"$X c #586E94",
"%X c #767C94",
"&X c #56B4BD",
"*X c #06BBFC",
"=X c #52B7C3",
"-X c #8F8F91",
";X c #AF9E90",
":X c #B7AD8C",
">X c #AEB2BA",
",X c #CCAC86",
"<X c #D4B38A",
"1X c #D9B68D",
"2X c #D9B78C",
"3X c #D9B891",
"4X c #CDB491",
"5X c #BDC995",
"6X c #E5C79C",
"7X c #E9CBA3",
"8X c #ECD1A8",
"9X c #F4DBB3",
"0X c #F9DFB5",
"qX c #EED5AE",
"wX c #FFE6BD",
"eX c #FDE5B8",
"rX c #DEC8A4",
"tX c #8B9EC8",
"yX c #8DA0CB",
"uX c #B6CFC2",
"iX c #CCD7D1",
"pX c #FFEBC1",
"aX c #FFEDCE",
"sX c #FFEED3",
"dX c #FFF1CE",
"fX c #FFFFFF",
"gX c #FAFAF4",
"hX c #D1E7D5",
/* pixels */
"                                  T I q.a.g.g.g.g.g.g.a.B v b Y I W { / 2.7.6.                            ",
"                                  I I q.a.g.g.g.g.g.g.g.N 4 b U U E g g 2.6.6.                            ",
"                                  q.q.w.a.g.g.g.g.i.r.r.A B S s.s.f.,.,.4.W.W.                            ",
"                  v v m T T t.g.g.g.g.g.g.g.g.g.g.S v v r.a.j.K.J.L.[.[.[.[.[.W.6.6.                      ",
"                  v v m I I t.g.g.g.g.g.g.g.g.g.g.S 4 v r.a.j.K.J.L.[.[.[.[.[.W.6.6.                      ",
"                b m m L w.w.u.g.g.g.g.g.g.g.i.D D F S F f.b.b.U.Y.U.E.E.E.E.E.'.Q.Q.                      ",
"            v v b T I w.g.g.g.g.g.g.g.g.g.g.D 4 4 D h.g.}..X.X[.[.R.J.J.J.J.J.R.[.].7.6.6.                ",
"            v v b T I w.g.g.g.g.g.g.g.g.g.g.0.v v D g.g.^..X[.[.[.T.J.J.J.J.J.|.[.].7.6.6.                ",
"            v v b T I w.g.g.g.g.g.g.g.g.g.g.0.v v D g.g.I.L.L.L.L.U.V.V.B.T.T.Y.L.L.D.D.B.6.6.            ",
"            v v b T I w.g.g.g.g.g.g.g.g.g.g.0.v v D g.g.G.J.J.J.J.D.6.6.'.[.[.P.J.J.J.J.D.6.6.            ",
"            v v b T I w.g.g.g.a.a.a.a.a.g.g.0.v v D g.g.G.J.J.J.J.D.6.6.'.].].L.J.J.J.J.D.6.6.            ",
"      v v v J P Y T I w.g.g.F N N N N A a.g.0.v v D g.g.V.|.R.J.J.D.6.7.1.,.,.V.|.R.J.J.S.} }             ",
"      v v v Y T T T I w.g.g.A 4 v v 4 N a.g.0.v v D g.g.^..X XJ.J.D.6.6.,.d g '..X XJ.J.S.{ {             ",
"      4 v v Y T T T I w.u.u.S N N N N B i.i.D N N s.k.k.}..X XH.H.I.W.W.3.,.<.Q.'.].H.H.M.{ {             ",
"  . . 1 v v Y T T T T T T T t.y.y.y.u.r.V v S u.u.A.K.K.|.[.].v.v.!.<X<X,X,X,X<.} } ( ( (                 ",
". . . 1 v v Y T T T T T T I t.g.g.g.g.i.v v S g.g.A.J.J.|.[.].7.4.!.<X<X<X<X<X<./ { { { {                 ",
". . . 1 v v Y T T T T T T T w.i.t.t.i.e.v v A i.t.A.J.J.|.[.{.!.!.XX6X6X3X<X<X .y p d { {                 ",
". . . 1 v v Y T T T T T T T T T T T T P v v M T I Z.J.J.|.[.{.<X<X6XwXwX7X<X<Xr . O d / {                 ",
". . . 1 v v Y T T T T T T T T T T T T P v v m I U Z.J.J.|.[.{.<X<X6XpXpX7X1X<Xr . O d / {                 ",
". . . 1 v v Y T T T T T T T T T T Z m m v v G f.f.n.B.B.U.Y.T.6X8X,X*.*.5.8.8.: . X f                     ",
". . . 1 v v Y T T T T T T T T T T b v v v v o..X.XQ.6.7.H.J.P.eXpX(.. . 0 c d @ . .                       ",
". . . 1 v v Y T T T T T I T T T T b v v v v o..X[.Q.6.v.H.J.P.eXpX(.. . u { c @ . .                       ",
". . . 1 v v Y T T T T J b b c.5X5X:X:X:X/./.`.1.1.Q.].'.V.n.}.eXwXqX>X>X%X-.-.9./.5.+ . .                 ",
". . . 1 v v Y T T T T Z v v _.pXpXpXpXeX3X3X!.g d v..X[.W.6.!.eXwXsXfXfXyX+X@X;X3X(.+ . .                 ",
"  . . 1 4 v P T T Y Y m 4 4 _.eX0XeXwX0X3X3X)./ g v. X XW.4.~.0XwXsXfXfXtX+X@X;X1X(.+ . .                 ",
"      o o % J T P b b 1 o .  .~.!.qXwXwXeXeXoXg c M.K.P.:.{ 2.9XwXsXfXfXtX+X@X;X1X(.+ . .                 ",
"      . . o J T P v v 2 . . [ 7.W.8XpXwXwXpX,Xg c M.J.K.>.g <.9XwXsXfXfXtX+X@X;X3X(.+ . .                 ",
"      . . o J T J 3 3 $ . . l 2.2.2X8X8XiXiX:X,.,.N.J.K.>.d <.9XwXaXgXgX>X$X$X/.).9.+ . .                 ",
"      . . o J T K . . . . . . . O 2.7./.*X*X&X[.[.Y.J.K.>.d <.9XwXwXwXpX7X<X,Xr . X                       ",
"      . . o J T K . . . . . . . . 2.7./.*X*X=X.X[.Y.J.J.>.d <.0XwXwXwXwX7X1X<Xr . .                       ",
"      . . . M Z n . . q ) ) ] ` ` [ [ ' #X#Xx.T.T.B.M.M.4.5.8.7X8X8X8XqX(.*.*.8 . .                       ",
"      . . . 3 v 3 . . ) J.J.OX1X,X8 . . . . ) J.J.m.x { XX1X1X<X<X<X<X1X` . .                             ",
"      . . . 4 v 3 . . ) J.J.OX1X,X8 . . . . ) J.J.m.c } XX3X1X1X1X1X1X3X' . .                             ",
"            % % % . . q ) ) ] ` ` 7 2 2 . . ^ T.T._ ; ; ' X.X.X.X.X.` ` r                                 ",
"            . . . . . . . . . . . 3 v 3 . . l .X.X] . . 5 v v v v 2 . .                                   ",
"            . . . . . . . . . . . 3 v 3 . . ] [.[.] . . 3 v v v v 3 . .                                   ",
"            . . = +.+.e . . 0 a a L P J K ~ L p.p.7 . . m Y J J J s.S.S.) . .             . . . . .       ",
"            . . = @.#.O.. . y { { Q I T T T I I I 6 . . K I I T U l.J.J.) . .             . . . . .       ",
"            : : 8 +.$.e o % y { [ Q T T T T T R R 6 o % ! z.z.J J s.H.H.) % %             X X X O O       ",
"      . . + 4X9X:X+ o 6 P P ] { [ Q I T T I W [ [ W P R uXgXiX= o O * * C y.i.2 . . . . + u u a d d & . . ",
"      . . + rXdX4XX . 6 I I ] c { Q I I I I W { { W U T hXfXhX+ . . . . A h.g.2 . . . . + h h x { { & . . ",
"      . . O /.:X/.2 2 n q.q.o.| | W E E E E H p p &.x.x.uXiX>Xe w = - - C D F q - & + # - h h l { { & . . ",
"      . . . . . % U I w.g.g.g.g.d.| { { { { y . . -XfXgX$X@.#.@.@.%./ { < . . a { c h h h h h l { { & . . ",
"      . . . . . % I I w.g.g.g.g.g.| c c c { y . . -XfXfX$X@.@.#.@.%.{ { ; . . a } c h h h h h x { { & . . ",
"      . . . & - : 6 6 Z t.t.u.g.g...........G 6 6 &.-X-X-.@.$.%.%.` { / ;.*.*.z 0 0 h h h h h u 0 0 @ . . ",
". . . . . . u h 9 . . 6 I I t.g.g.g.g.g.g.g.t.I T 5 . . +.#.$.{ / / { g oXpXwXt . X u h h h h - . .       ",
". . . . . . 9 h , . . 6 T I t.g.g.g.g.g.g.g.t.I T 6 . . +.#.$.[ { { { g XXpXeXt . X u h h h h - . .       ",
". . . < p y i h i y y s H H 7 7 7 i.g.g.g.g.u.t.i.L M M w w w - - ` <X<X9.` ` 9 > , i h 9 @ @ #           ",
". . . y } { k h k { { x j h @ . . r.g.g.g.g.g.g.g.w.I T % . . . . %.pXpX=.. . , h h h h > . .             ",
". . . y { c k h k d d a u u @ . o r.y.y.y.y.y.y.y.e.P P % . . . . ` 9X9X=.. . , u u u u > . .             ",
". . . y { c k h 9 # # # X X       $ $ $ $ $ $ $ $ % % % . . .       8 8 :     X X X X X X                 ",
". . . y { { k h 9 . . . . .       . . . . . . . . . . . . . .       . .       . . . . . .                 ",
". . . y c x h h 9 . . . . .       . . . . . . . . . . . . . .       . .       . . . . . .                 ",
". . . > h h h h 9 . . .                                                                                   ",
". . . > h h h h 9 . . .                                                                                   ",
". . . > h h h h 9 . . .                                                                                   ",
". . . > h h h h 9 . . .                                                                                   ",
". . . > h h h h 9 . . .                                                                                   ",
"      @ - - - - &                                                                                         ",
"      . . . . . .                                                                                         ",
"      . . . . . .                                                                                         ",
"                                                                                                          ",
"                                                                                                          ",
"                                                                                                          "
};
