/* XPM */
static char *right__288_29[] = {
/* columns rows colors chars-per-pixel */
"53 64 231 2 ",
"   c None",
".  c #000001",
"X  c #020A03",
"o  c #0F0807",
"O  c #0C0705",
"+  c #130A06",
"@  c #190D07",
"#  c #150E0A",
"$  c #031205",
"%  c #091606",
"&  c #0A1A07",
"*  c #061A07",
"=  c #1D110B",
"-  c #16160B",
";  c #1C1813",
":  c #0C1119",
">  c #22130A",
",  c #271B0E",
"<  c #321C0E",
"1  c #361E11",
"2  c #291C14",
"3  c #092A09",
"4  c #06250B",
"5  c #0B3D0C",
"6  c #0A310A",
"7  c #073713",
"8  c #133010",
"9  c #28221B",
"0  c #3C211A",
"q  c #392413",
"w  c #31220F",
"e  c #272628",
"r  c #3D3628",
"t  c #46281A",
"y  c #532E1A",
"u  c #563518",
"i  c #6E3D1E",
"p  c #64391C",
"a  c #713E1E",
"s  c #4B2920",
"d  c #512D20",
"f  c #583120",
"g  c #463F35",
"h  c #653A22",
"j  c #743F20",
"k  c #0D420D",
"l  c #10460E",
"z  c #10480F",
"x  c #0E5316",
"c  c #0E5A19",
"v  c #0C561B",
"b  c #165211",
"n  c #1A5A15",
"m  c #0F4915",
"M  c #0F631D",
"N  c #0C681F",
"B  c #1E6216",
"V  c #10601C",
"C  c #236B19",
"Z  c #29751C",
"A  c #34771F",
"S  c #335824",
"D  c #0F6D22",
"F  c #0D6421",
"G  c #0F7326",
"H  c #0E7B29",
"J  c #067621",
"K  c #107426",
"L  c #107C29",
"P  c #157C27",
"I  c #2B6826",
"U  c #327024",
"Y  c #1D4827",
"T  c #5C441E",
"R  c #575701",
"E  c #74411F",
"W  c #7A4B1E",
"Q  c #65401F",
"!  c #646403",
"~  c #564836",
"^  c #4C4E30",
"/  c #664926",
"(  c #744120",
")  c #7A4622",
"_  c #735432",
"`  c #5A7226",
"'  c #5C6E3E",
"]  c #526F2C",
"[  c #6E7A26",
"{  c #25384A",
"}  c #1C3146",
"|  c #315375",
" . c #325171",
".. c #345C5E",
"X. c #524A4A",
"o. c #796B58",
"O. c #7A6752",
"+. c #464E78",
"@. c #747272",
"#. c #8B611B",
"$. c #8A582B",
"%. c #845532",
"&. c #915E2D",
"*. c #956634",
"=. c #97733A",
"-. c #906131",
";. c #A67A3E",
":. c #956A48",
">. c #90714F",
",. c #A47B41",
"<. c #A37943",
"1. c #A27854",
"2. c #8A7A66",
"3. c #1B8429",
"4. c #178129",
"5. c #258D29",
"6. c #288826",
"7. c #328821",
"8. c #2B9229",
"9. c #399525",
"0. c #3D9B27",
"q. c #359A29",
"w. c #369827",
"e. c #3EA229",
"r. c #2F821F",
"t. c #4C9D1F",
"y. c #75B21B",
"u. c #4F8F2B",
"i. c #41A429",
"p. c #46A728",
"a. c #5AA827",
"s. c #5CA531",
"d. c #5FB422",
"f. c #62B322",
"g. c #6DAD2F",
"h. c #7D963F",
"j. c #7EC11B",
"k. c #58A369",
"l. c #698E71",
"z. c #ABAC00",
"x. c #958D36",
"c. c #B18E37",
"v. c #82A63A",
"b. c #B4AC32",
"n. c #83BB15",
"m. c #C7B112",
"M. c #CBB726",
"N. c #D3BD23",
"B. c #D7AD3E",
"V. c #BDDB0C",
"C. c #90C313",
"Z. c #DDCE18",
"A. c #DFD117",
"S. c #E6DC08",
"D. c #EDDE1D",
"F. c #D7EA07",
"G. c #DFF007",
"H. c #F4EC0B",
"J. c #FFFE01",
"K. c #FAF20D",
"L. c #F7F803",
"P. c #F3E31B",
"I. c #F2EE0B",
"U. c #EDD22C",
"Y. c #EFD727",
"T. c #F1DC23",
"R. c #EACA34",
"E. c #E5C336",
"W. c #F0D031",
"Q. c #FFF73E",
"!. c #DAC521",
"~. c #AD8247",
"^. c #B78944",
"/. c #B58C52",
"(. c #9B8364",
"). c #9C906B",
"_. c #A78E6E",
"`. c #B6966D",
"'. c #A39F62",
"]. c #CC9C4B",
"[. c #C69746",
"{. c #D09D4C",
"}. c #DEAE4D",
"|. c #D4A54E",
" X c #DDAA53",
".X c #D6A751",
"XX c #D8B14F",
"oX c #E2B549",
"OX c #E2AD53",
"+X c #C19C68",
"@X c #D0A971",
"#X c #EED451",
"$X c #2B4E9B",
"%X c #3D5A9C",
"&X c #00719C",
"*X c #566796",
"=X c #656B8B",
"-X c #5A9C9D",
";X c #6C83B9",
":X c #79AF8B",
">X c #03BDFF",
",X c #95B08C",
"<X c #B9B08A",
"1X c #B6B6B7",
"2X c #868C9D",
"3X c #C7A984",
"4X c #D1AF86",
"5X c #D5B48B",
"6X c #D8B68D",
"7X c #DAB889",
"8X c #DAB990",
"9X c #C2AA90",
"0X c #BCC994",
"qX c #E3C49B",
"wX c #DAD1B8",
"eX c #EBCEA3",
"rX c #EED2AA",
"tX c #EBD0A7",
"yX c #F6DDB4",
"uX c #EFD8B2",
"iX c #FFE6BD",
"pX c #FDE5BB",
"aX c #DEC19A",
"sX c #BDC8D3",
"dX c #C7D6D3",
"fX c #FFEBC1",
"gX c #FFF0D8",
"hX c #FFF4E1",
"jX c #FFFFFF",
"kX c #F9F7F2",
"lX c #EDECED",
/* pixels */
"                                  L H 5.i.i.i.i.i.i.i.9.z k x L H ^ ( ( *.,.,.                            ",
"                                  H H 5.i.i.i.i.i.i.i.9.k 5 x H H ^ a a *.,.,.                            ",
"                                  3.3.8.i.i.i.i.i.9.7.7.n n Z t.t.[ &.&.;.^.^.                            ",
"                k k k D L 4.e.i.i.i.i.i.i.i.i.i.0.b k b 0.e.j.J.J.U. X X X X X~.,.,.                      ",
"                k k k D H 4.e.i.i.i.i.i.i.i.i.i.e.b 5 b 0.e.j.J.J.U. X X X X.X~.,.,.                      ",
"                x c c 6.5.8.e.i.i.i.i.i.i.i.7.Z Z C C A v.v.b.T.T.U.U.U.U.U.R.[.^.^.                      ",
"            k k M L L 0.i.i.i.i.i.i.i.i.i.i.B 5 k 9.i.s. XOXOX X XY.J.J.J.J.L.oXOX|.,.,.,.                ",
"            k k M L L q.i.i.i.i.i.i.i.i.i.i.B k z 9.i.s..X X X X XY.J.J.J.J.L.oX X|.,.,.,.                ",
"            k k M L L q.i.i.i.i.i.i.i.i.i.i.B k z 9.e.a.D.P.P.P.P.U.R.R.R.R.R.T.P.D.A.A.M.,.,.            ",
"            k k M L L q.i.i.i.i.i.i.i.i.i.i.B k z 9.e.f.L.J.J.J.J.U. X X X XoXK.J.J.J.J.Z.,.,.            ",
"            k k M L L q.i.i.e.e.e.e.e.i.i.i.B k z 9.e.f.L.J.J.J.J.U. X X X.X}.K.J.J.J.J.Z.,.,.            ",
"      k k c G G K L L q.i.0.n b b b b Z i.i.B k z 9.i.s.oXoXU.J.J.N.~.~.-.$.&.B.oXR.J.J.Z.,.,.            ",
"      k k c L L L L L q.i.9.z 5 k k 5 C i.i.B 5 k 9.e.s..X XR.J.J.M.<.,.) i ) {. XoXJ.J.Z.,.,.            ",
"      k k c L L L L L w.0.9.n b b b b C 9.9.C b n a.d.g.XX XE.H.H.M.~.~.-.%.%.[.].B.K.K.!.,.,.            ",
". . $ k k c L L L L L L L 4.0.0.0.0.e.Z k z r.0.p.F.L.H.}. X].c.c.`.5X4X4X4X@X%.) &.}.oX].,.,.            ",
". . $ k k c L L L L L L H 4.e.i.i.i.p.Z k k 7.i.p.G.J.K.}. X].,.;.`.5X5X5X5X4X%.E $. XOX].,.,.            ",
". . $ k k c L L L L L L L P 8.w.8.7.7.C k k Z q.0.G.J.K.}. X|././.@XqXqX8X5X3Xh t Q ^.^.^.,.,.            ",
". . $ k k c L L L L L L L L L H D k k k k k N L 3.F.J.K.}. X@X5X5XtXiXiXqX5X3X; . @ i ( (                 ",
". . $ k k c L L L L L L L L H H D k k k k k N H 4.F.J.K.}. X@X5X5XtXfXfXqX5X3X; . @ i ( (                 ",
". . $ k k c L L L L L L L K M c c M M x k k ` h.v.M.N.N.Y.Y.#XtXtX`.o.o.>.1.>.# . O                       ",
". . $ k k c L L L L L L L G k 5 x L L M k k x.OXOX~.<.c.L.J.Q.iXfXo.. . y j p + . .                       ",
". . $ k k c L L L L L L L K z k x L L V k k x.OX X~.,.c.L.J.Q.iXfXo.. . y ( p + . .                       ",
"      $ $ 7 L L M x x x x I <X<X<X0X0X`.).).:.&.*.[.].].b.b.XXiXiXwX1X1X=X+.+.2.(.>.O .                   ",
"      . . 7 L L x k k k k S yXfXfXfXfXrX6X6X:.i ) ].OX|.,.<.+XiXiXhXjXjX;X$X%X9X8X_.O . .                 ",
"      . . 7 L L v k k 5 5 S tXyXpXiXiXtX6X8X:.a ) ].oX|.;.=.`.iXiXhXjXjX;X$X%X<X6X_.O . .                 ",
"      . . 7 L L v k k $ X - <./.@XiXiXpXyXpX1.a W S.K.S.$.) 1.iXiXhXjXjX;X$X%X<X6X_.O . .                 ",
"      . . 7 L L c k k X . # =.;.+XiXiXiXiXiX1.i W S.J.S.W i 1.iXiXhXjXjX;X$X%X9X8X_.O . .                 ",
"      . . 6 K D m 6 6 X . + _ _ ~.eXeXwXdXdX(.$.&.S.J.S.W a 1.iXiXgXkXkX2X*X*X)._.2.O .                   ",
"      . . * k k * . . . . . . . q ,.,.-X>X>X,X}.}.K.J.S.W a 1.iXiXiXiXiXaX5X3X2 . O                       ",
"      . . * k k * . . . . . . . w ,.;.-X>X>X,XOX}.K.J.S.W i 1.iXiXiXiXiXqX6X3X; . .                       ",
"      . . $ 3 3 $ . X R ! ! ~ ~ ~ / / ..&X&X'.W.R.m.m.m.:.:.`.rXrXrXrXrX_.O.O.# . .                       ",
"            . .       J.J.K.7X8X(.. . . . . z.J.L.#.j %.4X5X5X5X5X5X5X5Xr . . . . .                       ",
"            . .       J.J.K.7X8X(.. . . . . z.J.L.#.j %.4X6X6X6X6X6X6X5Xr . . . . .                       ",
"                      ! ! ! ~ ~ r 3 3 $ . . x.W.E.u , q ' ' ' ' ' ~ ~ ~ { } } t t q . .                   ",
"                      . . . . . $ k k 4 . . =.OX|., . X 5 k k k k * . . { |  ./ ( u . . .                 ",
"                      . . . . . $ l l 4 . . =.OX{., . X k k k k k 4 . X { |  ./ ( u . . .                 ",
"                            . . = T T w . . ] s.s.& . $ N K D D G D F F 8 : : @ @ @                       ",
"                            . . > ( ( q . . C p.0.& . $ G L L L L H H H 4 . . . . .                       ",
"                            X X = p p t e e U e.9.- O & K L L L H 6.7.7.8 $ % . . .                       ",
"                . . . . . X 5 5 3 O . @.lXlXk.L P T i T P L L L H n.L.G.y.9.7.% . .                       ",
"                . . . . . X 5 k 3 . . @.jXjXk.J K / ( / P H H H H C.J.J.y.e.0.% . .                       ",
"                = > > X . X 3 6 3 > @ @.dXdX:Xk.k.T y u I I I I I y.V.V.f.e.9.% . .                       ",
"            . . t ( i @ . . . . > ( E X.| | sXjXlXe . + i ( ( ( ( S H L q.i.9.% . . . . . . . . . . . . . ",
"            . . t ( i @ . . . . @ ( E X.| | sXjXkXe . + i j j j j S H H q.i.0.% . . . . . . . . . . . . . ",
"          > 1 1 u ( j @ . # O.o.O.( E ~ X.X.@.2Xl.Y 7 m ` ` ` ` ` u.5.5.8.8.6.$ . O 1 1 1 1 1 1 1 1 o . . ",
"      . . < ( ( ( ( j @ . 9 uXfX8X( ( E E E > . . F L 3.e.i.i.e.i.i.i.i.3.H G $ . @ ( ( ( ( ( ( ( ( = . . ",
"      . . < ( ( ( ( j @ . 9 rXfX6X( E ( ( ( > . X F H 4.e.i.i.i.i.i.i.i.3.H G $ . @ i ( ( ( ( ( ( ( = . . ",
"      . . < ( ( h f d + . o ~ ~ O.5X5X>.> > 5 v v 6.q.q.i.i.q.5.5.n 8 8 3 4 4 2 1 0 f f h ( ( ( ( ( = . . ",
"      . . < ( ( f s t o . . . . g fXfX2.. . v 4.4.0.i.i.i.i.w.H H 7 . . . . . t s s s s f ( ( ( ( ( = . . ",
"      . . < ( ( f s t o . . . . ^ uXyXo.. . m K K 9.0.0.0.0.8.G G 7 . . . . . t s s s s f ( ( i i i = . . ",
"      . . > d d s s t o . .       9 9 - . . X $ $ & & & & & & $ $ $     . . . t s s s s s d d 2 + +       ",
"      . . = s s s s t o . .       . . . . . . . . . . . . . . . .       . . . t s s s s s s s = . .       ",
"      . . = 0 0 0 0 0 o . .       . . . . . . . . . . . . . . . .       . . . 1 0 0 0 0 0 0 0 = . .       ",
"            . . . . .                                                         . . . . . . . .             ",
"            . . . . .                                                         . . . . . . . .             ",
"            . . . . .                                                         . . . . . . . .             ",
"                                                                                                          ",
"                                                                                                          ",
"                                                                                                          ",
"                                                                                                          ",
"                                                                                                          ",
"                                                                                                          ",
"                                                                                                          ",
"                                                                                                          "
};
