/* XPM */
static char *right__285_29[] = {
/* columns rows colors chars-per-pixel */
"68 64 217 2 ",
"   c None",
".  c #000001",
"X  c #020C04",
"o  c #0C0705",
"O  c #120B08",
"+  c #041306",
"@  c #051B06",
"#  c #041809",
"$  c #1C130C",
"%  c #191513",
"&  c #25160C",
"*  c #241B15",
"=  c #381F19",
"-  c #08280C",
";  c #122E0C",
":  c #0A350A",
">  c #0B3C0C",
",  c #15350E",
"<  c #083E15",
"1  c #063412",
"2  c #3C2116",
"3  c #2B3509",
"4  c #0F1A26",
"5  c #332B22",
"6  c #362A22",
"7  c #3E352B",
"8  c #3C3125",
"9  c #2B2E2D",
"0  c #192B3E",
"q  c #462716",
"w  c #552F1A",
"e  c #48381B",
"r  c #59321B",
"t  c #6C3C1E",
"y  c #713E1E",
"u  c #4C2A21",
"i  c #43392D",
"p  c #513B2C",
"a  c #683A20",
"s  c #723E20",
"d  c #0D430D",
"f  c #10480F",
"g  c #094316",
"h  c #0C4911",
"j  c #094818",
"k  c #134A13",
"l  c #0B531B",
"z  c #0E5B1A",
"x  c #0E5215",
"c  c #185713",
"v  c #2D4316",
"b  c #225616",
"n  c #39501C",
"m  c #1A6419",
"M  c #246C19",
"N  c #216718",
"B  c #2D7D1E",
"V  c #30781E",
"C  c #355D2A",
"Z  c #2E5323",
"A  c #0F6C22",
"S  c #0D6723",
"D  c #0F7326",
"F  c #0E7B29",
"G  c #0D7926",
"H  c #107425",
"J  c #107C29",
"K  c #187728",
"L  c #116F22",
"P  c #2F6D2B",
"I  c #0C5E20",
"U  c #4E4C03",
"Y  c #535300",
"T  c #73411F",
"R  c #7D7C01",
"E  c #465C24",
"W  c #5D473C",
"Q  c #4C4628",
"!  c #744120",
"~  c #7C4C29",
"^  c #74562D",
"/  c #6A4B2C",
"(  c #557D25",
")  c #567C0F",
"_  c #1B2D40",
"`  c #2D4E70",
"'  c #315274",
"]  c #2E5072",
"[  c #505358",
"{  c #526654",
"}  c #766754",
"|  c #685E4D",
" . c #885D1C",
".. c #8F671A",
"X. c #88592C",
"o. c #896833",
"O. c #976937",
"+. c #9C753E",
"@. c #977130",
"#. c #A67B3F",
"$. c #A07821",
"%. c #9A7643",
"&. c #8F7355",
"*. c #A47B42",
"=. c #A57B44",
"-. c #A27752",
";. c #8B7C69",
":. c #2F821F",
">. c #15802A",
",. c #1A8329",
"<. c #308520",
"1. c #348B23",
"2. c #2E9429",
"3. c #399525",
"4. c #3A9E29",
"5. c #369828",
"6. c #2E8521",
"7. c #3EA229",
"8. c #79B618",
"9. c #6EA91B",
"0. c #568026",
"q. c #41A529",
"w. c #46A929",
"e. c #69961B",
"r. c #388D42",
"t. c #7A8E76",
"y. c #AF9218",
"u. c #A2A200",
"i. c #A9833C",
"p. c #B69923",
"a. c #94AC3A",
"s. c #90A112",
"d. c #C0AA0E",
"f. c #CAB60C",
"g. c #CDB229",
"h. c #C39A3E",
"j. c #97CE17",
"k. c #89C719",
"l. c #A9D411",
"z. c #D4C509",
"x. c #E5DA11",
"c. c #D0E90A",
"v. c #F1EB07",
"b. c #FFFE00",
"n. c #F8F209",
"m. c #F7EB14",
"M. c #F5E51A",
"N. c #E5EB0B",
"B. c #EAD429",
"V. c #F1DB24",
"C. c #E6C13D",
"Z. c #EACA35",
"A. c #E7CB2C",
"S. c #8C8B5D",
"D. c #AE8444",
"F. c #B18644",
"G. c #B78C45",
"H. c #BC9354",
"J. c #988367",
"K. c #BA946E",
"L. c #BA9773",
"P. c #B28D66",
"I. c #CA9B4D",
"U. c #C59948",
"Y. c #D09F4F",
"T. c #DDAB52",
"R. c #D8A651",
"E. c #D7AF41",
"W. c #E5BC42",
"Q. c #E2B44B",
"!. c #E1AD54",
"~. c #E6B255",
"^. c #C09B69",
"/. c #CAA77C",
"(. c #D9B372",
"). c #FCED64",
"_. c #2C4E9A",
"`. c #32529B",
"'. c #2F4F98",
"]. c #007FB3",
"[. c #5A6A97",
"{. c #0180AF",
"}. c #798EBD",
"|. c #4B9789",
" X c #01BCFF",
".X c #49B6C9",
"XX c #788EC0",
"oX c #948F8D",
"OX c #A59891",
"+X c #8297AB",
"@X c #959DB6",
"#X c #AEB29A",
"$X c #CCAC82",
"%X c #D5B48B",
"&X c #D9B68D",
"*X c #D8B78B",
"=X c #DBBA92",
"-X c #CCB087",
";X c #93C49F",
":X c #96C8A2",
">X c #E3C69C",
",X c #DECBA7",
"<X c #E9CCA2",
"1X c #F2D6AC",
"2X c #F4DBB2",
"3X c #EAD4A9",
"4X c #FEE6BC",
"5X c #FFE9BF",
"6X c #F5E0B6",
"7X c #DDC39D",
"8X c #BEDCD0",
"9X c #FFE9C1",
"0X c #FFE6C1",
"qX c #FBEFDB",
"wX c #FFF7E8",
"eX c white",
"rX c #F2F3F3",
/* pixels */
"                                                                  J F ,.q.q.q.q.q.B d d z J F E ! T o.*.*.*.*.*.                        ",
"                                                                  J F ,.q.q.q.q.q.B d d z J F E s s o.*.*.*.*.*.                        ",
"                                                d d h H F ,.7.q.7.5.2.5.q.q.q.q.q.B d d N 5.2.s.f.f.g.I.I.I.I.I.R.T.T.F.*.*.            ",
"                                                d d h H F ,.7.q.q.q.q.q.q.q.q.q.q.B d d M q.7.l.b.b.B.T.T.T.T.T.T.T.T.F.*.*.            ",
"                                                d d h H F ,.7.q.q.q.q.q.q.q.q.q.q.B d d M q.7.l.b.b.B.T.T.T.T.T.T.T.T.F.*.*.            ",
"                              d d d d d d D J J 6.<.<.5.5.5.q.q.q.q.q.q.q.q.q.q.q.B d d M q.7.a.C.C.V.M.M.M.M.M.M.M.M.E.I.I.D.*.*.      ",
"                              d d d d d d D J J 7.q.q.q.q.q.q.q.q.q.q.q.q.q.q.q.q.B d d M q.7.a.!.T.V.b.b.b.b.b.b.b.b.C.T.T.D.*.*.      ",
"                              d d d d d d H J J 4.q.q.q.q.q.q.q.q.q.q.q.q.q.q.q.q.B d d M w.q.a.!.T.V.b.b.b.b.b.b.b.b.C.T.T.F.*.*.      ",
"                        d d d I A A A A L 2.5.5.7.q.q.q.q.q.q.q.q.q.q.q.q.q.1.c c M 1.<.8.c.c.N.m.m.B.C.C.C.C.C.C.C.C.M.m.m.x.x.x. .s ! ",
"                        d d d A J J J J J 4.q.q.q.q.q.q.q.q.q.q.q.q.q.q.q.q.<.d > N q.7.j.b.b.b.b.b.Z.T.T.T.T.T.T.T.T.m.b.b.b.b.n. .s ! ",
"                        d d d A J J J J J 4.q.q.q.q.q.q.q.q.7.7.7.7.7.q.q.q.<.d d M q.7.j.b.b.b.b.b.Z.T.T.T.T.T.T.T.T.m.b.b.b.b.v. .s ! ",
"                    . . l H A G J J J J J ,.,.,.7.q.q.q.q.3.c c c c c M q.q.<.d d M q.7.j.b.b.V.W.W.U.D.F.F.F.F.F.F.F.E.W.W.$.....      ",
"                  . . . l J J J J J J J J F F J 4.q.q.q.q.3.d d d d > c q.q.<.d d N q.7.j.b.b.B.T.T.G.*.*.*.*.*.*.*.*.Y.T.R.X.s s       ",
"                  X X X l J J J J J J J J J J J 4.7.7.7.7.3.k f f f d c 4.7.:.f d M w.w.j.b.b.B.R.T.G.=.=.=.=.=.%.+.+.I.T.R.X.T !       ",
"              . . g S S D J J J J J J J J J J J >.,.,.,.>.,.3.3.3.3.3.:.c c N 3.3.8.N.N.B.W.W.U.D.D.^.$X/./././.Q $ $                   ",
"            . . . j J J J J J J J J J J J J J J J F F F F ,.7.q.q.q.q.1.d > m q.7.k.b.b.V.T.T.G.*.#.^.%X%X%X%X%X7 . .                   ",
"            . . . j J J J J J J J J J J J J J J J J J J F ,.4.7.4.4.4.<.h d N 7.4.k.b.b.V.T.T.U.=.=./.=X&X%X%X%X7 . .                   ",
"            . . . j J J J J J J J J J J J J J J J J J J J J >.>.H k k c H H G >.J 9.b.b.V.T.T.(.$X$X<X4X2X>X%X%X7 . .                   ",
"            . . . j J J J J J J J J J J J J J J J J J J J J J J A d d x J J J F G 9.b.b.V.T.T.(.%X%X3X9X5X>X%X%X7 . .                   ",
"            X + X l J J H H H H H H A A A D H H H H H H H H H H S h h x H D H K K 9.n.n.B.Q.Q.(.=X=X7X,X,X%X/./.8 . .                   ",
"        . . g D D G J J z d d d d d + X X > d d d d d d d d d d x H H S h d v T T X.i.i.g.b.b.).4X4X} O % r ~ ~ & . .                   ",
"        . . g J J J J J x d d d d d X . . : d d d d d d d d d > h G F A d d v ! T X.*.*.g.b.b.).0X5X| . . q T T & . .                   ",
"      X X X g H H H H H h : : : : : X . . : : : d d d d d k C C P r.r.P Z Z E ! T X.D.D.g.v.v.).0X5X;.9 9 p / / 6 * *                   ",
"  . . @ d > d d d d d d @ . . . . .       . . X > d d d d C 3X2X2X6X6X3X-X-XP.! y O.R.R.U.i.i.(.9X4XqXrXrX}.'.`.oX$X$X5 . .             ",
"  . . - d d d d d d d d + . . . . .       . . X > d d d d C 6X9X5X4X4X2X%X%XP.! y O.T.T.U.*.#.-X5X4XwXeXeXXX_.`.OX*X%X5 . .             ",
"  . . @ : : : : : : : : + . . . . .       . . X : : : : : Z >X<X1X4X4X2X=X>XK.T y @.W.W.h.O.O./.9X4XwXeXeXXX_.`.OX*X%X5 . .             ",
"        . . . . . . . .                         . . . . . $ %.*.H.4X4X4X4X5X%XT s y.b.b.p.s y L.9X4XwXeXeX}._.`.OX*X%X5 . .             ",
"        . . . . . . . .                         . . . . . $ +.*.H.4X9X5X4X5X%Xy s y.b.b.d.s y L.9X4XwXeXeXXX_.`.OX&X%X5 . .             ",
"        . . . . . . . .                         . . . . . O ^ ^ %.>X>X,X8X8X#XX.X.p.b.b.d.s y L.9X4XqXwXwX@X[.[.;.J.J.5 . .             ",
"                                                      . . . . . * *.#.t. X X.XT.T.Z.b.b.d.s y L.5X4X4X4X4X>X%X%Xi . .                   ",
"                                                      . . . . . & *.#.t. X X.XT.T.Z.b.b.d.t t L.9X4X4X4X4X>X&X&X7 . .                   ",
"                                                      U U U e e e ^ ^ { {.].|.C.C.A.z.z.p.%.O./.2X1X1X1X1XL.;.;.8 . .                   ",
"                                                      b.b.n.Q.!.D.. . . . . Y b.b.f.s y -.%X%X%X%X%X%X%X%Xp . .                         ",
"                                                      b.b.n.Q.~.F.. . . . . Y b.b.f.! T -.=X&X&X&X&X&X&X&XQ . .                         ",
"                                                      u.u.u.@.o.^ @ @ + . . U M.M.y.q q / S.S.S.S.S.&.&.&.7 . .                         ",
"                                                      . . . . . X d d : . . e T.!.o.. . @ d d d d d @ . .                               ",
"                                                      . . . . . X > d : . . e ~.~.o.. . @ d d d d d @ . .                               ",
"                                                      . . . . . + z z x 1 1 v o.o.Q @ @ > z z z z z g 1 1 #                             ",
"                                                            . . # J J J J >.l . . @ d d z J J J J F F J J - . .                         ",
"                                                            . . # J J J J >.l . . + d d z J J F J F F J J - . .                         ",
"                                                            . . # J J A g < < < < j z z x < < I J J J J F ) R R 3                       ",
"                                                            . . # J J z . . - J J J J J g . . < J J J J F l.b.b.U . .                   ",
"                                                            . . # F F z . . - G G G G G g . . g F F F F F l.b.b.U . .                   ",
"                                                      . . + g g k E E v . . 9 ;X;X;X;X:X{ . . 3 E E E E E e.8.8.3 . .                   ",
"                                                      . . + G F P ! ! w . . [ eXeXeXeXeXoX. . 2 ! ! ! ! s P G G - . .                   ",
"                                                      . . + D F P ! ! w . . [ eXeXeXeXeXoX. . 2 ! ! ! ! s P F F - . .                   ",
"                                                      . . + D F K ( 0.n . . 9 +X+X+X+X+X[ . . v 0.( ( ( ( 1.2.2.; . .                   ",
"                                                      . . + D F ,.7.q.B . . 4 ] ` ` ` ] 0 . . b q.q.q.q.q.q.q.q.; . .                   ",
"                                                      . . + D F ,.q.q.V . . 4 ' ' ' ' ' _ . . b q.q.q.q.q.q.q.q.; . .                   ",
"                                                            - - k q.q.V . . % W W W W W 5 . . b q.q.q.q.q.b , , + . .                   ",
"                                                            . . - 7.q.V . . & T T T T T q . . b q.q.q.q.q., . . . . .                   ",
"                                                            . . - 4.q.B . . & ! ! ! ! ! q . . b q.q.q.q.q., . . . . .                   ",
"                                                                  ; ; - . . 8 K.K./.=X=X} . . # ; ; ; ; ; + . .                         ",
"                                                                  . . . . . i &X%X<X9X9XJ.. . . . . . . . . . .                         ",
"                                                                  . . . . . i %X-X>X4X4X;.. . . . . . . . . . .                         ",
"                                                                        . . O 5 5 5 7 7 * . . $ 2 = q r r $ . .                         ",
"                                                                        . . . . . . . . . . . & u u a ! ! & . .                         ",
"                                                                        . . . . . . . . . . . * u u a ! ! & . .                         ",
"                                                                              . . . . . $ 2 2 w s a s ! ! & . .                         ",
"                                                                              . . . . . & u u a ! ! ! ! ! & . .                         ",
"                                                                              . . . . . $ q q r t t t t t & . .                         ",
"                                                                                    . . . o o o O O O o O . . .                         ",
"                                                                                    . . . . . . . . . . . . . .                         ",
"                                                                                    . . . . . . . . . . . . . .                         "
};
