/* XPM */
static char *right__2810_29[] = {
/* columns rows colors chars-per-pixel */
"64 64 227 2 ",
"   c None",
".  c #000101",
"X  c #020A03",
"o  c #0B0906",
"O  c #080707",
"+  c #120B0A",
"@  c #1A0F0C",
"#  c #130B07",
"$  c #021205",
"%  c #051908",
"&  c #16120B",
"*  c #181615",
"=  c #21130E",
"-  c #2B1A0D",
";  c #281913",
":  c #351E0F",
">  c #06250A",
",  c #0A330A",
"<  c #0C3D0C",
"1  c #073108",
"2  c #062F10",
"3  c #063211",
"4  c #083B13",
"5  c #172F0F",
"6  c #29271A",
"7  c #3D251A",
"8  c #2F3809",
"9  c #313021",
"0  c #41301A",
"q  c #5C3318",
"w  c #4A281B",
"e  c #6E3C1D",
"r  c #713E1E",
"t  c #4B2A20",
"y  c #5A3827",
"u  c #48372D",
"i  c #723E20",
"p  c #683A21",
"a  c #0D420D",
"s  c #114A0F",
"d  c #10470E",
"f  c #0D4B11",
"g  c #0B4C17",
"h  c #1A4111",
"j  c #184D13",
"k  c #0E5315",
"l  c #0C5B1C",
"z  c #0B571B",
"x  c #185914",
"c  c #214E1A",
"v  c #30500E",
"b  c #0F631E",
"n  c #1E6116",
"m  c #18671B",
"M  c #236817",
"N  c #29761C",
"B  c #327D1F",
"V  c #395B28",
"C  c #3E5D26",
"Z  c #0F6C23",
"A  c #0C6321",
"S  c #0F7226",
"D  c #0E7B29",
"F  c #0B7925",
"G  c #107627",
"H  c #107B29",
"J  c #147627",
"K  c #267926",
"L  c #306826",
"P  c #4E4409",
"I  c #78471E",
"U  c #60431E",
"Y  c #4D4337",
"T  c #504E29",
"R  c #674526",
"E  c #744120",
"W  c #774727",
"Q  c #6A4535",
"!  c #6B5432",
"~  c #416225",
"^  c #436734",
"/  c #253C72",
"(  c #034C66",
")  c #1A4048",
"_  c #695B49",
"`  c #7D6B55",
"'  c #7F715D",
"]  c #85591B",
"[  c #967019",
"{  c #875A38",
"}  c #815026",
"|  c #94683A",
" . c #946E3B",
".. c #A37A3F",
"X. c #A67738",
"o. c #A26F36",
"O. c #946744",
"+. c #816E55",
"@. c #8A755B",
"#. c #906C48",
"$. c #A47B41",
"%. c #A87E42",
"&. c #A17743",
"*. c #1A8328",
"=. c #258D29",
"-. c #288A26",
";. c #348621",
":. c #358D23",
">. c #2C9329",
",. c #399625",
"<. c #3D9C27",
"1. c #329629",
"2. c #349929",
"3. c #3A9E29",
"4. c #359024",
"5. c #248536",
"6. c #3EA229",
"7. c #2E801F",
"8. c #6D9617",
"9. c #71B71C",
"0. c #528526",
"q. c #4A9125",
"w. c #41A429",
"e. c #42A82A",
"r. c #48A827",
"t. c #5BB124",
"y. c #6FAD2E",
"u. c #7CC21B",
"i. c #628C6C",
"p. c #989706",
"a. c #B19413",
"s. c #AA8C12",
"d. c #A9843C",
"f. c #B49431",
"g. c #92B135",
"h. c #BEA030",
"j. c #80B016",
"k. c #CCAB33",
"l. c #98CC15",
"z. c #CAC901",
"x. c #D7C909",
"c. c #D3D100",
"v. c #E4D90F",
"b. c #DBEC07",
"n. c #EBE608",
"m. c #F2EC08",
"M. c #EDF503",
"N. c #FFFE01",
"B. c #F9F10E",
"V. c #F8F607",
"C. c #F6E717",
"Z. c #F3E21C",
"A. c #F7EA14",
"S. c #F5EE1F",
"D. c #E8C735",
"F. c #EBD42B",
"G. c #F3E437",
"H. c #BD9049",
"J. c #BC9046",
"K. c #B48D59",
"L. c #B0874B",
"P. c #B8936A",
"I. c #AD9271",
"U. c #A5947A",
"Y. c #AF916F",
"T. c #BAA379",
"R. c #9A8569",
"E. c #CB9C4C",
"W. c #C29549",
"Q. c #D5A44F",
"!. c #DFAF4F",
"~. c #DEAC53",
"^. c #D5A451",
"/. c #D4AA4F",
"(. c #E3B847",
"). c #E0AD54",
"_. c #E5B156",
"`. c #C8A577",
"'. c #D9BC79",
"]. c #D7AF73",
"[. c #BAC041",
"{. c #E9C241",
"}. c #FDF15C",
"|. c #F4E060",
" X c #2C4F9B",
".X c #365296",
"XX c #304F97",
"oX c #536698",
"OX c #506391",
"+X c #73788F",
"@X c #526EAC",
"#X c #4F6CAC",
"$X c #525E88",
"%X c #3EA0B4",
"&X c #748ABE",
"*X c #42A3B6",
"=X c #02BCFF",
"-X c #84BC91",
";X c #B6A487",
":X c #B0B7B0",
">X c #888DA2",
",X c #CDB28A",
"<X c #D4B38B",
"1X c #DBB98D",
"2X c #D7B58B",
"3X c #DDBD93",
"4X c #C7A881",
"5X c #B4CBB9",
"6X c #E6C99F",
"7X c #DFD4A8",
"8X c #D9CDA2",
"9X c #EACCA3",
"0X c #F3D7AE",
"qX c #EED9AF",
"wX c #FEE6BD",
"eX c #FFE8BF",
"rX c #FDE1B7",
"tX c #DDC098",
"yX c #9AD4D6",
"uX c #D1D1D2",
"iX c #FFE9C0",
"pX c #FFE6C1",
"aX c #F7EBD0",
"sX c #FFF7EA",
"dX c white",
"fX c #F3F5FA",
"gX c #F6EDE0",
/* pixels */
"                                                                                                                                ",
"                                                                                                                                ",
"                                                                                                                                ",
"                                                              G D >.w.w.w.w.,.d a k G D C E E | $.$.$.$.$.                      ",
"                                                              D D >.w.w.w.w.3.d a k D D C i i | $.$.$.$.$.                      ",
"                                                            1.=.=.2.w.w.w.w.,.d a x =.=.8.a.a.f.H.H.H.H.W.                      ",
"                                      G G G H H H 3.w.w.w.w.w.w.w.w.w.w.w.w.,.d a x w.6.l.N.N.D.~.~.~.~.~.~.~.E.$.$.            ",
"                                      G G G H D H 3.w.w.w.w.w.w.w.w.w.w.w.w.,.d a x w.6.l.N.N.D.~.~.~.~.~.~.~.E.$.$.            ",
"                            a a k H H H G G =.1.1.6.w.w.w.w.w.w.w.w.w.w.w.w.,.d a x w.6.g.D.D.F.Z.Z.Z.Z.Z.Z.Z.D.E.E.J.$.$.      ",
"                            a a k H H H G G 2.w.w.w.w.w.w.w.w.w.w.w.w.w.w.w.,.d a x w.6.g.).~.C.N.N.N.N.N.N.N.Z.~.).H.$.$.      ",
"                            a a k G H H H H 2.w.w.w.w.w.w.w.w.w.w.w.w.w.6.6.,.s a M r.r.g.).!.Z.N.N.N.N.N.N.N.Z.!.).W.d.d.      ",
"                      a a f Z S G G D =.3.3.6.w.w.w.w.w.w.w.w.w.w.w.w.w.M j x :.4.t.b.b.n.B.B.D.(.(.(.(.(.(.(.F.B.B.m.n.n.[ i E ",
"                      a a f G H H G D >.w.w.w.w.w.w.w.w.w.w.w.w.w.w.w.w.x < s <.6.9.N.N.N.N.N.D.~.~.~.~.~.~.~.D.N.N.N.N.N.[ i E ",
"                      f f k G G G G D =.3.3.6.w.w.w.w.6.,.,.,.,.,.<.w.w.x a j <.6.9.B.B.V.N.N.D.Q.Q.Q.Q.Q.Q.Q.D.B.B.m.n.n.[ i E ",
"                a a a Z G G G G H H H H H H 2.w.w.w.w.4.d d d d d 7.w.w.x a j <.6.y.).!.F.N.N.k.$.%.%.%.%.%.$.J.).).X.I I       ",
"                a a a S H G G G H H H H G G 2.w.w.w.w.:.a a a a < B e.w.x < s 3.6.y.~.~.F.N.N.k.&.......$.$.$.J.~.).o.r I       ",
"                f k k G H H H H H G G G H H >.1.1.1.1.-.n n n n n N ;.;.M n N 9.u.g.~.~.D.v.v.E.K.K.K.K.L.! !  .~.).o.r E       ",
"            . . g H H G H H H H H H G G G G H H H H D *.w.w.w.w.w.M a a :.w.t.M.N.C.~.~.W.$.$.`.2X<X<X2XI.O . .                 ",
"            . . g H H H H H G G H H G H G G H H H H D *.w.w.w.w.w.M < a :.w.t.M.N.C.~.).W.....`.2X<X<X2XI.O . .                 ",
"            . . g H H H H H G G H H H G G G G H H H G H =.=.-.N N m l b -.=.w.M.N.C.~.~.^.P.P.3X9X9X1X2XI.O . .                 ",
"            . . g H H H G G G G H H G G G G H H G G G G D D b < a b H H G D :.M.N.C.~.~.].2X2X0XeXwX3X2XI.O . .                 ",
"            . . g H H H G G G G H G G G G G H H G G G G G H b a a b H G G D :.M.N.C.~.~.].<X<X0XeXrX3X2XI.O . .                 ",
"      . . 2 l l S H G l k k k k f > > 4 k k k k k k k k k k l Z Z l k k T T ! f.h.k.C.C.|.0X0X' u Y { | ! O . .                 ",
"      . . 4 *.H H H G f a a a a 1 . . > a a a a a a a a a < z D D z < a U r W ..&.h.N.N.}.pXeXY . . q I q . . .                 ",
"      . . 4 G G G G G d < < < < > . . > < < a a a a a d c c L 5.5.m j c U E W $.%.h.V.V.}.pXeX_ * * y W y & + +                 ",
". . $ < < a f f f f d $ X X X X X     X X X 1 a a a a V 8X7X7X7X7X,XT.T.{ r } E.^.E.d.d.'.eXeXaXuXuXoX.X$XT.T.` . .             ",
". . $ a a a a a a a a X . . . . .     . . . 1 a a a a ^ eXiXiXeXeX9X<X<X{ r } Q.).E.$.$.].eXeXsXdXfX@X XoX<X1X@.. .             ",
". . X 1 , , , , , , 1 X . . . . .       . . > , , , 1 V 6X9X0XeXeX9X3X3X{ r } k.{.k. .| `.eXeXsXdXfX@X XoX,X1X@.. .             ",
"      . . . . . . . .                       . . . . . ; $.$.`.eXeXwXeXrXO.r ] m.N.x.E r P.eXeXsXdXfX@X XoX,X1X@.. .             ",
"      . . . . . . . .                       . . . . . ; $.$.`.iXeXeXwXrXO.e ] m.N.x.E r P.iXeXsXdXfX#X XoX<X3X@.. .             ",
"      . . . . . . . .                         . . . . & R R #.1X1X5XyXyXR.#.L.V.N.x.E r P.iXeXgXsXgX>X+X+X' +.! . .             ",
"                                                  . . . . . 7 $...%X=X=X:X2X'.V.N.x.E r P.iXeXeXeXwX3X2XI.O . .                 ",
"                                                  . . . . . 0 %...*X=X=X:X<X'.V.N.x.I e P.iXeXeXeXwX3X1XI.O . .                 ",
"                                                  p.p.p.+.+.! 0 0 ) ( ( [.G.F.a.s.f.K.K.`.9X6X6X6XtX_ Y Y                       ",
"                                                  N.N.S.1X3X+.. . . . . z.N.n.I e O.2X2X2X<X<X<X<X4X* . .                       ",
"                                                  V.V.Z.,X<X` . . . . O z.N.n.I e { ,X,X<X,X,X,X<X`.; . .                       ",
"                                                  8 8 8 6 6 6 , , $ . O f.{.k.- # 6 V V V V V 9 6 6                             ",
"                                                  . . . . . % a a % . O L._.W.# . $ < a a < a $ . .                             ",
"                                                  . . . . . % f f > X %  .W.d.& . % f f f f f > X $                             ",
"                                                        . . 2 G G S S Z 5 # & < < f G G S G G S S Z $ . .                       ",
"                                                        . . 3 H G H H G % . . < a k H H H G G G H S $ . .                       ",
"                                                        . . 3 H G A z z 2 > > f k k l l Z H G G G G v P P                       ",
"                                                        . . 3 H H 3 . . A H G G H l . . 4 H G G D *.b.N.c.o . .                 ",
"                                                        . . 3 D D 3 . . l F F F F z . . 4 D D D D *.b.N.c.o . .                 ",
"                                                      % 4 4 j ~ ~ 5 . O i.-X-X-X-Xi.. . 5 ~ C C C ~ j.l.8.X . .                 ",
"                                                  . . % G D L i E - . O uXdXdXdXdX:X. . 7 E E E E E J D A . . .                 ",
"                                                  . . % G D L E E - . O uXdXdXdXdX:X. . : E E E E E K D A . . .                 ",
"                                                  . . % G D K 0.0.5 . O oX&X&X&X&X$X. . 8 0.0.0.0.0.1.1.K . . .                 ",
"                                                  . . % G D =.w.e.h . . /  X X X X/ . . j e.w.w.w.w.w.e.;.. . .                 ",
"                                                  . . % S S -.w.w.h . . / .X.X.X.X/ . . j w.w.w.w.w.<.<.B . . .                 ",
"                                                        $ $ j w.w.h . . y Q Q Q Q t . . j w.w.w.w.<.5 % %                       ",
"                                                        . . h e.e.h . . q I r r I w . . c e.w.w.w.<.% . .                       ",
"                                                        . . < ;.;.5 . . R { { { | R . . h ;.;.;.;.B % . .                       ",
"                                                              . . . . O R.<X2X0XwX;X. . . . . . . . . . .                       ",
"                                                              . . . . O I.3X3XeXiX;X. . . . . . . . . . .                       ",
"                                                              . . + @ @ _ @.@.U.U.' @ @ @ @ @ = - - O . .                       ",
"                                                              . . ; t t o . . . . + t t t t t p E e # . .                       ",
"                                                              . . ; t t o . . . . + t t t t t p E e # . .                       ",
"                                                                  @ = = ; ; = . . O = = = = = - : : o                           ",
"                                                                  . . . 7 t w O . . . . . . . . . .                             ",
"                                                                  . . . 7 t 7 O . . . . . . . . . .                             ",
"                                                                        + + + . . .                                             ",
"                                                                        . . . . . .                                             ",
"                                                                        . . . . . .                                             "
};
