/* XPM */
static char *right__282_29[] = {
/* columns rows colors chars-per-pixel */
"53 64 227 2 ",
"   c None",
".  c #000001",
"X  c #090504",
"o  c #030B03",
"O  c #0F0908",
"+  c #140D0A",
"@  c #031305",
"#  c #081B07",
"$  c #1E140D",
"%  c #090F17",
"&  c #26150D",
"*  c #321C0E",
"=  c #291712",
"-  c #2A1712",
";  c #341E13",
":  c #05240B",
">  c #07290A",
",  c #0B3E0C",
"<  c #083409",
"1  c #083A14",
"2  c #183C10",
"3  c #2C251E",
"4  c #292715",
"5  c #3D211A",
"6  c #352518",
"7  c #2F3109",
"8  c #121B26",
"9  c #142C2D",
"0  c #35322D",
"q  c #46271A",
"w  c #4A361B",
"e  c #5C341A",
"r  c #513118",
"t  c #522C16",
"y  c #64391C",
"u  c #693A1D",
"i  c #713E1F",
"p  c #4B2A21",
"a  c #44372A",
"s  c #6C3C20",
"d  c #623921",
"f  c #723E20",
"g  c #0D420D",
"h  c #0D4B12",
"j  c #0A4715",
"k  c #184612",
"l  c #0E5315",
"z  c #0E5D1A",
"x  c #0B551D",
"c  c #175613",
"v  c #295019",
"b  c #0F651E",
"n  c #1E6316",
"m  c #226A18",
"M  c #206617",
"N  c #2B7B1D",
"B  c #327B1B",
"V  c #165F27",
"C  c #2E5D22",
"Z  c #0E6C23",
"A  c #0D6221",
"S  c #0E7125",
"D  c #0E7B29",
"F  c #0A7826",
"G  c #107425",
"H  c #107B29",
"J  c #197627",
"K  c #1A6B26",
"L  c #237326",
"P  c #2F6825",
"I  c #5F570F",
"U  c #73401F",
"Y  c #7C4E1F",
"T  c #656601",
"R  c #5A4624",
"E  c #574A39",
"W  c #4F5227",
"Q  c #694624",
"!  c #754221",
"~  c #784422",
"^  c #794927",
"/  c #755329",
"(  c #6E522C",
")  c #5C6D3F",
"_  c #566F2A",
"`  c #1D3146",
"'  c #283A4E",
"]  c #314E50",
"[  c #315374",
"{  c #335678",
"}  c #2E4D6C",
"|  c #4D484A",
" . c #756753",
".. c #434C79",
"X. c #6C6869",
"o. c #5C6455",
"O. c #947218",
"+. c #85542B",
"@. c #865834",
"#. c #905E2E",
"$. c #826432",
"%. c #986933",
"&. c #9B723C",
"*. c #A67A39",
"=. c #86725A",
"-. c #93714F",
";. c #A47B41",
":. c #A77D43",
">. c #A37954",
",. c #8D7E71",
"<. c #32831F",
"1. c #1B8429",
"2. c #11802B",
"3. c #248C29",
"4. c #288826",
"5. c #338921",
"6. c #2C9229",
"7. c #369023",
"8. c #3D9B27",
"9. c #3A9E29",
"0. c #359727",
"q. c #3C8632",
"w. c #3EA329",
"e. c #4D961E",
"r. c #6FB019",
"t. c #719339",
"y. c #41A429",
"u. c #45A829",
"i. c #5EB322",
"p. c #60B423",
"a. c #2F8D46",
"s. c #778759",
"d. c #54A166",
"f. c #5A864C",
"g. c #8E9503",
"h. c #A88915",
"j. c #B99B1A",
"k. c #A9833C",
"l. c #90A838",
"z. c #B2AA34",
"x. c #A29512",
"c. c #C7B40C",
"v. c #CBB12A",
"b. c #88C419",
"n. c #BAD40B",
"m. c #B1CB22",
"M. c #D8CC13",
"N. c #E3D616",
"B. c #EDDE17",
"V. c #D9EC07",
"C. c #EEE70A",
"Z. c #FFFF01",
"A. c #F9F707",
"S. c #F5E41A",
"D. c #EDED08",
"F. c #DDCA26",
"G. c #EDD22D",
"H. c #E9D225",
"J. c #F2DB24",
"K. c #EACB34",
"L. c #E5C835",
"P. c #EACE2D",
"I. c #9D8250",
"U. c #AD8447",
"Y. c #B68A46",
"T. c #BD9148",
"R. c #B58E56",
"E. c #A7AA43",
"W. c #9A8B68",
"Q. c #A58B6B",
"!. c #B5946D",
"~. c #A0A672",
"^. c #CA9C4B",
"/. c #D8A94D",
"(. c #DDAB53",
"). c #D7A752",
"_. c #CBA340",
"`. c #E5BC43",
"'. c #E2B44C",
"]. c #E1AD54",
"[. c #C6A57B",
"{. c #C39D76",
"}. c #2F519C",
"|. c #2C4F9C",
" X c #086D93",
".X c #546798",
"XX c #308385",
"oX c #7E93A7",
"OX c #09BAF7",
"+X c #27B6E0",
"@X c #33B7DA",
"#X c #938D93",
"$X c #878687",
"%X c #BAB98B",
"&X c #8792A5",
"*X c #BAB9B8",
"=X c #9BBDAD",
"-X c #CDAE87",
";X c #D0AE85",
":X c #D4B48B",
">X c #D8B68D",
",X c #DAB98E",
"<X c #D4B184",
"1X c #DDBC93",
"2X c #D4BD9B",
"3X c #BDC994",
"4X c #B2C9AD",
"5X c #99C3A3",
"6X c #E3C499",
"7X c #ECD08E",
"8X c #FFEB9B",
"9X c #E7C9A2",
"0X c #EDD2A8",
"qX c #F2D6AA",
"wX c #F4DDB7",
"eX c #FEE5BC",
"rX c #FFE8BF",
"tX c #FBE0B6",
"yX c #DFC098",
"uX c #B5C1DC",
"iX c #BCC6CF",
"pX c #C7D3D0",
"aX c #FFEAC2",
"sX c #FFEBC9",
"dX c #FFFFFE",
"fX c #F8F9F4",
"gX c #F0F1E9",
/* pixels */
"                                  H H H H H 9.y.y.y.y.y.y.y.M g g S D L ! U +.:.;.                        ",
"                                  D D D D H 9.y.y.y.y.y.y.y.M , g Z F K Q f +.;.;.                        ",
"                                1.1.1.1.1.1.9.y.y.y.y.8.5.5.m c c e.e.e.O.O.*.Y.Y.T.                      ",
"                            H D 3.y.y.y.y.y.y.y.y.y.y.N g g N y.u.V.Z.Z.Z.Z.B.(.(.(.(.(.Y.;.;.            ",
"                            D D 3.y.y.y.y.y.y.y.y.y.u.N , , N w.u.V.Z.Z.Z.Z.S.(.(.(.(.(.U.;.;.            ",
"                          1.3.3.0.y.y.y.y.y.y.y.8.N N N m m t.l.l.F.J.J.J.J.G.G.G.G.G.P.^.T.T.            ",
"                g g g G D 1.y.y.y.y.y.y.y.y.y.y.7.g , m u.y.E.].].(.(.(.(.(.K.Z.Z.Z.Z.Z.`.(.).:.;.;.      ",
"                g g g G D 1.y.y.y.y.y.y.y.y.y.y.7.g g m y.w.E.].(.(.(.(.(.(.K.Z.Z.Z.Z.Z.`.(.).:.;.;.      ",
"            g g z b Z H D 1.y.y.y.y.y.y.y.y.y.y.7.g g m y.w.m.S.S.S.S.H.T.Y._.K.K.K.K.K.J.S.B.N.N.v.;.;.  ",
"            g g Z H H H D 1.y.y.y.y.y.y.y.y.y.y.7.g g m y.w.n.Z.Z.Z.Z.C.k.;.Y.(.(.(.(.(.C.Z.Z.Z.Z.N.;.;.;.",
"          g g g Z H H H D 1.w.w.y.y.y.y.y.y.y.y.7.g g m y.w.n.Z.Z.Z.Z.C.k.;.Y.(./.(.(.(.S.Z.Z.Z.Z.N.;.;.;.",
"      . . 1 G S H H H H H H 1.1.6.y.y.y.y.y.y.y.7.g g m y.w.z.`.`.A.Z.C.k.:.%.+.+.Y.].(.'.`.L.Z.Z.N.;.;.;.",
"      . . 1 H H H H H H H H D D 3.y.y.y.y.y.y.y.7.g , m y.w.E.].(.A.Z.C.k.;.%.i i *.].(.(.(.`.Z.Z.N.;.;.;.",
"      . . 1 H H H H H H H H H D 3.9.9.w.y.y.8.8.5.c c B p.i.E.].(.B.D.N.U.U.;.+.+.Y.).).).)./.C.C.M.;.;.  ",
"      . . 1 H H H H H H H H H H H H H 0.y.8.c g c 8.9.b.A.A.L.(.(.Y.k.Y.;X:X;X;X;XR.:.:.:.:.*.^ Y Y       ",
"      . . 1 H H H H H H H H H H H H H 0.y.8.c , c y.w.b.Z.Z.K.(.(.U.;.U.;X:X:X:X>XR.:.:.;.;.&.~ ! !       ",
"    o @ @ j H H H H H H H H H H H H H 3.0.6.h g c 0.6.b.Z.Z.K.(.(.R.R.!.6X6X1X:X>X>.( ( &.:.&.~ !         ",
". . @ g g z H H H H H H H H H H H H H H H G h g h H F r.Z.Z.K.(.(.<X:X1XeXeXqX:X>XE . .                   ",
". . @ g g z H H H H H H H H H H H H H H H H h , h F F r.Z.Z.K.(.(.<X:X1XrXaXqX>X,XE . .                   ",
". . @ g g z H H H H H H H H H H H H H b z z z z L t.t.l.v.v.F.J.G.7X0X2X=. .=.>.>.a . .                   ",
". . @ g g z H H H H H H H H H H H H H l g g G D q.(.].^.;.;.M.Z.A.8XaX2XX . & i U * . .                   ",
". . @ g g z H H H H H H H H H H H H H l g h G D q.).].^.;.;.M.Z.A.8XaX2XO . & ! ! * . .                   ",
". . @ g g z H H H H H z l l l l f.3X3X%X%X%X~.~.W.%.#.*.^.^.v.z.v.qXrXwX*X*X&X....X.W.,.3 . .             ",
". . @ g g z H H H H G h g g g , s.aXaXaXaXeX1X>X{.! i %.].].T.;.:.0XeXsXdXdXuX}.}.#X,X:X3 . .             ",
". . @ g g z H H H G S g , , , < s.tXwXeXeXeX1X1X{.~ i %.'.'.Y.&.;.0XeXsXdXdXuX}.}.#X>X-X3 . .             ",
". . @ g g z H H z h h @ o o o . R R.R.6XrXeXtXtX1X^ f h.A.A.h.~ +.9XrXsXdXdXuX}.}.#X>X-X3 . .             ",
". . @ g g z H H l g , o . . . . w :.;.6XaXaXeXrX6X~ s h.Z.Z.h.f ^ 9XrXsXdXdXuX|.|.#X,X:X3 . .             ",
". . @ g g z H H j < < o . . . . 6 $.$.[.0X0XpXpX4X#.+.j.Z.Z.h.f ^ 9XrXsXfXfXpX.X.X,.Q.Q.3 . .             ",
". . @ g g z H H : . .       . . . . . ( U.I.+XOX@X).(.P.Z.Z.h.f ^ 9XrXeXeXaX0X:X>XE . X                   ",
". . @ g g z H H : . .       . . . . . ( U.I.+XOX@X).(.K.Z.Z.h.u ^ 9XaXeXeXrXqX>X1XE . .                   ",
". . o > > j b b # . .       T T I R R R Q E  X XXXL.K.F.c.c.k.-.>.yX0X0X0XqX-X=.=.a . .                   ",
"      . . # g g @ . .       Z.Z.J.].].w . . . . 7 A.Z.c.s i Q.,X>X:X:X:X:X>X=.. .                         ",
"      . . : g g @ . .       Z.Z.J.].].w . . . . 7 A.Z.c.f U Q.,X>X>X>X>X>X,X=.. .                         ",
"          @ # # o           T T I R R 4 : : . . 7 L.G.h.& * W ) ) ) ) ) E E a                             ",
"            . .             . . . . . > g , o . 4 ).].$.. . > g g g g < . . .                             ",
"            . .             . . . . . > g , o . 4 ).(.$.. . > g g g g , X X X                             ",
"                            . . & e e C S Z A A K q.q.v . . j G Z Z Z B n.M.g.. .                         ",
"                            . . * ~ ! P D D H H D D D j . . j D D H D 7.Z.Z.x.. .                         ",
"                            % % ; y y C J J H H H J J h o o V a.a.G Z <.V.D.g.@ #                         ",
"                      . . % } } 9 X X r ! Q J D L Q ! W S Z 5XfXgX0 . : L 4.4.8.8.k . .                   ",
"                      . . % [ { ` . . t ~ ! J D L ! ! W F F 4XdXfX0 . @ G D 3.y.y.k . .                   ",
"                      0 0 0 ' ' 9 : : v W W P P C r t E d.d.=XpXiX' % 8 x x J y.y.k . .                   ",
"                . . + !.,XQ.X . 1 H H H H J Q ! e . . X.dXdXoX[ [ [ [ } o . 2 y.y.k . . . . .             ",
"                . . + !.1XQ.X . 1 H H D D J Q f e . . X.dXdX&X} [ [ [ } . . 2 u.u.k . . . . .             ",
"                  . + E  .E . . > b z J 6.6._ _ _ 1 1 ] $X$X..[ [ | | | 6 ; 7 v v 4 & & * ; * X           ",
"                      . . . . . # g g <.y.y.y.y.9.2.2.j . . ` { [ Q U U ! ~ q . . - p p s ! y X . .       ",
"                      . . . . . # g g 5.y.y.y.y.9.H H j . . ` { [ Q U ! ! ! q . . = p p s ! y X . .       ",
"                  . X q t q ; ; $ @ @ k n M 8.y.w.0.0.L x x 9 8 8 d U @.-X>X=.. . = p p s ! y X . .       ",
"                . . X y ! s p p = . . > g g 8.y.y.y.y.6.H H > . . e U @.tXaXQ.. . = p p s ! y X . .       ",
"                . . X y ! s p p = . . > , g 5.8.8.8.8.4.S S > . . e i @.0XwXW.. . = p p y i e X . .       ",
"                . . X y ! s p p = . . . o o # # # # # @ @ @ . . . O O + 3 3 3 5 5 q p q $ O O             ",
"                . . X y ! s p p = . . . . . . . . . . . . . . . . . . . . . + p p p p q O . .             ",
"                . . X e s d p p = . . . . . . . . . . . . . . . . . . . . . + 5 5 5 5 5 O . .             ",
"                . . X q p p p p = . .                             . . . . . . . . . . .                   ",
"                . . X q p p p p = . .                             . . . . . . . . . . .                   ",
"                . . X q p p p p = . .                             . . . . . . . . . . .                   ",
"                . . X q p p p p = . .                                                                     ",
"                . . X q p p p p = . .                                                                     ",
"                      $ & & & & +                                                                         ",
"                      . . . . . .                                                                         ",
"                      . . . . . .                                                                         ",
"                                                                                                          ",
"                                                                                                          ",
"                                                                                                          "
};
