/* XPM */
static char *ac0f7b4b301a420a9bb59bc2c004ab3b4fi0Bemay0g6SNon[] = {
/* columns rows colors chars-per-pixel */
"20 32 125 2 ",
"   c None",
".  c black",
"X  c #001900",
"o  c #001A00",
"O  c #001B00",
"+  c #031B03",
"@  c #001C00",
"#  c #001D00",
"$  c #001E00",
"%  c #001F00",
"&  c #191919",
"*  c #181B18",
"=  c #1A191A",
"-  c gray10",
";  c #1B1B1B",
":  c #002F00",
">  c #003100",
",  c #003400",
"<  c #003600",
"1  c #003700",
"2  c #003800",
"3  c #003A00",
"4  c #003B00",
"5  c #043B04",
"6  c #183218",
"7  c #1A331A",
"8  c #183418",
"9  c #1A351A",
"0  c #1B371B",
"q  c #1C341C",
"w  c #1C371C",
"e  c #1B391B",
"r  c #323532",
"t  c #353535",
"y  c #00C600",
"u  c #00C700",
"i  c #00C800",
"p  c #00C900",
"a  c #00CA00",
"s  c #00CB00",
"d  c #03CB03",
"f  c #00CD00",
"g  c #04C904",
"h  c #00DF00",
"j  c #1CDE1C",
"k  c #00E100",
"l  c #00E200",
"z  c #00E300",
"x  c #03E303",
"c  c #00E400",
"v  c #00E500",
"b  c #00E600",
"n  c #00E700",
"m  c #04E304",
"M  c #04E604",
"N  c #04E704",
"B  c #00E800",
"V  c #00EA00",
"C  c #00FB00",
"Z  c #00FC00",
"A  c #00FD00",
"S  c green",
"D  c #03FF03",
"F  c #04FF04",
"G  c #1CE61C",
"H  c #1DE61D",
"J  c #15FF15",
"K  c #19FC19",
"L  c #18FF18",
"P  c #1AFF1A",
"I  c #1BFF1B",
"U  c #1CFB1C",
"Y  c #1CFC1C",
"T  c #1CFF1C",
"R  c #1DFF1D",
"E  c #20FF20",
"W  c #21FF21",
"Q  c #2EFF2E",
"!  c #37FB37",
"~  c #34FF34",
"^  c #36FF36",
"/  c #37FF37",
"(  c #3AFF3A",
")  c #3DFF3D",
"_  c #3FFF3F",
"`  c #C3C3C3",
"'  c #C4C3C4",
"]  c #C5C3C5",
"[  c #C6C8C6",
"{  c #C9CAC9",
"}  c #C5DDC5",
"|  c #C5DEC5",
" . c #DDDDDD",
".. c #CAE3CA",
"X. c #C9E5C9",
"o. c #C8E6C8",
"O. c #CBE5CB",
"+. c #CBE8CB",
"@. c #C7FFC7",
"#. c #C9FCC9",
"$. c #C9FFC9",
"%. c #CAFFCA",
"&. c #CBFFCB",
"*. c #CCFFCC",
"=. c #CFFFCF",
"-. c #E0DDE0",
";. c #E0DEE0",
":. c #E2E2E2",
">. c gray89",
",. c #E4E3E4",
"<. c #E5E3E5",
"1. c #E2FFE2",
"2. c #E3FFE3",
"3. c #E4FFE4",
"4. c #E5FFE5",
"5. c #E6FFE6",
"6. c #E7FFE7",
"7. c #E8FFE8",
"8. c #EAFFEA",
"9. c #EBFFEB",
"0. c #FBFBFB",
"q. c #FCFBFC",
"w. c #FCFFFC",
"e. c #FEFFFE",
"r. c white",
/* pixels */
"                . . . .                 ",
"                ; - @ O                 ",
"            . - ] | j y @ .             ",
"            - t <.3.W v 2 O             ",
"        . - ` :.q.2.W C v y @ .         ",
"        - t :.e.e.2.W S S v 2 O         ",
"    . - ] :.q.e.e.3.W S S C v y @ .     ",
"    - r X.8.w.e.8.#.G v C S B f < O     ",
". ; ] ..! / 3.8._ G 5 2 v B 2 < i i @ . ",
". ; ;.8./ Q $.*.T v < : f f > < B v @ . ",
". ;  .e.2.$.( T F C z i < < y z S z : . ",
". ;  .e.e.3.W S S S S z @ O h S S h @ . ",
". ;  .e.e.3.W S S S S z @ O h S S h @ . ",
". ;  .e.e.2.W S S S S z @ O h S S z : . ",
". ;  .e.e.2.W S S S S z @ X h S S z X . ",
". ;  .e.e.3.W S S S S z : X h C S z @ . ",
". ;  .e.e.3.W S S S S z @ @ h S S z @ . ",
". ;  .e.e.3.W S S S S z @ O h S S h @ . ",
". ;  .e.e.3.T S S S S h : X h S S z : . ",
". ;  .e.8.*.( L F S S z O X h S S z @ . ",
". ; ;.8._ / @.$.T S S z @ O z S S h O . ",
". - | $.L J @.*./ K M i 9 9 g v C z : . ",
". + j T F F L / $.X.w 7 [ { w 2 v v @ . ",
". O y v C S S L $.X.9 9 X.+.w > i f @ . ",
"    @ 2 z S S F T U m m U U N i 2 @     ",
"    . O y v C S S S S S S S B f @ .     ",
"        @ 2 z S S S S S S v 2 @         ",
"        . O y v C S S S v i @ .         ",
"            @ 2 v S S v 4 @             ",
"            . O y v z i @ .             ",
"                @ @ : @                 ",
"                . . . .                 "
};
