/* XPM */
static char *right__283_29[] = {
/* columns rows colors chars-per-pixel */
"54 64 227 2 ",
"   c None",
".  c #000001",
"X  c #0A0605",
"o  c #020A04",
"O  c #0C0B0B",
"+  c #080907",
"@  c #120B06",
"#  c #140C0A",
"$  c #1A0E0B",
"%  c #031305",
"&  c #051B07",
"*  c #171309",
"=  c #1C1713",
"-  c #0E1511",
";  c #23140B",
":  c #251812",
">  c #341D17",
",  c #301B0E",
"<  c #082B09",
"1  c #06260C",
"2  c #0B3E0B",
"3  c #0A340A",
"4  c #0A3414",
"5  c #2C2908",
"6  c #27241B",
"7  c #3B2119",
"8  c #3B2614",
"9  c #372920",
"0  c #45261E",
"q  c #492818",
"w  c #5A3319",
"e  c #553119",
"r  c #502E17",
"t  c #6D3C1D",
"y  c #62371A",
"u  c #713E1E",
"i  c #4B2920",
"p  c #532E20",
"a  c #593524",
"s  c #453E34",
"d  c #663A21",
"f  c #743F20",
"g  c #0D420D",
"h  c #114A0F",
"j  c #0D4911",
"k  c #0B4316",
"l  c #164B12",
"z  c #0E5D1B",
"x  c #0D5517",
"c  c #155312",
"v  c #1A5B14",
"b  c #155917",
"n  c #225616",
"m  c #3A461C",
"M  c #0E641E",
"N  c #1C6417",
"B  c #2B761D",
"V  c #246518",
"C  c #0C5F20",
"Z  c #0F6D23",
"A  c #0C6521",
"S  c #146B23",
"D  c #0E7B29",
"F  c #0D7626",
"G  c #107526",
"H  c #107B29",
"J  c #127828",
"K  c #2C7227",
"L  c #414217",
"P  c #73421E",
"I  c #7B4B1F",
"U  c #744A1E",
"Y  c #57493C",
"T  c #52492C",
"R  c #624B24",
"E  c #744220",
"W  c #7A4925",
"Q  c #695322",
"!  c #6F5236",
"~  c #42792A",
"^  c #62722E",
"/  c #58544D",
"(  c #6A564B",
")  c #77704F",
"_  c #544F65",
"`  c #6E716D",
"'  c #91681B",
"]  c #83532C",
"[  c #8B5A2E",
"{  c #855634",
"}  c #89572A",
"|  c #9B723C",
" . c #936834",
".. c #A3773C",
"X. c #8E785E",
"o. c #98714E",
"O. c #A17742",
"+. c #A47A41",
"@. c #A87F44",
"#. c #8D7B63",
"$. c #1B8429",
"%. c #188329",
"&. c #198233",
"*. c #308521",
"=. c #368D23",
"-. c #399424",
";. c #3C9B26",
":. c #369928",
">. c #268B2B",
",. c #3EA229",
"<. c #2C801F",
"1. c #44861A",
"2. c #449E28",
"3. c #548A36",
"4. c #6E9834",
"5. c #41A429",
"6. c #45A829",
"7. c #57AC22",
"8. c #68B721",
"9. c #79A738",
"0. c #72AC29",
"q. c #7EB816",
"w. c #7FC21C",
"e. c #38904C",
"r. c #6A8151",
"t. c #ACAC00",
"y. c #AC863B",
"u. c #B08D38",
"i. c #BC9D30",
"p. c #A09824",
"a. c #A39325",
"s. c #CDB61B",
"d. c #C5AA2A",
"f. c #CDB624",
"g. c #D2BD21",
"h. c #C4A337",
"j. c #D9B539",
"k. c #E0BA3A",
"l. c #9FD114",
"z. c #B1D30E",
"x. c #B8C32D",
"c. c #D1C20A",
"v. c #D7C71B",
"b. c #DCD709",
"n. c #E6DD07",
"m. c #E4D814",
"M. c #FEFE01",
"N. c #F7F703",
"B. c #F1EC10",
"V. c #F2DD22",
"C. c #E5CA38",
"Z. c #F4E42B",
"A. c #DAD814",
"S. c #88885E",
"D. c #B58A46",
"F. c #B38B4E",
"G. c #968964",
"H. c #90936C",
"J. c #BA956A",
"K. c #A79378",
"L. c #BB9B76",
"P. c #AD8965",
"I. c #92B278",
"U. c #BBA56F",
"Y. c #C4964B",
"T. c #CC9C4C",
"R. c #C59947",
"E. c #D6A44F",
"W. c #DEAC52",
"Q. c #D6A550",
"!. c #C7AC4D",
"~. c #E4BA45",
"^. c #E1AD53",
"/. c #E4B054",
"(. c #C09C6D",
"). c #C8A57C",
"_. c #CEAE6F",
"`. c #FFF45E",
"'. c #E6CF70",
"]. c #2C4F9C",
"[. c #38569A",
"{. c #49609B",
"}. c #506497",
"|. c #5772AE",
" X c #5773B1",
".X c #6077AC",
"XX c #807F80",
"oX c #258AA6",
"OX c #099ACD",
"+X c #07BCFB",
"@X c #2FB4DB",
"#X c #4CB2C9",
"$X c #23C2F9",
"%X c #888787",
"&X c #B8A387",
"*X c #B0A89B",
"=X c #B6B5B6",
"-X c #A9AFAB",
";X c #CEAD84",
":X c #C9AD8C",
">X c #D1AF85",
",X c #D6B58C",
"<X c #D9B68E",
"1X c #DAB88D",
"2X c #DDBC93",
"3X c #CBB194",
"4X c #C2BEBC",
"5X c #B2C0B3",
"6X c #E3C49A",
"7X c #F3D7AE",
"8X c #F5DCB3",
"9X c #FADFB5",
"0X c #E8D3AD",
"qX c #FFE6BD",
"wX c #FFE8BF",
"eX c #F6E2BB",
"rX c #DFC097",
"tX c #D5D5D5",
"yX c #C7D2C5",
"uX c #FFEAC2",
"iX c #FEE6C2",
"pX c #EEE4C2",
"aX c #EBE7E3",
"sX c #FFF7E9",
"dX c #FEFEFE",
"fX c #F5F7F9",
"gX c #DAEDDF",
/* pixels */
"                            +.+.| E f Q 5.5.B g g *.5.5.5.5.5.5.5.5.5.5.5.                                  ",
"                            +.+.| E f Q ,.,.B 2 g *.6.5.5.5.5.5.5.5.5.5.5.                                  ",
"                            D.D.y.' ' a.8.8.1.v v B =.=.,.5.5.5.5.5.5.5.5.                                  ",
"                      +.+.@.E.W.~.N.M.M.M.M.l.,.5.N g h -.5.5.5.5.5.5.5.5.5.5.5.5.5.v g g                   ",
"                      +.+.@.Q.W.~.M.M.M.M.M.l.,.,.N 2 g -.5.5.5.5.5.5.5.5.5.5.5.5.5.c 2 g                   ",
"                      d.d.d.R.Y.R.v.v.m.V.V.x.9.9.~ N V B B *.5.5.5.5.5.5.5.5.5.5.5.N x x                   ",
"                +.+.+.m.M.N.u.+.+.+.+.D.W.W.W.^.^.9.,.,.c 2 c ;.5.5.5.5.5.5.5.5.5.5.$.D G j g g             ",
"                +.+.+.m.M.N.u.+.+.+...D.W.W.W.W.W.9.,.,.v g c ;.5.5.5.5.5.5.5.5.5.5.$.D G j g g             ",
"            +.+.d.v.v.f.f.f.R.Y.Y.Y.Y.Y.D.D.j.V.V.0.,.,.v g c ;.5.5.5.5.5.5.5.5.5.5.$.D G j g g             ",
"            +.+.v.M.M.i.O.@.Q.^.W.^.^.T.+.O.g.M.M.w.,.,.v g c ;.5.5.5.5.5.5.5.5.5.5.$.D G j g g             ",
"            +.+.v.M.M.i.+.@.E.W.W.W.W.T.+.+.g.M.M.w.,.,.c 2 c ;.5.5.5.5.5.5.5.5.5.5.$.D G j g g             ",
"            +.+.v.M.M.k.T.T. .[  .D.D.h.m.m.g.i.i.0.,.,.c 2 c ;.5.=.v v v v v *.5.5.$.D J Z Z M g g         ",
"            +.+.v.M.M.C.W.E.] u W ..O.d.M.M.g.O.+.4.,.;.c 2 c ;.5.*.g g g g 2 B 5.5.$.D J H H Z g g g       ",
"            +.+.g.M.N.k.E.T.[ W ] @.@.h.N.N.f.+.+.4.7.7.v h c -.;.*.h h h h h <.,.,.$.D J J H Z g g 2       ",
"            +.+.R.~.~. .W ] L.).).;X;X(.u.u.y.+.+.v.N.n.7.-.=.v l N -.;.;.;.;.>.%.%.H J H J H Z g g < . .   ",
"            +.+.Y.^.W.[ u W ).<X,X,X,X).+.+.+.+.+.m.M.M.8.5.-.h 2 v 5.5.5.5.5.>.D J J J H J H Z g g < . .   ",
"            +.+.D.R.Y.W w d ).,X,X2X2X).F.F.F.+.+.m.M.N.7.:.=.c j N =.=.-.:.:.$.D J J H H H H Z g g < . .   ",
"                E E E ; . # L.<X2XqXqX7X>X,XJ...+.m.M.N.-.D H J J Z g g z H H H H J H H H H H Z g g < . .   ",
"                E E E ; . # L.<XrXwXuX7X,X,XJ.O.+.m.M.N.-.F D H D Z g g z H H J H H H H J J H Z g g < . .   ",
"                  E E $ . O o.P.P.K.K.&X6X6X_.d.d.v.A.v.4.3.3.S M M x x z M M G H H H H H H H Z g g < . .   ",
"                      . . X y E w . . Y wXiX`.M.M.d.+.+.E.^.R.l g x J H M g g M H H J J J J D Z g g < . .   ",
"                      . . . y P w . . Y wXiX`.M.M.d.+.+.Q./.R.l 2 j D D M 2 2 M H H H H H J H Z g g < . . . ",
"                  . . Y ) ( _ _ _ %X%X*XqXiX'.f.f.h.Y.Y.....| ) ) S.I.I.I.H.H.~ z z z z z J H A 1 & &       ",
"                . . . G.2X3X{.]. XdXdXsXqXwX>XO.+.T.^.Q.] t ] >X<X6XuXuXuXuXuXr.2 g g g g G H C . . .       ",
"                . . . G.1X:X{.].|.fXdXsXqXwX)...+.T.W.Q.] u ] ;X,X6XqXqXqXqXwXr.2 g g g j G H C . . .       ",
"                . . . G.1X:X{.].|.fXdXsXqXuX(.W ] s.B.V.' u { 0X8X8XqXwX6XJ.(.T % % 3 g j G H C . . .       ",
"                . . . G.1X:X{.].|.fXdXsXqXuXJ.t f c.M.N.' u { 8XqXqXqXuX,X..+.8 . . 3 g j G H C . . .       ",
"                . . . #.;X&X}.[..XfXdXsXqXuXJ.u E c.M.N.' E { 0XpXeX9XeX;X| | 8 . . < 2 g Z J z . . .       ",
"                      = = 6 K.&X3XiXuXuXqXwXJ.u E c.M.M.j.T.U.@X$X#XF.F.! * * + . . o o % g j 2 . . .       ",
"                      . . O L.1X6XqXqXqXqXuXJ.t u c.M.M.~.^.U.+X+X@X+.@.R . . . . . . . o 2 g 3 . . .       ",
"                      . . O #.K.L.8X8X8X8X9XL.] { s.n.n.C.~.!.OXOXoX . .R 6 6 5 5 5 X . o 3 3 < . . .       ",
"                      . . . + + 9 ;X,X,X,X,X,X>X>Xo.I I n.M.b.- o o + . Y >X;XC.N.N.      . . .             ",
"                      . . . . . : >X1X<X<X<X<X<X<Xo.u I n.M.b.* . . . . Y 2X<XZ.M.M.      . . .             ",
"                      ; ; : / / / X.X.S.G.G.G.G.G.R q e v.V.v.* . o % % T X.X.p.t.t.      . . .             ",
"                . . . e E W aXdXtXO . % g g g g g % . + D./.D.# . % g g 1 . . . . .                         ",
"                . . . e E ] aXdXtXO . % g g g g g % . X D./.Y.# . % g g 1 . . . . .                         ",
"                  .   , 8 8 ` .X` k 2 k M z z z z & . + ^ 4.^ X . * L L 5 . . .                             ",
"                      . . . . . % D H H H H H H H 1 . o A D A o . ; E E q . .                               ",
"                      . . . . . % G D H H H J J H 1 . o A H Z o . $ E E q . .                               ",
"                      . . o V B 1.z.z.q.D H J J J m r r S D &.-X=X%X; ; * < < % . . . . .                   ",
"                      . . o =.6.8.M.M.z.D J J J D T E E K D e.fXdX=X. . & g g & . . . . .                   ",
"                      . . o =.,.8.N.N.z.J J J J J T t P K &.e.aXfX=X+ . & g 2 & . . . X .                   ",
"      . . . . . . . . . . o =.5.,.-.-.~ R R R R R 5 @ = 5XgXyX( ( Y 7 7 : o o o . . q y e X . .             ",
"      . . . . . . . . . . o =.5.;.D F K f f f f f ; . O tXdXaXa 0 0 i i : . . . . . w E t + . .             ",
"      @ @ @ @ @ X X X . . o *.;.:.%.%.K Q Q Q Q Q 5 % - -XtX4Xa 0 i p p 9 6 6 O . . w E t $ @ @             ",
". . $ t t t t t p 0 0 # . o Z H $.,.,.5.2.2.2.2.2.$.G Z 1 O = 0 i p f t P.8X8X/ . . w E E t t e . . .       ",
". . $ P E E E E a i i # . o Z H $.5.5.5.5.5.5.5.5.$.D G % . X 0 i p u t P.uXuX( . . w E E E E w . . .       ",
". . $ P E E E E a i i : # * x x z B B B :.:.;.5.5.>.$.$.4 1 1 > > p o.o.P.&X&Xs . . r d d E E w . . .       ",
". . $ P E E E E a i i i i 0 + . . . . 1 H D >.5.5.5.5.,.%.D Z o . s qXuXG.. . . . . 7 i i f E w . . .       ",
". . $ E E E P E a i i i i 0 + . . . . 1 H D >.6.5.5.5.5.$.H Z o . T wXuXG.. . . . . 7 i i f E w . . .       ",
". . $ 8 8 q y d p i i i i 0 + . . . . & k k l n n n n n k k 4 o . 6 #.#./ . . . . . 7 i i a d q . . .       ",
"      . . $ i i i i i i i 0 + . .       . . . . . . . . . . . . . . . . .     . . . 7 i i i i > . . .       ",
"      . . $ i i i i i i i 0 + . .       . . . . . . . . . . . . . . . . .     . . . 7 i i i i 7 . . .       ",
"          # $ $ $ $ $ $ $ $                                                         $ $ $ $ $ $             ",
"            . . . . . . . .                                                         . . . . . .             ",
"            . . . . . . . .                                                         . . . . . .             ",
"                                                                                                            ",
"                                                                                                            ",
"                                                                                                            ",
"                                                                                                            ",
"                                                                                                            ",
"                                                                                                            ",
"                                                                                                            ",
"                                                                                                            "
};
