/* XPM */
static char *right__284_29[] = {
/* columns rows colors chars-per-pixel */
"53 64 233 2 ",
"   c None",
".  c #000001",
"X  c #0A0605",
"o  c #030B04",
"O  c #0D0A05",
"+  c #060A0C",
"@  c #130A06",
"#  c #180D0B",
"$  c #031204",
"%  c #061B08",
"&  c #1C110A",
"*  c #15110C",
"=  c #1B1613",
"-  c #0E0F10",
";  c #26160C",
":  c #271A13",
">  c #331D14",
",  c #381F19",
"<  c #05230B",
"1  c #05290E",
"2  c #0A270D",
"3  c #0A3E0B",
"4  c #0B370B",
"5  c #16380F",
"6  c #13360F",
"7  c #073312",
"8  c #083D14",
"9  c #162F12",
"0  c #2E2D02",
"q  c #2B2115",
"w  c #3D2215",
"e  c #393920",
"r  c #42241D",
"t  c #482918",
"y  c #5A331A",
"u  c #4D3219",
"i  c #6D3D1E",
"p  c #63381C",
"a  c #713F1E",
"s  c #4B2920",
"d  c #563123",
"f  c #51362B",
"g  c #733F20",
"h  c #653920",
"j  c #0D420D",
"k  c #0F490F",
"l  c #114A0F",
"z  c #0D4913",
"x  c #0E5C1A",
"c  c #0D5318",
"v  c #165312",
"b  c #1A5A14",
"n  c #134D10",
"m  c #0F641E",
"M  c #0F681F",
"N  c #1D6317",
"B  c #266A19",
"V  c #2C7C1E",
"C  c #0C6522",
"Z  c #0F6B21",
"A  c #0E7B29",
"S  c #0E7426",
"D  c #107526",
"F  c #107B29",
"G  c #187B27",
"H  c #1B6E26",
"J  c #237528",
"K  c #2F742D",
"L  c #254D1F",
"P  c #74411F",
"I  c #7D4C1F",
"U  c #6C401F",
"Y  c #565423",
"T  c #52462D",
"R  c #6C4421",
"E  c #63482D",
"W  c #744221",
"Q  c #7A4725",
"!  c #645F23",
"~  c #695B2A",
"^  c #755A2C",
"/  c #497731",
"(  c #617A33",
")  c #514F50",
"_  c #6E564A",
"`  c #73614C",
"'  c #7F6B53",
"]  c #534E66",
"[  c #737170",
"{  c #547140",
"}  c #85581D",
"|  c #8E651C",
" . c #845329",
".. c #895A2D",
"X. c #865734",
"o. c #804D27",
"O. c #896438",
"+. c #966637",
"@. c #9A753B",
"#. c #956A2D",
"$. c #A3773C",
"%. c #936742",
"&. c #877259",
"*. c #8F7654",
"=. c #A37A41",
"-. c #A47A43",
";. c #A67D58",
":. c #16812A",
">. c #1B8429",
",. c #1C8428",
"<. c #198132",
"1. c #258C29",
"2. c #238325",
"3. c #328321",
"4. c #348C23",
"5. c #3D9F28",
"6. c #379727",
"7. c #2A9129",
"8. c #3EA229",
"9. c #2E811F",
"0. c #518C2D",
"q. c #6E9236",
"w. c #41A429",
"e. c #48A928",
"r. c #55AB23",
"t. c #5CB324",
"y. c #7AA738",
"u. c #6DAF27",
"i. c #4C951E",
"p. c #7FC11C",
"a. c #328B47",
"s. c #7C995D",
"d. c #429555",
"f. c #ABAC00",
"g. c #B08D36",
"h. c #BA9B31",
"j. c #B79634",
"k. c #AA843C",
"l. c #BEA12E",
"z. c #BFA135",
"x. c #A59B10",
"c. c #CAB618",
"v. c #C4AA2A",
"b. c #CCB524",
"n. c #C9A33D",
"m. c #D6B730",
"M. c #8FC616",
"N. c #B4D40E",
"B. c #D1C10A",
"V. c #D7C71B",
"C. c #D7D309",
"Z. c #E9DC15",
"A. c #E6DD07",
"S. c #D6EA08",
"D. c #E8E20B",
"F. c #F2ED07",
"G. c #FFFF00",
"H. c #F6F502",
"J. c #F8EA18",
"K. c #EDF309",
"L. c #D7C222",
"P. c #F1DC23",
"I. c #E8C539",
"U. c #E8D024",
"Y. c #AB8144",
"T. c #BA8E46",
"R. c #AD8454",
"E. c #B88F4D",
"W. c #BCAA50",
"Q. c #938E62",
"!. c #909B6D",
"~. c #8F926C",
"^. c #A69276",
"/. c #BA9874",
"(. c #B49268",
"). c #B5A96D",
"_. c #9E9A41",
"`. c #C4964B",
"'. c #C99A4C",
"]. c #D09A49",
"[. c #D7A74F",
"{. c #DDAB52",
"}. c #D8A650",
"|. c #E1AD53",
" X c #E4B153",
".X c #E4B946",
"XX c #C29E74",
"oX c #C8A67A",
"OX c #C6A36D",
"+X c #E8D649",
"@X c #FFF364",
"#X c #EDD963",
"$X c #2C4F9C",
"%X c #38569A",
"&X c #546798",
"*X c #4D6AAB",
"=X c #576FA8",
"-X c #2C879E",
";X c #069ACF",
":X c #05BCFD",
">X c #32B3D8",
",X c #54AFC0",
"<X c #23C2F9",
"1X c #868688",
"2X c #B5A58F",
"3X c #A9AAA9",
"4X c #B7B5B4",
"5X c #C9AA83",
"6X c #D1AF85",
"7X c #D5B48C",
"8X c #D9B68D",
"9X c #DAB98E",
"0X c #D4B383",
"qX c #DDBD93",
"wX c #C6AF95",
"eX c #B5C3B6",
"rX c #E5C69D",
"tX c #F2D7AE",
"yX c #F8DDB4",
"uX c #E8D0AB",
"iX c #FFE6BD",
"pX c #FAE4BB",
"aX c #D5D7D4",
"sX c #E5DBD6",
"dX c #FFE9C1",
"fX c #FEE6C1",
"gX c #EDE3C2",
"hX c #FFF8EB",
"jX c #EFF1F7",
"kX c #FFFEFE",
"lX c #F7F8F6",
"zX c #E5E7E5",
"xX c #DAEDDF",
/* pixels */
"                      =.=.@.W W Y F F m j j 9.w.w.w.w.w.w.w.6.F F                                         ",
"                      =.=.@.W a Y A A x 3 j 9.w.w.w.w.w.w.w.6.A A                                         ",
"                      h.h.g. .o.~ K K B b b V 4.4.8.w.w.w.w.6.>.>.:.                                      ",
"            =.=.'.{.{.J.G.F.k.=.=.=.=.q.8.w.N j l 6.w.w.w.w.w.w.w.1.A F F F F                             ",
"            =.=.'.|.|.J.G.F.k.=.=.=.=.q.8.8.N 3 j 6.w.w.w.w.w.w.w.1.A A A A A                             ",
"          h.v.v.n.'.'.L.V.L.T.T.T.T.T._.y.y./ B B V V 3.w.w.w.w.w.6.1.1.1.1.1.                            ",
"      =.=.b.G.G.v.=.=.=.=.Y.}.{.{.|.|.{.|.|.y.w.8.v 3 v 5.w.w.w.w.w.w.w.w.w.8.:.F Z j j j                 ",
"      =.=.b.G.G.v.=.=.=.=.Y.}.{.{.{.{.{.{.{.y.8.5.v j v 5.w.w.w.w.w.w.w.w.w.8.:.F Z j j j                 ",
"=.=.j.V.V.Z.G.G.m.`.`.`.`.`.T.T.n.P.P.P.P.P.u.8.5.v j v 5.w.w.w.w.w.w.w.w.w.8.:.F D M m x j j             ",
"=.=.h.G.G.G.G.G.I.{.{.{.|.}.-.=.l.G.G.G.G.G.M.8.5.v j v 5.w.w.w.w.w.w.w.w.w.8.:.F F F F M j j             ",
"=.=.h.G.G.G.G.G.I.{.{.{.{.[.-.=.l.G.G.G.G.G.p.8.5.v j v 5.w.w.w.w.w.w.w.w.w.8.:.F F F F M j j             ",
"=.=.h.G.G.J.I.I..X{.}.@...+.$.=.l.G.G.V.h.h.u.8.5.v j v 5.w.4.b b b b b G ,.,.F F F F F M j j < . .       ",
"=.=.h.G.G.P.{.{.{.{.}. .i Q $.=.l.G.G.V.=.=.q.8.5.v 3 v 5.w.3.3 j j j j Z A A F F F F F M j j % . .       ",
"=.=.h.F.H.U.}.}.}.}.[...Q  .-.-.z.H.H.b.=.=.q.r.e.b l b 6.5.9.l l k j k Z F F F F F F F M j z % . .       ",
"      } } #.Y.Y.Y.Y.Y.XXoXoX6X6XOXg.g.k.=.=.V.K.S.r.6.4.v n B 6.6.2.S D F F F F F F F F F D D 7 . .       ",
"      g g ..=.=.=.=.-.oX8X8X7X8XoX=.=.=.=.=.Z.G.G.t.w.6.j 3 N w.w.7.A F F F F F F F F F F F F 7 . .       ",
"      W P ..=.=.O.O.O.oX8X8XqXqX6XR.R.T.j.j.V.D.D.r.6.4.c z N 4.4.2.A F F F F F F F F F F F F 7 . .       ",
"                X X X ^.8XqXpXiXtX7X7X+XG.G.v.=.@.K F F A A Z j j m F F F F F F F F F F F F F 7 . .       ",
"                . . X ^.9XqXiXdXyX7X7X+XG.G.v.=.=.J A A F F Z j j m F F F F F F F F F F F F F 7 . .       ",
"                . . X *.(.(.^.^.2XrXrX+XG.G.v.=.=.q.0.0.F F Z j j c M M D F F F F F F F F F F z $ % o     ",
"                . . X y W p X . T iXfX@XG.G.v.=.=.[.|.W.G F Z j j j j j Z F F F F F F F F F F x j j $ . . ",
"                . . . y P p X . f iXfX@XG.G.v.=.=.[.|.W.G A M 3 3 3 3 3 Z F F F F F F F F F F x j j $ . . ",
"            . . T ` ` ] ] ] 1X1X2XiXfX#Xb.b.n.`.`.$.$.@.s.s.!.!.!.!.!.!.K x x x x m F F F F F x j j $ . . ",
"            . . &.qX8X&X$X*XlXkXhXiXdX0X=.=.'.|.}. .i X.6X8XrXdXdXdXdXdX{ 3 j j j z F F F F F x j j $ . . ",
"            . . &.9X7X&X$X*XjXkXhXiXiX0X$.=.'.|.[. .a X.6X7XrXiXiXiXiXiX/ 3 j j j z F F F F F x j j $ . . ",
"            . . &.9X7X&X$X*XjXkXhXiXdXoXQ  .c.J.Z.} a X.uXtXyXiXiX9X(.(.e $ $ $ $ < c c m F F 8 $ $       ",
"            . . &.9X7X&X$X*XjXkXhXiXdX/.i g B.G.H.| i X.yXiXiXiXiXoX$.$.q . . . . o 3 j c F F 7 . .       ",
"            . . ' 5X5X&X%X=XjXkXhXiXdX/.a W B.G.H.| W O.tXgXpXyXpXoX@.@.q . . . . o 3 3 c D F 7 . .       ",
"                = : q ^.2XwXfXdXdXiXdX/.a W B.G.G.n.].).<X<X,XR.E.E * * X . .       o o < z z < . .       ",
"                . . X ^.9XqXpXiXiXiXdX/.i a B.G.G..X|.).:X:X>X=.-.u . . . . .       . . % j j % . .       ",
"                . . X *.^./.tXyXyXyXpXXXX.X.c.D.A.I..XW.;X;X-XO.O.T : : 0 0 0       . . $ 4 4 % . .       ",
"                      X X q 5X8X8X8X8X7X6X6X%.P } A.G.C.- + + X X ^ }.[.Z.H.H.            . .             ",
"                      . . = 5X9X8X8X8X8X8X8X%.a I D.G.C.O . . . . ^  X|.J.G.G.            . .             ",
"                      . . * &.*.*.Q.Q.Q.Q.Q.E t y V.J.c.O . o 1 < Y @.@.x.f.f.            . .             ",
"                . . . . . . . . $ j j j j j $ . X T. XT.O . 1 F F 8 . . . . .                             ",
"                . . . . . . . . $ j j j j j $ . O T. XT.O . 1 F :.8 . . . . .                             ",
"            . . ; w w [ 1X[ + . $ j j c m x % . o ( q.( o . $ 8 8 1                                       ",
"            . . t W Q sXkXzX= . $ j j x F F 1 . . C A C o . . . .                                         ",
"            . . t W Q sXkXsX= . $ j j x F F 1 . . C F C . . . . .                                         ",
"            . . t W W ) ) ) c c x Z Z D F F e u u H A a.3X4X[ . . . . .                                   ",
"            . . t W i @ . o S F A F F F F F Y W W J A a.lXkX3X. . . . .                                   ",
"            . . t i i & . % G ,.:.F F F F F Y i R K <.d.zXlX3X. X . . .                                   ",
"                @ @ @ B 4.i.S.S.M.F F F F F 9 @ = eXxXaX_ _ f w w & . . . . .                             ",
"                . . . 3.w.t.H.G.N.A A A F F 1 . - aXkXsXf r t s s ; . . . . .                             ",
"                . . . 3.w.r.S.K.N.J J J J J 9 @ = 4XaX4Xf s s d d > @ @ X . .                             ",
"                . . . 3.w.w.e.e.0.R R R R R U i p = - = r s d W W i i i & . . . . .                       ",
"                . . . 3.w.w.w.8.0.g g g g g g g i @ . X r s d W W a a a & . . . . .                       ",
"                . . . J 6.6.w.w.0.! ! ! ! ! ! ! Y 9 < 2 > > t W P X.%.%.r ; ; X . .                       ",
"      . . . . . . . . C F :.8.w.w.w.w.w.w.w.w.w.8.:.F C . . ; W a ;.8X7XO.a i @ . .                       ",
"      . . . . . . . . C F :.8.w.w.w.w.w.w.w.w.w.8.:.A C . . ; W P R.qX8XO.a i @ . .                       ",
"    @ > > > > > @ . . 7 z z 1.7.6.w.w.w.w.w.w.w.w.7.1.2.8 8 9 w w T ` ` E p y X . .                       ",
". . & W W W W W ; . . . . o S A ,.w.w.w.w.w.w.w.w.w.w.5.F :.c . . . . . > s r X . .                       ",
". . & W W W W W ; . . . . $ S A ,.w.w.w.w.w.w.w.w.w.w.5.F F c . . . . . , s r X . .                       ",
". . & W W h y y w > > > > : 2 1 7 5 5 5 5 5 5 5 5 5 5 6 1 1 % . . # > > ; # #                             ",
". . & W W h t s s s s s s r X . . . . . . . . . . . . . . . . . . : s s # . .                             ",
". . & i i p s s s s s s s r X . . . . . . . . . . . . . . . . . . : t r # . .                             ",
"      @ @ : s s s s s s s r X . .                             . . X O O                                   ",
"      . . & s s s s s s s r X . .                             . . . . .                                   ",
"      . . & r r r r r r r , X . .                             . . . . .                                   ",
"            X X X X X X X X                                                                               ",
"            . . . . . . . .                                                                               ",
"            . . . . . . . .                                                                               ",
"                                                                                                          ",
"                                                                                                          "
};
