/* XPM */
static char *right__289_29[] = {
/* columns rows colors chars-per-pixel */
"53 64 226 2 ",
"   c None",
".  c #000001",
"X  c #0A0505",
"o  c #030D04",
"O  c #0D0807",
"+  c #0C0A09",
"@  c #02070A",
"#  c #120A06",
"$  c #190E0B",
"%  c #031305",
"&  c #051B08",
"*  c #18110A",
"=  c #1B1713",
"-  c #0A1213",
";  c #22130B",
":  c #261A0D",
">  c #261B16",
",  c #341D15",
"<  c #351D0E",
"1  c #07270A",
"2  c #172A0E",
"3  c #0B3D0C",
"4  c #09330C",
"5  c #14340D",
"6  c #082C11",
"7  c #083D14",
"8  c #073813",
"9  c #2D2B04",
"0  c #2A2717",
"q  c #3E231B",
"w  c #382414",
"e  c #352A11",
"r  c #312C26",
"t  c #46261E",
"y  c #48281D",
"u  c #512E17",
"i  c #4E351C",
"p  c #6E3D1E",
"a  c #63381C",
"s  c #713E1E",
"d  c #4B2A20",
"f  c #512D20",
"g  c #44382A",
"h  c #5A382B",
"j  c #6D3E20",
"k  c #743E20",
"l  c #0D410D",
"z  c #0E480F",
"x  c #114A0F",
"c  c #0D4A13",
"v  c #134C10",
"b  c #0E5617",
"n  c #0E5C1A",
"m  c #0B5419",
"M  c #1A5B14",
"N  c #1C541E",
"B  c #225616",
"V  c #264E15",
"C  c #0F631D",
"Z  c #0B681E",
"A  c #176219",
"S  c #216718",
"D  c #256C19",
"F  c #2A781D",
"G  c #376C16",
"H  c #345C29",
"J  c #0F6C22",
"K  c #0D6422",
"L  c #0F7326",
"P  c #0E7B29",
"I  c #0B7927",
"U  c #107425",
"Y  c #107B29",
"T  c #1C7F26",
"R  c #136924",
"E  c #386426",
"W  c #25722A",
"Q  c #2F742B",
"!  c #1C5F2B",
"~  c #5B5A01",
"^  c #75421F",
"/  c #745617",
"(  c #4A5823",
")  c #555323",
"_  c #514438",
"`  c #664921",
"'  c #744120",
"]  c #7B4A26",
"[  c #694F2A",
"{  c #51752B",
"}  c #44660D",
"|  c #22364B",
" . c #1E3246",
".. c #28425C",
"X. c #2E4C6B",
"o. c #6C5A4A",
"O. c #776955",
"+. c #4F4A63",
"@. c #5B7279",
"#. c #84581D",
"$. c #956F18",
"%. c #8A5A2D",
"&. c #875832",
"*. c #896535",
"=. c #99763B",
"-. c #8D6D34",
";. c #A4793C",
":. c #936744",
">. c #9D7749",
",. c #8A755B",
"<. c #A37A41",
"1. c #A47A43",
"2. c #A27854",
"3. c #877A65",
"4. c #1B8429",
"5. c #17832A",
"6. c #1A8234",
"7. c #248B29",
"8. c #358C23",
"9. c #318621",
"0. c #3C9A26",
"q. c #399D29",
"w. c #399625",
"e. c #2B9030",
"r. c #3EA229",
"t. c #469C27",
"y. c #589433",
"u. c #76933D",
"i. c #41A429",
"p. c #46A72A",
"a. c #54AA28",
"s. c #79A437",
"d. c #6CA015",
"f. c #328D47",
"g. c #7B9A5F",
"h. c #9C9908",
"j. c #AAA803",
"k. c #AD893A",
"l. c #AA843C",
"z. c #B89734",
"x. c #B19331",
"c. c #93913D",
"v. c #C6AC2A",
"b. c #CCB524",
"n. c #CEAA3B",
"m. c #99CD16",
"M. c #B9D90D",
"N. c #DAC81B",
"B. c #DED016",
"V. c #D4D20C",
"C. c #E7D914",
"Z. c #E3DA07",
"A. c #F1EB07",
"S. c #F5F204",
"D. c #FEFE01",
"F. c #FAF607",
"G. c #F6EA19",
"H. c #E9EF07",
"J. c #DECB2A",
"K. c #F2DD22",
"L. c #E9C639",
"P. c #FDF826",
"I. c #D6EC09",
"U. c #908E49",
"Y. c #AC8144",
"T. c #AC854D",
"R. c #B98B46",
"E. c #BE9149",
"W. c #B48C55",
"Q. c #B6935B",
"!. c #A7825E",
"~. c #948B62",
"^. c #8D9B6B",
"/. c #A98F6E",
"(. c #A69377",
"). c #B9966C",
"_. c #8FB177",
"`. c #C4964B",
"'. c #C89849",
"]. c #D29B47",
"[. c #DFAD52",
"{. c #DCAA52",
"}. c #D8A750",
"|. c #D4AB4A",
" X c #E6BA46",
".X c #E1AE53",
"XX c #E7B255",
"oX c #C9A67D",
"OX c #D1B07E",
"+X c #D8C144",
"@X c #2C4F9B",
"#X c #34549C",
"$X c #679E9A",
"%X c #0099D3",
"&X c #00BDFF",
"*X c #24C1F8",
"=X c #908C8A",
"-X c #A49791",
";X c #8CAA90",
":X c #BCA58D",
">X c #A5B2A6",
",X c #CDAC84",
"<X c #D5B48B",
"1X c #D9B68D",
"2X c #D8B78A",
"3X c #DDBC92",
"4X c #D0B691",
"5X c #CFB28C",
"6X c #B7C7B7",
"7X c #E4C69C",
"8X c #D1C3B1",
"9X c #EACCA3",
"0X c #F5DCB3",
"qX c #F9DEB4",
"wX c #F0D3AA",
"eX c #FEE5BC",
"rX c #FAE3BA",
"tX c #93A4CB",
"yX c #CDCFCD",
"uX c #DCEADF",
"iX c #FFEBC2",
"pX c #FFE9C5",
"aX c #FFEFD5",
"sX c #F4E8C9",
"dX c #FFFEFE",
"fX c #EEF1ED",
/* pixels */
"                      <.<.*.^ ' E P P c l v 0.i.i.i.i.i.i.i.7.P Y Y Y Y                                   ",
"                      <.<.%.k k E P I c 3 v 0.i.i.i.i.i.i.i.7.P P P P P                                   ",
"                      z.z.x.$.$.{ Q Q M M M 9.8.w.i.i.i.i.i.e.4.4.4.4.4.                                  ",
"          <.<.Y.}.[.L.D.D.D.D.D.v.>.>.y.r.w.v l M i.i.i.i.i.i.i.i.i.i.r.5.P Y                             ",
"          <.<.Y.{.[.L.D.D.D.D.D.v.1.<.y.r.w.x 3 M i.i.i.i.i.i.i.i.i.i.r.5.P P                             ",
"          v.v.v.'.'.n.N.N.C.K.K.n.R.R.c.s.s.D S D F F 8.i.i.i.i.i.i.i.r.7.7.7.                            ",
"    <.<.l.A.D.A.l.<.<.<.<.E.[.{.[.[.[..X.X|.a.i.8.l 3 S i.i.i.i.i.i.i.i.i.i.q.Y Y J l l l                 ",
"    <.<.l.A.D.A.l.<.<.<.<.E..X[.[.[.[.[.[.|.a.i.8.l l S i.i.i.i.i.i.i.i.i.i.q.Y Y J l l l                 ",
"<.<.b.N.N.b.b.v.'.`.`.`.`.`.E.E.J.K.K.K.K.J.a.i.8.l l S i.i.i.i.i.i.i.i.i.i.q.Y Y U C C n l l             ",
"<.<.C.D.F.k.1.Y.{.[.[.[..X`.<.<.B.D.D.D.D.H.a.i.8.l l S i.i.i.i.i.i.i.i.i.i.q.Y Y Y Y Y C l l             ",
"<.<.C.D.F.x.<.Y.}.[.[.{.[.`.<.<.B.D.D.D.D.H.a.i.8.l l S i.i.i.i.i.i.i.i.i.i.q.Y Y Y Y Y C l l             ",
"<.<.C.D.D.|.].}.{..X`.%.%.=.<.<.B.D.D.b.z.x.p.i.8.l l S i.i.F M M M M M T 4.4.Y Y Y Y Y U J J 4 . .       ",
"<.<.C.D.D. X[.[.[..XR.s s %.<.<.B.D.D.z.1.=.t.i.8.l 3 S i.i.D 3 l l l l L P P Y Y Y Y Y Y Y Y 6 . .       ",
"<.<.B.S.A. X}.}.}.}.R.] ] *.Y.1.N.F.S.z.<.l.a.a.t.v x S 0.0.D x x z l z U Y Y Y Y Y Y Y Y Y Y 6 . .       ",
"    #.#.#.;.Y.Y.Y.Y.W.oXoXoX,X,XQ.k.k.;.<.k.I.H.M.0.w.F v v F w.w.T L U Y Y Y Y Y Y Y Y Y Y Y 6 . .       ",
"    k ' ' =.<.<.<.<.W.<X<X<X<X<XW.;.<.<.<.k.F.D.I.p.i.9.l 3 F i.i.4.P Y Y Y Y Y Y Y Y Y Y Y Y 6 . .       ",
"    ' ' ' =.<.=.*.*.>.<X<X3X3X3X).T.T.z.z.z.C.A.V.q.q.F l l F q.q.4.P Y Y Y Y Y Y Y Y Y Y Y Y 8 o o       ",
"                X . g <X<X9XeXeX7X<X2XG.D.A.k.<.-.Y Y C l l C Y Y Y Y Y Y Y Y Y Y Y Y Y Y Y Y b 3 3 o . . ",
"                . . g <X<X9XiXiX7X<X2XG.D.S.k.<.-.P P Z l l C Y Y Y Y Y Y Y Y Y Y Y Y Y Y Y Y b l l o . . ",
"                . . r Q.Q./.(.(.4X7X7XP.D.S.k.<.=.y.y.Q b b n Z Z U Y Y Y Y Y Y Y Y Y Y Y Y Y b l l o . . ",
"                . . ; ^ ' w . . (.iXeXP.D.S.k.<.Y.{..XU.P Y n l l J Y Y Y Y Y Y Y Y Y Y Y Y Y b l l o . . ",
"                . . ; ^ ^ < . . (.iXeXP.D.S.k.<.Y.[..XU.I P b 3 3 Z I I P Y Y Y Y Y Y Y Y Y Y b l l o . . ",
"            . > o.o.o.+.+.@.=X=X8XeXeX+Xb.b.'.`.R.;.;.U.g.g.^.^.^._._._.W n n n n Z Y Y Y Y Y b l l o . . ",
"          . . > ,X3X-X#X@XtXdXdXaXeXrXQ.1.1.}..X`.' p :.1X1XwXiXiXiXiXqXH 3 l l l b Y Y Y Y Y b l l o . . ",
"          . . > ,X1X-X#X@XtXdXdXaXeXrXQ.;.Y.}..X`.' s :.<X<XwXeXeXeXeX0XH 3 l l l b Y Y Y Y Y b l l o . . ",
"          . . > ,X1X-X#X@XtXdXdXaXeXrX>.] %.C.G.N.^ s 2.0XwXrXeXeXOX).Q.0 % % % % 1 b b Z Y Y b l l o . . ",
"          . . > ,X1X-X#X@XtXdXdXaXeXrX:.p #.A.D.Z.^ s !.iXeXeXeXeX).;.=.* . . . . % l l n Y Y b l l o . . ",
"          . . > ).,X=X#X#XtXdXdXaXeXrX:.s #.A.D.Z.] ' !.sXsXrXqXqXQ.=.-.* . . . . % 3 3 n Y Y b l l o . . ",
"                = = _ :X:X8XpXpXiXeXrX:.s #.A.D.G.].].;X*X*X$XW.W.i * * X . .       o . 7 Y Y b l l o . . ",
"                . . g 1X1X9XeXeXeXeXrX:.p #.A.D.G.[..X;X&X&X$X;.<.0 . . . . .       . . 8 Y Y n l l o . . ",
"                . . r /./.4XqXqXqXqX0X>.&.*.V.Z.C. X X_.%X%X@.*.*.i : 0 9 9 9       . . 8 U U c 4 4 o . . ",
"                      O X o.3X<X<X<X<X<X,XoX%.^ $.F.D.h.@ @ @ X X =.}.|.A.S.S.      . . & l l & . .       ",
"                      . . o.3X1X1X1X1X1X1X,X] k $.D.D.h.. . . . . ;.XXXXF.D.D.      . . & l l & . .       ",
"                      . . _ ,.,.~.~.~.~.~.~.i y / G.G.h.. . o % % [ =.=.j.j.j.      . . & 1 1 % . .       ",
"                            . . 1 l l l l 3 . . e }..X-.. . 1 l l % . . . . .             . .             ",
"                            . . 1 l l l l 3 . . e {.XX-.. . 1 l l % . . . . .             . .             ",
"                      .   1 7 7 m C n z l 3 . . 2 u.u.{ 7 7 m C C e w , X . .             .               ",
"                      . . 8 5.Y Y Y Y c l 3 . . & I P P Y Y Y Y Y ) ' p # . .                             ",
"                      . . 8 Y P Y Y Y c l 3 . . & P Y Y Y Y Y Y Y ) ' p # . .                             ",
"                . . 2 F D d.M.M.} 1 6 ;X6X>X! m N ) ) E P P E ) ) e ; :  .|  .@ .                         ",
"                . . 5 i.r.m.D.D.~ . X yXdXfXf.P W ' k ( Y P ( k ' ; . @ ..X...@ . .                       ",
"                . . 5 i.r.m.S.S.~ . + 8XdXuXf.6.Q p p ( Y Y ( ' ' : . @ ..X...+ + +                       ",
"          . . . . . 5 i.i.G 9 9 w q t _ o.O.yXuX>X* # e ` ` E W W R K K - - 0 /.).,.. .                   ",
"          . . . . . 5 i.i.B . . , d d y t h fXdXyXX . : ' k E P P Y P P % . > ,X3X~.. . .                 ",
"          # # # O X 2 8.8.V # # w f f d y h yXuX>X& % 0 [ [ E 5.5.U L J % . = /.).,.. .                   ",
"    . . X a p a y t , o o w p p j ' j f d t = - 6 L L 7.t.t.i.r.r.A l l o . . + + +                       ",
"    . . X a ' j d d , . . < s s s s s f d t X . & P P 7.i.i.i.i.i.A l 3 o . . . . .                       ",
"    . . X a ' j d d , . . g 2.>.:.*.*.d , , 1 1 7 4.4.e.i.i.w.9.9.v 1 1 * $ $ ; ; *                       ",
"    . . X a ' j d d , . . O.iXeX7X<X,X0 . o J P 4.i.i.i.i.i.D l l % . X q d f ' ' u . . .                 ",
"    . . X a ' j d d , . . O.iXiX9X1X<X0 . o L Y 4.i.i.i.i.i.D l l % . X q d f ' ' u . . .                 ",
"      . X , w q y d q ; ; _ 3.3.O.o.o.= . @ 8 l c B B B B B 5 1 1 o . X q d f ' ' u . . .                 ",
"          . . X t d d d d : . . . . . . . . . . . . . . . . . . . . . X q d f k ' u . . .                 ",
"          . . O t d d d d : . . . . . . . . . . . . . . . . . . . . . X q d f ' ' u . . .                 ",
"                $ $ $ $ $ O . . . . .                             . . X q d d f f q . . .                 ",
"                . . . . . . . . . . .                             . . X q d d d d , . . .                 ",
"                . . . . . . . . . . .                             . . X q y t t y , . . .                 ",
"                                                                        O O O O O O                       ",
"                                                                        . . . . . .                       ",
"                                                                        . . . . . .                       ",
"                                                                                                          ",
"                                                                                                          ",
"                                                                                                          ",
"                                                                                                          ",
"                                                                                                          "
};
