/* XPM */
static char *f__281_29__282_29[] = {
/* columns rows colors chars-per-pixel */
"47 64 218 2 ",
"   c None",
".  c #000001",
"X  c #090504",
"o  c #020B04",
"O  c #0C0807",
"+  c #0C0B0B",
"@  c #080708",
"#  c #170D0A",
"$  c #031305",
"%  c #0A1A07",
"&  c #041B0A",
"*  c #061907",
"=  c #0E1514",
"-  c #2C190D",
";  c #24160E",
":  c #321D0F",
">  c #291A12",
",  c #3A1E17",
"<  c #05230B",
"1  c #082808",
"2  c #06280B",
"3  c #0B3C0B",
"4  c #0A340C",
"5  c #17390F",
"6  c #073612",
"7  c #183D12",
"8  c #0D2B0E",
"9  c #2E2E01",
"0  c #232506",
"q  c #352415",
"w  c #2F3312",
"e  c #01222F",
"r  c #2E2B24",
"t  c #47261E",
"y  c #482818",
"u  c #49331C",
"i  c #59371A",
"p  c #542F1A",
"a  c #64381C",
"s  c #67381B",
"d  c #713F1E",
"f  c #4A2920",
"g  c #573120",
"h  c #653920",
"j  c #683B20",
"k  c #723E20",
"l  c #0D420D",
"z  c #11450E",
"x  c #0D4B11",
"c  c #094A19",
"v  c #084517",
"b  c #194213",
"n  c #0E5416",
"m  c #0E5D1A",
"M  c #0C551C",
"N  c #165412",
"B  c #175816",
"V  c #0F631E",
"C  c #0F691F",
"Z  c #1D631A",
"A  c #236618",
"S  c #2B751D",
"D  c #0F6B22",
"F  c #0D6120",
"G  c #0F7226",
"H  c #0E7B29",
"J  c #0C7A25",
"K  c #107426",
"L  c #107B29",
"P  c #147728",
"I  c #136822",
"U  c #2C6B27",
"Y  c #386F29",
"T  c #344F20",
"R  c #664818",
"E  c #646C0B",
"W  c #5A4522",
"Q  c #504D31",
"!  c #654924",
"~  c #744220",
"^  c #794623",
"/  c #7B4A26",
"(  c #7A4D2A",
")  c #76552B",
"_  c #7D5A32",
"`  c #5C7124",
"'  c #547525",
"]  c #486C32",
"[  c #2D6559",
"{  c #655542",
"}  c #646950",
"|  c #997419",
" . c #855328",
".. c #885832",
"X. c #8A6633",
"o. c #996B37",
"O. c #9F753D",
"+. c #8D7338",
"@. c #A2793F",
"#. c #A1773E",
"$. c #8A6D4E",
"%. c #A37A42",
"&. c #A97E42",
"*. c #A17743",
"=. c #947D61",
"-. c #8A7C70",
";. c #1B8429",
":. c #1F8829",
">. c #238B29",
",. c #2B8D27",
"<. c #338B23",
"1. c #2A9229",
"2. c #399324",
"3. c #3D9F28",
"4. c #3A9927",
"5. c #3EA228",
"6. c #2E811F",
"7. c #528729",
"8. c #699832",
"9. c #41A429",
"0. c #44A729",
"q. c #5DAF22",
"w. c #73AC31",
"e. c #55A21F",
"r. c #55A267",
"t. c #458454",
"y. c #B1AD05",
"u. c #AA833E",
"i. c #BA9B32",
"p. c #B59239",
"a. c #B1932A",
"s. c #86A83B",
"d. c #BEA12E",
"f. c #819608",
"g. c #CCBA0C",
"h. c #CCB614",
"j. c #C5AB2A",
"k. c #C1A52C",
"l. c #CEB723",
"z. c #D5BE25",
"x. c #C7A03F",
"c. c #B3D80F",
"v. c #DBCB1A",
"b. c #D7C51C",
"n. c #DDD017",
"m. c #C7C41C",
"M. c #E7D718",
"N. c #D8E906",
"B. c #EFEB07",
"V. c #F1EB0B",
"C. c #F3F300",
"Z. c #FFFF00",
"A. c #F7F806",
"S. c #F8EB15",
"D. c #F1DB25",
"F. c #E6CB2C",
"G. c #C4C52D",
"H. c #AC8349",
"J. c #B68A47",
"K. c #AE8755",
"L. c #B48E59",
"P. c #B7915C",
"I. c #B99746",
"U. c #988266",
"Y. c #9B9265",
"T. c #A98A67",
"R. c #BB9669",
"E. c #B79975",
"W. c #B09270",
"Q. c #A7A677",
"!. c #CC9C4C",
"~. c #C79B47",
"^. c #D7A74D",
"/. c #DDAB52",
"(. c #D5A350",
"). c #E1B34C",
"_. c #E1AD53",
"`. c #E4B153",
"'. c #C19D70",
"]. c #C5A27C",
"[. c #C9A678",
"{. c #D3B56F",
"}. c #E7D351",
"|. c #DDC36E",
" X c #FFF16F",
".X c #F3E260",
"XX c #006E98",
"oX c #3CA7BE",
"OX c #41A5BA",
"+X c #03B9FA",
"@X c #AA9A95",
"#X c #B9B88B",
"$X c #A4A4A5",
"%X c #CDAA82",
"&X c #D5B48C",
"*X c #D8B78D",
"=X c #DAB88E",
"-X c #D2B187",
";X c #DBBA91",
":X c #D5BB97",
">X c #D0B28C",
",X c #BBC893",
"<X c #E3C49B",
"1X c #E9CCA3",
"2X c #EED2A9",
"3X c #F1D7AC",
"4X c #F8DEB5",
"5X c #F7DCB3",
"6X c #FDE5BB",
"7X c #FFE8BF",
"8X c #FAE0B7",
"9X c #DACEAD",
"0X c #BED2C2",
"qX c #CED6D1",
"wX c #FFE9C1",
"eX c #FFE6C2",
"rX c #FFF0C5",
"tX c #FFFFFF",
/* pixels */
"                      %.%.o.~ ~ Q H L n l z 2.9.9.9.9.9.9.9.>.H L                             ",
"                      %.%.o.k k Q H H n l z 2.9.9.9.9.9.9.9.>.H H                             ",
"                      i.i.a.| | ` ;.;.B l z 2.9.9.9.9.9.9.9.1.;.;.                            ",
"            %.%.!./.).A.Z.Z.Z.Z.c.5.9.A l z 2.9.9.9.9.9.9.9.9.9.5.;.H L L L L                 ",
"            %.%.!._.).A.Z.Z.Z.Z.c.5.5.Z 3 l 2.0.9.9.9.9.9.9.9.9.9.;.H H L L L                 ",
"          d.l.l.x.~.~.z.b.v.D.D.G.s.s.7.A A S S 6.9.9.9.9.9.9.9.9.1.>.>.L L K                 ",
"      %.%.l.Z.Z.k.%.%.%.%.H./././._._.w.5.5.N 3 N 3.9.9.9.9.9.9.9.9.9.3.P L D l l             ",
"      %.*.l.Z.Z.k.%.%.%.%.H./././././.w.5.3.N 3 N 3.9.9.9.9.9.9.9.9.9.3.P L D l l             ",
"%.%.i.n.n.z.j.j.~.!.~.&.%.p.D.S.z.J.J.8.5.5.N l N 3.9.9.9.9.9.9.9.,.>.:.L L K V V n l l       ",
"%.%.i.Z.Z.b.*.%.!._./.H.%.i.Z.Z.v.%.%.8.5.5.N l N 3.9.9.9.9.9.9.9.;.H H L L L L L m l l       ",
"%.*.i.Z.Z.b.%.%.!./.(.H.%.i.Z.Z.v.%.%.8.0.0.B l N 4.5.5.5.5.5.5.3.;.H L L L L L L m l l       ",
"/ / | Z.Z.D.(.(.o. ...'.%X{.Z.Z.v.%.%.m.N.N.e.2.<.N N N N N N N N K L L L L L L L m l l       ",
"~ k | Z.Z.D./._.X.d ^ [.*X|.Z.Z.v.%.%.n.Z.A.q.9.2.l l l l l l l l D L L L L L L L m l l       ",
"~ k | V.V.F.!.!.o. ...[.*X|.V.V.z.%.%.v.Z.A.q.4.<.l l l x x x x x G L L L L L L L V x x       ",
"      u.u.X.^ ^ T.-X%X&X*X[.u.u.u.%.%.v.Z.A.2.L K l l n L K K K K L L L L L L L L L K K n l l ",
"      %.%.X.~ ~ R.*X&X&X&X[.%.%.%.%.*.n.Z.A.2.J G l l n L L L L L L L L L L L L L L L L n l l ",
"      %.%.( y y T.*X*X<X<X=XL.L.I.k.k.b.M.n.7.Y Y B n m D D K L L D D D D D D L L L L L n l l ",
"            . . =.*X=X4X7X5X*X&X}.Z.Z.j.%.%.%.%.+.P L C l l V L L x l l l l n L L L L L n l l ",
"            . . =.*X;X8XwX4X&X&X}.Z.Z.j.%.%.%.%.+.P L C l l V L L n l l l l n L L L L L n l l ",
"            . . $.R.R.R.W.].1X1X.XZ.Z.j.%.%.X...) m m m V V m m m x l 3 < * 4 m m D L L 6 * < ",
"            . . ) %.O.^ s $.8XeX XZ.Z.j.%.@./ d W z l n L L m l l l l 4 o . $ l l V L L & . . ",
"            . . ) &.#./ d $.8XeX XZ.Z.j.%.@./ ~ W z l n L L m l l l l 3 o . $ l l V L L < . . ",
"      . . Q U.U.E.[.[.*X*X;X<X<X{.d.d.~.!.!. .d ( Y.Y.Q.,X,X#X#X#XT l 3 o . $ l l x n n $ . . ",
"      . . { ;X*X*X*X;X8XwX4X&X&XR.%.%.!._.^. .d ..&X*X<XwXwXwXwX7X] l 3 o . $ l l l l l $ . . ",
"      . . { *X&X-X-X&X3X4X3X=X;X'.#.#.~.).^.( s _ &X*X1X7X7X8X5X3X] 3 4 o . $ 3 3 l l l $ . . ",
"      . . { *X&XP.H.H.K.K.'.4X8X].^ / h.A.V.9 X r 3X4X8X7X7X[.K.H.> o o       o o v K G & . . ",
"      . . { ;X*XL.@.%.@.#.P.6XwX].d k g.Z.C.9 . r 5X7X7X7XwX[.@.@.; . .       . . v L L < . . ",
"      . . Q W.T.K.K.K.P.P.[.6X7X].d k g.Z.C.9 . r 0XqX9X1X2XT._ _ ; . .       . . 6 K D & . . ",
"            X X =.*X*X5X6X6X7XwX].d k g.Z.C.9 . e +X+XOX&.H.u . X . . .       . . 1 l l $ . . ",
"            . . =.;X;X8X7X7X7XwX].d k g.Z.C.9 . e +X+XoX&.&.u . . . . .       . . < l l $ . . ",
"            . . { $.$.<X2X2X2X3XE.d k g.Z.C.9 . = XXXX[ ! ! W W W E E E       . . * 1 1 o . . ",
"                . . + E.*X&X&X*XK.d k g.Z.C.9 . . . . . . . X.`.`.S.Z.Z.          . . .       ",
"                . . + E.=X*X*X=XT.~ ~ g.Z.C.9 . . . . . . . X.`.`.S.Z.Z.          . . .       ",
"                      Q Q Q ] } Q - - a.F.F.0 . o v c 3 1 1 w W W y.                          ",
"                      . . o 3 l 1 . . X._.(.- . $ K ;.C l l * . .                             ",
"                      . . $ l l 1 . . X./.!.- . * G L V l l * . .                             ",
"                . . o M F F D G D F F 7 q q p i u & & 6 D K 2 . .                             ",
"                . . o D L L L L L L L 2 . . a ^ a X . 2 H H 6 . .                             ",
"                0 0 0 D L L L L G D D 6 o $ i ! i X . 2 H L 6 . .                             ",
"            . . y.C.N.<.H L L L c o o c G G P P I o . 2 L L 6 . .                             ",
"            . . y.Z.C.<.H H H H v . . c J J J J V o . 2 H H 6 . .                             ",
"            . . f.c.c.Y U U U U 7 . . ] r.r.r.r.t.o . 8 U U b < <                             ",
"            . . M L P ! ~ ~ ~ ~ y . . $XtXtXtXtXqX+ . - ~ k Y H K & . .                       ",
"            . . M H P ! k ~ ~ ~ y . . $XtXtXtXtXqX+ . - k k Y H L & . .                       ",
"            . . Z 1.,.' ` ` ` ` T . . } @X@X@X@X-.@ . 0 ` ` S H L & . .                       ",
"            . . S 0.9.9.9.9.9.0.A . . - t t t t , . . 7 9.9.>.L L & . .                       ",
"            . . S 0.9.9.9.9.9.9.A . . > f f f f q X . 5 9.9.>.H K & . .                       ",
"                8 5 7 2.9.3.>.>.n . . y j h h h p X . 5 9.9.B < <                             ",
"                . . o <.9.4.L H c . . y ~ ~ ~ ~ i X . 5 9.9.b . .                             ",
"                . . o <.3.2.K G v . . p ( ( / / h X . 5 4.3.b . .                             ",
"                      % % % $ $ o . . U.2X1X%X].T.@ . o % % $                                 ",
"                      . . . . . . . . W.rX7X<X;XE.+ . . . .                                   ",
"                      # # # O O O O O -.:X:XE.W.=.@ . . . .                                   ",
"                . . X i d a t t t t t ; + + @ @ @ . . .                                       ",
"                . . X a ~ j f f f f f # . . . . . . . .                                       ",
"                . . X a ~ k g g g f f # . . . . . . .                                         ",
"                . . X a ~ ~ ~ ~ h f f # . . . . .                                             ",
"                . . X a ~ ~ ~ ~ h f f # . . . . .                                             ",
"                      - : : : : - ; ; #                                                       ",
"                      . . . . . . . .                                                         ",
"                      . . . . . . . .                                                         ",
"                                                                                              ",
"                                                                                              ",
"                                                                                              "
};
