/* XPM */
static char *f__281_29__281_29[] = {
/* columns rows colors chars-per-pixel */
"48 64 214 2 ",
"   c None",
".  c #000001",
"X  c #0A0604",
"o  c #020B04",
"O  c #0C0807",
"+  c #090809",
"@  c #150C09",
"#  c #031306",
"$  c #051A06",
"%  c #0A1907",
"&  c #031508",
"*  c #041A0A",
"=  c #091408",
"-  c #17120C",
";  c #1F1910",
":  c #26180D",
">  c #321C0F",
",  c #331B15",
"<  c #05250C",
"1  c #062B0E",
"2  c #072608",
"3  c #0A340C",
"4  c #0B3D0C",
"5  c #16370F",
"6  c #073813",
"7  c #173C14",
"8  c #0E2D0F",
"9  c #252501",
"0  c #202A04",
"q  c #392716",
"w  c #2F3512",
"e  c #012939",
"r  c #32312B",
"t  c #001822",
"y  c #47261E",
"u  c #492918",
"i  c #58341A",
"p  c #502D19",
"a  c #65391C",
"s  c #68391C",
"d  c #713E1E",
"f  c #4A2920",
"g  c #523223",
"h  c #673920",
"j  c #733E20",
"k  c #0D420D",
"l  c #11470E",
"z  c #0E4C12",
"x  c #0A4B19",
"c  c #084417",
"v  c #184612",
"b  c #0E5416",
"n  c #0E5B1A",
"m  c #0B561B",
"M  c #165312",
"N  c #185613",
"B  c #155A17",
"V  c #245B17",
"C  c #0F641E",
"Z  c #1D6218",
"A  c #2C761D",
"S  c #236D19",
"D  c #325A27",
"F  c #0F6B22",
"G  c #0D6120",
"H  c #0F7326",
"J  c #0E7B29",
"K  c #0C7926",
"L  c #107425",
"P  c #107C29",
"I  c #157728",
"U  c #2C6B27",
"Y  c #367228",
"T  c #135D20",
"R  c #5A421D",
"E  c #6B5013",
"W  c #656501",
"Q  c #5A4622",
"!  c #564839",
"~  c #4A542B",
"^  c #664924",
"/  c #744120",
"(  c #7A4925",
")  c #794927",
"_  c #75572D",
"`  c #7C5830",
"'  c #5C7124",
"]  c #5A7723",
"[  c #5C6E3F",
"{  c #316658",
"}  c #675744",
"|  c #507848",
" . c #726764",
".. c #9A7419",
"X. c #885935",
"o. c #875529",
"O. c #986A36",
"+. c #977339",
"@. c #896E37",
"#. c #A0763E",
"$. c #A67C3F",
"%. c #90704E",
"&. c #A37A42",
"*. c #A47B43",
"=. c #977F62",
"-. c #847774",
";. c #1B8429",
":. c #178129",
">. c #228B29",
",. c #2C8B26",
"<. c #338A22",
"1. c #299129",
"2. c #3A9625",
"3. c #3D9D27",
"4. c #399D29",
"5. c #359325",
"6. c #3EA229",
"7. c #2F821F",
"8. c #4E8D26",
"9. c #659931",
"0. c #41A429",
"q. c #43A729",
"w. c #5BB023",
"e. c #75A837",
"r. c #55A267",
"t. c #B0B000",
"y. c #B99A2D",
"u. c #AA843D",
"i. c #BA9B33",
"p. c #AE9326",
"a. c #85A83B",
"s. c #BEA12D",
"d. c #849908",
"f. c #D2BE19",
"g. c #C2A62C",
"h. c #C4AA2A",
"j. c #CDB624",
"k. c #D3BD24",
"l. c #D0AE38",
"z. c #AFD610",
"x. c #D2C10A",
"c. c #D7C41D",
"v. c #DBCD19",
"b. c #D4CD19",
"n. c #E2D515",
"m. c #D7E807",
"M. c #EDED00",
"N. c #EAE30A",
"B. c #F1EB0B",
"V. c #FFFF00",
"C. c #F8F608",
"Z. c #F1EC10",
"A. c #D1C328",
"S. c #F1DA25",
"D. c #EDD22C",
"F. c #AB8449",
"G. c #B58947",
"H. c #AA845B",
"J. c #B48D59",
"K. c #BA9845",
"L. c #988367",
"P. c #9C9266",
"I. c #A98D6C",
"U. c #BA9469",
"Y. c #B99B78",
"T. c #B1916D",
"R. c #A9A979",
"E. c #CC9C4D",
"W. c #C79B47",
"Q. c #D6A64D",
"!. c #DDAB52",
"~. c #D2A150",
"^. c #D8BE5F",
"/. c #E2B44D",
"(. c #E1AD53",
"). c #E5B255",
"_. c #C19D76",
"`. c #C9A77A",
"'. c #D1B172",
"]. c #E8D64C",
"[. c #DEC46B",
"{. c #335197",
"}. c #006F9A",
"|. c #516598",
" X c #687191",
".X c #526AA3",
"XX c #48A3B2",
"oX c #03BBFC",
"OX c #AA9A95",
"+X c #AF9E83",
"@X c #B8B78A",
"#X c #ADAEAE",
"$X c #CCAA81",
"%X c #D5B48C",
"&X c #D8B78D",
"*X c #D8B78C",
"=X c #DDBB91",
"-X c #D4BB97",
";X c #CFB48F",
":X c #BCC894",
">X c #E1C49C",
",X c #EACBA2",
"<X c #EDD2A8",
"1X c #F6DBB3",
"2X c #F1D5AC",
"3X c #FEE5BD",
"4X c #FBE2B8",
"5X c #D6D7BA",
"6X c #CAD2CC",
"7X c #FFE9C0",
"8X c #F8EBCF",
"9X c #FFFFFF",
"0X c #FFFBF2",
"qX c #EFECE8",
/* pixels */
"                      &.*.O./ / ~ J P b k l 2.0.0.0.0.0.0.0.>.J P                               ",
"                      &.&.O.j j ~ J J b k l 2.0.0.0.0.0.0.0.>.J J                               ",
"                      i.i.p.....] ;.;.B k l 2.0.0.0.0.0.0.0.1.;.;.                              ",
"            &.&.E.!./.C.V.V.V.V.z.6.0.Z k l 2.0.0.0.0.0.0.0.0.0.6.:.J P P P P                   ",
"            &.&.E.(./.C.V.V.V.V.z.6.6.Z 4 k 2.0.0.0.0.0.0.0.0.0.6.:.J J P P P                   ",
"          s.j.j.l.W.W.k.c.v.S.S.A.a.a.8.S S A A 7.0.0.0.0.0.0.0.6.1.>.>.P P F                   ",
"      &.&.k.V.V.s.&.&.&.&.G.!.!.!.(.(.e.6.3.M 4 N 0.0.0.0.0.0.0.0.0.0.4.P P C k k               ",
"      &.&.k.V.V.s.&.&.&.&.G.!.!.!.!.!.e.6.3.M 4 N 0.0.0.0.0.0.0.0.0.0.4.P P C k k               ",
"&.&.i.v.n.k.h.h.W.E.W.*.&.i.S.S.k.G.G.9.6.3.M k N 0.0.0.0.0.0.0.6.>.>.;.P P L C C b k k         ",
"&.&.i.V.V.k.&.&.E.(.!.F.&.i.V.V.c.&.&.9.6.3.M k N 0.0.0.0.0.0.0.6.:.J J P P P P P n k k         ",
"&.&.y.V.V.c.&.*.E.!.Q.F.*.i.V.V.c.&.&.9.q.0.M k N 3.6.6.6.6.6.6.3.:.J P P P P P P n k k         ",
"( ) ..V.V.D.~.~.O.o.X._.$X^.V.V.c.&.&.b.m.m.q.5.<.N M M M M M M N L P P P P P P P n k k         ",
"/ j ..V.V.S.!.(.X.d ) `.*X[.V.V.c.&.&.n.V.C.w.0.5.k k k k k k k k H P P P P P P P n k k         ",
"/ j ..B.B.A.E.E.O.o.X.$X*X[.B.B.j.&.&.n.V.C.w.4.<.k k k z z z z z L P P P P P P P n z z         ",
"      u.u.O.( ( U.$X$X%X*X`.u.u.$.&.&.n.V.M.5.P L k k n P L L L P P P P P P P P P P L L z k k   ",
"      &.*.X./ / U.*X%X%X%X`.&.&.&.&.&.n.V.C.<.K F k k n P P P P P P P P P P P P P P P P z k k   ",
"      &.*.) p p I.&X*X>X>X%XJ.J.K.g.g.c.n.b.8.Y Y B b n F F L P P F F F F F H P P P P P z k k   ",
"            . . =.&X&X4X3X1X*X%X].V.V.g.&.&.&.*.@.P P C k k C P P z k k k k n P P P P P z k k   ",
"            . . =.&X=X4X7X1X%X%X].V.V.g.&.&.*.*.@.P P C k k C P K z k k k k n P P P P P z k k   ",
"            . . %.U.U.U.T.Y.%X%X].V.V.g.&.&.X.X._ n n n C C n n n k k 4 2 $ 3 n n F P L 3 $ 2   ",
"            . . _ *.+.( d X.%X%X].V.V.g.&.#.) d R l k n P P b k k k k 3 . . $ k k C P H & . .   ",
"            . . _ *.#.) d X.%X%X].V.V.g.&.#.) / R l k n P P b k k k k 3 . . $ k k C P H * . .   ",
"      . . ! L.L.*.&.#.) d %.2X1X'.s.s.W.E.W.o.d ` P.P.R.:X:X@X@X@XD k 3 . . $ k k z b z # . .   ",
"      . . } =X&XJ.$.#.( d %.3X7X%X&.&.E.(.Q.o.d X.%X&X,X7X7X7X7X4XD k 3 . . $ k k k k 4 o . .   ",
"      . . } &X%XH.%.%.X.` %.3X7X%X+.#.E./.Q.( a X.*X*X,X3X3X4X1X<XD 4 3 . . $ 4 4 k k k o . .   ",
"      . . } &X%X X{.|.6XqX8X3X7X_.( ) f.C.N.9 X g 1X1X4X3X3X`.F.F.; o o       o o x L F & . .   ",
"      . . } =X&X X{..XqX9X0X3X7X_.d / x.V.M.9 . r 4X3X3X3X7X_.$.+.- . .       . . x P L * . .   ",
"      . . ! I.I. X|. XqX0X0X3X7X_.d / x.V.M.9 . r 6X6X5X,X<XH.` ` - . .       . . c L F & . .   ",
"            X X =.*X%X4X3X3X3X7X_.d / x.V.M.9 . e oXoXXX*.F.q . . . . .       . . 2 k k o . .   ",
"            . . L.=X=X4X3X3X3X7X_.d / x.V.M.9 . e oXoXXX$.F.q . . . . .       . . 2 k k o . .   ",
"            . . } %.=.>X<X<X<X2XU.d / x.V.M.9 . t }.}.{ ^ ^ Q Q R W W W       . . $ 2 2 o .     ",
"                . . @ Y.*X%X%X*XH.d / x.V.M.9 . . . . . . . @.)./.C.V.V.          . . .         ",
"                . . - Y.&X&X&X&XH./ / x.V.M.9 . . . . . . . @.)./.C.V.V.          . . .         ",
"                      ! ! ! [ | ~ > > p.D.k.: . # x x 6 2 2 w Q Q                               ",
"                      . . o 4 k 2 . . +.(.E.: . * P J C k k # . .                               ",
"                      . . # k k 2 . . @.!.W.: . * H P C k k $ . .                               ",
"                . . o m G G F F F G G w q q i i u * * 6 L H < . .                               ",
"                . . o F P P P P J P P < . . a / i . . 6 P P 1 . .                               ",
"                9 9 0 L P P P P H F F 1 o = R ^ i . . 6 P P 1 . .                               ",
"            . . t.M.m.,.J P P P x o o x H H I I T . . 6 P P 1 . .                               ",
"            . . t.V.C.,.J J J J c . . m K K K K n . . 6 J J 1 . .                               ",
"            . . d.z.z.Y U U U U 7 . . { r.r.r.r.| . . 8 U U 7 < <                               ",
"            . . m P I ^ / / / / q . . #X9X9X9X9X6X+ . > / / U J H & . .                         ",
"            . . m J I ^ j d d / u . . #X9X9X9X9X6X+ . > / j U J H & . .                         ",
"            . . Z 1.,.] ' ' ' ' w . .  .OXOXOXOX-.X . w ' ' A J H & . .                         ",
"            . . A q.0.0.0.0.0.q.V . . , y y y y , . . v q.0.>.J H & . .                         ",
"            . . A q.0.0.0.0.0.0.V . . , f f f f , . . v 0.0.>.J H & . .                         ",
"                8 5 7 2.0.4.>.>.z . . u h h h h p . . v 0.0.N < <                               ",
"                . . o 5.0.4.P J c . . p / / / / i . . v 0.0.5 . .                               ",
"                . . o <.3.5.L H 6 . . i ) ) ) ) i . . v 3.3.5 . .                               ",
"                      % % % # # o . . L.<X,X$X`.=.X . o % %                                     ",
"                      . . . . . . . . +X7X3X=X=XI.X . . . .                                     ",
"                      @ @ @ O O O O O L.-X-XY.T.%.X . . . .                                     ",
"                . . X a d a y y y y y ; + + + + X . . .                                         ",
"                . . X a / h f f f f f @ . . . . . . . .                                         ",
"                . . X a / j i i g f f @ . . . . . . .                                           ",
"                . . X a / / / / h f f @ . . . . .                                               ",
"                . . X a / / / / h f f @ . . . . .                                               ",
"                      > > > > > : : : O                                                         ",
"                      . . . . . . . .                                                           ",
"                      . . . . . . . .                                                           ",
"                                                                                                ",
"                                                                                                ",
"                                                                                                "
};
