/* XPM */
static char *right__286_29[] = {
/* columns rows colors chars-per-pixel */
"65 64 222 2 ",
"   c None",
".  c #000001",
"X  c #020B04",
"o  c #0B0705",
"O  c #150D08",
"+  c #031305",
"@  c #041B0A",
"#  c #061707",
"$  c #1A130A",
"%  c #1A1612",
"&  c #1D1B19",
"*  c #331C0F",
"=  c #341D16",
"-  c #291911",
";  c #06230A",
":  c #0E240A",
">  c #092B0A",
",  c #06280B",
"<  c #0B3D0C",
"1  c #0A330B",
"2  c #16390F",
"3  c #17340E",
"4  c #073713",
"5  c #112C0C",
"6  c #2A2319",
"7  c #3B2517",
"8  c #393B0D",
"9  c #1F1F20",
"0  c #362E25",
"q  c #3B3227",
"w  c #2E2A23",
"e  c #452719",
"r  c #542F18",
"t  c #48381A",
"y  c #58351B",
"u  c #6C3B1C",
"i  c #713E1E",
"p  c #4B2920",
"a  c #5D3420",
"s  c #4B3326",
"d  c #723F20",
"f  c #6F3D20",
"g  c #0D420D",
"h  c #0A4515",
"j  c #0E4B11",
"k  c #094919",
"l  c #094718",
"z  c #134C10",
"x  c #1A4816",
"c  c #0E5315",
"v  c #0E5B1A",
"b  c #0B541C",
"n  c #1A5B14",
"m  c #175614",
"M  c #235419",
"N  c #304613",
"B  c #0F631E",
"V  c #10651F",
"C  c #246D19",
"Z  c #27661A",
"A  c #2C7C1D",
"S  c #22701C",
"D  c #30781E",
"F  c #0E6C22",
"G  c #0D6522",
"H  c #0F7527",
"J  c #0F7B29",
"K  c #0E7A27",
"L  c #107426",
"P  c #107B29",
"I  c #1F7827",
"U  c #1F6F27",
"Y  c #256D27",
"T  c #217328",
"R  c #227B21",
"E  c #275826",
"W  c #545302",
"Q  c #474210",
"!  c #73401F",
"~  c #674E17",
"^  c #7D7C02",
"/  c #53532D",
"(  c #6D4421",
")  c #744221",
"_  c #7D4C2B",
"`  c #635E23",
"'  c #6E5529",
"]  c #6F5431",
"[  c #786E32",
"{  c #6A5945",
"}  c #6F7A4B",
"|  c #726C4E",
" . c #444D78",
".. c #5C6965",
"X. c #84581C",
"o. c #937518",
"O. c #86572A",
"+. c #866536",
"@. c #9B773D",
"#. c #967036",
"$. c #A67D3F",
"%. c #AB7C3E",
"&. c #926643",
"*. c #9E784E",
"=. c #8E765B",
"-. c #9E7450",
";. c #A47A41",
":. c #AA7F43",
">. c #A17742",
",. c #A57B56",
"<. c #827369",
"1. c #2F821F",
"2. c #14802A",
"3. c #1B852A",
"4. c #238B29",
"5. c #288626",
"6. c #348A23",
"7. c #2D9429",
"8. c #2F9127",
"9. c #3C9A26",
"0. c #369B29",
"q. c #3B9E29",
"w. c #349426",
"e. c #3EA229",
"r. c #4E9A2A",
"t. c #41A429",
"y. c #45A72A",
"u. c #57A929",
"i. c #68AE2A",
"p. c #549E1D",
"a. c #36914C",
"s. c #318344",
"d. c #939300",
"f. c #AC863C",
"g. c #AB8B39",
"h. c #B79734",
"j. c #AB9E24",
"k. c #C8B30F",
"l. c #C6AD29",
"z. c #CBB326",
"x. c #C2A235",
"c. c #D2B530",
"v. c #E3BE3C",
"b. c #B7CF15",
"n. c #DAC918",
"m. c #D9CB0E",
"M. c #E6DA12",
"N. c #E9D914",
"B. c #C9E50B",
"V. c #D4E90B",
"C. c #EBE50D",
"Z. c #F3EE06",
"A. c #FFFF00",
"S. c #F8F506",
"D. c #F6EA18",
"F. c #F0F30C",
"G. c #EBD525",
"H. c #E9C43A",
"J. c #EFD728",
"K. c #FEF827",
"L. c #D5C127",
"P. c #AC8243",
"I. c #AE8750",
"U. c #B58E59",
"Y. c #B8925C",
"T. c #B38742",
"R. c #9B8D6F",
"E. c #A98966",
"W. c #B6946F",
"Q. c #96A972",
"!. c #CD9D4D",
"~. c #C59547",
"^. c #D7A64D",
"/. c #DCAA52",
"(. c #D8A651",
"). c #CEA54D",
"_. c #E3B748",
"`. c #E1AE53",
"'. c #E5B155",
"]. c #C6A57D",
"[. c #C39F6B",
"{. c #2C4E9B",
"}. c #32539D",
"|. c #007DAD",
" X c #4E6398",
".X c #757B93",
"XX c #6A978D",
"oX c #7FB39F",
"OX c #05BDFF",
"+X c #909291",
"@X c #AB9B90",
"#X c #B9B087",
"$X c #B6B4B3",
"%X c #82B099",
"&X c #CAAB85",
"*X c #D4B48A",
"=X c #D9B78D",
"-X c #D8B68B",
";X c #DCBB91",
":X c #D0AF88",
">X c #C9BFBC",
",X c #BBC894",
"<X c #E5C79E",
"1X c #D7C7AC",
"2X c #E8CBA2",
"3X c #ECD2A8",
"4X c #F2D6AD",
"5X c #F8DEB6",
"6X c #E4D6B8",
"7X c #FEE5BC",
"8X c #FDE5BA",
"9X c #8A9DC8",
"0X c #9BA5C0",
"qX c #CFD1C5",
"wX c #D6E0D4",
"eX c #FFEAC1",
"rX c #FFE7C0",
"tX c #FFEFD4",
"yX c #FFF1D7",
"uX c white",
"iX c #F6FAF4",
"pX c #EBECEC",
/* pixels */
"                                                                                                                                  ",
"                                                                                                                                  ",
"                                                                                                                                  ",
"                        ;.;.;.;.;.O.! ) Y J L j g n t.t.t.t.t.4.J P                                                               ",
"                        ;.;.;.;.;.O.i ( Y J H j g n t.t.t.t.t.4.J J                                                               ",
"                      c.l.l.l.l.l.#.O.O.D 4.5.j g n t.t.t.t.t.7.4.4.0.                                                            ",
"            ;.;.P.(./.H.A.A.A.A.A.l.;.;.r.t.9.z g n t.t.t.t.t.t.t.t.t.t.q.P P F g g g                                             ",
"            ;.;.:.(./.H.A.A.A.A.A.l.>.;.r.t.9.z g n t.t.t.t.t.t.t.t.t.t.q.P J F g g g                                             ",
"        ;.$.z.n.n.J.J.G.z.z.z.z.z.x.~.~.u.e.9.z g n t.t.t.t.t.t.t.t.t.t.e.7.7.8.A A R J P v g g g g g                             ",
"      ;.;.$.C.A.A.A.A.M.;.;.;.;.;.!.`./.i.e.9.z g n t.t.t.t.t.t.t.t.t.t.t.t.t.t.t.t.7.J P v g g g g g                             ",
"      ;.;.f.C.A.A.A.A.M.;.;.;.;.;.!.`./.i.t.9.z g n t.t.t.t.t.t.t.t.t.t.t.t.t.t.t.t.7.P P v g g g g g                             ",
"  ) d k.M.M.l.h.x.v.H._.!.!.!.!.!.G.D.D.V.V.b.r.6.A n n A t.t.t.t.t.t.t.t.t.t.t.t.t.e.0.0.I F F F F F j g g                       ",
") ) d k.A.A.h.>.:.(./././././././.D.A.A.A.A.F.u.t.6.g < C t.t.t.t.t.t.t.t.t.t.t.t.t.t.t.t.4.J P P P L j g g                       ",
"  ) d k.S.Z.h.:.P.^.(.(.(.(.(.(.(.J.A.A.S.S.C.u.t.6.g g C t.t.q.9.9.9.9.q.t.t.t.t.t.e.e.e.4.J P P P L j g g                       ",
"      X.X.X.~.(.).P.P.P.P.P.P.P.P.n.A.A.l.g.g.y.t.6.g g C t.t.C z z z z m q.t.t.t.t.7.2.2.P P P P P P L L v . . .                 ",
"      d d ) ~.`.(.P.;.;.;.;.;.;.;.n.A.A.h.;.@.y.e.6.g < C t.t.Z < g g < z 9.t.t.t.t.7.J P P P P P P P P P v . . .                 ",
"      ) ) ) ~.`.).+.+.#.I.I.I.I.I.L.C.C.h.;.f.i.i.p.m m C w.w.C m m m m n w.0.0.0.q.4.J P P P P P P P P P G @ @ #                 ",
"                  o . 0 :X*X*X*X*XY.$.$.;.;.g.Z.A.B.t.t.A g g A t.e.e.t.q.2.P P P P P P P P P P P P P P P P H P l . .             ",
"                  . . 0 *X*X*X*X*XY.$.;.;.>.g.S.A.V.y.y.A g g A y.t.t.t.e.P P P P P P P P P P P P P P P P P P P k . .             ",
"                  . . 0 *X*X;X<X<X].U.U.x.l.l.n.N.b.w.7.R c c S 1.1.8.w.7.P P P P P P P P P P P P P P P P P P P k . .             ",
"                  . . 0 *X*X2X7X7X<X*X*XD.A.Z.f.;.[ P P P P P v g g F P P P P P P P P P P P P P P P P P P P P P k . .             ",
"                  . . 0 *X*X2XrXrX<X*X*XD.A.Z.f.;.[ J J J P P v g g F P P P P P P P P P P P P P P P P P P P P P k . .             ",
"                  . . 6 -.-.=.| | #X3X3XK.A.Z.f.;.#./ / M v v v B B v v v v v v v v v v v h 4 4 c v v v v B P P G h h ; . .       ",
"                  . . $ i ! 7 . . R.eX8XK.A.Z.g.;.#.) ) Q g g B P P j g g g g g g g g g g # . . 1 g g g g j P P P P P 4 . .       ",
"                  . . $ ) ) e . . R.rX8XK.A.Z.f.;.#.) ) Q g g V P P j g g g g g g g g g g # . . 1 g g g g c P P P P P 4 . .       ",
"            . . % =.R.<. . ..X$X$X6X7X8X).x.x.!.!.T.) i +.R.R.#X,X,X#X#XQ.x g g g g > + + X     + + + + + ; c c c c c < > > X . . ",
"            . . % &X;X@X}.{.9XuXuXyX7X8XY.>.:.(.`.~.) ! -.=X=X4XrXrXrXrX3XM g g g g , . .       . . . . . X g g g g g g g g + . . ",
"            . . % ].-X@X}.{.9XuXuXyX7X8XU.@.:./._.~.) i -.;X=X4X7X7X8X8X2XM < < < < , . .       . . . . . + < < < < < < < < X . . ",
"            . . % ].-X@X}.{.9XuXuXyX7X8X&.) O.C.S.m.) i E.8X5X8X7X8X[.I.*.$ X X X X X                       X X X X X X X X       ",
"            . . % &X=X@X}.{.9XuXuXyX7X8X&.i X.Z.A.m.! i E.7X7X7X7X7XY.$.#.O . . . . .                       . . . . . . . .       ",
"            . . % E.W.R. X X0XiXiXtX7X8X&.i X.Z.A.m.O.O.E.wXwX6X3X3X*.+.] o . . . .                         . . . . . . . .       ",
"                  o o q :X:X2XrXrX7X7X8X&.i X.Z.A.D.(.^.%XOXOXXX:.;.6 o o . . .                                                   ",
"                  . . 0 *X=X2X7X7X7X7X8X&.u X.S.A.D./.`.oXOXOXXX%.;.- . . . . .                                                   ",
"                  . . w =.=.#X4X4X4X4X3X,.&.@.k.m.n.H.H.Q.|.|...' ' y t t W W W                                                   ",
"                        . . / =X*X*X*X*X*X*X]._ f o.A.A.d.. . . . o P.`._.S.A.A.                                                  ",
"                        . . / ;X=X=X=X=X=X=X&X_ d o.A.A.d.. . . . . T.'._.A.A.A.                                                  ",
"                            s { { | } } } } | 7 * ~ G.J.o.. . + ; ; / ' ' ^ ^ ^                                                   ",
"                              . . ; g g g g < X . 7 (.`.[ . . , g g X . . . . .                                                   ",
"                              . . , g g g g < X . 7 /.'.+.. . , g g X . . . . .                                                   ",
"                        . . , b b B F F F F B 1 > 3 t t N b b B F B # . .                                                         ",
"                        . . 4 2.P P P P P P L j g 1 . . 4 2.P P P P @ . .                                                         ",
"                        X X 4 P J J P P H H F j g 1 X X 4 H H H P P @ . .                                                         ",
"                  . . @ G G F P P P P P , + ; F H F G F h + + b P P @ . .                                                         ",
"                  . . ; J J J J J J J J @ . X F J J J J h . . k J J @ . .                                                         ",
"                  . . : 6.w.5.U T T T U @ . + s.a.a.a.a.E . . x T U , + +                                                         ",
"                  . . N Z.S.k.( ( ( ( ( O . & wXiXiXiXiX+X. . e ( ( Y H G X . .                                                   ",
"                  . . Q A.A.k.d d d d d O . 9 pXuXuXuXuX+X. . e ) ) Y J F X . .                                                   ",
"                  . . 8 B.B.j.` ` ` ` ` $ . & $X1X>X>XqX... . 8 ` ` T J F X . .                                                   ",
"                  . . 5 t.t.t.t.t.t.t.q.: . o e p p p p - . . Z y.t.3.J F X . .                                                   ",
"                  . . 5 t.t.t.t.t.t.t.e.: . o e p p p p - . . Z y.t.3.P F X . .                                                   ",
"                  . . # M M D t.t.t.t.e.: . o r a a a a = . . Z t.t.m 4 4 X .                                                     ",
"                  . . . . . x t.t.t.t.e.: . o u ) ) ) ) e . . Z t.e.: . .                                                         ",
"                  . . . . . x y.t.t.t.t.: . o u ! ! ! ) e . . Z y.t.: . .                                                         ",
"                      . . . # 2 2 2 2 2 X . % W.:X].W.W.] . . : 2 2                                                               ",
"                        . . . . . . . . . . & 3XeX5X=X;X| . . . . .                                                               ",
"                        . . . . . . . . . . & 2X5X3X:X*X| . . . . .                                                               ",
"                        . . - y y e 7 7 o . o w 0 w 6 6 % . . .                                                                   ",
"                        . . * ) ) a p p o . . . . . . . . . .                                                                     ",
"                        . . * ) ) a p r O o o . . . . . . . .                                                                     ",
"                        . . * ) ) ) d f r e 7 o . . . . .                                                                         ",
"                        . . * ) ) ) ) ) y p e o . . . . .                                                                         ",
"                        . . - r r r r r 7 = = o . . . .                                                                           ",
"                              . . . . . . . .                                                                                     ",
"                              . . . . . . . .                                                                                     "
};
