/* XPM */
static char *right__281_29[] = {
/* columns rows colors chars-per-pixel */
"64 64 222 2 ",
"   c None",
".  c #000001",
"X  c #0A0605",
"o  c #020A03",
"O  c #0B0A04",
"+  c #140C08",
"@  c #031305",
"#  c #081908",
"$  c #1B140B",
"%  c #25150D",
"&  c #251712",
"*  c #351D14",
"=  c #321C0E",
"-  c #092D09",
";  c #07250A",
":  c #0C3E0C",
">  c #09330A",
",  c #16390F",
"<  c #19350E",
"1  c #073913",
"2  c #112B0C",
"3  c #29231C",
"4  c #26201A",
"5  c #3C221B",
"6  c #392314",
"7  c #2A2825",
"8  c #362F27",
"9  c #43251D",
"0  c #4B2B18",
"q  c #46361B",
"w  c #5C341B",
"e  c #6B3B1D",
"r  c #713E1E",
"t  c #4B2A21",
"y  c #5D3420",
"u  c #493E31",
"i  c #473D2C",
"p  c #733F20",
"a  c #6F3C21",
"s  c #0D420D",
"d  c #10470E",
"f  c #0A4315",
"g  c #0E4D12",
"h  c #094718",
"j  c #174D14",
"k  c #0E5315",
"l  c #0E5C1A",
"z  c #0B541C",
"x  c #185714",
"c  c #245718",
"v  c #29451B",
"b  c #0F631E",
"n  c #1D6116",
"m  c #296D1B",
"M  c #26721B",
"N  c #2B7A1D",
"B  c #0F6B22",
"V  c #0D6421",
"C  c #1A6C25",
"Z  c #0F7426",
"A  c #0F7B29",
"S  c #0E7927",
"D  c #107426",
"F  c #107B29",
"G  c #1F7725",
"H  c #207228",
"J  c #227027",
"K  c #297523",
"L  c #1B4927",
"P  c #545401",
"I  c #424117",
"U  c #4D5303",
"Y  c #72401F",
"T  c #6C4D1C",
"R  c #7D7C02",
"E  c #796C16",
"W  c #504D2D",
"Q  c #6D4521",
"!  c #744220",
"~  c #794724",
"^  c #665C25",
"/  c #71562B",
"(  c #6C5E3B",
")  c #5D7224",
"_  c #6C6E2E",
"`  c #6B5A46",
"'  c #6F784B",
"]  c #706B4E",
"[  c #434C78",
"{  c #746F6D",
"}  c #4A6056",
"|  c #84591C",
" . c #8B611B",
".. c #9F7C16",
"X. c #875937",
"o. c #81512A",
"O. c #886436",
"+. c #9F763D",
"@. c #906B34",
"#. c #A67C3E",
"$. c #A17E16",
"%. c #90724E",
"&. c #A47A41",
"*. c #A47943",
"=. c #A37854",
"-. c #947D61",
";. c #2F821F",
":. c #18832A",
">. c #228A29",
",. c #2F8520",
"<. c #338721",
"1. c #2C9329",
"2. c #2F9227",
"3. c #3D9C27",
"4. c #359A29",
"5. c #3B9E29",
"6. c #379325",
"7. c #3FA229",
"8. c #74AA17",
"9. c #52902A",
"0. c #41A429",
"q. c #47A929",
"w. c #5CAA2B",
"e. c #709B2E",
"r. c #36914C",
"t. c #338847",
"y. c #828200",
"u. c #A68C14",
"i. c #8D883A",
"p. c #AA833D",
"a. c #A6833D",
"s. c #B48A3C",
"d. c #B1942F",
"f. c #BEA22D",
"g. c #83BC15",
"h. c #CFBB11",
"j. c #CBB425",
"k. c #D2BC22",
"l. c #C9AA32",
"z. c #C19C3C",
"x. c #B4D80F",
"c. c #D4C509",
"v. c #D7C51B",
"b. c #D6D500",
"n. c #E6DB12",
"m. c #D4E80B",
"M. c #EDE50D",
"N. c #EFE80B",
"B. c #F3EC0C",
"V. c #F4EF03",
"C. c #F9F504",
"Z. c #FFFE00",
"A. c #F9FA06",
"S. c #F6E915",
"D. c #FCF71A",
"F. c #E3F206",
"G. c #D9C623",
"H. c #E9C738",
"J. c #ECD429",
"K. c #F2E82B",
"L. c #AC8243",
"P. c #AE8750",
"I. c #B38C56",
"U. c #BC914A",
"Y. c #988B6C",
"T. c #B1926F",
"R. c #A0A678",
"E. c #CE9E4D",
"W. c #D6A94B",
"Q. c #DCAA52",
"!. c #D4AA51",
"~. c #D1AA48",
"^. c #E3B44C",
"/. c #E1AE54",
"(. c #E3B054",
"). c #C6A278",
"_. c #C09B67",
"`. c #E5CE5D",
"'. c #DEC278",
"]. c #2C4F9B",
"[. c #2F519D",
"{. c #007CAD",
"}. c #4D6398",
"|. c #739482",
" X c #73A584",
".X c #05BDFE",
"XX c #6EB7C4",
"oX c #9E9392",
"OX c #82848F",
"+X c #B6AF87",
"@X c #B9B6B5",
"#X c #CBAC86",
"$X c #D1AF86",
"%X c #D5B38B",
"&X c #D9B68D",
"*X c #DAB98B",
"=X c #DCBB91",
"-X c #CCB18E",
";X c #C9BFBC",
":X c #BBC893",
">X c #E3C59C",
",X c #EDD29C",
"<X c #EACEA5",
"1X c #EDD1A8",
"2X c #F2D7AE",
"3X c #F6DCB4",
"4X c #F9DFB6",
"5X c #E7D7B7",
"6X c #FEE6BC",
"7X c #FDE5B7",
"8X c #DBCCA1",
"9X c #9DADD0",
"0X c #9FB0D4",
"qX c #ABB3C8",
"wX c #CFD1C5",
"eX c #FFEAC1",
"rX c #FFEAC7",
"tX c #FFEED1",
"yX c white",
"uX c #F6F9F4",
"iX c #E4EAE5",
"pX c #D2E1CC",
/* pixels */
"                                                                                                                                ",
"                                                                                                                                ",
"                                                                                                                                ",
"                      &.&.&.&.&.o.Y Q H A Z s s n 0.0.0.0.0.>.A F                                                               ",
"                      &.&.&.&.&.o.a Q C A Z s s n 0.0.0.0.0.:.A A                                                               ",
"                    l.j.j.d.&.&.u.u.u.<.>.G s s n 0.0.0.0.0.1.>.>.4.                                                            ",
"          &.&.L.Q.Q.H.Z.Z.k.&.&.n.Z.A.w.0.6.d s n 0.0.0.0.0.0.0.0.0.0.0.0.0.4.F F F F F                                         ",
"          &.&.L.Q.Q.H.Z.Z.k.*.&.n.Z.A.w.7.6.d s n 0.0.0.0.0.0.0.0.0.0.0.0.0.4.A A F F F                                         ",
"      &.p.v.v.k.U.U.z.j.j.k.v.v.J.J.H.w.0.6.d s n 0.0.0.0.0.0.0.0.0.0.0.0.0.5.1.1.:.A F F F F g s s                             ",
"    &.&.p.B.Z.N.#.&.&.&.*.v.Z.Z.H.Q.!.w.0.6.d s n 0.0.0.0.0.0.0.0.0.0.0.0.0.0.0.0.1.A F F F F g s s                             ",
"    &.&.p.B.Z.M.p.&.&.&.&.v.Z.Z.H.Q.!.w.0.6.d s n 0.0.0.0.0.0.0.0.0.0.0.0.0.0.0.0.1.F F F F F g s s                             ",
"! ! h.n.M.Z.Z.B.~.E.E.E.E.W.H.H.J.S.S.m.m.x.6.<.N x x N 0.0.0.0.0.0.0.0.0.0.0.0.0.5.4.4.:.A F B B B s s s                       ",
"! ! c.Z.Z.Z.Z.B.^.Q.Q.Q.Q.Q.Q.Q.S.Z.Z.Z.Z.F.q.q.,.s : M 0.0.0.0.0.0.0.0.0.0.0.0.0.0.0.0.>.A F F F D s s s                       ",
"! ! c.V.V.A.A.S.Q.Q.Q.Q.Q.Q.Q.Q.S.Z.Z.A.A.m.q.0.,.s s M 0.0.3.3.3.3.3.3.0.0.0.0.0.7.7.7.>.A F F F D g s s                       ",
"    | |  .~.^.W.L.L.L.L.L.L.L.L.n.Z.A.f.s.a.0.0.,.s s M 0.0.m g j j g x 3.0.0.0.0.1.:.:.F F F F F F D D B s s s                 ",
"    p p ~ E./.!.&.&.&.&.&.&.&.&.n.Z.A.s.*.i.0.0.,.s : M 0.0.n : s s : j 3.0.0.0.0.1.A F F F F F F F F F B s s s                 ",
"    ! ! ~ E./.E.O.O.@.P.P.P.P.P.G.M.n.f.d.d.9.w.9.x x M 6.6.m x x x x n 4.4.4.4.5.>.A F F F F F F F F F B g g f                 ",
"                X . W %X%X%X%X%XI.#.p.M.Z.M.a.&.i.7.7.M s s ;.0.7.7.0.5.F F F F F F F F F F F F F F F F F F F h . .             ",
"                . . u %X%X%X%X%XI.#.p.B.Z.B.p.&.i.0.0.M : s ,.q.0.0.0.5.F F F F F F F F F F F F F F F F F F F h . .             ",
"                . . u %X%X=X>X>X).I.I.B.Z.N.p.&.e.1.2.G k k M ;.;.2.2.1.F F F F F F F F F F F F F F F F F F F h . .             ",
"                . . u %X%X<X6X6X>X%X*XD.Z.N.p.&._ A F F F F k s s Z F F F F F F F F F F F F F F F F F F F F F h . .             ",
"                . . u %X%X1XeXeX>X%X*XD.Z.N.p.&._ A A A F F k s s Z F F F F F F F F F F F F F F F F F F F F F h . .             ",
"                . . 5 =.=.%.] ] -X1X,XD.Z.N.p.&.@.W W c l l l b b l l l l l l l l l l l f 1 1 k l l l l b F F V f f ; . .       ",
"                . . % r Y = . . +XeX7XD.Z.N.p.&.@.! ! I s s B F F g s s s s s s s s s s # . . > s s s s k F F F F F > . .       ",
"                . . % ! ! * . . +XeX7XD.Z.N.p.&.@.! ! I s s B F F g s s s s s s s s s s # . . > s s s s k F F F F F > . .       ",
"          . . 4 -.Y.{ [ [ OX@X@X5X6X7X~.f.z.E.E.L.! Y %.Y.Y.+X:X:X+X+XR.j s s s s - @ @ o     @ @ @ @ @ ; k k k k k : - - o . . ",
"          . . 3 %X*XoX[.[.0XyXyXtX6X4XI.*.L.Q./.U.! Y =.=X&X2XeXeXeXeX8Xj s s s s ; . .       . . . . . @ s s s s s s s s o . . ",
"          . . 3 $X&XoX[.].9XyXyXtX6X4XP.+.L.Q.^.s.! Y =.=X&X2X6X6X7X7X8Xj : : : : ; . .       . . . . . @ : : : : : : : : o . . ",
"          . . 3 $X&XoX[.].9XyXyXtX6X3XO.~  .B.A.h.! r T.7X4X6X6X7X_.P.%.# o o o o o                       o o o o o o o o       ",
"          . . 3 $X=XoX[.].9XyXyXtX6X3XX.r  .C.Z.c.r r T.6X6X6X6X7XI.&.@.X . . . . .                       . . . . . . . .       ",
"          . . 3 T.T.Y.}.}.qXyXuXtX6X3XX.r  .C.Z.c.X.o.R.pXpX5X1X<X%.O./ X . . . .                         . . . . . . . .       ",
"                X X W -X-X<XeXeX6X6X3XX.r  .C.Z.K.$X$XXX.X.X|.&.*.& X X . . .                                                   ",
"                . . u =X&X1X6X6X6X6X3XX.e  .A.Z.K.%X%XXX.X.X|.#.+.$ . . . . .                                                   ",
"                . . 8 -.-.#X2X2X2X2X<X=.%.+.h.c.G.`.`. X{.{.} / / W i i P P P                                                   ",
"                      . . ` &X%X%X%X%X%X%X).~ a ..Z.Z.y.. . . . X T.%X'.A.Z.Z.                                                  ",
"                      . . ` =X&X&X&X&X&X=X).~ p $.Z.Z.y.. . . . X T.=X'.A.Z.Z.                                                  ",
"                          u ` ` ' ' ' ' ' ] 6 * T J.J.E . . # ; ; W ` ( R R R                                                   ",
"                          . . . - s s s s > . . q Q././ . . - s s o . . . . .                                                   ",
"                          . . . - s s s s > . . q Q.(./ . . - s : o . . . . .                                                   ",
"                      . . 1 z z b b b B B l > - < q q v z z b B b @ . .                                                         ",
"                      . . f :.F F F F F F D s s - . . 1 :.F F F S @ . .                                                         ",
"                      O O f F F F F A Z Z B g s > . . 1 S Z F F Z @ . .                                                         ",
"                . . P b.b.8.A F F F Z ; @ ; B D B V B 1 @ @ l F Z @ . .                                                         ",
"                . . P Z.Z.g.S A A A Z @ . @ Z S S A A 1 . . z A Z @ . .                                                         ",
"                . . U F.F.8.C H H C C @ . # t.r.r.r.r.L . . j H C ; @ @                                                         ",
"                . . , q.q.) Q Q Q Q Q + . 7 iXuXuXuXuX{ . . 0 Q Q J Z V o . .                                                   ",
"                . . , 0.0.) p p p p e + . 7 uXyXyXyXyXOX. . 0 ! ! H A B o . .                                                   ",
"                . . , 0.0.9.^ ^ ^ ^ ^ + . 7 @X;X;X;XwX] . . I ^ ^ G A B o . .                                                   ",
"                . . , 0.0.0.0.0.0.0.3.# . X 9 t t t t % . . m 0.7.:.F B o . .                                                   ",
"                . . , q.0.0.0.0.0.0.3.# . X 9 t t t t % . . m 0.7.:.F B o . .                                                   ",
"                . . 2 c c N 0.0.0.0.3.# . + w y y y y = . . m 0.5.k f 1 o .                                                     ",
"                      . . c 0.0.0.0.3.# . + r ! ! ! ! 6 . . m q.3.# . .                                                         ",
"                      . . c q.0.0.0.3.# . + r Y Y Y ! 6 . . m q.3.# . .                                                         ",
"                      . . # , , , , , o . & #X$X).T.T.W . . 2 , ,                                                               ",
"                      . . . . . . . . . . 7 3XeX3X%X=X` . . . . .                                                               ",
"                      . . . . . . . . . . 7 1X3X<X$X%X` . . . . .                                                               ",
"                      . . = w w 9 5 5 5 5 5 8 8 7 3 3 3 5 5 + . .                                                               ",
"                      . . 6 ~ ! y t t t t 5 . . . . . % t t + . .                                                               ",
"                      . . 6 e e 0 5 9 9 9 * . . . X X % 9 9 + . .                                                               ",
"                          X X X X . . . . . . . + 9 9 % . .                                                                     ",
"                          . . . . . . . . . . . + t t % . .                                                                     ",
"                            . . . . . . . . . . + * * % . .                                                                     ",
"                                            . . . . . .                                                                         ",
"                                            . . . . . .                                                                         "
};
