/* XPM */
static char *right__282_29[] = {
/* columns rows colors chars-per-pixel */
"54 64 219 2 ",
"   c None",
".  c #000001",
"X  c #090504",
"o  c #020B03",
"O  c #0D0A05",
"+  c #0E0D0B",
"@  c #120C0A",
"#  c #1A0F09",
"$  c #180D07",
"%  c #021206",
"&  c #031909",
"*  c #041907",
"=  c #1B180E",
"-  c #23130B",
";  c #26190E",
":  c #251410",
">  c #2A1814",
",  c #321C14",
"<  c #371E18",
"1  c #04230C",
"2  c #082A08",
"3  c #06290C",
"4  c #0A340B",
"5  c #0C3C0C",
"6  c #073609",
"7  c #073B14",
"8  c #173111",
"9  c #3D211A",
"0  c #3C2211",
"q  c #33312C",
"w  c #44251E",
"e  c #492819",
"r  c #4A391C",
"t  c #55301D",
"y  c #68391D",
"u  c #713F1E",
"i  c #4B2A21",
"p  c #55352B",
"a  c #4B3A2C",
"s  c #673920",
"d  c #723E20",
"f  c #0D420D",
"g  c #0A4515",
"h  c #0D4A11",
"j  c #0A4519",
"k  c #134D12",
"l  c #1F471A",
"z  c #0E5316",
"x  c #0B541C",
"c  c #0E5A1A",
"v  c #185714",
"b  c #11490F",
"n  c #2D4316",
"m  c #205C1D",
"M  c #1D6418",
"N  c #0F651E",
"B  c #27731B",
"V  c #2D791E",
"C  c #206818",
"Z  c #0F6C22",
"A  c #0E6621",
"S  c #0F7527",
"D  c #0E7B29",
"F  c #107526",
"G  c #107B29",
"H  c #1A7726",
"J  c #1B7329",
"K  c #2C6A26",
"L  c #367123",
"P  c #545401",
"I  c #494C16",
"U  c #72411F",
"Y  c #7D7D01",
"T  c #72601E",
"R  c #554838",
"E  c #52522A",
"W  c #684B24",
"Q  c #744121",
"!  c #7A4926",
"~  c #695827",
"^  c #74562D",
"/  c #5B7225",
"(  c #57732D",
")  c #756630",
"_  c #595342",
"`  c #6A5A45",
"'  c #78654F",
"]  c #6F794B",
"[  c #766F55",
"{  c #444D79",
"}  c #6C6D6E",
"|  c #94711B",
" . c #A17F15",
".. c #86572D",
"X. c #885934",
"o. c #814F27",
"O. c #8A693B",
"+. c #976E39",
"@. c #A4773B",
"#. c #A16F36",
"$. c #8F704E",
"%. c #A27742",
"&. c #A47A41",
"*. c #A97D42",
"=. c #A57C49",
"-. c #A37954",
";. c #178229",
":. c #1D8334",
">. c #238B29",
",. c #2B8725",
"<. c #308420",
"1. c #338B22",
"2. c #2C9329",
"3. c #3D9C27",
"4. c #359A29",
"5. c #359727",
"6. c #3FA228",
"7. c #2F811F",
"8. c #4D931E",
"9. c #4F972F",
"0. c #6F8D35",
"q. c #41A429",
"w. c #45A72A",
"e. c #679211",
"r. c #898900",
"t. c #AE8E1A",
"y. c #B9A010",
"u. c #8E8B38",
"i. c #B18D3A",
"p. c #B59433",
"a. c #BA9A32",
"s. c #A98436",
"d. c #BFA22E",
"f. c #C7AC2A",
"g. c #CBB426",
"h. c #C4A436",
"j. c #C2AA1A",
"k. c #ACD212",
"l. c #DACA1A",
"z. c #D5CC08",
"x. c #E1D415",
"c. c #E7DD11",
"v. c #E9DB12",
"b. c #D6EA09",
"n. c #C4E30D",
"m. c #F2EC09",
"M. c #FFFE01",
"N. c #FBF608",
"B. c #F6E818",
"V. c #EFE80E",
"C. c #DBC52B",
"Z. c #EDCE33",
"A. c #AC8348",
"S. c #B78C48",
"D. c #B49052",
"F. c #9A8265",
"G. c #919268",
"H. c #BA9369",
"J. c #B49875",
"K. c #B08C66",
"L. c #CF9F4E",
"P. c #C59849",
"I. c #C7A54C",
"U. c #D4A34E",
"Y. c #DCAE4B",
"T. c #DFAD53",
"R. c #D7A651",
"E. c #E2B34C",
"W. c #E1AE54",
"Q. c #C19C6B",
"!. c #E7D352",
"~. c #DDC272",
"^. c #2D509D",
"/. c #31539E",
"(. c #2B4F9D",
"). c #037BAA",
"_. c #4F649A",
"`. c #797E96",
"'. c #797988",
"]. c #4A9792",
"[. c #05BCFE",
"{. c #13B9F4",
"}. c #49B9DA",
"|. c #828283",
" X c #AD9D81",
".X c #B9B689",
"XX c #B8B298",
"oX c #BAB9B8",
"OX c #9799A5",
"+X c #D1AE86",
"@X c #D5B38B",
"#X c #D9B68D",
"$X c #DBB98E",
"%X c #DCBB92",
"&X c #D5B794",
"*X c #C9B28B",
"=X c #DDC299",
"-X c #E2C39A",
";X c #EFD888",
":X c #FFEB9B",
">X c #DBC5A2",
",X c #E6C8A0",
"<X c #EDD2A9",
"1X c #F2D7AB",
"2X c #F6DCB4",
"3X c #FEE6BD",
"4X c #FFE8BF",
"5X c #FCE0B7",
"6X c #D2D8D1",
"7X c #E2DDDB",
"8X c #D7EADC",
"9X c #D2E1CC",
"0X c #FFEAC3",
"qX c #FFE7C0",
"wX c #C6CFE4",
"eX c #C9D3E8",
"rX c #FFFFFE",
"tX c #FCFAF7",
"yX c #F3EDE8",
/* pixels */
"                                                                                                            ",
"                                                                                                            ",
"                                                                                                            ",
"                      &.&.@.! Q W G G A f f B w.w.w.w.6.;.D G                                               ",
"                      &.&.%.! u W G D A f 5 B w.q.q.q.6.;.D D                                               ",
"                      f.f.f.X...) >.>.H f 5 B w.q.q.q.6.2.>.>.                                              ",
"            &.&.P.T.T.B.M.N.i.&.u.q.w.<.f f B w.q.q.w.w.w.w.w.w.w.4.G G G                                   ",
"            &.&.P.W.T.B.M.N.i.&.u.q.w.<.f f B w.q.q.w.w.w.w.w.w.w.4.G D D                                   ",
"      &.&.d.l.l.h.S.S.f.g.g.P.P.S.q.w.<.f f B w.q.q.w.w.w.q.w.w.q.3.2.2.>.D D c f f                         ",
"      &.&.f.M.M.g.%.&.&.&.*.R.W.I.w.w.<.f f B w.w.q.w.w.w.q.6.q.q.w.w.w.2.D D c f f                         ",
"      &.&.f.M.M.g.&.&.&.&.*.U.W.I.w.w.<.f f B w.q.w.w.w.q.q.6.6.w.w.w.w.2.D G c f f                         ",
"&.&.p.c.c.l.a.a.P.L.L.L.L.U.v.B.V.b.b.k.1.1.B v v 1.w.w.q.q.6.6.w.w.w.w.3.4.4.H A Z h f f                   ",
"&.&.a.M.M.l.%.&.P.W.W.T.T.E.N.M.M.M.M.n.w.w.B 5 f <.w.w.q.w.w.w.q.q.q.w.w.w.w.>.D G h f f                   ",
"@.@.p.M.M.l.*.*.P.U.U.R.R.Y.N.M.M.N.N.n.w.w.B f f <.w.w.3.3.3.3.3.3.q.w.w.w.w.>.D G z f f                   ",
"! ! | M.M.v.R.R.@.! o.@.A.i.m.M.m.p.i.u.w.w.B f f <.w.6.v k k k k M q.w.w.w.w.>.D G F F Z h f f             ",
"Q d | M.M.B.T.W.#.u u +.&.s.m.M.m.&.%.u.6.w.B 5 f <.w.6.k 5 f f 5 v w.w.w.w.w.>.D G G G F h f f             ",
"U d | c.c.C.U.U.&.X.X.=.D.S.x.V.x.a.p.u.9.9.L v v V 5.1.M v v v v C 4.4.4.4.4.;.D G G G F h f f             ",
"      U U ..&.&.H.@X@X@X@X+XA.&.p.N.M.x.&.&.0.6.q.M f b 1.q.6.6.q.5.G G G G G G G G G G F h f f             ",
"      Q U ..*.&.Q.#X@X@X@X+XA.%.p.N.M.x.&.&.0.w.w.M f f 5.w.w.w.w.4.G G G G G G G G G G F f f f             ",
"      Q Q W W W K.#X@X-X-X-XH.K.I.N.M.x.&.&.0.2.5.M z c V 7.<.2.5.>.G G G G G G G G G G F c z z             ",
"            . . ' $X@X1XqX3X%X@X~.M.M.x.&.&.( D G G G G h f h S G G G G G G G G G G G G G G G Z f f f       ",
"            . . ' %X#X2XqX3X%X@X~.M.M.x.&.&.( D D D G G h f h F G G G G G G G G G G G G G G G Z f f f       ",
"            . . R -.-.$.[ [ =X<X;XM.M.x.&.&.) E E m c c f f f c c N G G G G G G G G G G G G G Z f f f       ",
"            . . 0 U u $ . + >XqX:XM.M.x.&.&.X.u Q n f f f f f f f z G G G G G G G G G G G G G Z f f f       ",
"            . . e Q Q - . @ >XqX:XM.M.x.&.&.X.U Q n f f f f f f f z G G G G G G G G G G G G G Z f f f       ",
"      . . a F.F.} { { OXoXoX2X3X1Xh.d.h.L.U.#.u Q $.G.G..X.X.X.X.XG.z z z z z 4 1 1 h z z F G Z f f 2 . .   ",
"      . . R $X$X`.^./.eXrXrX0X3X<X=.%.S.T.W.@.u Q H.$X$X5XqXqXqX0X.Xf f f f f * . . 4 f g F G Z f f 2 . . . ",
"      . . R #X#X`.^./.wXrXrX0X3X<X*.@.S.E.E.@.u Q H.%X%X2X3X3X2X3X.X5 5 5 5 5 * . . 4 5 f S G Z f f 2 . .   ",
"      . . R #X#X`.^./.wXrXrX0X3X,Xo.! t.N.N.y.d U +X5X5X3X3X1XD.D.O.o o o o o       o o % g h h f f 2 . .   ",
"      . . R $X$X`.(./.wXrXrX0X3X,X! d  .M.M.y.u u @XqX4X3XqX1XA.*.^ . . . . .       . . . 5 f f f f 2 . .   ",
"      . . a J.J.'._._.6XtXtX0XqX,X! d  .M.M.j.X.X.XX9X9X<X<X=XO.O.W . . . . .       . . . 4 4 4 f f 2 . .   ",
"            X X ' @X*X2XqXqX3X4X,X! u  .M.M.!.+X+X}.[.{.G.A.+.@ X X . . .                 . . % f f 2 . .   ",
"            . . ' %X$X1XqX4X3XqX,X! u t.M.M.!.@X@X}.[.[.G.*.O.X . . . . .                 . . o f f 2 . . . ",
"            . . R $.$.&X1X1X1X1X-X$.$.s.z.z.C.!.!.].).)._ ^ W r r I P P P                 . . o 2 2 * . .   ",
"                . . . F.#X#X#X#X@X@X#XK.Q d y.M.M.P . . . . = U.T.Z.M.M.M.                      . . .       ",
"                . . . F.%X%X#X#X#X#X%XH.Q d y.M.M.P . . . . ; U.W.Z.M.M.M.                      . . .       ",
"                  .   R ` ` ] ] ] ] ] E 0 , | Z.Z.I . . * 1 8 ~ ~ T Y Y Y                         .         ",
"                      . . . 6 f f f f 2 . . ^ W.T.r . . 4 f 4 . . . . . .                                   ",
"                      . . . 4 f f f f 2 . . ^ W.T.r . . 4 f 4 . . . . . .                                   ",
"                  . . g x x A A Z A Z g . . n 9.9.K x x g f 4 . . .                                         ",
"                . . . c ;.G G G G G G x . . 7 D D D G G h f 4 . . .                                         ",
"                O O O c G G G G G G G x . . j :.:.:.:.:.h 5 4 . . .                                         ",
"            . . r.z.z.8.D G G G G G G x . . } 8X8X8X8X9Xq o o . . .                                         ",
"            . . r.M.M.8.D D D G G G G x . . |.rXrXrXrXtXq . . . . .                                         ",
"            . . e.b.b.8.J J G G G G G x . . } 7X7X7X7X6Xq . . % % %                                         ",
". . . . . . . . k ;.;.E Q W J D G G G x . . > p p p p p @ . % Z S x . . .                                   ",
". . . . . . . . g G G E d Q J D D D D x . . : i w w w w X . % S ;.c . . .                                   ",
". . X - - $ . . g G G / ~ ~ L K K K K l . . : i i t p t ; - = x x j 1 1 &                                   ",
". . # U Q e . . g G G 4.w.q.W d Q Q Q e . . : i i s Q Q Q Q y X . 1 G G g . .                               ",
". . # U Q e . . j ;.G 4.w.q.W d d d Q e . . : i i y u u u u y X . 1 G G g . .                               ",
". . # U Q t : : 8 g g 1.w.q./ / / / / I 7 7 8 : : $.H.K.-.-.$.O . 1 G G g . .                               ",
". . # U Q s i i - . . V w.q.w.w.6.w.w.4.G ;.7 . .  X0X3X%X#XJ.@ . 1 G G g . .                               ",
". . # Q Q y i i - . . V w.w.w.w.w.w.w.5.G G 7 . .  X0X3X%X#XJ.@ . 1 G G j . .                               ",
"      ; - , i i 9 , , 8 8 5 H >.>.>.>.Z 3 3 & . . q _ _ R a q X . o 3 3 1                                   ",
"      . . # i i i i i @ . . A D D D D x . . . . . . . . . . . . . . . . .                                   ",
"      . . # w w w w w @ . o A F S S G x . . . . . . . . . . . . . . . . .                                   ",
"          X O O O O O       & & & & & % . . . . . . . . , 9 9 9 9 > . . .                                   ",
"            . . . . .       . . . . . . . . . . . . . . 9 i i i i < . . .                                   ",
"            . . . . .       . . . . . . . . . . . . . . , w w w w , . .                                     ",
"                                                  . . . X X X X X X                                         ",
"                                                  . . . . . . . . .                                         ",
"                                                    . . . . . . . .                                         ",
"                                                                                                            ",
"                                                                                                            "
};
