/* XPM */
static char *right__285_29[] = {
/* columns rows colors chars-per-pixel */
"56 64 229 2 ",
"   c None",
".  c #000001",
"X  c #0A0504",
"o  c #020D04",
"O  c #090A0A",
"+  c #110A06",
"@  c #130B0A",
"#  c #1B0F09",
"$  c #031405",
"%  c #051B08",
"&  c #171209",
"*  c #080D13",
"=  c #1A1714",
"-  c #22130A",
";  c #271B0E",
":  c #251A14",
">  c #311B16",
",  c #05230C",
"<  c #08280C",
"1  c #142A0D",
"2  c #0B3E0B",
"3  c #0A350B",
"4  c #17380F",
"5  c #072F10",
"6  c #093C14",
"7  c #083614",
"8  c #163415",
"9  c #2E2E03",
"0  c #3D221B",
"q  c #3B2616",
"w  c #2C2A1B",
"e  c #3B3528",
"r  c #2D2F31",
"t  c #44251D",
"y  c #472718",
"u  c #532F18",
"i  c #59321C",
"p  c #63381C",
"a  c #6D3D1E",
"s  c #61371B",
"d  c #713E1E",
"f  c #4B2A21",
"g  c #483A29",
"h  c #563527",
"j  c #693B20",
"k  c #723E20",
"l  c #0D420D",
"z  c #0F480F",
"x  c #11490F",
"c  c #0E4C12",
"v  c #0A4C19",
"b  c #0A4416",
"n  c #134E11",
"m  c #0E5617",
"M  c #0C551D",
"N  c #0E5C1A",
"B  c #0A5A17",
"V  c #155111",
"C  c #1B5C14",
"Z  c #055903",
"A  c #0F641D",
"S  c #1D6115",
"D  c #0C720A",
"F  c #236C1A",
"G  c #29781C",
"H  c #125F25",
"J  c #0F6B22",
"K  c #0C6622",
"L  c #0F7426",
"P  c #0E7A29",
"I  c #0C7A27",
"U  c #107526",
"Y  c #107B29",
"T  c #157928",
"R  c #1C762D",
"E  c #276E2B",
"W  c #74411F",
"Q  c #7C4E1D",
"!  c #6A4C17",
"~  c #554D2E",
"^  c #694721",
"/  c #744120",
"(  c #7B4925",
")  c #695A26",
"_  c #516D2E",
"`  c #606E23",
"'  c #233B52",
"]  c #20364C",
"[  c #327D43",
"{  c #2E4D6C",
"}  c #335678",
"|  c #595042",
" . c #685946",
".. c #695B52",
"X. c #77714F",
"o. c #4F4A63",
"O. c #727476",
"+. c #946D1A",
"@. c #87582A",
"#. c #835331",
"$. c #8B6334",
"%. c #9A783D",
"&. c #8F7837",
"*. c #A4783C",
"=. c #A2782E",
"-. c #956946",
";. c #8C765B",
":. c #957A5B",
">. c #8F7052",
",. c #A17643",
"<. c #A37A41",
"1. c #A87E43",
"2. c #A37953",
"3. c #158029",
"4. c #1C8429",
"5. c #1E8327",
"6. c #1D8535",
"7. c #248C29",
"8. c #288424",
"9. c #358722",
"0. c #2D9329",
"q. c #3C9C27",
"w. c #3C9E28",
"e. c #369526",
"r. c #3EA229",
"t. c #38B623",
"y. c #2F821F",
"u. c #74B71B",
"i. c #68A71B",
"p. c #469D27",
"a. c #548E2F",
"s. c #41A429",
"d. c #4AAA28",
"f. c #56A62B",
"g. c #64A729",
"h. c #2BCE1A",
"j. c #0FFF08",
"k. c #10FF08",
"l. c #3B9550",
"z. c #7A8051",
"x. c #A79F15",
"c. c #AFAF02",
"v. c #A9873C",
"b. c #B18E37",
"n. c #BA9B31",
"m. c #B59337",
"M. c #BB9D2F",
"N. c #A1A23D",
"B. c #C7AE28",
"V. c #CCB525",
"C. c #CDB02E",
"Z. c #8DC919",
"A. c #DBCA1A",
"S. c #D8C71C",
"D. c #D3D00F",
"F. c #E6D914",
"G. c #E7DF05",
"H. c #D6E60A",
"J. c #ECE506",
"K. c #F3ED0A",
"L. c #E5F306",
"P. c #F9F604",
"I. c #FFFF00",
"U. c #F6F305",
"Y. c #F8EA18",
"T. c #DBC720",
"R. c #E9CD2D",
"E. c #E9C934",
"W. c #EED12F",
"Q. c #F7EF28",
"!. c #AC8346",
"~. c #B68C4F",
"^. c #938C64",
"/. c #8E956B",
"(. c #B38C66",
"). c #BB9666",
"_. c #A89375",
"`. c #B69A77",
"'. c #AC8E6D",
"]. c #96AE76",
"[. c #94984F",
"{. c #C89949",
"}. c #C99546",
"|. c #D5A54E",
" X c #DDAB53",
".X c #D8A852",
"XX c #E4B845",
"oX c #E2AE53",
"OX c #E6B255",
"+X c #C9A77E",
"@X c #C6A36F",
"#X c #C29D6C",
"$X c #DBC44B",
"%X c #2C4E9B",
"&X c #35549C",
"*X c #3D818A",
"=X c #58A4AB",
"-X c #0099D3",
";X c #00BDFF",
":X c #25C2F7",
">X c #8B8B8C",
",X c #A99A91",
"<X c #A09288",
"1X c #BCA58D",
"2X c #9BB189",
"3X c #CCAC83",
"4X c #C7A982",
"5X c #D5B48B",
"6X c #D9B68D",
"7X c #D9B88C",
"8X c #DEBD93",
"9X c #CFB08A",
"0X c #E5C79D",
"qX c #D4C2A8",
"wX c #E9CBA2",
"eX c #F8DDB4",
"rX c #F3D8AF",
"tX c #FFE6BC",
"yX c #FBE4BC",
"uX c #8A9DC6",
"iX c #D6D6D5",
"pX c #E2DDDB",
"aX c #D3E4D7",
"sX c #FFEAC2",
"dX c #FFEBC8",
"fX c #FFF1D9",
"gX c #F3E7C9",
"hX c #FFFFFE",
"jX c #E7E1E0",
/* pixels */
"                      <.<.<.<.<.@.W / a.s.w.V l c U U U                                                         ",
"                      <.<.<.<.<.@.d / a.s.w.V l c P P P                                                         ",
"                      n.n.n.n.n.=.( ( a.s.w.V l n 5.4.4.                                                        ",
"          <.<.!..X XE.I.I.I.I.I.B.,.<.a.r.w.V l V w.s.s.s.s.s.s.s.7.P U                                         ",
"          <.<.!..X XE.I.I.I.I.I.V.,.<.a.r.w.V l V w.s.s.s.s.s.s.s.7.P P                                         ",
"          B.B.V.E.W.R.A.S.S.S.A.V.B.B.g.r.w.V l V w.s.s.s.s.s.s.s.0.7.7.5.                                      ",
"    <.<.v.K.I.I.I.I.F.<.<.<.<.,.S.I.I.u.r.w.V l V w.s.s.s.s.s.s.s.s.s.s.4.P U U Y L z l l                       ",
"    <.<.v.K.I.I.I.I.F.<.<.<.<.,.S.I.I.u.r.q.V 2 V r.s.s.s.s.s.s.s.s.s.s.4.P P U Y L l l l                       ",
"<.<.V.S.S.V.V.V.R.W.E.{.{.C.S.S.R.W.R.N.N.N.9.G G F F G s.s.s.s.s.s.s.s.e.0.0.Y Y U A A N l l                   ",
"<.<.F.I.P.b.,.!..X X X X XW.I.I.W. X XoXoX.Xf.s.e.z 2 C s.s.s.s.s.s.s.s.s.s.r.3.Y Y Y Y K l l l                 ",
"<.<.F.I.P.b.<.!..X X X X XR.I.I.W. X X X X|.f.s.e.x l S s.s.s.s.r.r.s.s.s.s.r.3.Y Y U Y K l l l                 ",
"    +.+.+.@.( @..XoX}.@.@.=.n.n.T.Y.Y.C.!.!.f.s.e.x l S s.s.9.C C C C C e.s.r.3.Y Y Y U U J J N l l             ",
"    k k k / d @..XoX}.d d @.<.,.S.I.I.M.<.%.p.s.e.z 2 C s.s.G 2 l l l l 9.s.r.3.Y U U U U Y Y N l l             ",
"    / / / / W @.{.{.!.( ( $.!.1.T.P.U.n.<.%.f.d.p.n x S q.w.G x n z z c 9.r.w.3.Y Y U U U Y Y A z z             ",
"                & & g +X+X+X3X3X~.b.b.*.<.v.H.L.H.p.q.y.n n F q.q.8.L U T 3.3.Y Y Y U U Y Y Y U U U             ",
"                . . e 5X5X5X5X5X).*.<.<.<.v.K.I.L.d.s.9.l 2 F s.s.7.P Y U U Y Y Y Y U U Y Y Y Y U U             ",
"                . . e 5X5X7X8X8X#X!.~.m.m.n.F.J.D.p.w.8.c c F e.e.5.P U U U Y Y Y Y Y Y Y Y Y Y U U             ",
"                . . e 5X5X0XtXtX0X5X5XQ.I.U.m.1.&.T Y U U U A z z A Y U U U Y Y Y Y Y Y Y U Y Y U Y 5 . .       ",
"                . . e 5X5XwXsXsXwX5X5XQ.I.P.b.<.&.U I P Y Y A l l A Y Y U U U Y Y U Y Y U U U Y U Y 5 . .       ",
"                . . w (.(.'._._.9X0X0XQ.I.P.b.<.%.a.a.a.A K A m m A A A U U U Y Y U U U U U U Y Y Y 7 $ $       ",
"                . . - W / y . . ^.sXtXQ.I.P.b.<.!. XoXv.l l N Y Y N l l J Y U U Y Y U U U U Y Y U U m l l o . . ",
"                . . # W W y . . ^.sXtXQ.I.P.b.<.!. XoXv.l 2 B I I m 2 l J Y Y Y Y Y Y Y Y Y Y Y U U m l l o . . ",
"            . =  .....o.o.O.>X>XqXtXtX$XV.V.{.{.~.*.*.%.z.X./.].].]././.E N N N N m 6 7 b N N J Y Y m l l o . . ",
"          . . : 3X7X,X&X%XuXhXhXfXtXtX).,.<..XoX{./ a -.6X6XwXsXsXsXsXtX_ 2 l l l 3 . . $ l l N Y Y m l l o . . ",
"          . . : 4X6X,X&X%XuXhXhXfXtXtX).*.1.|.oX{.( d $.5X5XwXtXtXtXtXyX_ 2 l l l 3 . . $ l l N Y Y m l l o . . ",
"          . . : 4X6X,X&X%XuXhXhXfXtXtX2.( @.F.Y.A.( d -.rXrXeXtXtX5X).).w $ $ $ $ $     o $ $ b Y Y m l l o . . ",
"          . . : 4X6X,X&X%XuXhXhXfXtXtX-.a Q J.I.J.Q d 2.tXtXtXtXtX@X*.%.; . . . . .       . . 6 Y Y m l l o . . ",
"          . . : `.4X<X&X&XuXhXhXfXtXtX-.d Q J.I.J.@.W :.gXgXyXeXyX).%.%.; . . . . .       . . 7 U P m 2 2 o . . ",
"                = = ~ 1X1XqXdXdXsXtXtX-.d Q J.I.K.|.{.].:X:X=X~.~.~ & & X . .             . . , c c , o o       ",
"                . . e 5X6XwXtXtXtXtXtX-.a Q J.I.U.oXoX2X;X;X=X*.<.q . . . . .             . . , z l $ . .       ",
"                . . e '.'.9XeXeXeXeXeX2.#.$.D.G.F.XXXX].-X-X*X$.$.g : : 9 9 9             . . % 3 3 $ . .       ",
"                      O X  .7X5X5X5X5X5X9X+X@.W +.U.I.c.O O o X X >.3X3XF.P.U.                . . .             ",
"                      . . ~ 8X7X6X6X6X6X6X9X#.d +.P.I.c.. . . . . ;.8X7XQ.I.I.                  . .             ",
"                      . . e :.;.^.^.^.^.^.^.h y ! F.Y.x.. . o $ $ ~ :.;.x.c.c.                  . .             ",
"                      . . . . . < l l l l 2 o . ; |.oX%.. . % z l % . . . . .                                   ",
"                      . . . . . < l l l z 2 . . ; |.OX%.. . % l l % . . . . .                                   ",
"                  . # q q - . . 7 A N 3 , < ~  . .) ) ~ 6 6 v A A , . . .                                       ",
"                . . - / ( y . . v Y U % . @ `.8X`.X . , Y Y Y Y Y 5 . .                                         ",
"                . . - / / y . . v Y U , . @ `.7X`.O . , U U U U Y 5 . .                                         ",
"          . . * ] ' r - - 8 M M J Y U A M M e g e M M b 5 , v Y Y 5 . .                                         ",
"          . . * { } ' . . 7 Y Y Y P P Y Y L o . $ L 3.M . . 7 Y Y 5 . .                                         ",
"          X X * { { ' o . 6 5.5.T U U L L J $ . % R 6.H @ * 6 L L 5 X X                                         ",
"    . . X u s u * * 8 9.9.u.H.H.i.P P 5 $ % N K [ aXaXaXiXiXO.$ $ q s i # . .                                   ",
"    . . X p ( p X . 1 s.r.Z.I.I.u.I P , . o J P l.hXhXhXhXhX>X. . y / / # . .                                   ",
"    . . X u p u X . 1 s.r.Z.L.L.i.R E 1 + & N K [ iXpXpXpXjXO.. . q ^ ^ 1 $ $                                   ",
"          X X X . . 1 s.s.d.d.d.` / ^ / a p @ . @ h h h h h > . . v T T U L K o . .                             ",
"          . . . . . 1 s.s.s.s.s.` d k / / a + . X t f t t f : . . v 3.Y Y Y L o . .                             ",
"          . . . . . < e.e.w.s.s.` ) ) ~ ~ ~ O . X t f f h h q - - 8 M M M M v o . .                             ",
"                . . , U P 7.s.s.s.s.s.4.P L $ . X t f h / / W / / ; . . . . . . . .                             ",
"                . . , Y P 7.s.s.s.s.s.4.P L o . X t f h / / d d d ; . . . . . . . .                             ",
"                . . $ b 6 T h.h.t.s.s.0.7.7.b 6 7 : : q / d -.).).g . . . . . . .                               ",
"                . . . . . D j.j.h.s.s.s.s.r.3.Y K . . - / d (.sXsX .. . . . .                                   ",
"                . . . . . D k.j.h.s.s.s.s.r.3.Y K . . - / d (.sXsX .. . . . .                                   ",
"          . . + y y y > > 4 Z Z l 4 4 4 4 4 5 5 , . . # h i h | | : . . .                                       ",
"          . . + a / j f f : . . . . . . . . . . . . . @ f f : . . . . .                                         ",
"          . . + a / j f f > . . . . . . . . . . . . . @ t t : . . . . .                                         ",
"          . . + a / / j j i 0 0 0 0 0 + . .       . . X + + X . . .                                             ",
"          . . + a / / / / j f f f f f @ . .       . . . . . . . .                                               ",
"          . . + i p p p p u 0 t t t 0 + . .       . . . . . . . .                                               ",
"                X X X X X X X X X X X                                                                           ",
"                . . . . . . . . . . .                                                                           ",
"                . . . . . . . . . . .                                                                           ",
"                                                                                                                ",
"                                                                                                                "
};
