/* XPM */
static char *right__2810_29[] = {
/* columns rows colors chars-per-pixel */
"56 64 230 2 ",
"   c None",
".  c #000001",
"X  c #090504",
"o  c #030C04",
"O  c #0D0806",
"+  c #0C0B0B",
"@  c #150C07",
"#  c #1B0F09",
"$  c #140B08",
"%  c #031204",
"&  c #051A05",
"*  c #051B0A",
"=  c #1C120B",
"-  c #18140A",
";  c #0B1517",
":  c #181411",
">  c #080D15",
",  c #29190D",
"<  c #251812",
"1  c #331C13",
"2  c #361E0F",
"3  c #072709",
"4  c #0B3D0B",
"5  c #0B370B",
"6  c #16380F",
"7  c #063211",
"8  c #093A13",
"9  c #12250F",
"0  c #2B2A03",
"q  c #272416",
"w  c #3A2516",
"e  c #3F3C19",
"r  c #3C362D",
"t  c #333639",
"y  c #141A20",
"u  c #42251D",
"i  c #492916",
"p  c #532E1D",
"a  c #463719",
"s  c #583219",
"d  c #6E3D1E",
"f  c #64381C",
"g  c #713E1E",
"h  c #4B2A21",
"j  c #553225",
"k  c #4F3224",
"l  c #643820",
"z  c #713E20",
"x  c #0D420D",
"c  c #124A0F",
"v  c #0A4315",
"b  c #0D4C12",
"n  c #0A4A1A",
"m  c #134A11",
"M  c #0E5B19",
"N  c #0E5416",
"B  c #1A5A14",
"V  c #155614",
"C  c #214A14",
"Z  c #255D18",
"A  c #0E641E",
"S  c #1D6016",
"D  c #226B18",
"F  c #246618",
"G  c #2A781D",
"H  c #3A7719",
"J  c #0C5E20",
"K  c #0F6D22",
"L  c #0D6121",
"P  c #176C21",
"I  c #0E7B29",
"U  c #0D7626",
"Y  c #117426",
"T  c #107C29",
"R  c #187525",
"E  c #327E20",
"W  c #337C2E",
"Q  c #2D6D26",
"!  c #2E4634",
"~  c #4D461C",
"^  c #72401F",
"/  c #7A4B1D",
"(  c #62461F",
")  c #554C28",
"_  c #644923",
"`  c #744220",
"'  c #7D4D29",
"]  c #7A4722",
"[  c #6B5224",
"{  c #705830",
"}  c #556D2B",
"|  c #667128",
" . c #1D3144",
".. c #223850",
"X. c #305171",
"o. c #584F42",
"O. c #595051",
"+. c #665E53",
"@. c #7E6A52",
"#. c #78704E",
"$. c #524D65",
"%. c #606562",
"&. c #956E1B",
"*. c #88572C",
"=. c #865632",
"-. c #804D28",
";. c #866634",
":. c #9A733B",
">. c #956B36",
",. c #A67A3C",
"<. c #A16F36",
"1. c #8A755B",
"2. c #917251",
"3. c #A17743",
"4. c #A37A41",
"5. c #A87E46",
"6. c #8D7E77",
"7. c #1C8529",
"8. c #14802A",
"9. c #238B29",
"0. c #358D22",
"q. c #378A23",
"w. c #2C9229",
"e. c #3C9A26",
"r. c #359A29",
"t. c #399726",
"y. c #3EA329",
"u. c #6AB41F",
"i. c #449E28",
"p. c #568C33",
"a. c #729036",
"s. c #41A429",
"d. c #42A92B",
"f. c #51AC25",
"g. c #5BB224",
"h. c #63B222",
"j. c #4B8E1C",
"k. c #348E49",
"l. c #758757",
"z. c #5D926A",
"x. c #A8AA01",
"c. c #B8AB0C",
"v. c #AC873C",
"b. c #B1883B",
"n. c #B99933",
"m. c #86A834",
"M. c #969C11",
"N. c #C6B30D",
"B. c #CAB21D",
"V. c #C8AF28",
"C. c #CAB226",
"Z. c #CEB823",
"A. c #CFAF33",
"S. c #B6DB0E",
"D. c #DACA19",
"F. c #D8C51D",
"G. c #D8CD0F",
"H. c #E6DE06",
"J. c #E7E308",
"K. c #FFFF00",
"L. c #F7F406",
"P. c #F7EA16",
"I. c #E9F206",
"U. c #D3C130",
"Y. c #EBD12A",
"T. c #E4C335",
"R. c #E1E316",
"E. c #B48845",
"W. c #B38C53",
"Q. c #AD854A",
"!. c #9CA941",
"~. c #938E62",
"^. c #92986A",
"/. c #978571",
"(. c #A3896A",
"). c #B48E69",
"_. c #B49977",
"`. c #AF9470",
"'. c #91B278",
"]. c #C7984B",
"[. c #C8994B",
"{. c #D3A34F",
"}. c #DEAC52",
"|. c #D9A752",
" X c #CEA647",
".X c #E1AE53",
"XX c #E5B155",
"oX c #E3B748",
"OX c #C4A37E",
"+X c #C9A67A",
"@X c #C19B66",
"#X c #E8D556",
"$X c #E7C040",
"%X c #FFF171",
"&X c #EBD37F",
"*X c #2C4F9D",
"=X c #39569B",
"-X c #596A98",
";X c #4764A8",
":X c #516AA5",
">X c #77B183",
",X c #878789",
"<X c #B3A493",
"1X c #B4AEAC",
"2X c #B39F82",
"3X c #CBAA82",
"4X c #D5B48C",
"5X c #D9B68D",
"6X c #DAB98D",
"7X c #D2B285",
"8X c #DDBC93",
"9X c #CAAE8D",
"0X c #E4C59A",
"qX c #F2D7AE",
"wX c #F8DEB4",
"eX c #E7C9A2",
"rX c #FEE5BD",
"tX c #FFE8BF",
"yX c #FAE0B6",
"uX c #DFC097",
"iX c #D6D6D7",
"pX c #FFEAC1",
"aX c #FDE5C1",
"sX c #E5E0DF",
"dX c #FFF9EE",
"fX c #E9EDF3",
"gX c #FFFFFF",
"hX c #FBFBF3",
"jX c #EDF2F3",
"kX c #E5DEDE",
/* pixels */
"                      4.4.4.4.4.>.` z | s.s.D x x K T T                                                         ",
"                      4.4.4.4.4.>.` g } s.s.D x x K I I                                                         ",
"                      n.n.n.,.4.:.-.-.| s.s.D x x R 7.7.                                                        ",
"            4.4.].}.}.P.K.L.v.4.4.4.4.a.s.s.D x x 0.s.s.s.s.s.s.s.w.I T                                         ",
"            4.4.]..X.XP.K.L.v.3.4.4.3.a.s.s.D x x 0.s.s.s.s.s.s.s.w.I I                                         ",
"          n.V.V.A.].[.Z.D.D.C.V.V.V.V.m.y.s.D x x 0.s.s.s.s.s.s.s.r.9.9.7.                                      ",
"      4.4.C.K.K.C.4.4.4.4.v.L.K.K.K.K.S.y.s.D x x 0.s.s.s.s.s.s.s.s.s.s.9.I T T T Y b x x                       ",
"      4.3.C.K.K.C.3.4.4.4.v.L.K.K.K.K.S.y.y.D 4 x 0.s.s.s.s.s.s.s.s.s.s.9.I I T T Y b x x                       ",
"4.4.n.F.F.Z.C.C.A.].].].]. XL.K.L.Y.Y.U.!.!.p.G G D D G e.s.s.s.s.s.s.s.r.w.w.8.T T A A M x x                   ",
"4.4.n.K.K.D.3.4.]..X}.}.}.oXL.K.P.}.}.}..X.Xm.y.s.B 4 c e.s.s.s.s.s.s.s.s.s.s.7.I T T T K x x x                 ",
"4.4.n.K.K.D.4.4.].}.}.}.}.oXL.K.P.}.}.}.}..Xa.y.s.B x m e.s.s.s.s.s.s.s.s.s.s.7.I T T T K x x x                 ",
"      &.&.&.' ' E..X}.<.*.>.n.n.V.P.P.U.E.E.a.y.s.B x m e.s.t.B B B B B q.s.s.7.I T T T I K K M x x             ",
"      z z z ^ g b..X}.*.d ] :.3.n.K.K.D.4.4.a.y.y.B 4 m e.s.0.x x x x 4 G s.s.7.I T T T T T T A x x             ",
"      ` ` ` ` ^ ,.[.[.*.' -.4.5.n.L.L.F.4.4.a.f.f.F c V t.e.0.m c c c c G y.y.7.I T T T T T T A x x             ",
"                < = = (.+X+X3X3X+Xb.b.v.4.4.F.I.I.h.t.0.V m S t.e.e.e.e.9.8.8.T T T T T T T T T Y Y 7 . .       ",
"                . . . (.6X4X4X4X+X4.4.4.4.3.D.K.K.u.y.e.c 4 B s.s.s.s.s.9.I T T T T T T T T T T T T 7 . .       ",
"                . . . (.5X4X8X8X7XW.Q.E.n.n.F.J.J.h.r.w.V b B 0.0.t.r.r.9.I T T T T T T T T T T T T 7 . .       ",
"                . . . (.5X8XwXtXqX4X4X#XK.K.C.4.,.W I T T T K x x M T T T T T T T T T T T T T T T T 7 . .       ",
"                . . . (.6X8XrXpXwX4X4X#XK.K.C.4.4.W U I T T K x x M T T T T T T T T T T T T T T T T 7 . .       ",
"                . . . 2.).).`.`.2X0X0X#XK.K.V.4.4.a.p.p.P A A N N M A A Y T T K A A A A K T T T T T v & & o     ",
"                . . . s ` f X . r yXpX%XK.K.C.4.4.{..X XC x b T I A x x A T T b x x x x b T T T T T M x x % . . ",
"                . . . s ^ f X . r yXpX%XK.K.C.3.4.{.XX XC 4 b U U A 4 4 A T T N x x x x N T T T T T M x x % . . ",
"            . . ) @.+.$.$.$.,X,X<XtXpX&XZ.Z.A.].].,.<.:.#.#.l.'.'.'.^.^.} M M b x 4 3 & 3 M M K T T M x x % . . ",
"            . . 1.8X4X-X*X;XjXgXhXtXpX6X3.3.]..X}.*.d ' 3X5X0XtXpXpXpXpXl.4 x x x 4 o . o x x M T T M x x % . . ",
"            . . @.6X4X-X*X;XfXgXdXtXpX6X,.4.].}.}.*.g ' 3X4XuXtXtXtXtXtXl.4 x x x 4 o . % x x M T T M x x % . . ",
"            . . @.6X4X-X*X;XfXgXdXtXpX3X' ' B.P.P.&.g -.eXqXwXtXtX0X).@X) % & % % %       % % 8 T T M x x % . . ",
"            . . @.6X4X-X*X;XfXgXdXtXpXOXg z N.K.K.&.d =.qXtXtXtXpX6X,.4.a . . . . .       . . 7 T T M x x % . . ",
"            . . @.3X3X-X=X:XfXgXdXtXpXOXg z N.K.K.&.] =.eXyXwXwXyX7X:.:.w . . . . .       . . 7 T I N 4 4 o . . ",
"                : < < /.<X9XaXpXpXtXpXOXg z N.K.K.A.[.[.W.W.W.W.W.{ - - X . .             . . * b b 3 o o       ",
"                . . . (.6X8XyXtXtXtXpXOXg g N.K.K.$X}.|.Q.4.4.4.5._ . . . . .             . . & x x & . .       ",
"                  . . 1.`._.qXwXwXwXyX3X=.=.c.H.H.T.oXoX>.;.;.;.;._ , , 0 0 0             . . & 5 5 & . .       ",
"                      O X < OX5X4X4X4X4X7X4X3./ / G.K.J.0 X X X . ( |.{.Y.L.L.                  . .             ",
"                      . . : OX6X5X5X5X5X5X6X3.^ ] H.K.J.- . . . . ( XX.XP.K.K.                  . .             ",
"                      . . : 1.1.1.~.~.~.~.~.{ i p B.P.D.- . o & & e :.:.M.x.x.                  . .             ",
"                            . . o x x x x x & . . v.XX].- . % x x 3 . . . . .                                   ",
"                            . . o x x x x x & . . Q.XX[.- . o x x 3 . . . . .                                   ",
"                        . . . . & M A v 3 3 ~ { { [ [ [ v 8 n M A m w w # . .                                   ",
"                      . . . . . * T T n . . ;.XX}.w . o K T T T I Q ` ` , . .                                   ",
"                      . . . . . * I T n . . ;.XX|.w . o K T T T I Q ` ` , . .                                   ",
"                  . . Z G H x.x.M.T T n . . q a a i i a R I R ) ) a , , t ....; . .                             ",
"                . . . E d.g.L.K.S.T T n . . . . . s ` _ R I Q ` ` i . .  .X.X.; . .                             ",
"                . . . E s.f.I.K.S.Y U n + + + o o s d ( R T Q ` ` i . .  .X.X.y O O                             ",
"                . . . E d.s.g.h.j.* % %.iXiXz.A L 9 $ = ( _ _ ` ` a 5 5 * > ; 1._.(.: . .                       ",
"                . . . E s.s.s.d.E . . %.gXgX>XU U * . X f ` z ` ` ~ x x & . . (.8XOX: . .                       ",
"                . . . G y.r.0.0.F O . +.sXkX>Xk.k.9 . O ( [ [ [ [ ~ V V 3 o o 1._.(.- . .                       ",
"                . . . L 8.Y & o - u u h j j 1XhXjXt . % q.i.i.i.i.i.e.e.F 4 4 * + + . . .                       ",
"                . . . L 8.K o . $ h h h h u 1XgXgXt . o t.s.s.s.s.s.s.s.D x x % . . . . .                       ",
"                . . . v M n o . $ p j j j p 6.1X1X! 3 7 t.s.s.s.s.e.r.r.B 3 3 o . . . . .                       ",
"                . . . . . . . . # ^ ` ` ` ` , . . J T T y.s.s.s.s.w.I T 7 . . . . .                             ",
"                . . . . . . . . # d g g g g , . . J I T y.s.s.s.s.w.T T 7 . . . . .                             ",
"                # < < < < = . . q ).).).).).k . . P w.w.y.s.e.w.w.P v v q 2 2 O . .                             ",
"      . . . . . 1 h h h h u X . r tXpXpXpXpX+.. . E d.s.s.s.r.T I n . . i ] ` = . .                             ",
"      . . . . . < h h h h u X . r yXtXtXtXpX+.. . E d.s.s.s.r.T T n . . i ` ^ # . .                             ",
"      . . = i i s l l p h u X . : o.o.o.o.o.q . . 9 6 6 6 6 6 3 3 9 1 1 s ` ^ # . .                             ",
"      . . , ` ` ` ` ` p h u X . . . . . . . . . . . . . . . . . . # h h l ` ^ # . .                             ",
"      . . , g d d d d p u u X . . . . . . . . . . . . . . . . . . < h h s d d # . .                             ",
"          $ @ @ @ @ @ $ O O . . .                       . . O w w u h h , @ @                                   ",
"            . . . . . . . . . . .                       . . $ h h h h h = . .                                   ",
"            . . . . . . . . . . .                       . . O w u u u u = . .                                   ",
"                                                        . . . . . . . .                                         ",
"                                                        . . . . . . . .                                         ",
"                                                        . . . . . . . .                                         ",
"                                                                                                                ",
"                                                                                                                "
};
