/* XPM */
static char *right__287_29[] = {
/* columns rows colors chars-per-pixel */
"53 64 224 2 ",
"   c None",
".  c #000001",
"X  c #0B0605",
"o  c #030B03",
"O  c #0D0B0A",
"+  c #0D0907",
"@  c #180D0A",
"#  c #031407",
"$  c #1A160B",
"%  c #24140D",
"&  c #261511",
"*  c #2A1713",
"=  c #351D17",
"-  c #301B0E",
";  c #04230C",
":  c #0D2109",
">  c #092C09",
",  c #06270A",
"<  c #0A330A",
"1  c #0C3E0C",
"2  c #073509",
"3  c #12300F",
"4  c #26271A",
"5  c #3B211A",
"6  c #382112",
"7  c #243111",
"8  c #282623",
"9  c #313229",
"0  c #482819",
"q  c #522E19",
"w  c #49391A",
"e  c #5B331A",
"r  c #65391C",
"t  c #713F1E",
"y  c #4C2A20",
"u  c #583425",
"i  c #4C3528",
"p  c #6E3D20",
"a  c #713E20",
"s  c #0D420D",
"d  c #0A4315",
"f  c #0E4C12",
"g  c #094A19",
"h  c #184B14",
"j  c #0E5516",
"k  c #0E5C1B",
"l  c #0B551D",
"z  c #175614",
"x  c #10470E",
"c  c #294B18",
"v  c #0F631E",
"b  c #1D6518",
"n  c #246D1A",
"m  c #226417",
"M  c #2C7C1D",
"N  c #28761D",
"B  c #3E7C18",
"V  c #334E22",
"C  c #0D6220",
"Z  c #0F6C22",
"A  c #0F7426",
"S  c #0E7B29",
"D  c #0B7B27",
"F  c #107325",
"G  c #107B29",
"H  c #187628",
"J  c #12732B",
"K  c #2B6928",
"L  c #376426",
"P  c #207227",
"I  c #545401",
"U  c #5A5110",
"Y  c #73411F",
"T  c #7D7D01",
"R  c #626702",
"E  c #574424",
"W  c #4E4234",
"Q  c #52542B",
"!  c #674B25",
"~  c #744121",
"^  c #7A4927",
"/  c #6A5628",
"(  c #715825",
")  c #586C29",
"_  c #677137",
"`  c #44631E",
"'  c #253B51",
"]  c #27475A",
"[  c #2D4E6A",
"{  c #595646",
"}  c #6B5848",
"|  c #74624D",
" . c #6F794B",
".. c #796C5A",
"X. c #707C4C",
"o. c #434D79",
"O. c #756768",
"+. c #586046",
"@. c #9B7719",
"#. c #8F6C1A",
"$. c #85552B",
"%. c #885A38",
"&. c #814F26",
"*. c #8A6233",
"=. c #9D733D",
"-. c #946836",
";. c #A77A3C",
":. c #987341",
">. c #8D7152",
",. c #A47B42",
"<. c #A57A44",
"1. c #A27752",
"2. c #8E7969",
"3. c #14802A",
"4. c #1B8328",
"5. c #258D29",
"6. c #298524",
"7. c #338A22",
"8. c #2C9229",
"9. c #3D9C27",
"0. c #369B29",
"q. c #369727",
"w. c #3DA129",
"e. c #2F811F",
"r. c #56A31E",
"t. c #4B9127",
"y. c #41A429",
"u. c #48A829",
"i. c #69B821",
"p. c #448C1A",
"a. c #36914C",
"s. c #58997F",
"d. c #8C8A08",
"f. c #B09313",
"g. c #8E8C38",
"h. c #A8813B",
"j. c #B89832",
"k. c #B18A3C",
"l. c #BEA12E",
"z. c #A7AC1A",
"x. c #C5AF10",
"c. c #C6AC2A",
"v. c #CBB02D",
"b. c #AED510",
"n. c #DBC91B",
"m. c #D1CB10",
"M. c #E5D715",
"N. c #E9DA12",
"B. c #CFE80B",
"V. c #F2EC0A",
"C. c #FFFF00",
"Z. c #FAF809",
"A. c #F5E718",
"S. c #E6EE08",
"D. c #D7C628",
"F. c #F1DA26",
"G. c #E9C53A",
"H. c #EBD12B",
"J. c #AD8449",
"K. c #B28C53",
"L. c #998163",
"P. c #92906E",
"I. c #BC966A",
"U. c #B49775",
"Y. c #AE8E6C",
"T. c #95A171",
"R. c #C6984B",
"E. c #C9A74D",
"W. c #D6A54D",
"Q. c #DEAC53",
"!. c #D7A551",
"~. c #E3B64A",
"^. c #E1AD54",
"/. c #D1B179",
"(. c #C09B6A",
"). c #E3C15C",
"_. c #2E509D",
"`. c #31529D",
"'. c #2B4F9D",
"]. c #017CAC",
"[. c #4E649A",
"{. c #7C7F94",
"}. c #7B7A87",
"|. c #6B9BA9",
" X c #06BCFD",
".X c #54B6C1",
"XX c #B5A787",
"oX c #BBB88C",
"OX c #B8A594",
"+X c #B9B9B8",
"@X c #A0A798",
"#X c #D5B48B",
"$X c #D9B68D",
"%X c #DAB88E",
"&X c #D1B086",
"*X c #DCBB91",
"=X c #D6BC97",
"-X c #CCB390",
";X c #C8BEBC",
":X c #B1C7B2",
">X c #D3C29D",
",X c #E2C49B",
"<X c #EFD78C",
"1X c #D4C3AB",
"2X c #E9CCA4",
"3X c #EAD2AC",
"4X c #F1D6AC",
"5X c #F3D7AA",
"6X c #F6DCB4",
"7X c #FEE6BD",
"8X c #FFE8BF",
"9X c #FCE1B7",
"0X c #FFEBA0",
"qX c #FFEA9F",
"wX c #BDDCC5",
"eX c #CED3CE",
"rX c #D6E1D3",
"tX c #FFEBC2",
"yX c #FFEAC7",
"uX c #FFF0C5",
"iX c #C3CDE3",
"pX c #FFFFFE",
"aX c #F7F9F3",
"sX c #E6DFDF",
/* pixels */
"                                                                                                          ",
"                                                                                                          ",
"                                                                                                          ",
"                      ,.,.;.^ ~ ! H G Z s s n y.y.y.y.y.4.S G                                             ",
"                      ,.,.=.^ a ! H S Z s s n y.y.y.y.y.4.S S                                             ",
"                      v.c.c.f.f.d.5.5.H s s n y.y.y.y.y.8.5.5.                                            ",
"            ,.,.R.Q.Q.A.C.C.C.C.S.u.y.7.s s n y.y.y.y.y.y.y.y.y.y.0.G G G                                 ",
"            ,.,.R.Q.Q.A.C.C.C.C.S.u.y.7.s s n y.y.y.y.y.y.y.y.y.y.0.G S S                                 ",
"      ,.,.l.n.n.M.F.F.v.v.v.H.H.D.u.y.7.s s n y.y.y.y.y.y.y.y.y.y.w.8.8.5.G G k s s                       ",
"      ,.,.c.C.C.C.C.C.l.<.,.!.^.E.u.y.7.s s n y.y.y.y.y.y.y.y.y.y.y.y.y.8.G G k s s                       ",
"      ,.,.c.C.C.C.C.C.l.,.,.W.^.E.u.u.7.s s n y.y.y.y.y.y.y.y.y.y.y.y.y.8.G G k s s                       ",
",.,.j.N.N.n.j.j.v.G.G.W.R.W.F.A.A.B.B.b.7.7.N z z 7.y.y.y.y.y.y.y.y.y.y.w.0.0.6.Z Z j s s                 ",
",.,.j.C.C.n.,.,.R.Q.Q.Q.Q.~.Z.C.C.C.C.B.y.y.N 1 1 M y.y.y.y.y.y.y.y.y.y.y.y.y.5.S G j s s                 ",
";.=.j.C.C.n.,.,.R.W.W.!.!.Q.Z.C.C.Z.Z.B.y.y.N s s M y.y.9.9.9.9.9.9.y.y.y.y.y.5.S G j s s                 ",
"^ ^ @.C.C.F.!.!.;.^ &.=.J.k.V.C.V.j.k.g.y.y.N s s M y.y.b f h h f b y.y.y.y.y.5.S G F F A f s s           ",
"~ a #.C.C.A.Q.^.;.t t -.,.h.V.C.V.h.,.g.w.w.N 1 1 M y.y.z 1 s s 1 z y.y.y.y.y.5.S G G G G f s s           ",
"Y a #.M.N.n.W.W.,.%.%.<.K.K.M.V.M.h.,.g.i.i.p.z z N q.7.b z z z z b 0.0.0.0.0.5.S G G G G f s s           ",
"      Y Y $.,.,.I.#X#X#X#X&XJ.;.;.,.,.l.C.C.b.w.w.m s s 7.y.w.w.y.0.G G G G G G G G G G G f s s           ",
"      ~ Y $.,.,.(.#X#X#X#X&XJ.;.,.,.<.l.C.C.b.y.y.m 1 s 7.y.y.y.y.0.G G G G G G G G G G G f s s           ",
"      ~ ~ ! ! ! L.#X#X,X,X,XI.K.K.c.c.v.n.M.z.8.8.b j j N e.6.8.8.8.G G G G G G G G G G G k j j           ",
"            . . | $X#X4XtX8X*X#X/.Z.C.N.,.,._ S G G G G f s f F G G G G G G G G G G G G G G G F s s s     ",
"            . . | *X#X6XtX8X*X#X/.Z.C.N.,.,._ S S S G G f s f F G G G G G G G G G G G G G G G F s s s     ",
"            . . E 1.1.>.....=X3X<XZ.C.N.,.,._ ` ` m k k f s s k k v G G G G G G G G G G G G G F s s s     ",
"            . . 6 Y t @ . + >XtX0XZ.C.N.,.,.*.t ~ c s s s s s s s f G G G G G G G G G G G G G F s s s     ",
"            . . 6 ~ ~ % . O =XtXqXZ.C.N.,.,.*.t ~ c s s s s s s s f G G G G G G G G G G G G G F s s s     ",
"      . . i L.L.O.o.o.@X+X+X6X8X5Xc.l.c.R.R.;.t Y >.P.P.XXoXoXoXoXT.j j d ; ; ; ; ; d j j F G F s s < . . ",
"      . . W $X%X|._.`.iXpXpXyX8X4X<.,.J.Q.^.;.t Y Y.%X%X6XtXtXtXtX>Xx s > . . . . . > s s A G F s s > . . ",
"      . . W #X$X{._.`.iXpXpXyX8X4X<.;.J.~.~.;.t Y Y.*X%X6X8X7X6X9X-Xx 1 > . . . . . > 1 s Z G A s s < . . ",
"      . . W #X$X{._.`.iXpXpXyX8X2X$.^ @.Z.Z.x.a t /.9X6X7X8X6XI.K.:.o o o           o o o 1 f f s s < . . ",
"      . . W $X$X{.'._.iXpXpXyX8X2X^ p @.C.C.x.a t &XtX8X8X8X6XJ.,.*.. . .           . . . < s s s s < . . ",
"      . . i U.U.}.[.[.eXpXaXyX8X2X^ a @.C.C.x.$.&.XXrXeX3X5X,X:.*.! . . .           . . . > < 2 s s < . . ",
"            + X | #X-X4XtXtX8XtX2X^ a @.C.C.F.!.W..X X XP.J.:.$ X X . . .                 . . o 1 s < . . ",
"            . . | *X$X6X8X8X8XtX2X^ t @.C.C.F.Q.^..X X XP.;.=.+ . . . . .                 . . o 1 s < . . ",
"            . . W 2.2.=X4X4X4X4X,X:.:.h.x.m.n.G.G.s.].].+.( / w w w I I I                 . . o > > ; . . ",
"                . . . 2.%X#X#X#X#X#X#XI.a p f.C.C.R . . . . @ R.^.~.C.C.C.                      . . .     ",
"                . . . L.*X%X%X%X%X%X*XI.~ a f.C.C.R . . . . @ R.^.G.C.C.C.                      . . .     ",
"                  .   W } }  . . . .X._ 6 - #.F.F.U . . # ; : ! / ( T T T                         .       ",
"                      . . . 2 s s s s > . . ! ^.^.E . . < s 1 . . . . . .                                 ",
"                      . . . < s s s s > . . ! ^.^.E . . < s 1 . . . . . .                                 ",
"                  . . d l l v v v s s 1 > > 7 w w c l l v Z k o . .                                       ",
"                . . . l 3.G G G A s s s s s ; . . g 3.G G G A o . .                                       ",
"                . . . l G G A A F h h h s f > . . g G G G G F # . .                                       ",
"            . . 1 Z C A G A ; # 9 eXrX:XA A V r r K S G G G J ] ] ' . . .                                 ",
"            . . d S S S G A # . 8 aXpXwXS D L ~ ~ L S G S S J [ [ ] . . .                                 ",
"            . . h 7.7.4.S A # . 8 eXsX:Xa.a.) Y ~ L S G H P P ] ] ' 8 8 4                                 ",
"            . . d.Z.Z.r.S A # . + i i 2.aXaXOXt ~ L S G Q ~ r O . 9 3X6XP.. .                             ",
"            . . d.C.C.r.S A # . X 0 0 O.pXpX-Xt ~ L S G E a r X . 9 8XuXU.. .                             ",
"          . . . R b.b.B l l $ % & y 0 } ;XeX2.q q V K K ) / Q > ; V XXXX2.. .                             ",
"      . . . . . d G G ; . X r ~ p y y y y y & . . 0 ~ ~ t.y.w.3.G C . . .                                 ",
"      . . . . . d 3.G ; . . e ~ p y y y y y & . . 0 ~ ~ t.y.w.3.G C . . .                                 ",
"      . . + & & 3 d d +.....^ Y a u u q & & 7 h h ` ) ) t.y.w.3.G C . . .                                 ",
"      . . @ y y % . . XXtX9X%.t ~ ~ ~ q . . h y.y.y.y.y.y.y.w.3.G C . . . . .                             ",
"      . . @ y y % . . XXtX6X%.t Y ~ ~ q . . h y.y.y.y.y.y.y.w.3.G C . . . . .                             ",
"          + @ @ & = = W { { U.#XU.6 % % > > m y.y.y.y.y.h 3 3 > , 3 0 q - . .                             ",
"            . . & y y + . + >XtX>XO . # s s n y.y.y.y.y.: . . . . @ ~ ~ 0 . .                             ",
"            . . & 0 0 @ . O =X9X=XO . # 1 1 m 9.9.9.9.9.: . . . . @ t ~ 0 . .                             ",
"                + + + . . . 8 9 8 . . . o o # : : : : : 6 5 5 5 5 0 ~ ~ 0 . .                             ",
"                . . . . . . . . . . . . . . . . . . . . = y y y y q ~ ~ 0 . .                             ",
"                  . . . . . . . . . . . . . . . . X X X 5 y y y y q r r 0 . .                             ",
"                                              . . & 0 0 0 y y p ~ e + X X                                 ",
"                                              . . * y y y y y ~ ~ e . . .                                 ",
"                                              . . & = = = = 5 q q 0 . .                                   ",
"                                                  . . . . . . . . .                                       ",
"                                                  . . . . . . . . .                                       "
};
