/* XPM */
static char *right__288_29[] = {
/* columns rows colors chars-per-pixel */
"50 64 227 2 ",
"   c None",
".  c #000001",
"X  c #0A0504",
"o  c #020D04",
"O  c #0D0807",
"+  c #07090C",
"@  c #130B09",
"#  c #1A0F0A",
"$  c #130B06",
"%  c #031205",
"&  c #071A07",
"*  c #1B130D",
"=  c #131313",
"-  c #22130C",
";  c #351D0F",
":  c #261611",
">  c #291B15",
",  c #341D17",
"<  c #07270B",
"1  c #0B3E0C",
"2  c #0A380B",
"3  c #18350D",
"4  c #0C2F15",
"5  c #083713",
"6  c #2A2A02",
"7  c #28231B",
"8  c #3A2417",
"9  c #343114",
"0  c #0E1823",
"q  c #192A3B",
"w  c #362D24",
"e  c #44261D",
"r  c #4A2A1A",
"t  c #49331C",
"y  c #5A331A",
"u  c #683A1C",
"i  c #703E1E",
"p  c #4B2A20",
"a  c #512D20",
"s  c #593220",
"d  c #483D30",
"f  c #673A20",
"g  c #733F20",
"h  c #0D420D",
"j  c #114A0F",
"k  c #0D4B11",
"l  c #0A4318",
"z  c #164C14",
"x  c #0E5416",
"c  c #0E5A19",
"v  c #0A541B",
"b  c #175815",
"n  c #214E19",
"m  c #225616",
"M  c #21541E",
"N  c #0F641E",
"B  c #1E6216",
"V  c #226918",
"C  c #26711A",
"Z  c #2B761D",
"A  c #366D15",
"S  c #185324",
"D  c #0E6B22",
"F  c #0E6722",
"G  c #0E7426",
"H  c #0E7B29",
"J  c #0C7828",
"K  c #107B29",
"L  c #147626",
"P  c #196121",
"I  c #296727",
"U  c #356F2B",
"Y  c #535301",
"T  c #73411F",
"R  c #7E4F1E",
"E  c #7F710C",
"W  c #5F4D22",
"Q  c #564B3D",
"!  c #50512A",
"~  c #634C22",
"^  c #674424",
"/  c #744120",
"(  c #7B4925",
")  c #6B5221",
"_  c #705032",
"`  c #7A7B35",
"'  c #426B2A",
"]  c #1D3043",
"[  c #325375",
"{  c #595246",
"}  c #6A574A",
"|  c #736750",
" . c #4F4A63",
".. c #637172",
"X. c #865B1C",
"o. c #8F6D17",
"O. c #89592A",
"+. c #895B35",
"@. c #814F26",
"#. c #876535",
"$. c #986E35",
"%. c #A4773C",
"&. c #A2792E",
"*. c #A17F16",
"=. c #976B45",
"-. c #937953",
";. c #A17742",
":. c #A47A41",
">. c #AA7F40",
",. c #A27753",
"<. c #887963",
"1. c #845F40",
"2. c #37891F",
"3. c #188329",
"4. c #1D8435",
"5. c #278C28",
"6. c #318721",
"7. c #348C22",
"8. c #3C9A26",
"9. c #359A29",
"0. c #3B9E29",
"q. c #369325",
"w. c #2F9529",
"e. c #3DA129",
"r. c #52911E",
"t. c #5BA51D",
"y. c #469927",
"u. c #578A32",
"i. c #74973A",
"p. c #41A429",
"a. c #48A82A",
"s. c #5AAF24",
"d. c #7EA73A",
"f. c #2A8940",
"g. c #7C8A5A",
"h. c #858501",
"j. c #AEAD03",
"k. c #93813E",
"l. c #AA843D",
"z. c #AF8C38",
"x. c #B28F37",
"c. c #B69635",
"v. c #A89E2F",
"b. c #A9AA31",
"n. c #CCB425",
"m. c #D4BB27",
"M. c #CAAF2F",
"N. c #CEB51A",
"B. c #B5D313",
"V. c #D8C71B",
"C. c #D3C80B",
"Z. c #E7D816",
"A. c #E3D807",
"S. c #EAE909",
"D. c #F2EC0A",
"F. c #F0E50D",
"G. c #FEFE00",
"H. c #F7F703",
"J. c #F6E819",
"K. c #FBF518",
"L. c #E8ED09",
"P. c #F2DC23",
"I. c #EBD12B",
"U. c #DFE71A",
"Y. c #AC8349",
"T. c #B88945",
"R. c #B38C56",
"E. c #B18C51",
"W. c #938D62",
"Q. c #939668",
"!. c #AA8B69",
"~. c #B99569",
"^. c #AA9375",
"/. c #B48C66",
"(. c #90AB73",
"). c #BFA17D",
"_. c #C8994B",
"`. c #D29B47",
"'. c #D3A44C",
"]. c #DEAB53",
"[. c #C6AB4C",
"{. c #E1AE53",
"}. c #E4B44D",
"|. c #C9A67B",
" X c #D1B573",
".X c #C39F75",
"XX c #DFC27B",
"oX c #2D4F9B",
"OX c #35549B",
"+X c #2F529E",
"@X c #7CAC91",
"#X c #70A396",
"$X c #0098D3",
"%X c #00BCFF",
"&X c #24C1F7",
"*X c #9C9593",
"=X c #8C908B",
"-X c #AC9C87",
";X c #99AB9A",
":X c #B6A388",
">X c #B6B5B6",
",X c #CDAC84",
"<X c #D5B48B",
"1X c #D9B68D",
"2X c #D7B689",
"3X c #DCBB92",
"4X c #D2B893",
"5X c #B7C7B7",
"6X c #E4C699",
"7X c #DECCAA",
"8X c #F2D6AE",
"9X c #F5DCB4",
"0X c #F8DEB5",
"qX c #EAD0A7",
"wX c #FFE6BC",
"eX c #FCE4B7",
"rX c #9CACD0",
"tX c #A1AECC",
"yX c #D3D5D3",
"uX c #D7E7DA",
"iX c #FFEBC2",
"pX c #FFE9C4",
"aX c #FFEED1",
"sX c #EEE5C3",
"dX c #FFFEFE",
"fX c #F9F6F7",
"gX c #DDEEE1",
/* pixels */
"                      :.>.+.T / I H K k h z 0.p.p.p.p.p.p.p.5.H K                                   ",
"                      :.:.+.g g I H J k 1 z e.p.p.p.p.p.p.p.5.H H                                   ",
"                      Y.Y.&.o.o.r.y.y.V b B 7.7.q.p.p.p.p.p.5.3.3.                                  ",
"                :.:.T.].].I.G.G.G.G.H.s.e.q.j h B p.p.p.p.p.p.p.p.p.p.0.K K D h h h                 ",
"                :.;.T.].].P.G.G.G.G.H.s.e.q.h 1 b p.p.p.p.p.p.p.p.p.p.0.K H F h h h                 ",
"              x.M.n.m.I.I.I.V.V.Z.P.P.b.d.i.C V C Z Z q.p.p.p.p.p.p.p.e.5.5.L c c x                 ",
"          :.:.c.G.G.G.G.G.m.;.:._.].].{.{.[.a.p.6.h 1 C p.p.p.p.p.p.p.p.p.p.9.K K N h h             ",
"          :.;.c.G.G.G.G.G.m.:.:._.].].].].[.a.p.6.h h C p.p.p.p.p.p.p.p.p.p.9.K K N h h             ",
"      :.l.V.V.V.n.n.m.I.I.M.:.:.m.P.P.P.P.V.a.p.6.h h C p.p.p.p.p.p.p.p.p.p.9.K K N h h             ",
"    :.:.l.D.G.F.>.;.T.].]._.:.:.Z.G.G.G.G.L.a.p.6.h h C p.p.p.p.p.p.p.p.p.p.9.K K N h h             ",
"    :.:.l.D.G.F.l.:.T.].].T.:.:.Z.G.G.G.G.L.a.p.6.h h C p.p.p.p.p.p.p.p.p.p.9.K K N h h             ",
"    @.( O.S.G.D.'.'.T.O.O.$.>.:.Z.G.G.M.c.v.a.p.7.h h C p.p.Z b b b b V 0.p.9.K K G D D c h h       ",
"    T g R S.G.K.{.{.T.i i +.>.:.Z.G.G.x.:.k.p.e.6.h h C p.p.B 1 h h 1 j 0.p.9.K K K K K c h h       ",
"    / / R A.H.F.'.'.T.( ( $.Y.Y.V.H.D.x.:.k.s.s.2.j j C 0.0.V j j j j b 8.e.w.K K K K K c h h       ",
"          X.X.X.@.( =.|.|.,X,X,XE.z.z.>.:.z.L.L.B.8.8.Z j j Z 8.8.8.8.q.3.3.K K K K K K c h h % . . ",
"          g g / / i =.<X<X<X<X<XR.%.:.:.;.x.G.G.U.p.p.Z 1 h 6.p.p.p.p.e.K H K K K K K K c h h o . . ",
"          / / i y y 1.<X<X3X3X3X~.Y.E.c.c.M.Z.F.B.9.0.C k k Z q.q.9.9.w.K K K K K K K K c h h o . . ",
"          / / y X . d <X<XqXwXwX6X<X2XJ.G.F.l.>.` K K K K K c h h G K K K K K K K K K K c h h o . . ",
"          / / y . . d 1X<XqXiXiX6X<X2XK.G.D.l.:.` H H H K K c h h D K K K K K K K K K K c h h o . . ",
"          / / y . . w /./.^.^.^.4X6X6XK.G.D.l.:.k.u.u.U N N c c c N N F K K K K K K K K c h h o . . ",
"                . . - T / ; . . -XiXeXK.G.D.l.:.T.{.{.` 1 h N K K k h k G K K K K K K K c h h o . . ",
"                . . - T T ; . . -XiXeXK.G.D.l.:.T.{.{.` 1 h N J G k 1 k G K K K K K K K c h h o . . ",
"            . > | | }  . ...=X=X7XwXeXm.n.n._._.T.%.%.-.g.| (.(.(.(.Q.g.P c N K K K K K c h h o . . ",
"          . . 7 <X3X*X+XoXrXdXdXaXwXeXR.;.Y.].{.T.i i ,.3X1X8XiXiXiXiXqXn 1 x K K K K K c h h o . . ",
"          . . 7 ,X1X*X+XoXrXdXdXaXwXeXR.%.Y.].].T.T i ,.1X<X8XwXwXwXwX7Xn h x K K K K K c h h o . . ",
"          . . 7 ,X1X*X+XoXrXdXdXaXwX0X=.( $.Z.J.N.T i /.9X8XeXwXeX|.~.E.= % < x x N K K 5 % %       ",
"          . . 7 ,X1X*X+XoXrXdXdXaXwX0X+.i X.H.G.C./ i /.iXwXwXwXeXR.%.#.O . % h h c K K 4 . .       ",
"          . . 7 ).,X*XOXOXtXdXdXaXwX0X+.i X.H.G.C.( / /.sXsXeX0X9XE.$.#.O . % 1 1 c K K 4 . .       ",
"                > * Q :X:X7XpXpXpXwX0X+.i X.H.G.J.`.`.@X&X&X=XE.E.8 # # . . . o . 5 K K 4 . .       ",
"                . . d 1X1XqXwXwXwXwX0X+.i X.H.G.J.].{.#X%X%X#X%.%.* . . . . . . . 5 K K 4 . .       ",
"                . . d ^.^.4X0X0X0X0X8X=.+.$.A.A.Z.}.}.@X$X$X..#.#.w 7 7 6 6 6 . . 4 G G < . .       ",
"                      O X | 3X<X<X<X<X<X<X|.R T h.G.G.h.+ + X X @ !.,X XD.G.j.. . & h h & . .       ",
"                      . . } 3X1X1X1X1X1X1X|.( g *.G.G.h.. . . . X ^.3XXXG.G.C.. . & h h & . .       ",
"                      . . Q <.<.W.W.W.W.W.-.t r E J.J.o.. . o % & | <.-.j.j.E . . % < < % . .       ",
"                          . . . < h h h h 2 . . t ].{._ . . < h h o . . . . . . . . . .             ",
"                          . . . < h h h h 2 . . t {.{._ . . < h 1 o . . . . . . . . . .             ",
"                      .   Y h.h.A c c h h 2 . . 7 i.i.' 5 5 v N c 9 8 ; . . + q q 0 . .             ",
"                      . . h.G.G.t.H K k h 2 . . < H J H K K K K L ~ / u X . 0 [ [ ] . .             ",
"                      . . h.G.G.t.H K k h 2 . . < K K K K K K K L ~ / u X . 0 [ [ ] . .             ",
"      . . . . . . . 3 Z Z A Y Y 3 < 4 ;X5X;XS v M ! ! U H K K K L W / ^ x v l 0 0 { :X-XQ . .       ",
"    . . . . . . . . 3 p.a.z . . . . @ yXdXgX4.H I / g ' H K K K L W g ~ L 3.c . . | iXiX} . .       ",
"    . . . . . . . . 3 0.y.n . . . . = yXfXuXf.4.U i i ! L L L L L W / ~ L K c . . } 0X0X{ . .       ",
". . r u y e 8 e y u r & & 8 u y r 8 e Q } | yXgX;X$ $ 8 ~ ~ ~ ~ ~ r.y.y.0.0.5.F F S 7 7 @ . .       ",
". . y / / a p a / / r . . 8 / / s p p e e } fXdX>X. . ; / g g g / y.p.p.p.p.9.K 3.l . . . . .       ",
". . r g f p p r y u t 7 7 t / / s a a p e Q yXuX*X% % 9 ) ) ) ) ) y.p.p.0.0.w.F F 5 O O . . .       ",
". . , p p p p 8 X . Q 9X9X/.i / / / g a p e = = 4 G G 5.y.y.y.y.y.p.p.0.3.3.N o . * e e # . . . . . ",
". . , p p p p 8 . . { iXiX~.u i T / / a p 8 . . < H H 5.p.p.p.p.p.p.p.e.3.3.c . . * p p # . . . . . ",
". . : , , e p e # $ d :X:X!.,.,.^ r r , , > < < l 3.3.w.p.p.p.p.p.Z Z Z I I z @ @ > p p , - - X . . ",
"    . . . e p p p p , . . <.iXwXQ . . . . % J H 3.p.p.p.p.p.p.p.0.< . X e p p p p p p p f / T # . . ",
"    . . . e p p p p , . . <.iXiXQ . . . . % G H 3.p.p.p.p.p.p.p.p.< . X e p p p p p p p f / T # . . ",
"      . . : : : : : * . . { <.<.w . . . . o 5 l k m m m m m m m m & . X : : : : : , p p f / T # . . ",
"          . . . . . .     . . .       . . . . . . . . . . . . . .       . . . . . * p p f / T # . . ",
"          . . . . . .     . . .       . . . . . . . . . . . . . .       . . . . . - p p f / T # . . ",
"                                                                            . . . - p p a s y @ . . ",
"                                                                              . . - p p p p e $ . . ",
"                                                                              . . * e e e e e $ . . ",
"                                                                                  X O O O O O       ",
"                                                                                    . . . . .       ",
"                                                                                    . . . . .       ",
"                                                                                                    ",
"                                                                                                    ",
"                                                                                                    ",
"                                                                                                    ",
"                                                                                                    "
};
