/* XPM */
static char *ink_back__288_29[] = {
/* columns rows colors chars-per-pixel */
"46 64 211 2 ",
"   c None",
".  c #000001",
"X  c #020A04",
"o  c #0E0B04",
"O  c #0C0705",
"+  c #130B06",
"@  c #180D0B",
"#  c #031405",
"$  c #051A06",
"%  c #031608",
"&  c #0B1C08",
"*  c #091807",
"=  c #1B140C",
"-  c #141703",
";  c #0F1216",
":  c #24150B",
">  c #2E180D",
",  c #391E0E",
"<  c #371F10",
"1  c #05230B",
"2  c #092D0A",
"3  c #092608",
"4  c #0A340B",
"5  c #0B3E0C",
"6  c #16360D",
"7  c #083B14",
"8  c #0D2312",
"9  c #2A2A01",
"0  c #3B3B01",
"q  c #2A2119",
"w  c #392010",
"e  c #382812",
"r  c #283913",
"t  c #353613",
"y  c #182738",
"u  c #2A2A2B",
"i  c #482818",
"p  c #512E17",
"a  c #4B3914",
"s  c #6E3D1D",
"d  c #62381C",
"f  c #713E1D",
"g  c #4A2920",
"h  c #4C3C24",
"j  c #623720",
"k  c #753E20",
"l  c #0D420D",
"z  c #164A0D",
"x  c #0A4415",
"c  c #0D4C13",
"v  c #064314",
"b  c #124813",
"n  c #0E5416",
"m  c #0C551B",
"M  c #0E5D1B",
"N  c #165312",
"B  c #185E17",
"V  c #284815",
"C  c #3B521C",
"Z  c #2B5014",
"A  c #0F621D",
"S  c #1D6016",
"D  c #11641D",
"F  c #28761C",
"G  c #28751C",
"H  c #226918",
"J  c #0A5737",
"K  c #0B532E",
"L  c #395D2E",
"P  c #0E6B23",
"I  c #0D6723",
"U  c #0E7325",
"Y  c #0F7B29",
"T  c #0B7B26",
"R  c #107325",
"E  c #117B29",
"W  c #1E7526",
"Q  c #227127",
"!  c #4D4D01",
"~  c #515101",
"^  c #424517",
"/  c #57480F",
"(  c #74401E",
")  c #7B4A1F",
"_  c #64461F",
"`  c #5A7D09",
"'  c #666701",
"]  c #7C7C00",
"[  c #465A26",
"{  c #5A5B25",
"}  c #534B3E",
"|  c #574E2B",
" . c #634B22",
".. c #664E29",
"X. c #6A4823",
"o. c #744221",
"O. c #7A4925",
"+. c #6B5629",
"@. c #76572C",
"#. c #7B5439",
"$. c #527835",
"%. c #54662D",
"&. c #636023",
"*. c #787C3A",
"=. c #76672F",
"-. c #086659",
";. c #2F5072",
":. c #3A5874",
">. c #547241",
",. c #5F6E50",
"<. c #716654",
"1. c #516663",
"2. c #567B6C",
"3. c gray49",
"4. c #9D7B17",
"5. c #A37E14",
"6. c #855730",
"7. c #8D6031",
"8. c #8E643D",
"9. c #956937",
"0. c #976D39",
"q. c #9D723C",
"w. c #9A7536",
"e. c #877A3C",
"r. c #A2793F",
"t. c #A0773F",
"y. c #835B42",
"u. c #926542",
"i. c #9A7656",
"p. c #8F6C4E",
"a. c #A57B41",
"s. c #A97E43",
"d. c #A07652",
"f. c #1F8829",
"g. c #1D8629",
"h. c #238B29",
"j. c #288A27",
"k. c #368A23",
"l. c #338521",
"z. c #2A9129",
"x. c #329729",
"c. c #3D9F28",
"v. c #389827",
"b. c #3FA129",
"n. c #468E26",
"m. c #469B28",
"M. c #41A429",
"N. c #44A92B",
"B. c #6CA65E",
"V. c #74BE6A",
"C. c #858701",
"Z. c #97910A",
"A. c #ADAD01",
"S. c #B3B200",
"D. c #B6B00E",
"F. c #AB843D",
"G. c #A68331",
"H. c #B89637",
"J. c #BDD915",
"K. c #B3C02E",
"L. c #D4CF05",
"P. c #D7D901",
"I. c #DDCA1D",
"U. c #E9DD0A",
"Y. c #C0E10E",
"T. c #D8E201",
"R. c #ECE705",
"E. c #F1EA0A",
"W. c #FEFE00",
"Q. c #F7F403",
"!. c #E9CA31",
"~. c #8D8656",
"^. c #AB8043",
"/. c #B28A54",
"(. c #AAAA44",
"). c #BD9865",
"_. c #AD916A",
"`. c #999165",
"'. c #C09841",
"]. c #DAA852",
"[. c #E5B053",
"{. c #C29E69",
"}. c #CAA87D",
"|. c #C3A06C",
" X c #81DD7F",
".X c #2393B5",
"XX c #7DB087",
"oX c #119AC3",
"OX c #00A1D3",
"+X c #00B7F9",
"@X c #828183",
"#X c #82B78C",
"$X c #B6B588",
"%X c #A8B4BF",
"&X c #D6B58B",
"*X c #CDB28E",
"=X c #89C096",
"-X c #83E282",
";X c #E4C59C",
":X c #DAC5A6",
">X c #DCCDB1",
",X c #E8CBA2",
"<X c #F9DFB7",
"1X c #FFE5BC",
"2X c #FFE8BF",
"3X c #FAE0B7",
"4X c #A7B5C4",
"5X c #FFEAC0",
"6X c #FFFFFE",
"7X c #F9F7F6",
"8X c #EFEAE7",
/* pixels */
"                            . . o 8.a.a.a.a.a.a.0.o.o.                                      ",
"                            o o = w.F.F.F.F.F.F.w.) )                                       ",
"                        . . +./.'.U.E.E.E.E.E.E.E.R.R.!.].].^.a.                            ",
"                        . . @.[.[.Q.W.W.W.W.W.W.W.W.W.!.[.].^.a.a.                          ",
"                        # # { (.(.J.Y.Y.Y.Y.Y.Y.Y.Y.Y.K.(.(.*.*.*.                          ",
"                  . . X 5 l F M.M.M.M.M.M.M.M.M.M.M.M.M.M.c.E T $.a.a.                      ",
"                  . . X 5 l F M.M.M.M.M.M.M.M.M.M.M.M.M.M.c.E T $.a.a.                      ",
"                  . . * F l.G B S S S S S S S S S S S S S B n n Z C C _ o.                  ",
"                  . . & c.N.G 5 5 5 5 5 5 5 5 5 5 5 5 5 5 5 l l l l l _ o.o.                ",
"                  X X 3 k.v.G N N N N N N N N N N N N N N N l l l c b  .O.O.                ",
"              . . 2 5 l b l F b.c.c.c.c.c.c.c.c.c.c.c.c.b.v.b l M E E e.a.r.                ",
"              . . 2 l l l l F M.M.M.M.M.M.M.M.M.M.M.M.M.M.v.z 5 M E E e.s.a.                ",
"              . . 2 l l l l F M.M.M.M.M.M.M.M.M.M.M.M.x.z.j.D M M M M [ { {                 ",
"              . . 2 l l l l F M.M.M.M.M.M.M.M.M.M.M.M.h.T T E E A l l l l l                 ",
"              . . 4 l l l l F M.M.M.M.M.M.M.M.M.M.M.M.h.T E E E A l l l l b                 ",
"    a.s.}.&X~.4 4 M R R R U j.M.M.M.M.M.M.M.M.M.M.M.M.h.T E E E A l l l l [ &X&X/.a.a.      ",
"    a.a.}.&X`.l l P E E E T z.M.M.M.M.M.M.M.M.M.M.M.M.h.T E E E A l l l l %.&X&X/.r.r.      ",
"  /.{.|.&X;X_.l l c m M E T h.x.x.b.M.M.M.M.M.M.b.x.x.g.T U m m m n n l 5 %.;X;X}.{.).      ",
"f _.5X1X1X5X$Xl l # . % U E E E E c.M.M.M.M.M.M.v.E E E E P X . 7 E E c 5 >.1X1X1X2X,XO.o.o.",
"f _.5X1X1X5X$Xl l # . % U E E E E c.M.M.M.M.M.M.v.E E E E P X . 7 E E c 5 >.1X1X1X2X,XO.o.o.",
"  u.i.d.).{.~.l l # . X c n P E E g.h.f.f.f.f.h.g.E E A n c X . 3 n n l l [ ).{./.i.d.      ",
"    f ( 0.a.=.l l # . X 5 l A E E T T T T T T E Y E E M l 5 . . $ l l l 5 C r.r.6.s f       ",
"    o.o.9.q.=.J J 8 X # 4 4 M E E E E E E E E E E U R c 4 4 # X 3 l l K J L q.q.6.( o.      ",
"        o.( 1.+X+X-.5 4 . . x E E E E E E E E E P l l $ . X 4 5 l l x oX+X.Xo.o.            ",
"        o.( 1.+X+X-.l 4 . . x E E E E E E E E E P l l $ . X 5 l l l x OX+XoXo.o.            ",
"        w , %. X X$.a t . . 4 A A R E E E E E E P l l $ . X 5 l V ^ ^ V.-XB.w w             ",
"        . . ! W.W.5.k d . . 1 l l R E E E E E E P l l $ . . 5 l C o.O.U.W.S.. .             ",
"        . . ! R.Q.4.o.d - o 3 l l U E E E E E E P 5 5 3 o - z z ^ o.O.L.Q.A.. .             ",
"              9 9 @.q.G.L.P.' . # P E E E E n c 5 X X C.P.P.P.T.D.q.0.a 9 9                 ",
"              . . @.s.H.W.W.] . X P E E E E n l 4 . . Z.W.W.W.W.I.s.a.= . .                 ",
"              . . h @.=.A.S.~ . X P E E E E x 2 6 ~ ~ C.S.A.A.S.Z.+.+.= .                   ",
"                  . . . . . . . X P E E E Y 1 . 0 Q.W.' . . . . . . .                       ",
"                  . . . . . . . X P E E E E 1 . 0 Q.W.' . . . . . . .                       ",
"                  . . o i p : . . c n n n n # . - ` ` Z 2 2 2 2 $ . .                       ",
"                  . . + s ( , . . 4 l l l l # . X 5 5 l l l l l 3 . .                       ",
"                  . . = y.u.h # % 4 4 4 4 4 # X $ l l l l l c c 2 . .                       ",
"                  . . u 8X7XXXU P # . . . . 2 5 5 l l l l c R E x . .                       ",
"                  . . u 7X6X#XT U # . . . . 4 l l l l l l c U T v . .                       ",
"                    . u 3.@X,.L L x 7 7 7 7 m M M M M Z ^ [ #X=X2.y y ;                     ",
"                        . . , o.X.W Y E E E E E E E Y [ f 6.8X6X4X;.;.; . .                 ",
"                        X X e o.X.Q E E E E E E E E E [ s #.8X6X%X:.:.; . O                 ",
"                  . . & l.k.n.m.n.{  . . . . . . . . .e + q *X:X:X>X:X#.d i . .             ",
"                  . . & c.M.M.M.m.X.k k k k k k k k k > . = }.&X,X2X3Xu.( p . .             ",
"                  . . & z.x.c.M.m.&.+.&.&.&.&.&.+.+.&.r # 8 p.i.*X2X<X8.( p . .             ",
"                  . . % U T z.M.M.M.M.M.M.M.M.M.M.M.M.H l 5 . . <.5X<X8.( p . .             ",
"                  . . % U T z.M.M.M.M.M.M.M.M.M.M.M.M.H l 4 . . <.5X3X8.( p . .             ",
"                        1 1 2 6 6 6 6 S M.M.M.M.M.M.M.j.P M X . q } } q : :                 ",
"                        . . . . . . . 6 M.M.M.M.M.M.M.h.Y P X . . . . . . .                 ",
"                        . . O + + = = r k.k.k.k.k.k.k.W I M X . . . . . . .                 ",
"                        . . w s o.9.q...X X X X X X X X X X                                 ",
"                        . . w o.o.q.s.... . . . . . . . . .                                 ",
"                      + < < X.7.7.t.a.... . . . . . . . .                                   ",
"                  . . + s o.7.a.a.a.a.... .                                                 ",
"                  . . + s ( 7.a.a.a.a.... .                                                 ",
"                  . . + s ( 7.a.a.a.a.... .                                                 ",
"                  . . + s ( 7.a.a.a.s.... .                                                 ",
"                  . . + d j @.9.9.9.0._ . .                                                 ",
"                  . . O i g j o.o.o.o.i . .                                                 ",
"                  . . O i g j o.o.o.o.i . .                                                 ",
"                        @ @ : : : : : :                                                     ",
"                        . . . . . . . .                                                     ",
"                        . . . . . . . .                                                     ",
"                                                                                            ",
"                                                                                            "
};
