/* XPM */
static char *ink_back__282_29[] = {
/* columns rows colors chars-per-pixel */
"46 64 219 2 ",
"   c None",
".  c #000101",
"X  c #090604",
"o  c #020C04",
"O  c #090B05",
"+  c #140B09",
"@  c #170D09",
"#  c #031306",
"$  c #051B06",
"%  c #031509",
"&  c #051A0A",
"*  c #0B1D08",
"=  c #0C1605",
"-  c #191507",
";  c #151618",
":  c #25150B",
">  c #221D0F",
",  c #331C0E",
"<  c #261A11",
"1  c #301B15",
"2  c #062107",
"3  c #06250B",
"4  c #062B0D",
"5  c #092D09",
"6  c #0A2808",
"7  c #0A350B",
"8  c #0B3C0C",
"9  c #083A09",
"0  c #073312",
"q  c #083D15",
"w  c #073913",
"e  c #123510",
"r  c #2A2710",
"t  c #3C2211",
"y  c #292F06",
"u  c #323131",
"i  c #4D2B15",
"p  c #49281D",
"a  c #553018",
"s  c #513E1E",
"d  c #532F18",
"f  c #61371B",
"g  c #6B3C1E",
"h  c #723F1D",
"j  c #512D20",
"k  c #4D3222",
"l  c #743F20",
"z  c #653920",
"x  c #0D420D",
"c  c #10480F",
"v  c #1C490E",
"b  c #0A4215",
"n  c #0E4C12",
"m  c #0C4B1B",
"M  c #0A4619",
"N  c #0E5416",
"B  c #0B541C",
"V  c #0E5C1A",
"C  c #155112",
"Z  c #145B17",
"A  c #104D11",
"S  c #2E4515",
"D  c #215415",
"F  c #324E12",
"G  c #0E641E",
"H  c #0C681E",
"J  c #196319",
"K  c #35620B",
"L  c #25671A",
"P  c #26721B",
"I  c #2D731B",
"U  c #105E23",
"Y  c #334F24",
"T  c #0D6622",
"R  c #0F6B22",
"E  c #0F7326",
"W  c #0E7B29",
"Q  c #0C7A27",
"!  c #107425",
"~  c #137927",
"^  c #107B29",
"/  c #16742A",
"(  c #247C21",
")  c #474701",
"_  c #515100",
"`  c #53421A",
"'  c #74411F",
"]  c #60560D",
"[  c #425F28",
"{  c #535423",
"}  c #575B26",
"|  c #5C4926",
" . c #744220",
".. c #7C4B28",
"X. c #6B5121",
"o. c #6D522C",
"O. c #77582E",
"+. c #70542B",
"@. c #42662A",
"#. c #4A6A38",
"$. c #566925",
"%. c #796429",
"&. c #716C2E",
"*. c #466D0A",
"=. c #1E3348",
"-. c #253E56",
";. c #085E52",
":. c #3D6D47",
">. c #274562",
",. c #2E5276",
"<. c #066D64",
"1. c #4C4F4E",
"2. c #5A6456",
"3. c #4D5D6D",
"4. c #536360",
"5. c #6B6259",
"6. c #875832",
"7. c #866435",
"8. c #8B6737",
"9. c #946936",
"0. c #966937",
"q. c #9D763C",
"w. c #A3793F",
"e. c #AA783A",
"r. c #906C4D",
"t. c #A47B41",
"y. c #A87F46",
"u. c #847763",
"i. c #37891F",
"p. c #14812A",
"a. c #1D8529",
"s. c #1E8536",
"d. c #238B29",
"f. c #288F29",
"g. c #288525",
"h. c #2A9129",
"j. c #3A9424",
"k. c #3D9C27",
"l. c #3A9E29",
"z. c #319528",
"x. c #378D23",
"c. c #3EA229",
"v. c #699210",
"b. c #64A71A",
"n. c #449E28",
"m. c #4BA927",
"M. c #41A529",
"N. c #42A92A",
"B. c #4AA62A",
"V. c #478816",
"C. c #519B63",
"Z. c #608D69",
"A. c #73A87F",
"S. c #5CA86E",
"D. c #818201",
"F. c #849304",
"G. c #A58C16",
"H. c #8FAD09",
"J. c #BBBA00",
"K. c #B1AD0D",
"L. c #B69436",
"P. c #AD9231",
"I. c #BEA02F",
"U. c #91C516",
"Y. c #B5C304",
"T. c #A2D215",
"R. c #C8C901",
"E. c #D8DA01",
"W. c #DBC91B",
"Q. c #E3D714",
"!. c #E0D507",
"~. c #DDEF07",
"^. c #DEF006",
"/. c #D9E314",
"(. c #E9ED01",
"). c #F2F303",
"_. c #FEFE00",
"`. c #FBF20D",
"'. c #FDF110",
"]. c #958F5F",
"[. c #AC8244",
"{. c #B78944",
"}. c #B48D57",
"|. c #B9974E",
" X c #9E9568",
".X c #AE8762",
"XX c #B9936E",
"oX c #AB946C",
"OX c #C19245",
"+X c #C4AD49",
"@X c #DFAD53",
"#X c #E2B24D",
"$X c #E2AF54",
"%X c #E7B253",
"&X c #C29E70",
"*X c #CCAA7B",
"=X c #D1B07F",
"-X c #5D758D",
";X c #148FA9",
":X c #4DAA88",
">X c #758DA4",
",X c #51D1AF",
"<X c #0E9DCC",
"1X c #02A7D9",
"2X c #00BBFF",
"3X c #BDB98D",
"4X c #B1AAA9",
"5X c #D5B48A",
"6X c #DCBC93",
"7X c #E1BF97",
"8X c #8DC299",
"9X c #F0D4AB",
"0X c #FDE4BB",
"qX c #FCE3B9",
"wX c #DAEBDE",
"eX c #FFEBC2",
"rX c #E2E2E2",
"tX c #FDFEFE",
"yX c #CADDD2",
/* pixels */
"                                                                                            ",
"                                                                                            ",
"                                                                                            ",
"                                                                                            ",
"                                                                                            ",
"                                    . X 7.t.t.t.t.t.t.q. . .                                ",
"                                    . X 7.t.t.t.t.t.t.q. . .                                ",
"                              . . s q.q.W.Q.Q.Q.Q.Q.Q.W.OX{.{.t.t.                          ",
"                              . . | %X%X'._._._._._._.`.#X$XOXt.t.                          ",
"                              * $ } +X+X/.^.~.~.~.~.^./.+X+X|.L.L.                          ",
"                        . . # x.k.n.B.B.m.m.m.m.m.m.m.m.B.B.T._.).L.t.9. . .                ",
"                        . . o j.M.M.M.M.M.M.M.M.M.M.M.M.M.c.T._._.L.t.9.l h                 ",
"                      . e D D P P P P P P P P P P P P P P P b.T.U.$.} &.e.e.w.t.            ",
"                    . . L N.k.c 8 x x x x x x x x x x x x 8 P c.l.C 9 $.$X@X{.t.t.          ",
"                    o . L c.j.C c c c c c c c c c c c c c x P c.j.C x $.#X#X{.t.t.          ",
"              . . & T T Z C Z x.j.j.j.j.j.j.j.j.j.j.j.j.j.j.P C C R E b.`.`.L.t.t.          ",
"              . . & ^ ^ V 8 c k.M.M.M.M.M.M.M.M.M.M.M.M.M.M.P 8 x E Q b._._.I.t.t.          ",
"              . . % G R V N Z k.M.M.M.M.M.M.M.M.M.M.M.M.M.M.g.J J G T V.Y.Y.P.t.t.          ",
"              . . o x x G ^ p.c.M.M.M.M.M.M.M.M.M.M.M.M.M.M.M.M.k.C x x x x                 ",
"              . . o x x G ^ p.c.M.M.M.M.M.M.M.M.M.M.M.M.M.M.M.M.k.C x x x x                 ",
"    t.t.}.5X5XY 6 8 R R V N Z a.a.h.M.M.M.M.M.M.M.M.M.M.M.M.z.a.a.A x x x x ].6X*Xt.t.      ",
"    t.w.}.5X5X@.x N ^ ^ V x n E W d.M.M.M.M.M.M.M.M.M.M.M.M.f.W E n x x x x  X5X*Xt.w.      ",
"    }.}.&X6X6X@.8 n ^ ^ N 7 8 E W d.l.l.l.l.l.M.M.M.M.M.l.l.d.W ! b 7 8 x x  X7X5X}.}.y.    ",
"' ..9XqXqX0XqX#.8 n ^ ^ 0 . # R ^ ^ ^ ^ ^ ^ d.M.M.M.M.l.p.^ ^ ^ E % . $ x c 3X0X0XqX0X.Xh  .",
"' ..9XeXeX0X0X#.8 n ^ ^ 0 . o R ^ ^ ^ ^ ^ W a.M.M.M.M.l.^ ^ ^ ^ E # . # x x 3XeXeXeXeX.Xh  .",
"  ...XXX&X=X=X[ x n V G 3 . o R ^ ^ ^ ^ ^ ^ p.f.f.f.h.d.^ ^ R V V o . # x x ].5X*XXXXXr.    ",
"    h g 6.t.w.F x x x x $ . o R ^ ^ ^ ^ ^ ^ ^ W W W W W ^ ^ V x 8 o . # x x &.t.0.' h       ",
"     .h 6.t.q.Y m M x x $ . # R E E ~ ~ ^ ^ ^ ^ ^ ^ ^ ^ ^ ^ V 8 8 o . & m m &.t.0. . .      ",
"          ....;X1X;Xb x 8 7 7 & # 4 n n E ^ ^ ^ ^ ^ ^ ^ ^ ^ b o o 7 7 ;.1X1X2.....          ",
"           . .<X2X1Xb x x x 8 . . $ x x E ^ ^ ^ ^ ^ ^ ^ ^ ^ q . . 8 x <.2X2X4.h  .          ",
"          i i :X,X:XS S v x 8 $ # $ 5 5 V R R ^ ^ ^ ^ ^ ^ ^ q . . y S :.,X,X1.i i           ",
"          . . J._.!.'  .S x x x x 3 . . 7 x N ^ ^ ^ ^ ^ ^ ^ q . X f l G._._.) . .           ",
"          . . J._.!.'  .S x x x x 3 . . 7 x N ^ ^ ^ ^ ^ ^ ^ q . X f l G._._.) . .           ",
"              ) _ ] 9.9.G.Y.H.v x 8 5 5 $ # 3 N N R ^ ! N N 4 . X O.0.%._ _ y               ",
"              . . < t.t.W._.(.D 8 x x 8 o . # x x R ^ ! x x 2 . O 8.[.o.. .                 ",
"              . . > 7.8.K.E.R.*.K K K K 6 # & 7 7 V ! R x x 2 . X O.8.| . .                 ",
"                    X X O O y E.).).).(.x.E B . . 5 x x x x 2 . . X X X                     ",
"                    . . . . - (._._._._.j.Q B . . 5 x x x x 2 . . . . .                     ",
"                        . . = v.H.F.v.D.H.U.v.. . # 2 2 2 2 4 q w o . .                     ",
"                        . . . 8 x 2 . X R._.J.. . . . . . . q p.E # . .                     ",
"                        . . o 8 x 3 . X Y._.K.o . . . . o . M s./ & . X                     ",
"                    . . b T T E ! b . . I j.g.T T 3 . # U H A.wXyX3.>.=.. .                 ",
"                    . . M Q Q ^ p.M . . T W W ^ ^ 4 . # E Q 8XtXtX-X,.=.. .                 ",
"                    @ @ :.S.C.U B b 3 4 R ^ ^ ^ ^ b 3 0 T H Z.4X4X3.1.u . .                 ",
"              . . + p p 4XtXrX; . 0 ^ ^ ^ ^ ^ ^ ^ ^ ^ ! x x 2 . X f  .i . .                 ",
"              . . + p p 4XtXrX; . 0 ^ ^ ^ ^ ^ ^ ^ ^ ^ E x x 2 . X f  .i . .                 ",
"          . . t i d z f 5.>X-X+ . r { { { { { { { { { { ` ` S B m > : :                     ",
"          . . a  . .' h 1.,.>.O . ,  .l l l l l l l l l  .l [ W E # . .                     ",
"          . . a  ...6.6.1.>.-.% o r X.X.X.X.X.X.X.X.X.X.X.X.@.p.~ 3 # #                     ",
"          . . a ' r.9XqX5.. o 8 8 L n.n.n.n.n.n.n.n.n.n.n.n.M.c.l.~ E m . .                 ",
"          . . a ' r.0XeX5.. . 8 x L M.M.M.M.M.M.M.M.N.N.N.N.M.M.c.p.p.B . .                 ",
"          . . , t k u.u.u . o N V ( M.M.M.M.l.h.h.L D D D D D D D b q 0 . .                 ",
"              . . . . . . . o E W d.M.M.M.M.z.W W 3 . . . . . . . . . .                     ",
"              . . . . . . . o R E g.k.k.k.k.z.E E 4 X X X X X X X . . .                     ",
"                              % % & * * * * * % % | 8.7.7.7.7.7.O.@ . .                     ",
"                              . . . . . . . . . . +.[.y.t.t.t.y.q.- . .                     ",
"                              . . . . . . . . . . s O.O.9.0.0.0.8.< @ +                     ",
"                                                  . . + g  . . .l j p 1 . .                 ",
"                                                  . . + g  . . . .j p 1 . .                 ",
"                                                        : : : : : @ @ @                     ",
"                                                        . . . . . . . .                     ",
"                                                        . . . . . . . .                     ",
"                                                                                            ",
"                                                                                            "
};
