/* XPM */
static char *nk_back__2810_29[] = {
/* columns rows colors chars-per-pixel */
"46 64 207 2 ",
"   c None",
".  c #000001",
"X  c #090704",
"o  c #020B04",
"O  c #0B0A0B",
"+  c #130A05",
"@  c #031406",
"#  c #061C06",
"$  c #031508",
"%  c #041908",
"&  c #0B1D08",
"*  c #0A1807",
"=  c #18150A",
"-  c #191718",
";  c #26150B",
":  c #271E0F",
">  c #261511",
",  c #321B16",
"<  c #062107",
"1  c #06240A",
"2  c #092C09",
"3  c #0A2408",
"4  c #0A350B",
"5  c #0B3D0C",
"6  c #073E0B",
"7  c #072E10",
"8  c #083D14",
"9  c #073C15",
"0  c #15340E",
"q  c #3D281A",
"w  c #3C3B17",
"e  c #323101",
"r  c #001E2B",
"t  c #152434",
"y  c #0C2329",
"u  c #312E2C",
"i  c #512F1C",
"p  c #6C3C1D",
"a  c #61361B",
"s  c #723E1D",
"d  c #4F3427",
"f  c #753F20",
"g  c #0D420D",
"h  c #13440E",
"j  c #164A0D",
"k  c #0A4316",
"l  c #0D4D13",
"z  c #0B4619",
"x  c #0B4F18",
"c  c #174912",
"v  c #0B541C",
"b  c #0E5C1B",
"n  c #0E5416",
"m  c #145111",
"M  c #195916",
"N  c #364818",
"B  c #215515",
"V  c #235B17",
"C  c #324D14",
"Z  c #0E621D",
"A  c #196319",
"S  c #236B19",
"D  c #2A6D19",
"F  c #26721B",
"G  c #29751C",
"H  c #2C7C1E",
"J  c #366D14",
"K  c #0C5A2A",
"L  c #325623",
"P  c #0D6522",
"I  c #0E6B23",
"U  c #126D23",
"Y  c #0E7426",
"T  c #0E7C29",
"R  c #0C7A26",
"E  c #117426",
"W  c #107C29",
"Q  c #187928",
"!  c #2F6926",
"~  c #3F6025",
"^  c #4D4D01",
"/  c #65421E",
"(  c #684A1B",
")  c #72401F",
"_  c #7A4A1E",
"`  c #5A7E09",
"'  c #5F6302",
"]  c #757212",
"[  c #5E4A21",
"{  c #50562D",
"}  c #684921",
"|  c #734120",
" . c #7C4B29",
".. c #704821",
"X. c #5B7024",
"o. c #4A6635",
"O. c #4C6931",
"+. c #756A30",
"@. c #233A52",
"#. c #303841",
"$. c #2C4155",
"%. c #2E464B",
"&. c #0E6B59",
"*. c #365776",
"=. c #2F5275",
"-. c #1B746F",
";. c #554C40",
":. c #547341",
">. c #63684A",
",. c #506563",
"<. c #88592C",
"1. c #8C5E31",
"2. c #856335",
"3. c #8D6434",
"4. c #966735",
"5. c #9C753D",
"6. c #9D7E3F",
"7. c #8F7235",
"8. c #956943",
"9. c #9D7E40",
"0. c #A47B42",
"q. c #A47A42",
"w. c #2E811F",
"e. c #13802A",
"r. c #1C8428",
"t. c #258A28",
"y. c #318520",
"u. c #378B24",
"i. c #2A9129",
"p. c #399625",
"a. c #3C9B27",
"s. c #339929",
"d. c #3B9E29",
"f. c #349526",
"g. c #3DA129",
"h. c #5C8109",
"j. c #518426",
"k. c #479528",
"l. c #509E2D",
"z. c #52922A",
"x. c #498125",
"c. c #41A529",
"v. c #43A92A",
"b. c #4CA02C",
"n. c #56AB26",
"m. c #72A929",
"M. c #7AC11C",
"N. c #608855",
"B. c #5B8064",
"V. c #70A67D",
"C. c #848400",
"Z. c #A5A302",
"A. c #B1B100",
"S. c #BC9E30",
"D. c #93AC37",
"F. c #A4A51D",
"G. c #C3A72B",
"H. c #D0C911",
"J. c #DBE402",
"K. c #FFFF00",
"L. c #ECF004",
"P. c #F0D827",
"I. c #AA8249",
"U. c #B59454",
"Y. c #BCA44B",
"T. c #999265",
"R. c #B18A64",
"E. c #AB8A6F",
"W. c #ACA97B",
"Q. c #CC9C4D",
"!. c #D2A34E",
"~. c #DEAA53",
"^. c #CCA97D",
"/. c #E5AE54",
"(. c #077F87",
"). c #58738D",
"_. c #5B7691",
"`. c #617991",
"'. c #04808A",
"]. c #2090B6",
"[. c #059BC2",
"{. c #2198C1",
"}. c #02A4D3",
"|. c #00B9FC",
" X c #00AFF0",
".X c #00C1FF",
"XX c #85BA93",
"oX c #B7AB87",
"OX c #AAA9AB",
"+X c #B49684",
"@X c #D5B58C",
"#X c #D9B78E",
"$X c #D0B895",
"%X c #C1BAA9",
"&X c #8BC298",
"*X c #E5C799",
"=X c #D6C7AB",
"-X c #E9CCA4",
";X c #EFD3A8",
":X c #F2D6AD",
">X c #EBD5B3",
",X c #FFE8BF",
"<X c #CFCECF",
"1X c #FFEBC2",
"2X c #FDFCFD",
"3X c #F6F8FB",
"4X c #ECEFF2",
/* pixels */
"                                  . . q 0.0.0.0.0.0.0.<.s |                                 ",
"                                  o o w 9.6.6.6.6.6.9.<.....                                ",
"                              . o H u.k.l.l.l.l.l.l.l.k.k.z.6.0.                            ",
"                            . . o u.v.c.c.c.c.c.c.c.c.c.c.b.9.q.q.                          ",
"                            2 0 0 H y.y.y.y.y.y.y.y.y.a.c.b.S.G.S.                          ",
"                        . . B v.a.m g g g g g g g g g H c.n.L.K.H.q.0.                      ",
"                        . . B v.a.m g g g g g g g g g H c.n.L.K.H.q.0.                      ",
"                    . & D G S M A w.y.y.y.y.y.y.y.y.y.F M D M.M.D.Q.Q.<.s                   ",
"                  . . & d.v.F 5 h p.c.c.c.c.c.c.c.c.c.S 5 j a.g.D./.~.<.| |                 ",
"                  o o 3 u.p.F m M a.c.c.c.c.c.c.c.c.c.F m M u.f.m.Y.Y.<.) |                 ",
"              . . 2 5 g h g G g.d.c.c.c.c.c.c.c.c.c.c.g.d.p.m g b Q Q } | |                 ",
"              . . 2 g g g 5 G v.c.c.c.c.c.c.c.c.c.c.c.c.c.a.j g b T Q [ f |                 ",
"              . . k Z Z F G F F G a.c.c.c.c.c.c.c.c.c.y.F S g g b W Q +.1.1.                ",
"              . . v W r.c.v.F 5 h p.c.c.c.c.c.c.c.c.c.S 5 g g g b W Q 7.0.0.                ",
"              . . v W e.a.a.S g m p.c.c.c.c.c.c.c.c.c.S g h h h b E E +.5.5.                ",
"              . . v W I 3 * V p.p.c.c.c.c.c.c.c.c.c.c.a.p.p.p.p.V @ $ c B N | |             ",
"              . . v e.P . . B v.c.c.c.c.c.c.c.c.c.c.c.c.c.c.c.v.V . . 4 g C s s             ",
"            { @ @ b W P . . m s.s.g.c.c.c.c.c.c.c.c.c.c.c.g.s.s.M . . 4 g N 8.8.8.          ",
"    0.0.^.#XT.g g I W P . . k W W d.c.c.c.c.c.c.c.c.c.c.c.d.W W z . . 4 g o.@X@XU.q.0.      ",
"    0.0.^.#XT.g g I W P . . k W W d.c.c.c.c.c.c.c.c.c.c.c.d.W W z . . 4 g o.@X@XU.q.0.      ",
"p R.*X*X;X:XW.g g I W Y v v 8 1 7 Q t.i.c.c.c.c.c.c.c.c.c.d.W W z . . 4 g o.:X:X*X*X@X .|   ",
"s R.1X1X1X1XoXg g I W W W e.9 . o I T t.c.c.c.c.c.c.c.c.c.g.e.W z . . 4 g :.,X,X1X1X-X .| | ",
"s R.-X-X;X:XW.g g Z E E W W 9 . o Z Y r.d.d.g.c.c.c.c.g.d.f.U P 8 o o 4 g o.;X;X-X-X#X .|   ",
"     . .q.I.+.g g g g l W W 9 . . 5 g b W W s.c.c.c.c.t.W U @ . # 5 5 g g L I.I.1. . .      ",
"    | | 5.0.+.g 5 g g l W W 9 . . 5 g b W W s.c.c.c.c.t.T I o . # g g g 6 C 0.0.<.s |       ",
"    | | <.1.>.(.(.K g g b b 8 < < < < 4 b b t.i.i.i.i.e.W I o . # g k -.'.-.1.1. .          ",
"        ) s ,.|.|.&.5 g g g g g 5 o . @ g g I T T T T W W I o . # g z }..X{.| )             ",
"        | s ,. X X&.j j h h h g 5 o . % 5 5 I W W W W W W I o . 3 j m [. X].| |             ",
"              r r Z.J.H.( / N g g 5 5 3 o o b W W W W W W I o . ' J.J.N r y                 ",
"              . . A.K.L._ s w 6 5 5 g 1 . . b W W W W W W I o . ] K.K.e . .                 ",
"              . . C.A.Z.4.4.] ` ` ` h.C . . x I I W W W W I o . ^ A.Z.e .                   ",
"                  . . : !.~.P.K.K.K.K.Z.. . 4 g l W W W W I o . . . .                       ",
"                  . . : !.~.P.K.K.K.K.Z.. . 4 g l W W W T I o . . . .                       ",
"                  . . = 1.4.] ` ` ` h.J 2 2 % @ 1 n n n n l o . . . .                       ",
"                  . . + p s w 6 5 5 5 g g g o . o g g g g 5 . . . . .                       ",
"                  @ @ = [ } N g g l l l l l 1 @ # 4 4 4 4 4 % $ $ $ $                       ",
"              . . v Y E Q Q b g g Y W E E E Y Y b . . . . @ I Y Y Y I % . .                 ",
"              . . v R R W W b 5 g E W W W W W W Z . . . . o Y T R R Y @ . .                 ",
"              . . B.&XV.z 8 x b Z E W W W W W W I 8 8 8 8 k ~ { N.XXXX%.t t                 ",
"              . . OX2X<XO . k W W W W W W W W W W W W W T Q } s +X2X2X_.=.@.. .             ",
"              . . OX3X<X= . k W W W W W W W W W W W W W T Q / p E.3X4X`.*.$.X X             ",
"              . . - u u a a L T W W W W W W W W W W W W W U = + #.).).%X>X+Xa a ; . .       ",
"              . . . . + p f ~ T T T T T T T T T T T T T T I o . t =.*.=X1X#X| | ; . .       ",
"              . . . . + [ X.O.! ! ! ! ! ! ! ! ! ! ! ! ! ! L & @ y @.$.=X1X#X| | ; . .       ",
"                  . . & a.c.X.f | | | | | | | | | | | | | / h g 1 . O $X1X#X| | ; . .       ",
"                  . . & a.c.X.f | | | | | | | | | | | | | / h g 1 . O $X1X#X| | ; . .       ",
"                  . . % r.r.u.j.j.j.j.j.j.j.j.j.j.j.j.j.j.x.U I l 2 2 { ;.d ; ; +           ",
"                  . . $ Y T i.c.c.c.c.c.c.c.c.c.c.c.c.c.c.g.e.W Z g g o . . . .             ",
"                  . . $ P P t.d.d.c.c.c.c.c.c.c.c.c.c.c.c.d.W W b 4 4 o . . . .             ",
"                        o . z e.e.d.c.c.c.c.c.c.c.c.c.c.c.d.W W z . .                       ",
"                        . . k e.e.g.c.c.c.c.c.c.c.c.c.c.v.g.e.e.z . .                       ",
"                        . . 1 k k M B B B B B B B B B B B M k 8 7 .                         ",
"                        . . . . . . . . . . . . . . . . . . . . .                           ",
"                        X X X X X . . . . . . . . . . . . . . . .                           ",
"                  . . = 2.2.2.2.2.i q > . .                                                 ",
"                  . . = 5.0.0.0.q.d i , . .                                                 ",
"                  . . = 3.4.4.4.3.i , > . .                                                 ",
"                  . . + p | | | p + . .                                                     ",
"                  . . + p | | | p + . .                                                     ",
"                        ; ; ; ; ;                                                           ",
"                        . . . . .                                                           ",
"                        . . . . .                                                           ",
"                                                                                            ",
"                                                                                            "
};
