/* XPM */
static char *ink_back__284_29[] = {
/* columns rows colors chars-per-pixel */
"46 64 209 2 ",
"   c None",
".  c #000001",
"X  c #0C0606",
"o  c #020A04",
"O  c #0D0B04",
"+  c #03060C",
"@  c #130C0A",
"#  c #160C09",
"$  c #031306",
"%  c #051B0A",
"&  c #061707",
"*  c #1A1706",
"=  c #1A1514",
"-  c #23160C",
";  c #341C0E",
":  c #331C14",
">  c #062107",
",  c #062409",
"<  c #092C09",
"1  c #0B2709",
"2  c #0A360B",
"3  c #0B3D0C",
"4  c #15360E",
"5  c #083C14",
"6  c #073D15",
"7  c #182003",
"8  c #292A01",
"9  c #3A2315",
"0  c #343212",
"q  c #2A2E2B",
"w  c #4E2C16",
"e  c #45261E",
"r  c #49271E",
"t  c #502C19",
"y  c #543018",
"u  c #563E1B",
"i  c #423D12",
"p  c #6A3B1C",
"a  c #723F1E",
"s  c #4A2920",
"d  c #512D20",
"f  c #563A20",
"g  c #753E20",
"h  c #0D420D",
"j  c #0B480F",
"k  c #154A0E",
"l  c #0C4413",
"z  c #0E4D12",
"x  c #094B19",
"c  c #124B11",
"v  c #1E4D14",
"b  c #0E5416",
"n  c #0C551A",
"m  c #0E5C1A",
"M  c #165312",
"N  c #145E1A",
"B  c #195B15",
"V  c #284C16",
"C  c #215516",
"Z  c #30490E",
"A  c #0F651E",
"S  c #1D6016",
"D  c #1D6B1B",
"F  c #286A1A",
"G  c #27721B",
"H  c #2B741C",
"J  c #2B7B1D",
"K  c #0C5827",
"L  c #0A5737",
"P  c #3B5A25",
"I  c #315E38",
"U  c #0D6522",
"Y  c #0E6B23",
"T  c #0E7326",
"R  c #0E7B29",
"E  c #0D7927",
"W  c #107325",
"Q  c #117B29",
"!  c #1A7725",
"~  c #1E6C26",
"^  c #217228",
"/  c #316E2A",
"(  c #575701",
")  c #414217",
"_  c #464601",
"`  c #73401E",
"'  c #79441F",
"]  c #67441E",
"[  c #564523",
"{  c #425E24",
"}  c #4A5727",
"|  c #474E23",
" . c #624B22",
".. c #6D4825",
"X. c #744221",
"o. c #7C4B25",
"O. c #794827",
"+. c #6D522C",
"@. c #72532E",
"#. c #745927",
"$. c #7A5333",
"%. c #7D4E30",
"&. c #48662E",
"*. c #4B6B39",
"=. c #447B31",
"-. c #4F7230",
";. c #636023",
":. c #786730",
">. c #5F7105",
",. c #1F364C",
"<. c #394050",
"1. c #2D4E6E",
"2. c #076B60",
"3. c #4A4D57",
"4. c #695E4E",
"5. c #615849",
"6. c #53675B",
"7. c #53706E",
"8. c #855F36",
"9. c #895B33",
"0. c #83542A",
"q. c #886535",
"w. c #966B38",
"e. c #9C733D",
"r. c #A2793E",
"t. c #926643",
"y. c #9F7551",
"u. c #8B684F",
"i. c #A57B41",
"p. c #AA7F44",
"a. c #A07652",
"s. c #1A8429",
"d. c #0F802B",
"f. c #228B29",
"g. c #278C28",
"h. c #368B23",
"j. c #358521",
"k. c #3A9525",
"l. c #3D9B27",
"z. c #3D9F28",
"x. c #359627",
"c. c #2C9229",
"v. c #3DA229",
"b. c #548911",
"n. c #77BB1E",
"m. c #41A429",
"M. c #43A92A",
"N. c #47862D",
"B. c #7DC21D",
"V. c #70B364",
"C. c #919100",
"Z. c #8D870A",
"A. c #A48215",
"S. c #B6B600",
"D. c #AEA809",
"F. c #AB853D",
"G. c #A58233",
"H. c #B28F37",
"J. c #B69338",
"K. c #B6A838",
"L. c #C2A72C",
"P. c #A1D214",
"I. c #BCD718",
"U. c #D5D305",
"Y. c #E5D712",
"T. c #C0E10E",
"R. c #DBE402",
"E. c #E8E800",
"W. c #F1EB0A",
"Q. c #FFFF00",
"!. c #F7F504",
"~. c #FDF110",
"^. c #B48B4F",
"/. c #ABAB43",
"(. c #9E9467",
"). c #BC9865",
"_. c #AE8662",
"`. c #9C9262",
"'. c #C8984B",
"]. c #D0A046",
"[. c #E5B152",
"{. c #C29E6A",
"}. c #CBA97B",
"|. c #81DD7E",
" X c #55728E",
".X c #039ABE",
"XX c #2096BA",
"oX c #7EAE85",
"OX c #0E9CCB",
"+X c #00B8FB",
"@X c #02B2EF",
"#X c #959596",
"$X c #84A981",
"%X c #BDB98D",
"&X c #A5A4A5",
"*X c #D5B48C",
"=X c #D7BD96",
"-X c #8AC297",
";X c #83E282",
":X c #E3C59C",
">X c #D8C3A1",
",X c #EACEA6",
"<X c #FEE5BC",
"1X c #FFE8BF",
"2X c #FFE9C0",
"3X c #E4E0DE",
"4X c #FBFCFD",
"5X c #F1E8E5",
"6X c #DCD6D0",
/* pixels */
"                                    . . q.i.i.i.i.i.i.e.X.X.                                ",
"                                    O # q.F.F.F.F.F.F.r.o.o.o.                              ",
"                              . . [ ^.^.Y.W.W.W.W.W.W.Y.].].^.i.i.                          ",
"                              . .  .[.[.~.Q.Q.Q.Q.Q.Q.~.[.[.'.i.i.                          ",
"                              4 4 ;././.I.T.T.T.T.T.T.I././.K.L.L.                          ",
"                        . . $ k.m.m.m.m.m.m.m.m.v.m.m.m.m.v.P.Q.!.H.i.i.                    ",
"                        . . & k.m.m.m.m.m.m.m.m.m.m.m.m.m.v.P.Q.!.H.i.i.                    ",
"                    . . v H H S S S S S S S S S S S S S S B b.B.n.N./ &.X.X.                ",
"                    . . F M.z.c 3 3 3 3 3 3 3 3 3 3 3 3 3 3 G v.v.s.R / X.X.                ",
"                    $ $ C k.h.B M M M M M M M M M M M M M M G k.k.Q R / o.o.                ",
"              . . % T T N h M k.z.z.z.z.z.z.z.z.z.z.z.z.z.v.G h c W R =.r.r.                ",
"              . . % Q Q m 3 c l.m.m.m.m.m.m.m.m.m.m.m.m.m.m.G h h W R =.i.i.                ",
"              . . $ m m D G J z.m.m.m.m.m.m.m.m.m.m.m.m.m.m.G h h W R =.i.i.                ",
"              . . o 3 3 J M.m.m.m.m.m.m.m.m.m.m.m.m.m.m.m.m.G h h W R =.i.i.                ",
"              o . $ h h J z.z.m.m.m.m.m.m.m.m.m.m.m.m.m.m.m.H h c W E =.e.e.                ",
"    i.i.).*X*XP 2 l T T N M B z.m.m.m.m.m.m.m.m.m.m.m.m.m.m.z.k.h.M z c V V (.*X}.i.i.      ",
"    r.r.^.*X*X&.h z Q Q m 3 c l.m.m.m.m.m.m.m.m.m.m.m.m.m.m.m.M.v.M 3 h h h (.*X}.i.r.      ",
"    ).{.}.:X:X&.3 z Q Q A b N z.m.m.m.m.m.m.m.m.m.m.m.m.m.m.h.H F N b z h h (.:X=X{.{.^.    ",
"` %.,X2X1X1X<X*.3 z Q Q Q Q s.v.m.m.m.m.m.m.m.m.m.m.m.m.m.m.C . o U Q A h h %X2X1X1X2X_.a X.",
"` %.,X1X1X1X<X*.3 z R R Q Q s.v.m.m.m.m.m.m.m.m.m.m.m.m.m.m.C . o U Q A h h %X2X1X1X2X_.a X.",
"    y.y._.{.).P h h b b Y Q Q s.s.c.m.m.m.m.m.m.m.m.m.z.f.f.l . o l b z h h `.{.).a.y.t.    ",
"    a a 0.r.r.Z h h h h A Q Q R R g.m.m.m.m.m.m.m.m.m.z.Q R 6 . o 2 h h h h :.i.e.` a       ",
"    X.` 0.e.e.I L K h h n U Y Q R f.z.z.v.m.m.m.m.z.z.x.W W 5 . o 3 h x L L :.e.w.X.X.      ",
"          X.X.XX+X.Xl h % o $ Y Q Q Q Q z.m.m.m.m.f.Q W z h > . o 2 h 2.@X@X6.' X.          ",
"          X.X.OX+XOXl h % . o Y Q Q Q Q z.m.m.m.m.f.R T h h > . . 3 h 2.+X+X6.` X.          ",
"          9 9 V.;XV.) ) * . o n m Y Q Q f.c.g.g.g.s.Q Y , > > > 1 0 i -.|.|.} ; 9           ",
"          . . S.Q.Y.' X.; . o 3 h m Q Q R R R R R Q Q U o . > h k ] g A.Q.Q._ . .           ",
"          . . S.!.U.o.X.9 O & 3 3 n Q E Q Q Q Q Q Q Q U o . 1 v v ] X.A.!.E._ . .           ",
"              8 8 i e.e.D.U.S.7 o , z z T Q Q Q Q Q R U o . >.R.U.G.e.#.8 8                 ",
"              . . - i.i.Y.Q.E.* . % h h Y Q Q Q Q Q R Y o . Z.Q.Q.J.p.+.. .                 ",
"              . . - +.+.Z.S.D.( ( Z < 2 Y Q Q Q Q Y Y m o . ( S.D.#.@.f . .                 ",
"                    . . . . * E.Q.C.. o U Q Q Q Q b h 2 o . . . . . . .                     ",
"                    . . . . * E.Q.C.. o U Q Q Q Q b h 2 o . . . . . . .                     ",
"                        . . O >.b.Z . . l b b b b < $ % < < l n x o . .                     ",
"                        . . o 2 h > . . 2 h h h h $ . o 3 h A d.T $ . .                     ",
"                        $ $ % 3 h < o o < 3 2 2 2 > $ % z z N ^ ~ , $ $                     ",
"                    . . x E Y l h h 3 3 $ . o o . x T T W E P X. .~ T x . .                 ",
"                    . . x E T j h h h 3 o . . . . n Q Q Q R { g ..~ E x . .                 ",
"                    . . 6.-XoX| ) V m m l 6 6 6 6 U Q Q Q R { a O.$X-X7.. .                 ",
"                    . . #X4X5X9.a } R Q Q Q Q Q Q Q Q Q Q R { a %.5X4X&X. .                 ",
"                    . . #X4X3X$.p } Q Q Q Q Q Q Q Q Q Q Q Q { X.@.6X4X&X. .                 ",
"              . . @ 9 9 3. X7.= O 9  . . . . . . . . . . . .{ ^ ~ q q q                     ",
"              . . X e r <.1.1.+ . ; g g g g g g g X.X.X.X.X.{ R T $ . .                     ",
"              - - 9 u.u.3.,.,.% $ 0 ;.;.;.;.;.;.;.u w w w w P s.! $ . .                     ",
"          . . y ` t.<X2X4.. o 3 h F m.m.m.m.m.m.m.4 . . . . C M.l.& . .                     ",
"          . . y ` t.<X2X4.. o 3 h F m.m.m.m.m.m.m.4 . . . . C M.l.& . .                     ",
"          . . y ` t.<X2X4.. o m Y f.m.m.m.m.j.4 4 [ @.+.t w Z S B o . .                     ",
"          . . y ` t.<X2X4.. o T R g.m.m.m.M.H . . +.^.r.X.X.) h 3 o . .                     ",
"          . . w p $.=X>X5.. o K U ! h.h.h.h.F O X @.i.e.o.o.) 2 2 o . .                     ",
"              . . X @ @       o o o o o o o # e e 8.i.i.r.i.f . o                           ",
"              . . . . .       . . . . . . . # s s 8.i.i.i.i.f . .                           ",
"                . . . .         . . . . . . # s s 8.i.i.i.i.+.; ; O                         ",
"                                        . . # s s 8.i.i.i.i.9.X.a O . .                     ",
"                                        . . # e e 8.i.i.i.i.9.a p O . .                     ",
"                                              X X @.i.i.i.i.$.t r X . .                     ",
"                                              . . +.p.i.i.i.$.r e X . .                     ",
"                                              . . [ q.q.w.w...s e X . .                     ",
"                                              . . : s d X.X.f s e X . .                     ",
"                                              . . : s d X.X.f s e X . .                     ",
"                                              . . @ # # - - * # #                           ",
"                                              . . . . . . . . . .                           ",
"                                              . . . . . . . . . .                           ",
"                                                                                            ",
"                                                                                            "
};
