/* XPM */
static char *ink_back__289_29[] = {
/* columns rows colors chars-per-pixel */
"46 64 206 2 ",
"   c None",
".  c #000101",
"X  c #020D04",
"o  c #0D0706",
"O  c #130E0A",
"+  c #140B07",
"@  c #041305",
"#  c #051B06",
"$  c #061909",
"%  c #18140A",
"&  c #0D161F",
"*  c #22130B",
"=  c #25190D",
"-  c #291712",
";  c #351D16",
":  c #062107",
">  c #072509",
",  c #092C09",
"<  c #07290B",
"1  c #132B0C",
"2  c #0A340B",
"3  c #0B3D0B",
"4  c #0B3F07",
"5  c #11340B",
"6  c #083C14",
"7  c #073D15",
"8  c #132516",
"9  c #25210F",
"0  c #2D3F05",
"q  c #3A2516",
"w  c #31320A",
"e  c #0E1925",
"r  c #1A2837",
"t  c #353636",
"y  c #252625",
"u  c #472816",
"i  c #4A371B",
"p  c #5A391A",
"a  c #522E1B",
"s  c #60361B",
"d  c #683D1D",
"f  c #723E1D",
"g  c #4B2920",
"h  c #5D3825",
"j  c #693C20",
"k  c #753E20",
"l  c #0D430D",
"z  c #11460E",
"x  c #10490F",
"c  c #19430F",
"v  c #0B4413",
"b  c #0E4D12",
"n  c #094819",
"m  c #144A11",
"M  c #0E5517",
"N  c #0E5C1A",
"B  c #175415",
"V  c #215415",
"C  c #28581B",
"Z  c #37521B",
"A  c #0F621C",
"S  c #1F6C1B",
"D  c #28641A",
"F  c #26721B",
"G  c #28741B",
"H  c #2E7B1D",
"J  c #31711E",
"K  c #385F24",
"L  c #0D6522",
"P  c #0F6C22",
"I  c #166A22",
"U  c #0F7225",
"Y  c #0E7C29",
"T  c #0F7628",
"R  c #107425",
"E  c #1B7528",
"W  c #107C29",
"Q  c #127927",
"!  c #1C7D33",
"~  c #2F6926",
"^  c #346726",
"/  c #3B712C",
"(  c #0B5738",
")  c #494A04",
"_  c #535201",
"`  c #514A10",
"'  c #65431D",
"]  c #73411F",
"[  c #6D5814",
"{  c #515624",
"}  c #475C25",
"|  c #694721",
" . c #654725",
".. c #734120",
"X. c #794824",
"o. c #7C4C2A",
"O. c #774D2B",
"+. c #7E542B",
"@. c #44642A",
"#. c #4B6B39",
"$. c #447B32",
"%. c #467621",
"&. c #766931",
"*. c #7E7038",
"=. c #253546",
"-. c #1F354B",
";. c #315374",
":. c #086F68",
">. c #1E7267",
",. c #53625B",
"<. c #736F55",
"1. c #695845",
"2. c #9E7D1F",
"3. c #86572D",
"4. c #8C5E31",
"5. c #805F34",
"6. c #976A36",
"7. c #9E753E",
"8. c #907036",
"9. c #8A6B34",
"0. c #A0783F",
"q. c #9F7541",
"w. c #A47B41",
"e. c #A87D43",
"r. c #877A6D",
"t. c #14812A",
"y. c #1A8329",
"u. c #188232",
"i. c #248B29",
"p. c #24892A",
"a. c #328521",
"s. c #338923",
"d. c #2B9129",
"f. c #399424",
"g. c #3C9A26",
"h. c #3B9D29",
"j. c #349828",
"k. c #3EA329",
"l. c #518426",
"z. c #4A8927",
"x. c #41A429",
"c. c #43A92A",
"v. c #4AA927",
"b. c #71A735",
"n. c #76B428",
"m. c #7BC01D",
"M. c #848400",
"N. c #A7910F",
"B. c #AEAE00",
"V. c #B0B100",
"C. c #91872B",
"Z. c #B29331",
"A. c #A6BB23",
"S. c #C0BE00",
"D. c #C3A72B",
"F. c #A3CB1B",
"G. c #E4D60F",
"H. c #E2E200",
"J. c #FFFE01",
"K. c #FAF20D",
"L. c #F9EE11",
"P. c #E1F107",
"I. c #F2DD22",
"U. c #D6F52B",
"Y. c #D8E70B",
"T. c #AA8148",
"R. c #A7865C",
"E. c #B6905C",
"W. c #9B8F6F",
"Q. c #B08C71",
"!. c #B1AC7D",
"~. c #C19349",
"^. c #DCAA52",
"/. c #DFAF4F",
"(. c #E1B44A",
"). c #E2AF54",
"_. c #CAA87B",
"`. c #077F87",
"'. c #04808A",
"]. c #10A2BD",
"[. c #289CB8",
"{. c #1E9BC8",
"}. c #02A1CD",
"|. c #05BDFA",
" X c #10BDEE",
".X c #07C1FB",
"XX c #A19E91",
"oX c #BBAF8C",
"OX c #AFAFAF",
"+X c #D4B48A",
"@X c #D9B78E",
"#X c #D1B089",
"$X c #C0BAA9",
"%X c #E5C799",
"&X c #DAC4A1",
"*X c #E8CBA3",
"=X c #EFD3A9",
"-X c #EED2A6",
";X c #F4D7AE",
":X c #FFE7BE",
">X c #B3BDC7",
",X c #C5D3D2",
"<X c #D5E8DB",
"1X c #FFEBC2",
"2X c #FFF0C6",
"3X c #FCFCFC",
/* pixels */
"                                                                                            ",
"                                                                                            ",
"                                    . . 5.e.w.w.w.w.e.7.....                                ",
"                                    . . 5.w.w.w.w.w.w.7...f                                 ",
"                                  q i i Z.D.D.D.D.D.D.Z.6.6.6.                              ",
"                              . .  .).).L.J.J.J.J.J.J.K.).^.~.w.w.                          ",
"                              . .  .)./.L.J.J.J.J.J.J.K.).^.~.w.w.                          ",
"                          . @ D G z.b.b.n.m.m.m.m.m.m.n.b.b.A.G.G.Z.w.                      ",
"                        . . @ g.c.x.k.k.k.k.k.k.k.k.k.k.k.k.F.J.J.Z.w.w.                    ",
"                        $ # 1 a.f.f.f.f.f.f.f.f.f.f.f.f.f.f.F.P.Y.C.8.8.                    ",
"                    . . C h.f.B l z z z z z z z x z z z z l H v.v.p.W ^ ....                ",
"                    . . D c.g.x 3 l l l l l l l l l l l l 3 F c.k.t.Y ^ ....                ",
"                . X : : B F F G G G G G G G G G G G G G G G F F F Q Y / 4.4.                ",
"              . . X l l l 3 m g.x.x.x.x.x.x.x.x.x.x.x.x.x.c.F 3 l U Y $.e.e.                ",
"              . . X l l l x B g.x.x.x.x.x.x.x.x.x.x.x.x.x.x.F l l R Y $.w.w.                ",
"              . . X l l F f.f.x.x.x.x.x.x.x.x.x.x.x.x.x.x.x.F l l R Y $.w.w.                ",
"              . . X 3 l H c.x.x.x.x.x.x.x.x.x.x.x.x.x.x.x.c.F 3 l R Y $.e.e.                ",
"              8 @ > M M F a.s.k.x.x.x.x.x.x.x.x.x.x.x.h.a.a.S M M A P ^ &.&.R.              ",
"    w.w.E.+X+X@.3 b W W N l m g.x.x.x.x.x.x.x.x.x.x.x.f.x l N W Q b l l l l W.@X_.e.e.      ",
"    w.w.E.+X+X@.3 b W W N l m g.x.x.x.x.x.x.x.x.x.x.x.f.x l N W Q b l l l l W.@X_.e.w.      ",
"] o.@X%X%X;X=X#.3 b W W U P P y.y.d.x.x.x.x.x.x.x.x.x.g.P P R W W P P N l l oX;X=X%X%XR.f ..",
"] o.=X1X1X:X:X#.3 b W W W W W Y Y i.x.x.x.x.x.x.x.x.x.h.W W W W W W W P l l oX1X1X1X1XR.f ..",
"] o.@X*X*X=X-X#.3 b U R P L P W Y i.x.x.x.x.x.x.x.x.x.h.W W U L P R R A l l !.;X-X*X*XR.f ..",
"    o.o.4.T.T.Z l l l l : . @ P Y i.x.x.x.x.x.x.x.x.x.h.W W v . X 3 l l l l *.T.q.o.o.      ",
"    ..f 3.e.w.Z l l l l # . X P Y i.x.x.x.x.x.x.x.x.x.h.W W 7 . . 2 l l l l &.e.6.....      ",
"        3.4.4.>.'.:.v l # . X P W y.d.d.k.x.x.x.x.j.d.i.W W 7 . . 2 l ( `.`.1.4.3.....      ",
"          ] ..{..X}.v l # . X P W W Y W j.x.x.x.x.p.Y Y W W 7 . . 2 4 :.|.|.,.f ]           ",
"          d j [..X].m z $ . X P W W W W j.k.k.k.k.p.Y W Q W 6 . . 5 z :..X X,.f d           ",
"          + + A.U.F.' ' = . X v b A W W t.y.y.y.y.W W R b b > . . p d C.U.U.` o +           ",
"          . . S.J.G.] ] - . . 3 l N W W W Y Y Y Y W W R l l # . . s k N.J.J.) . .           ",
"          . . M.V.N.6.6.[ _ ) 5 , v P P Q W W W W P P N 2 , 0 _ _ 4.6.2.B.B.0 . .           ",
"              . . q ^.^.I.J.H.% . # l l P W W W W M l 2 . . M.J.J.(.).8.. .                 ",
"              . . q ^.^.I.J.H.% . # l l U W W W W M l 2 . . M.J.J.(.).8.. .                 ",
"                    i i ` _ ) 5 , : @ # L W W W W 6 @ # , , 0 _ _ i i q                     ",
"                    . . . . . 3 l > . . L W W W W < . X 3 l # . . . . .                     ",
"                    . . X @ $ 3 l > . . N R U U R < . X 3 l : . . . . .                     ",
"                    . . v T P l l > . . 3 l l l l # . X 3 l : . .                           ",
"                    . . n t.T l l > . . 2 l l l l @ . X 3 l # . .                           ",
"                  @ 7 7 C } K N A v : : : : : : : : : > l l 6 7 6 @ .                       ",
"              . . $ Y Y } k | E Y A l l X . . . . , l l l l A W T @ . .                     ",
"              . . $ ! u.{ k | E Y A l l @ . . . . 2 v l z z I u.! @ . .                     ",
"              . . t <X<XW.f | E Y Q U U P L L L L P U I ' s W.<X,Xy . .                     ",
"              . . t 3X3XQ.f | E Y Y Y Y Y Y Y Y Y Y Y E ..f oX3X3Xy . .                     ",
"              . . t OXOX<.{ { ^ ~ ~ ~ ~ ~ ~ ~ ~ ~ ~ ~ K a u r.,X>X=.e &                     ",
"                    . . n W E | ......................s . . r ;.;.;.;.=.. .                 ",
"                    . . n Y E | ......................s . . r ;.;.;.;.-.. .                 ",
"                    . . B j.s.9 * * * = %.l.l.l.l.l.l.%.2 , 8 e r XX$XW.u a % . .           ",
"                    . . D c.f.X . . . . a.c.x.x.x.x.x.f.x l : . O &X1X#X....* . .           ",
"                    . . V g.a.% + O % % J s.f.x.x.x.x.f.b b > . O &X1X#X] ..* . .           ",
"                    . . , x c d d +.7.8.9 . 5 x.x.x.x.h.Q W 6 . O &X1X#X] ..* . .           ",
"                    . . > l c ' f 3.e.7.= . 1 x.x.x.c.k.t.t.7 . O &X2X+X....* . .           ",
"                      . # : 1 +.4.6.e.7.q * 9 V V V V B v 7 < . O <.r.1.q q + .             ",
"                        . . + 8.e.e.w.w.h g ; . . . . . . .       . . . . .                 ",
"                        . . % 8.e.w.w.w.h g ; . . . . . . .       . . . . .                 ",
"                    . . q s d 7.w.w.w.w.h g ; . .                                           ",
"                    . . u ..X.7.w.w.w.w.h g ; . .                                           ",
"                    . . u ..X.7.w.w.w.0.i ; - . .                                           ",
"                    . . u ..X.7.w.w.w.7.= . .                                               ",
"                    . . u ..X.7.e.w.w.7.= . .                                               ",
"                    . . ; h h 3.3.O. . .O . .                                               ",
"                    . . - g g k ..j g u o . .                                               ",
"                    . . - q u p s a q q o . .                                               ",
"                        . . . . o . . .                                                     ",
"                        . . . . . . . .                                                     "
};
