/* XPM */
static char *ink_back__287_29[] = {
/* columns rows colors chars-per-pixel */
"46 64 214 2 ",
"   c None",
".  c #000001",
"X  c #090704",
"o  c #020B04",
"O  c #0D0E03",
"+  c #06070A",
"@  c #130A09",
"#  c #190E09",
"$  c #100F01",
"%  c #031305",
"&  c #031608",
"*  c #041A09",
"=  c #0B1D08",
"-  c #071D07",
";  c #1C1409",
":  c #101316",
">  c #23140B",
",  c #2F1B0E",
"<  c #231A0F",
"1  c #241910",
"2  c #062107",
"3  c #07260A",
"4  c #072B0C",
"5  c #092C09",
"6  c #0A2608",
"7  c #0A360B",
"8  c #0B3D0C",
"9  c #073E0D",
"0  c #083C15",
"q  c #173310",
"w  c #292D02",
"e  c #3B2614",
"r  c #2D3F10",
"t  c #182A34",
"y  c #353434",
"u  c #0F1824",
"i  c #4E2B15",
"p  c #472819",
"a  c #4B371B",
"s  c #69391C",
"d  c #713F1E",
"f  c #4A2920",
"g  c #543D27",
"h  c #633720",
"j  c #753F20",
"k  c #0D420D",
"l  c #12440E",
"z  c #10490F",
"x  c #0B4212",
"c  c #0D4B11",
"v  c #0B491B",
"b  c #094618",
"n  c #0E5215",
"m  c #0E5C19",
"M  c #0C551B",
"N  c #155312",
"B  c #165517",
"V  c #174B15",
"C  c #215515",
"Z  c #36521D",
"A  c #25440B",
"S  c #0F641E",
"D  c #196219",
"F  c #34620B",
"G  c #246719",
"H  c #26721B",
"J  c #2C7C1E",
"K  c #0E5E20",
"L  c #334F24",
"P  c #0D6522",
"I  c #0F6B22",
"U  c #1B6724",
"Y  c #0E7225",
"T  c #0E7A29",
"R  c #0D7927",
"E  c #107526",
"W  c #107B29",
"Q  c #187826",
"!  c #217828",
"~  c #474801",
"^  c #525200",
"/  c #535903",
"(  c #57451D",
")  c #48451C",
"_  c #63411D",
"`  c #74421F",
"'  c #60560D",
"]  c #415F27",
"[  c #535423",
"{  c #5A5A25",
"}  c #5E4731",
"|  c #654625",
" . c #744220",
".. c #7C4A27",
"X. c #6B5121",
"o. c #695328",
"O. c #775736",
"+. c #4A6A38",
"@. c #4D6E32",
"#. c #796C30",
"$. c #5E7306",
"%. c #20354B",
"&. c #364658",
"*. c #305274",
"=. c #2E4D6C",
"-. c #056C64",
";. c #226C4F",
":. c #54554C",
">. c #655548",
",. c #58674C",
"<. c #536360",
"1. c #6D675F",
"2. c #875735",
"3. c #83542B",
"4. c #856435",
"5. c #8A6737",
"6. c #956937",
"7. c #966937",
"8. c #9D763B",
"9. c #97782F",
"0. c #A3793F",
"q. c #AA783A",
"w. c #A47B41",
"e. c #A97F43",
"r. c #A77F4C",
"t. c #857964",
"y. c #9C724E",
"u. c #198329",
"i. c #0F802B",
"p. c #298F29",
"a. c #248928",
"s. c #388D23",
"d. c #2B9229",
"f. c #399424",
"g. c #3D9B27",
"h. c #3A9E29",
"j. c #339729",
"k. c #3EA229",
"l. c #63A61B",
"z. c #449E28",
"x. c #588E37",
"c. c #4BA927",
"v. c #41A529",
"b. c #43A92A",
"n. c #4AA62A",
"m. c #558823",
"M. c #58A16B",
"N. c #828602",
"B. c #849F07",
"V. c #A48415",
"C. c #85A007",
"Z. c #B7BC03",
"A. c #A5B805",
"S. c #B69436",
"D. c #AD9231",
"F. c #BEA02F",
"G. c #B2C204",
"H. c #A2D415",
"J. c #A9C80E",
"K. c #99CB17",
"L. c #CCCE02",
"P. c #D6D600",
"I. c #D9C71C",
"U. c #E3D714",
"Y. c #E0D507",
"T. c #DDEF07",
"R. c #DEF006",
"E. c #D9E314",
"W. c #FFFE00",
"Q. c #F7F507",
"!. c #FDF110",
"~. c #958F5F",
"^. c #B78944",
"/. c #B48D57",
"(. c #B48F4B",
"). c #9E9568",
"_. c #AE8762",
"`. c #B9936E",
"'. c #AB946C",
"]. c #C19245",
"[. c #C4AD49",
"{. c #DFAD53",
"}. c #E2B24D",
"|. c #E2AF54",
" X c #E7B253",
".X c #C29E70",
"XX c #CCAA7B",
"oX c #D1B07F",
"OX c #516D89",
"+X c #0281A7",
"@X c #228EA8",
"#X c #4CA587",
"$X c #748A9F",
"%X c #51D2AF",
"&X c #0E95CB",
"*X c #02A7D9",
"=X c #00BCFF",
"-X c #818182",
";X c #BDB98D",
":X c #D3B28A",
">X c #D7B589",
",X c #D8BB95",
"<X c #C8A580",
"1X c #E1BF97",
"2X c #CDBEB4",
"3X c #D9C7B0",
"4X c #EACDA5",
"5X c #FCE3BA",
"6X c #FCE3B9",
"7X c #D2D2D2",
"8X c #FFEAC1",
"9X c #FFF1C6",
"0X c #FFFFFF",
"qX c #F1F3F6",
/* pixels */
"                                                                                            ",
"                                                                                            ",
"                                                                                            ",
"                                                                                            ",
"                                                                                            ",
"                                    . X 4.w.w.w.w.w.w.8. . .                                ",
"                                    . X 4.w.w.w.w.w.w.8. . .                                ",
"                              . . g 8.8.I.U.U.U.U.U.U.I.].^.^.w.w.                          ",
"                              . . |  X X!.W.W.W.W.W.W.!.}.|.].w.w.                          ",
"                              = - { [.[.E.R.T.T.T.T.R.E.[.[.(.S.S.                          ",
"                        . . % s.g.z.n.n.c.c.c.c.c.c.c.c.n.n.H.W.Q.S.w.6. . .                ",
"                        . . o f.v.v.v.v.v.v.v.v.v.v.v.v.v.k.H.W.Q.S.w.6.d d                 ",
"                      . q C C H H H H H H H H H H H H H H H l.H.K.x.@.#.q.q.0.w.            ",
"                    . . G b.g.z 8 k k k k k k k k k k k k 8 H k.k.u.R x.|.{.^.w.w.          ",
"                    o o G k.f.N z z z z z z z z z z z z z k H k.g.u.T x.}.}.^.w.w.          ",
"              . . * P P m N B s.f.f.f.f.f.f.f.f.f.f.f.f.f.f.H N N E T l.!.!.S.w.w.          ",
"              . . * W W m 9 z g.v.v.v.v.v.v.v.v.v.v.v.v.v.v.H 8 k Y T l.W.W.F.w.w.          ",
"              . . & S I D D G g.v.v.v.v.v.v.v.v.v.v.v.v.v.v.H k k S P m.G.G.D.w.w.          ",
"              . . o k k J v.v.v.v.v.v.v.v.v.v.v.v.v.v.v.v.v.H k k k k k k k                 ",
"              . . o k k J v.v.v.v.v.v.v.v.v.v.v.v.v.v.v.v.v.H k k k k k k k                 ",
"    w.w./.>X:XL 5 8 I I D D G g.v.v.v.v.v.v.v.v.v.v.v.h.a.u.Q I S c k k k k ~.,XXXw.w.      ",
"    w.0./.>X:X] k n W W m 9 z g.v.v.v.v.v.v.v.v.v.v.v.h.W T W W W c k k k k ).>XXXw.0.      ",
"    /./..X,X,X+.9 c Y E m c B g.v.v.v.v.v.v.k.h.h.h.h.j.W W Y P P n c c k l ).1X:X/./.r.    ",
"` ..4X6X6X5X6X+.9 k k k S W W h.v.v.v.v.v.v.j.W W W W W W W x o o P W S k x ;X5X5X6X5X_.d  .",
"` ..4X8X8X5X5X+.9 k k k S W u.k.v.v.v.v.v.v.j.W W W W W W W 0 . o I W S k k ;X8X8X8X8X_.d  .",
"  .._.`..XoXoX] k 8 2 - M W W p.p.p.p.p.p.p.a.W W W W W W W 0 . o n S n k k ~.>XXX`.`.y.    ",
"    d d 3.w.0.Z k 7 . . v W W T T T T T T T T W W W W W W W 0 . o 7 k k k k #.w.7.` d       ",
"     .` 3.w.0.L v 0 . . b W W W W W W W W W W W W W E E R R 0 . o 7 k x v v #.w.7. . .      ",
"          ....@X*X+X+ . 5 c n E W W W W W W W W W m c x * & 3 7 7 k k -.*X*X,.....          ",
"           . .&X=X&X+ . 3 k c E W W W W W W W W W n k 7 . . 2 k k k k -.=X=X<.d  .          ",
"          i i #X%X#X1 > = 5 7 Y W W W W W W E I I x 5 5 % % 5 k k A r +.%X%X:.i i           ",
"          . . Z.W.Y.`  ., . o I W W W W W W I k k % . o 8 k k k l _ j V.W.W.~ . .           ",
"          . . Z.W.Y.`  ., . o I W W W W W W I k k % . o 8 k k k l _ j V.W.W.~ . .           ",
"              ~ ^ ' 6.7.e . o I W W W W m n x % % 3 5 A A.G.G.G.Z.9.6.#.^ ^ w               ",
"              . . < w.e.a . o I W W W W c k 5 . . 5 k F Q.W.W.W.W.S.e.o.. .                 ",
"              . . < 4.5.e . o P E Y E I x 7 5 o o A F $.L.P.P.P.L.9.5.| . .                 ",
"                    X X X . o 8 k k k k % . % 8 8 A.Q.L.; O $ $ O X X X                     ",
"                    . . . . o 8 k k k 8 o . % 8 9 G.W.P.$ . . . . . . .                     ",
"                    . . . . o 8 k k k k o . w B.C.N.N.$.6 2 % . . . .                       ",
"                    . . . . o 8 k k k k o . ~ W.W.^ . o 8 k 2 . .                           ",
"                    @ : + . o 7 8 8 8 8 % . ~ Q.Q./ . % 8 l 6 o o                           ",
"              . . y 7X7X:.. . o o o o o 5 7 N f.f.Q P U ( _ Z P P % . .                     ",
"              . . y 0X0X1.. . . . . . . 7 k n T T T T !  . .] R Y % . .                     ",
"              . . y 2X3X:.. . % % * 3 4 c n m W W W T U a i ,.M.M.t u u                     ",
"              . . # d  ., . o 8 k m W W W W W W W W W P o . -X0XqXOX*.%.. .                 ",
"              . . # d  ., . o 8 k m W W W W W W W W W P o . -X0XqXOX*.%.. .                 ",
"                    > > q M B ) ( ( [ [ [ [ [ [ [ [ [ ) X . &.$X$X>.} g i i ; . .           ",
"                    . . b i.Q | j j j j j j j j j j j s X . t *.=.| d d  . .> . .           ",
"                    % % M u.! o.X.X.X.X.X.X.X.X.X.X.X.( O o t =.&.O.2.3. .` > . .           ",
"              . . * Y Y p.k.k.z.z.z.z.z.z.z.z.z.z.z.z.s.l 8 2 + : ,X6X<X`  .> . .           ",
"              . . * W W d.b.v.b.b.b.b.v.v.v.v.v.v.v.v.f.l k 2 . @ 3X9X:X . .> . .           ",
"                . & 0 0 V C C C C C C C a.p.j.v.v.v.v.g.S m 4 . + 1.t.>.e e # .             ",
"                    . . . . . . . . . . P T u.v.v.v.v.h.W W 0 . . . . . . .                 ",
"                    . . X X X X X X X X K R Q g.g.g.g.j.E E 0 . . . . . . .                 ",
"                    . . a 5.4.4.4.4.4.4.< % * = = = = = & & %                               ",
"                    . . | ^.w.w.w.e.e.w.< . . . . . . . . .                                 ",
"                    @ @ | 7.7.7.7.4.O.o.; . . . . . . . . .                                 ",
"              . . @ p f h  . . . .p . .                                                     ",
"              . . @ p f h  . . . .p . .                                                     ",
"                    # # > > > > > ;                                                         ",
"                    . . . . . . . .                                                         ",
"                    . . . . . . .                                                           ",
"                                                                                            ",
"                                                                                            "
};
