/* XPM */
static char *ink_back__283_29[] = {
/* columns rows colors chars-per-pixel */
"46 64 209 2 ",
"   c None",
".  c #000001",
"X  c #0A0603",
"o  c #020A04",
"O  c #0C0B04",
"+  c #160C07",
"@  c #031406",
"#  c #061B06",
"$  c #091606",
"%  c #18150A",
"&  c #24140B",
"*  c #221A0E",
"=  c #2C190D",
"-  c #341C0E",
";  c #2D1914",
":  c #062107",
">  c #05240B",
",  c #062A0D",
"<  c #092C09",
"1  c #0C2408",
"2  c #0A350B",
"3  c #0B3D0C",
"4  c #06380D",
"5  c #15360E",
"6  c #073311",
"7  c #083C14",
"8  c #073B14",
"9  c #182003",
"0  c #292901",
"q  c #23200F",
"w  c #3A2111",
"e  c #39231C",
"r  c #3B3E14",
"t  c #39250F",
"y  c #152833",
"u  c #342E25",
"i  c #442713",
"p  c #4A281E",
"a  c #453C1A",
"s  c #5B361A",
"d  c #4B3413",
"f  c #6D3C1D",
"g  c #64391C",
"h  c #713E1D",
"j  c #4D2B21",
"k  c #533925",
"l  c #453C31",
"z  c #6D3E21",
"x  c #753E20",
"c  c #783F20",
"v  c #0D430D",
"b  c #13470E",
"n  c #0B4413",
"m  c #0E4C12",
"M  c #0A491A",
"N  c #084618",
"B  c #154A11",
"V  c #0E5416",
"C  c #0C531B",
"Z  c #0E5D1B",
"A  c #155312",
"S  c #185E18",
"D  c #264212",
"F  c #24521C",
"G  c #3A521B",
"H  c #2F4813",
"J  c #0F661F",
"K  c #0F681F",
"L  c #1D6016",
"P  c #15651D",
"I  c #27751C",
"U  c #326D18",
"Y  c #0A5737",
"T  c #0B522D",
"R  c #395C2D",
"E  c #0F6B22",
"W  c #0D6723",
"Q  c #126B22",
"!  c #0F7326",
"~  c #0E7B29",
"^  c #0B7A26",
"/  c #107325",
"(  c #117C29",
")  c #464601",
"_  c #4D471B",
"`  c #63431E",
"'  c #6C441F",
"]  c #73401F",
"[  c #7A471E",
"{  c #7E501F",
"}  c #577A09",
"|  c #7E7E00",
" . c #475B26",
".. c #5A5C26",
"X. c #624B22",
"o. c #744221",
"O. c #7A4925",
"+. c #7D4D2C",
"@. c #6B552A",
"#. c #77562B",
"$. c #7B583E",
"%. c #45612F",
"&. c #4B6B39",
"*. c #4D7B33",
"=. c #56772C",
"-. c #636023",
";. c #776F34",
":. c #2B3C4D",
">. c #096A5D",
",. c #375777",
"<. c #056C63",
"1. c #314457",
"2. c #554D40",
"3. c #6B4F46",
"4. c #55635D",
"5. c #5F5F60",
"6. c #797D76",
"7. c #84562C",
"8. c #8B5D30",
"9. c #956937",
"0. c #956B38",
"q. c #9D743D",
"w. c #957338",
"e. c #87713A",
"r. c #A2793F",
"t. c #A0773B",
"y. c #9F7551",
"u. c #946948",
"i. c #A57B41",
"p. c #AA7E44",
"a. c #A07652",
"s. c #158029",
"d. c #1B8529",
"f. c #238B29",
"g. c #2A8A26",
"h. c #368A23",
"j. c #348722",
"k. c #2B9229",
"l. c #3C9E28",
"z. c #379827",
"x. c #27813B",
"c. c #3DA029",
"v. c #5BA41C",
"b. c #4A8E27",
"n. c #79803A",
"m. c #41A429",
"M. c #42A82A",
"N. c #728C07",
"B. c #278A40",
"V. c #638055",
"C. c #70B364",
"Z. c #919308",
"A. c #A48215",
"S. c #89A407",
"D. c #B8B700",
"F. c #B2AC09",
"G. c #868C38",
"H. c #AB843D",
"J. c #A58233",
"K. c #B69338",
"L. c #B5CA21",
"P. c #D5D305",
"I. c #E1D310",
"U. c #C0E10E",
"Y. c #DBE302",
"T. c #EDED00",
"R. c #EBE406",
"E. c #F2EB0A",
"W. c #FFFF00",
"Q. c #F3F400",
"!. c #EACB2F",
"~. c #AC8143",
"^. c #AF8758",
"/. c #A7A745",
"(. c #9A9166",
"). c #AE8662",
"_. c #BC9865",
"`. c #B39373",
"'. c #A8A074",
"]. c #8F844F",
"[. c #DBA852",
"{. c #E1AB55",
"}. c #C29E6A",
"|. c #C8A67A",
" X c #81DD7E",
".X c #5A748E",
"XX c #039ABE",
"oX c #2096BA",
"OX c #0E9CCB",
"+X c #00B8FB",
"@X c #02B2EF",
"#X c #8E8E8E",
"$X c #84B890",
"%X c #BDB28F",
"&X c #B19A8C",
"*X c #CEAC86",
"=X c #D7B68D",
"-X c #D2B692",
";X c #83E282",
":X c #E3C59C",
">X c #DAC5A4",
",X c #E8CCA6",
"<X c #E1D1B3",
"1X c #FEE6BD",
"2X c #FFE8BF",
"3X c #DCE5DA",
"4X c #FFEBC1",
"5X c #FBFBFB",
"6X c #E8EFEA",
/* pixels */
"                                . X e.i.i.i.i.i.i.0.o.o.                                    ",
"                              X X + w.H.H.H.H.H.H.t.{ {                                     ",
"                          . . a 9.w.I.E.E.E.E.E.E.E.R.R.!.[.[.~.i.                          ",
"                          . . k p.H.E.W.W.W.W.W.W.W.W.W.!.{.[.~.i.i.                        ",
"                          , >  .G.G.L.U.U.U.U.U.U.U.U.U.L././.n.;.;.                        ",
"                    . . @ ! ~ k.m.m.c.m.m.m.m.m.m.m.m.m.m.m.c.s.~ *.i.i.                    ",
"                    . . @ ! ~ k.m.m.m.m.m.m.m.m.m.m.m.m.m.m.c.s.~ *.i.i.                    ",
"                    . . $ g.z.I S L L L L L L L L L L S L L S A V F G G ` o.o.              ",
"                    . . $ l.M.I 3 3 3 3 3 3 3 3 3 3 3 3 3 3 3 v v v v v ` x o.              ",
"                    o o 1 j.z.I A A A A A A A A A A A A A A A v v v m B X.O.O.              ",
"                . . < v v b v I c.l.l.l.l.l.l.l.l.l.l.l.l.l.z.B v Z ( ( e.i.r.              ",
"                . . < v v v 3 I m.m.m.m.m.m.m.m.m.m.m.m.m.m.l.B 3 Z ( ( e.p.i.              ",
"                . . < v v Z Z g.m.m.m.m.m.m.m.m.m.m.m.m.m.m.l.P Z Z Z Z  .....o.o.          ",
"                . . < v m ( ~ k.m.m.m.m.m.m.m.m.m.m.m.m.m.m.c.s.( K v v v v D ] o.          ",
"                . . < v m / ~ f.c.c.m.m.m.m.m.m.m.m.m.m.m.m.c.s.( K v v v v D O.O.          ",
"      i.i.|.=X(.2 2 Z / E m m P d.d.l.m.m.m.m.m.m.m.m.m.m.m.c.s.( / / ! m 3 R |.|.^.i.i.    ",
"      r.i.|.=X(.v v K ( / v v Z ~ ( l.m.m.m.m.m.m.m.m.m.m.m.c.s.( ( ( ( m 3 %.=X=X^.r.r.    ",
"    ^.}.}.=X:X'.v v K ( E 2 < V ( ( k.z.z.m.m.m.m.m.m.m.l.z.k.( ( E C C n 3 %.:X:X|.}._.    ",
"o.h ).4X1X1X4X%Xv v K ( E o . 7 ( ( ( ~ f.m.m.m.m.m.m.m.f.~ ( ( ( M . . 2 v &.1X1X1X2X,X+.] ",
"o.h ).2X1X1X4X%Xv v K ( E o . 7 ( ( ( ~ f.m.m.m.m.m.m.m.f.~ ( ( ( M . . 2 v &.1X1X1X2X,X+.] ",
"    u.y.a._.}.].v v m V n . . 7 ( ( ( ( ( d.f.z.m.m.m.m.f.~ ! 6 > , < < 3 v R _.}.^.y.y.    ",
"      h ] 0.i.;.v v v v 3 . . 7 ( ( ( ( ( ~ ~ z.m.m.m.m.f.~ E o . # v v v 3 G r.r.7.f h     ",
"      o.o.9.q.;.Y Y M v 2 . . 8 / / ( ( ( ( ( k.l.l.l.l.f.~ E o . # v v T Y R q.q.7.] o.    ",
"          o.[ 4.@X@X>.v 2 . . : v m / ( ( ( ( ( ( ( ( ( ( ( E o . # v n XX+XoXo.o.          ",
"          o.] 4.+X+X<.v 2 . . : v v / ( ( ( ( ( ( ( ( ( ( ( E o . # v N OX+XOXo.o.          ",
"          w -  . X X*.a r 1 : : : > V Z E ( ( ( ( ( ( ( E Z V o . % _ _ C.;XC.w w           ",
"          . . ) W.W.A.x ` b v : . . 2 v V ( ( ( ( ( ( ( Z v 3 . . - o.O.I.W.D.. .           ",
"          . . ) T.Q.A.o.' D B 1 . o 2 3 V ( ( ( ( ( ( ( Z 3 3 $ O w o.O.P.Q.D.. .           ",
"                0 0 #.q.J.P.Y.N.2 2 @ o 6 ( ( ( ( ( ( ( 8 . 9 D.P.F.q.0.d 0 0               ",
"                . . @.p.K.W.W.S.4 3 o . , ( ( ( ( ( ( ( 6 . % T.W.I.i.i.* . .               ",
"                . . k @.#.F.F.Z.} } $ . > E E / ( / E E , . + Z.D.Z.@.@.* . .               ",
"                    . . . . . | W.T.0 . @ v v E ( ! v v # . . . . . . .                     ",
"                    . . . . . | W.T.0 . @ v v E ( E v v # . . . . . . .                     ",
"                    . . . < < U v.v.P C 7 @ @ n V V v v # . X i d = . .                     ",
"                    . . o 3 v Z ~ ~ ( ( C . . < v v v v # . X g ] i . .                     ",
"                    . . o n m Z / / ( ( C @ @ < 2 2 2 2 : @ % $.u.k . .                     ",
"                    . . @ E ( Z v m / ( ( ~ ! > . . . . N ~ x.3X5X#X. .                     ",
"                    . . @ ! ^ Z v v ! ( ( ( ( > . . . . N ~ B.6X5X#X. .                     ",
"                    % & u $X$XV.r H S Z E ( ~ C 7 7 7 7 F  .%.6.#X5.                        ",
"                . . ; p 3.5X5X%Xh ] B v V ( ( ( ( ( ( ~  .o.f X . .                         ",
"                X X e k 3.6X5X&Xf f D v A ( ( ( ( ( ( (  .o.` O . .                         ",
"          . . % s s `.,X-X.X.X:.+ % s ` ` X.X.X.X.X.X.X.=.b.b.Q W N . .                     ",
"          . . & o.] *X4X<X,.,.y . X g o.x h h x h x x x =.M.c.s.( M . .                     ",
"          . . & o.] *X4X>X1.:.y @ $ ..-.@.@.-.-.-.-.-.@.b.m.c.s.( M . .                     ",
"          . . & o.] *X4X>X+ . : v b z.m.m.m.m.m.m.m.m.m.m.m.c.s.( M . .                     ",
"          . . & o.] *X4X>X+ . : v b z.m.m.m.m.m.m.m.m.m.m.m.c.s.( M . .                     ",
"              + & & l 2.l X . 6 E Q z.m.m.m.m.m.m.h.5 5 5 5 5 , , >                         ",
"                . . . . . . . 7 s.s.l.m.m.m.m.m.M.j.. . . . . . . .                         ",
"                . . . . . . . 8 E Q j.j.j.j.j.j.j.U % % + + + . . .                         ",
"                              . o o o o o o o o o q w.q.+.f g X . .                         ",
"                              . . . . . . . . . . * q.i.8.h g X . .                         ",
"                                . . . . . . . . . * q.i.9.8.7.i w =                         ",
"                                              . . * q.i.i.i.t.O.o.i . .                     ",
"                                              . . * q.i.i.i.q.O.o.i . .                     ",
"                                              . . * q.i.i.i.q.O.o.i . .                     ",
"                                              . . * q.i.i.i.t.O.o.i . .                     ",
"                                              . . % 9.9.9.9.9.z z w . .                     ",
"                                              . . + f o.o.o.z j j ; . .                     ",
"                                              . . + f o.o.o.z j j ; . .                     ",
"                                                    & & & & & % % +                         ",
"                                                    . . . . . . . .                         ",
"                                                    . . . . . . .                           ",
"                                                                                            ",
"                                                                                            "
};
