/* XPM */
static char *ink_back__281_29[] = {
/* columns rows colors chars-per-pixel */
"46 64 209 2 ",
"   c None",
".  c #000001",
"X  c #090604",
"o  c #020C04",
"O  c #0D0905",
"+  c #0E0C0A",
"@  c #160D09",
"#  c #041406",
"$  c #031608",
"%  c #041B0A",
"&  c #0C1D08",
"*  c #071A06",
"=  c #1B1605",
"-  c #171813",
";  c #0D151F",
":  c #24140B",
">  c #261B0E",
",  c #301B0E",
"<  c #281913",
"1  c #331C16",
"2  c #3C1F18",
"3  c #062409",
"4  c #092B09",
"5  c #08280A",
"6  c #0A350B",
"7  c #0B3E0C",
"8  c #063C0D",
"9  c #083D15",
"0  c #073412",
"q  c #17370C",
"w  c #2B2C01",
"e  c #3D221B",
"r  c #101B26",
"t  c #0D1823",
"y  c #142230",
"u  c #0D3C20",
"i  c #352B27",
"p  c #34302C",
"a  c #4D2B17",
"s  c #543018",
"d  c #61371B",
"f  c #693B1D",
"g  c #713E1D",
"h  c #4B2A21",
"j  c #512D20",
"k  c #413438",
"l  c #753F20",
"z  c #0D420D",
"x  c #11480F",
"c  c #1C490E",
"v  c #0E4D13",
"b  c #0C4A1A",
"n  c #0B4614",
"m  c #0E5315",
"M  c #0C541C",
"N  c #0E5C1A",
"B  c #145716",
"V  c #265519",
"C  c #304C12",
"Z  c #0F641E",
"A  c #37630B",
"S  c #266619",
"D  c #26721B",
"F  c #2E7E1E",
"G  c #185031",
"H  c #334F24",
"J  c #0D6622",
"K  c #0E6C23",
"L  c #0F7326",
"P  c #0E7A29",
"I  c #0F7628",
"U  c #107526",
"Y  c #127927",
"T  c #107B29",
"R  c #1B7629",
"E  c #1D772B",
"W  c #217C28",
"Q  c #474701",
"!  c #525200",
"~  c #575902",
"^  c #74411F",
"/  c #635515",
"(  c #466709",
")  c #777701",
"_  c #455B26",
"`  c #535423",
"'  c #5A5A25",
"]  c #5D4832",
"[  c #654823",
"{  c #744220",
"}  c #7C4B28",
"|  c #6B5121",
" . c #675327",
".. c #6E5034",
"X. c #42662A",
"o. c #4A6A38",
"O. c #796B33",
"+. c #013A4C",
"@. c #00415D",
"#. c #28435F",
"$. c #315273",
"%. c #434E5D",
"&. c #57544E",
"*. c #5A6559",
"=. c #536360",
"-. c #70625F",
";. c #807F00",
":. c #88592F",
">. c #8A6737",
",. c #976B38",
"<. c #9D733D",
"1. c #93632E",
"2. c #A2793F",
"3. c #906F50",
"4. c #A47B41",
"5. c #A77F4C",
"6. c #A77E59",
"7. c #14812A",
"8. c #1C8629",
"9. c #198332",
"0. c #298F29",
"q. c #238928",
"w. c #338A22",
"e. c #2A9129",
"r. c #399424",
"t. c #3E9B27",
"y. c #3A9E29",
"u. c #339729",
"i. c #3EA229",
"p. c #6BAA1A",
"a. c #449E28",
"s. c #4BA927",
"d. c #41A429",
"f. c #49A729",
"g. c #618E0F",
"h. c #818201",
"j. c #828B03",
"k. c #859905",
"l. c #A69E19",
"z. c #85A007",
"x. c #89A407",
"c. c #9FB405",
"v. c #BBBB00",
"b. c #ACAF0E",
"n. c #AF952D",
"m. c #BEA02F",
"M. c #DCBD2E",
"N. c #B2C304",
"B. c #A3D215",
"V. c #AFC104",
"C. c #C5C801",
"Z. c #DDCB1D",
"A. c #D6D005",
"S. c #E3D714",
"D. c #E7DB18",
"F. c #E0D507",
"G. c #DDEF07",
"H. c #D4E908",
"J. c #DEF006",
"K. c #D8E115",
"L. c #E9EC01",
"P. c #F2F401",
"I. c #F2F902",
"U. c #FFFF00",
"Y. c #FAF20C",
"T. c #F1ED10",
"R. c #E9D627",
"E. c #958F5F",
"W. c #AD8344",
"Q. c #BC8D43",
"!. c #B48D57",
"~. c #B6905C",
"^. c #9E8D68",
"/. c #AA8562",
"(. c #B48D68",
"). c #B9936D",
"_. c #B39875",
"`. c #A39B6F",
"'. c #C5974B",
"]. c #DDAA53",
"[. c #CDAE4B",
"{. c #E1B646",
"}. c #E5B153",
"|. c #C29E72",
" X c #CCAA7B",
".X c #D1B07F",
"XX c #1490AA",
"oX c #4DAA88",
"OX c #52D1AF",
"+X c #0E9DCC",
"@X c #02A7D9",
"#X c #00BBFF",
"$X c #B9B392",
"%X c #9B9CA1",
"&X c #99AFAF",
"*X c #D4B48B",
"=X c #D8B58A",
"-X c #DDBC93",
";X c #E1BF97",
":X c #B5C6B9",
">X c #D9C8BD",
",X c #EACDA5",
"<X c #FDE3BA",
"1X c #FCE3B9",
"2X c #BBC6D1",
"3X c #CFD4DA",
"4X c #D7E9DB",
"5X c #FFEAC1",
"6X c #FFFFFF",
/* pixels */
"                                                                                            ",
"                                                                                            ",
"                                                                                            ",
"                                                                                            ",
"                                                                                            ",
"                                    { { ,.4.4.4.4.4.4.<.{ {                                 ",
"                                    { { ,.4.4.4.4.4.4.<.{ {                                 ",
"                              . . [ Q.Q.Z.S.S.S.S.S.S.S.A.A.M.].].W.4.                      ",
"                              . . [ }.}.Y.U.U.U.U.U.U.U.U.U.R.].].W.4.4.                    ",
"                              & * ' [.[.K.J.G.G.G.G.G.G.G.J.R.{.{.Q.W.W.                    ",
"                        . . # w.t.a.f.f.s.s.s.s.s.s.s.s.s.f.B.U.Y.{.].'.4.4.                ",
"                        . . o r.d.d.d.d.d.d.d.d.d.d.d.d.d.i.B.U.U.{.].'.4.4.                ",
"                      . q V V D D D D D D D D D D D D D D D p.B.B.R.R.M.'.'.1.g             ",
"                    . . S f.t.x 7 z z z z z z z z z z z z 7 D i.s.J.U.T.].].1.g {           ",
"                    o . S i.r.B x x x x x x x x x x x x x z D t.f.H.I.D.}.}.1.{ {           ",
"              . . % J J N B B w.r.r.r.r.r.r.r.r.r.r.r.r.r.r.D B B w.w.p.Y.Y.n.<.<.          ",
"              . . % T T N 7 x t.d.d.d.d.d.d.d.d.d.d.d.d.d.d.D 7 z L P p.U.U.m.4.4.          ",
"              . . $ Z K N m N t.d.d.d.d.d.d.d.d.d.d.d.d.d.d.D z z Z J r.V.V.n.4.4.          ",
"              . . o z z Z T 7.i.d.d.d.d.d.d.d.d.d.d.d.d.d.d.D z z z z z z z                 ",
"              . . o z z Z T 7.i.d.d.d.d.d.d.d.d.d.d.d.d.d.d.D z z z z z z z                 ",
"    4.4.~.*X*XH 4 6 K K N m N 8.8.8.8.q.y.d.d.d.d.d.d.d.d.d.r.w.F 5 # 3 z z E.-X X4.4.      ",
"    4.2.~.*X*XX.z m T T N 7 z L P P P T y.d.d.d.d.d.d.d.d.d.d.d.t.* . # z z ^.=X X4.2.      ",
"    !.!.|.-X-XX.7 v T T N v v J J K T T u.y.y.y.y.i.d.d.d.d.i.y.r.* . # z z `.;X*X~.!.5.    ",
"^ } ,X1X1X<X1Xo.7 v T T T T K # . 9 T T T T T T T u.d.d.d.d.e.T U # . * z z $X<X<X1X<X/.g ^ ",
"^ } ,X5X5X<X<Xo.7 v T T T T K o . 0 T T T T T T T u.d.d.d.d.e.P L # . # z z $X5X5X5X5X/.g { ",
"  } (.).|..X.X_ 7 v T T T T L 4 3 4 9 9 M N Z T T q.e.0.0.e.8.T L # . # z z E.*X X).).3.    ",
"    g g :.2.2.H z v T T T T U v z 3 . . 6 z m T T P P P P P T T L # . # z z O.4.,.^ g       ",
"    { ^ :.2.<.H b M U U I T L x z 5 . . 6 7 v L L U Y T T T T Y K # . * b b O.4.,.{ {       ",
"          } } XX@XXXv v v v v z z 7 6 6 # o o $ $ 6 v m T T Z v x o . +.@X@X*.} }           ",
"          { { +X#X@Xn z z z z z z z z z o . . . . 4 z v T T N z 7 o . @.#X#X=.g {           ",
"          a a oXOXoXC C c z z z z z z z * # # # # 3 4 6 Z K m z 7 o . G OXOX&.a a           ",
"          . . v.U.F.^ { C z z z z z z z z z z z z # . o 7 z z z 7 o . ~ U.U.Q . .           ",
"          . . v.U.F.^ { C z z z z z z z z z z z z # . o 7 z z z 7 o . ~ U.U.Q . .           ",
"              Q ! / ,.,.l.N.c.c z z z z z z z z z 6 4 4 # # # # & [ ..| ! ! w               ",
"              . . > 4.4.Z.U.L.c 7 z z z z z z z z z z 6 . . . . X >.W. .. .                 ",
"              . . > >.>.b.A.C.( A A A A x z z z z V A A w w = . X ..>.[ . .                 ",
"                    X X O O w F.P.P.P.L.A 7 z z z c.I.P.P.I.) . . X X X                     ",
"                    . . . . = L.U.U.U.U.A 8 7 7 8 V.U.U.U.U.h.. . . . .                     ",
"                  $ 9 9 4 * q g.x.k.h.h.k.z.z.z.z.j.;.h.k.x.( * 3 9 9 0                     ",
"              . . % I T N z z z z 3 . X C.U.U.U.U.! . . 6 7 z z x L 7.M . .                 ",
"              . . & E 9.N 7 7 z z 4 . O C.I.I.I.I.~ . # z z z 7 z E 9.M X X                 ",
"    . . . . . 1 2 &.4X4X*.. # J U K J J w.r.r.r.r.R J K L U 9 o - :X4X&X#.#.; . . . .       ",
"    . . . . . 1 a -.6X6X-.. o K T T T T P P P P P P T T T T 9 . - 4X6X2X$.$.; . . . .       ",
"    : : : : : p k *.2X3X&.. o K T T T T T T T T T T T T T T 9 . + $X>X%X$.$.i : : : : @     ",
". X d { { { { %.$.$.$.$.y . o K T T T T T T T T T T T T T T 9 . X d { ] $.$.] ^ { { { , . . ",
". X d { { { { %.$.$.$.$.y . o K T T T T T T T T T T T T T T 9 . X d { ] $.$.] ^ { { { , . . ",
". X d ^ >.(.(.p t r r r u M M ` ` ` ` ` ` ` ` ` ` ` ` ` ` ` V M b > : - r r 3.).6.{ { , . . ",
". X d ^ 3.-X*Xi . . . . b 7.R [ l l l l l l l l l l l l l l _ P I o . . . . ^.-X|.} { , . . ",
". X s d .._._.i . . # # M 8.W  .| | | | | | | | | | | | | | X.7.Y 3 # o . . 3._./.d d , . . ",
"    X X X + + . . % U L 0.i.i.a.a.a.a.a.a.a.a.a.a.a.a.a.a.a.d.i.y.Y L b . . X + + X X       ",
"    . . . . . . . % T T e.d.d.d.d.d.d.d.d.d.d.d.d.d.d.d.d.d.d.d.i.8.7.M . . . . . . .       ",
"      . . . . . . o 9 9 R e.e.i.d.d.d.d.d.d.d.d.d.d.d.d.d.d.u.e.q.b 9 0 . . . . . . .       ",
"              . . . . . n P T i.d.d.d.d.d.d.d.d.d.d.d.d.d.d.0.P L # . .                     ",
"              . . . . . n I Y r.t.t.t.t.t.t.t.t.t.t.t.t.t.t.q.L K # . .                     ",
"              . . O e e - $ $ & & & & & & & & & & & & & & & * $ $ . . . . .                 ",
"              . . + h h @ . . . . . . . . . . . . . . . . . . . . . . . . .                 ",
"              . . O 1 1 @ . . . . . . . . . . . . . . . : : : : : @ @ O . .                 ",
"                    . . . . . . . .               . . @ f { { { l j h 1 . .                 ",
"                    . . . . . . . .               . . @ g { { { { j h 1 . .                 ",
"                                                        : : : : : @ @ @                     ",
"                                                        . . . . . . . .                     ",
"                                                        . . . . . . . .                     ",
"                                                                                            ",
"                                                                                            "
};
