/* XPM */
static char *ink_back__286_29[] = {
/* columns rows colors chars-per-pixel */
"46 64 216 2 ",
"   c None",
".  c #000001",
"X  c #090604",
"o  c #020C04",
"O  c #0E0D03",
"+  c #0D0C0B",
"@  c #030609",
"#  c #140B09",
"$  c #160D07",
"%  c #041305",
"&  c #051C06",
"*  c #041608",
"=  c #041A09",
"-  c #0C1D08",
";  c #091505",
":  c #1E1507",
">  c #121613",
",  c #0D151F",
"<  c #24140B",
"1  c #281A0E",
"2  c #301B0E",
"3  c #281712",
"4  c #361D17",
"5  c #062107",
"6  c #072409",
"7  c #092C09",
"8  c #082909",
"9  c #0A340A",
"0  c #0B3D0C",
"q  c #073D0D",
"w  c #083D15",
"e  c #063011",
"r  c #18340B",
"t  c #372718",
"y  c #2C2C01",
"u  c #101B26",
"i  c #0D1823",
"p  c #142230",
"a  c #0E3023",
"s  c #352B27",
"d  c #34302C",
"f  c #492818",
"g  c #563019",
"h  c #49331A",
"j  c #62371B",
"k  c #673A1D",
"l  c #703E1E",
"z  c #4B2A21",
"x  c #413438",
"c  c #633720",
"v  c #743E20",
"b  c #0D420D",
"n  c #13430E",
"m  c #11490F",
"M  c #1B4D0C",
"N  c #0D4B12",
"B  c #0A4A19",
"V  c #0A4616",
"C  c #0B531C",
"Z  c #0E5D1A",
"A  c #0E5517",
"S  c #145616",
"D  c #2C4113",
"F  c #265519",
"G  c #37511B",
"H  c #2E5309",
"J  c #0F631D",
"K  c #1D6518",
"L  c #37630B",
"P  c #236B19",
"I  c #266119",
"U  c #26721B",
"Y  c #2C7C1E",
"T  c #0D6722",
"R  c #0F6B22",
"E  c #0F7326",
"W  c #0E7A29",
"Q  c #0F7728",
"!  c #107426",
"~  c #107C29",
"^  c #187828",
"/  c #1D772B",
"(  c #217C28",
")  c #234F24",
"_  c #474701",
"`  c #525200",
"'  c #565607",
"]  c #555714",
"[  c #63411D",
"{  c #67441B",
"}  c #73401F",
"|  c #706B05",
" . c #455B26",
".. c #535423",
"X. c #5A5A25",
"o. c #5E4726",
"O. c #654823",
"+. c #744220",
"@. c #7B4B27",
"#. c #6B5121",
"$. c #695328",
"%. c #6C4F36",
"&. c #42662A",
"*. c #4A6A38",
"=. c #7B662D",
"-. c #4F7409",
";. c #28435F",
":. c #315273",
">. c #2A4562",
",. c #434E5D",
"<. c #595353",
"1. c #59665B",
"2. c #70625F",
"3. c #957316",
"4. c #A07E16",
"5. c #845329",
"6. c #865429",
"7. c #8E5E34",
"8. c #896637",
"9. c #9A6E3A",
"0. c #976A38",
"q. c #9D733D",
"w. c #956E2E",
"e. c #A2793F",
"r. c #A9773A",
"t. c #856E56",
"y. c #9B6F4B",
"u. c #A47B41",
"i. c #A87F48",
"p. c #A77E59",
"a. c #30841F",
"s. c #13812A",
"d. c #1B8529",
"f. c #198332",
"g. c #258C29",
"h. c #298F29",
"j. c #268827",
"k. c #348C23",
"l. c #2B9229",
"z. c #399424",
"x. c #3E9B27",
"c. c #3A9D29",
"v. c #339929",
"b. c #3EA229",
"n. c #4E8814",
"m. c #70AE1B",
"M. c #449E28",
"N. c #4BA927",
"B. c #41A429",
"V. c #48A82A",
"C. c #828401",
"Z. c #859C06",
"A. c #A48315",
"S. c #85A007",
"D. c #8BA209",
"F. c #B7BC03",
"G. c #A6B905",
"H. c #B39034",
"J. c #BEA02F",
"K. c #D8B82B",
"L. c #B2C204",
"P. c #A8CD0F",
"I. c #CDCD02",
"U. c #C4C601",
"Y. c #D6D600",
"T. c #D4CB0D",
"R. c #E3D714",
"E. c #E7DB18",
"W. c #DDEF07",
"Q. c #DAE301",
"!. c #DEF006",
"~. c #D8E115",
"^. c #F4F902",
"/. c #FFFF00",
"(. c #FAF20C",
"). c #F3EB0F",
"_. c #DECE23",
"`. c #EBD728",
"'. c #958F5F",
"]. c #BD8B42",
"[. c #B48D57",
"{. c #B18950",
"}. c #9E8D68",
"|. c #AA8562",
" X c #B48D68",
".X c #B9936D",
"XX c #B39875",
"oX c #A39B6F",
"OX c #D7A54F",
"+X c #DEB246",
"@X c #DEAB54",
"#X c #C4AD4A",
"$X c #E3B648",
"%X c #E5B153",
"&X c #E0AD54",
"*X c #C39E76",
"=X c #C29E6C",
"-X c #CCAA7B",
";X c #D1B07F",
":X c #BDB98D",
">X c #8D9FB2",
",X c #A1AAB3",
"<X c #99AFAF",
"1X c #D4B48B",
"2X c #D8B58A",
"3X c #DDBC93",
"4X c #E1BF97",
"5X c #B5C6B9",
"6X c #EACDA5",
"7X c #FDE3BA",
"8X c #FCE3B9",
"9X c #BCC6D1",
"0X c #CCD2D9",
"qX c #D7E9DB",
"wX c #FFEAC1",
"eX c #FFFFFF",
/* pixels */
"                                                                                            ",
"                                                                                            ",
"                                                                                            ",
"                                                                                            ",
"                                                                                            ",
"                                    +.+.9.u.u.u.u.u.u.q.+.+.                                ",
"                                    +.+.9.u.u.u.u.u.u.q.+.+.                                ",
"                              . . O.].]._.R.R.R.R.R.R.R.T.T.K.@XOX5.}                       ",
"                              . . O.%X%X(./././././././././.`.@XOX5.v v                     ",
"                              - & X.#X#X~.!.W.W.W.W.W.W.W.!._.$X+Xw.5.5.                    ",
"                        . . ; k.x.M.V.V.N.N.N.N.N.N.N.N.N.V.P./.(.+XOXH.+.+.                ",
"                        . . ; z.B.B.B.B.B.B.B.B.B.B.B.B.B.b.P././.$X@X].l l                 ",
"                      . r F F U U U U U U U U U U U U U U U n.S.D._.`.K.r.r.6.l             ",
"                    . . I V.x.m 0 b b b b b b b b b b b b b b q M Q./.).&X@X7.l +.          ",
"                    o . I b.z.S m m m m m m m m m m m m m m b b M Y.^.E.%X+X7.+.+.          ",
"              . . = T T Z S S k.z.z.z.z.z.z.z.z.z.z.z.z.z.z.P b m a.k.m.(.(.H.9.q.          ",
"              . . = ~ ~ A 0 m x.B.B.B.B.B.B.B.B.B.B.B.B.B.V.U b b E W m././.J.u.u.          ",
"              . . * J T K K P x.B.B.B.B.B.B.B.B.B.B.B.b.v.v.K b b J T n.L.L.H.u.u.          ",
"              . . o b b Y B.B.B.B.B.B.B.B.B.B.B.B.B.B.c.~ ~ Z b b b b b b b                 ",
"              . . o b b Y B.B.B.B.B.B.B.B.B.B.B.B.B.B.c.~ ~ Z b b b b b b b                 ",
"    u.u.[.1X1XG 7 7 % ; n K P x.B.B.B.B.B.B.B.B.B.l.d.d.~ ~ V ; * 0 b b b b '.3X-Xu.u.      ",
"    u.e.[.1X1X&.b 9 . . 6 b m x.B.B.B.B.B.B.B.B.B.g.W W ~ ~ w . . 9 b b b b }.2X-Xu.e.      ",
"    [.[.=X3X3X&.b 9 . . 7 N S x.B.B.B.B.c.c.c.c.c.d.W ~ T T w % = b N N b n oX4X1X[.[.i.    ",
"} @.6X8X8X7X8X*.b 9 . . V ~ ~ c.B.B.B.b.d.~ ~ ~ ~ ~ ~ T o . w Q Q ! ~ J b b :X7X7X8X7X|.l +.",
"} @.6XwXwX7X7X*.b 9 . . B ~ s.b.B.B.B.B.d.W ~ ~ ~ ~ ~ T . . w ~ ~ ~ ~ T b b :XwXwXwXwX|.l +.",
"  @. X.X*X;X;X .b 9 . . B ~ ~ h.h.h.h.h.~ ~ ! Z Z V w w 6 & B ~ ~ J Z A b b '.1X-X.X.Xy.    ",
"    l l 5.e.e.G b 9 . . B ~ ~ W W W W W ~ ~ T b b % . o b b J ~ ! N b b b b =.u.0.} l       ",
"    +.} 5.e.q.G n 9 . . B ~ ~ ~ ~ ~ ~ ~ ~ ~ T 0 0 * . o 0 b Z ~ ! N b b n n =.u.9.+.+.      ",
"          @.@.O.[ h . . B ~ ~ ~ ~ ~ ~ ~ A N 0 o o 7 0 0 b b b N N b b D [ [ +.@.@.          ",
"          +.+.v v g . . B ~ ~ ~ ~ ~ ~ ~ N b 7 . . 7 b b b b b b b b b D v v +.+.+.          ",
"          g g 3.A.| X . w T T T T J C C 9 7 6 % % 9 b b b b b b b D D ] 4.4.{ f g           ",
"          . . F./.U.X . 6 b b b b 6 . . . . ; b b b b b b b b b n [ v A././._ . .           ",
"          . . F./.U.X . 6 b b b b 6 . . . . ; b b b b b b b b b n [ v A././._ . .           ",
"              _ ` ' $.$.t % % % % & 7 7 7 7 9 b b b b H G.L.L.L.F.w.0.=.` ` y               ",
"              . . 1 u.{.h . . . . * b b b b b b b b q L ^././././.H.i.$.. .                 ",
"              . . 1 8.8.t . . . . r L L m b b b b H L -.I.Y.Y.Y.I.w.8.o.. .                 ",
"                    X X X . . . . | ^.!.L 0 b b b G.^.I.: O O O O X X X                     ",
"                    . . . . . . . | /./.L q 0 0 q L./.Y.O . . . . . . .                     ",
"                  * w w 7 5 5 5 & H C.C.Z.S.S.S.S.C.C.| 8 5 5 5 6 w w e                     ",
"              . . = W ~ A b b b b 6 . X I././././.` . . b b b b b Q s.C . .                 ",
"              . . - / f.Z 0 0 b b 7 . O U.^.^.^.^.' . % b b b 0 b / f.C @ @                 ",
"    . . . . . 2 4 <.qXqX1.. % T ! R T T k.z.z.z.z.^ T T E ! w o > 5XqX<X;.;., . . . .       ",
"    . . . . . 4 f 2.eXeX2.. o R ~ ~ ~ ~ W W W W W W ~ ~ ~ ~ w . > qXeX9X:.:., . . . .       ",
"    < < < < < d x <.9X0X<.. o R ~ ~ ~ ~ ~ ~ ~ ~ ~ ~ ~ ~ ~ ~ w . + ,X0X>X:.:.s < < < < $     ",
". X j +.+.+.+.,.:.:.:.:.p . o R ~ ~ ~ ~ ~ ~ ~ ~ ~ ~ ~ ~ ~ ~ w . @ >.:.:.:.:.%.} +.+.+.2 . . ",
". X j +.+.+.+.,.:.:.:.:.p . o E ~ ~ ~ ~ ~ ~ ~ ~ ~ ~ ~ ~ ~ ~ w . @ >.:.:.:.:.%.} +.+.+.2 . . ",
". X j } 7. X Xd i u u u w C S ..............................F C B u u u u u t..Xp.+.+.2 . . ",
". X j } y.3X1Xs . . . . B s./ O.v v v v v v v v v v v v v v  .W Q % . . . . }.3X*X@.+.2 . . ",
". X g j =.XXXXs . . % % C d.( $.#.#.#.#.#.#.#.#.#.#.#.#.#.#.&.s.^ 6 % o . . t.XX|.j j 2 . . ",
"    X X X + + . . = E E h.b.b.M.M.M.M.M.M.M.M.M.M.M.M.M.M.M.B.b.c.^ Q B . . X + + X X       ",
"    . . . . . . . = ~ ~ l.B.B.B.B.B.B.B.B.B.B.B.B.B.B.B.B.B.B.B.b.d.s.C . . . . . . .       ",
"      . . . . . . * w w P l.l.b.B.B.B.B.B.B.B.B.B.B.B.B.B.B.v.l.g.B w 8 . . . . . . .       ",
"                    . . V W ~ b.B.B.B.B.B.B.B.B.B.B.B.B.B.B.h.W E % . . . .                 ",
"                    . . V Q ^ z.x.x.x.x.x.x.x.x.x.x.x.x.x.x.j.Q R * . . . .                 ",
"              . . . . . o * * - - - - - - - - - - - - - - - = * * t t 3 . .                 ",
"              . . . . . . . . . . . . . . . . . . . . . . . . . . f z 4 . .                 ",
"              . . . $ $ : < < < < # . . . . . . . . . . . . . . . 3 4 3 . .                 ",
"              . . # f z c +.+.+.+.f . .                 . . . . . . . .                     ",
"              . . # f z c +.+.+.+.f . .                 . . . . . . . .                     ",
"                    $ $ < < < < < :                                                         ",
"                    . . . . . . . .                                                         ",
"                    . . . . . . .                                                           ",
"                                                                                            ",
"                                                                                            "
};
