/* XPM */
static char *ink_back__285_29[] = {
/* columns rows colors chars-per-pixel */
"46 64 208 2 ",
"   c None",
".  c #000001",
"X  c #0A0704",
"o  c #020B03",
"O  c #0B0A06",
"+  c #140A08",
"@  c #031405",
"#  c #031508",
"$  c #041D09",
"%  c #081A06",
"&  c #191705",
"*  c #25150B",
"=  c #2E1A0D",
"-  c #251410",
";  c #321C16",
":  c #072107",
">  c #062409",
",  c #092C0A",
"<  c #072909",
"1  c #0B350B",
"2  c #0A3D0C",
"3  c #0B3E07",
"4  c #153C0F",
"5  c #073311",
"6  c #083D15",
"7  c #063A14",
"8  c #153410",
"9  c #363601",
"0  c #382419",
"q  c #3A3517",
"w  c #23371C",
"e  c #001E2C",
"r  c #132627",
"t  c #323233",
"y  c #442513",
"u  c #4C2A1B",
"i  c #573518",
"p  c #502D17",
"a  c #653A1C",
"s  c #723F1E",
"d  c #4B2920",
"f  c #513822",
"g  c #703E21",
"h  c #0D420D",
"j  c #15430E",
"k  c #184B0C",
"l  c #0B4413",
"z  c #0E4D12",
"x  c #0A4C19",
"c  c #074E18",
"v  c #134B12",
"b  c #124317",
"n  c #0E5316",
"m  c #0B531B",
"M  c #0E5C1A",
"N  c #155212",
"B  c #195916",
"V  c #244814",
"C  c #384818",
"Z  c #215415",
"A  c #37521B",
"S  c #0F641E",
"D  c #16641B",
"F  c #266719",
"G  c #27721B",
"H  c #2C761D",
"J  c #2A7B1E",
"K  c #074234",
"L  c #325722",
"P  c #0E6B22",
"I  c #116D23",
"U  c #0F7326",
"Y  c #0E7C29",
"T  c #0D7927",
"R  c #107425",
"E  c #107B29",
"W  c #177829",
"Q  c #2F6926",
"!  c #316E25",
"~  c #59461D",
"^  c #404116",
"/  c #6A421F",
"(  c #72401F",
")  c #5A7E09",
"_  c #58780A",
"`  c #7B7107",
"'  c #5B4922",
"]  c #435E25",
"[  c #534B3E",
"{  c #6A4924",
"}  c #734120",
"|  c #7D4C2A",
" . c #764624",
".. c #7F4D30",
"X. c #43622E",
"o. c #4B6B39",
"O. c #5D6123",
"+. c #756B31",
"@. c #1D3344",
"#. c #203850",
"$. c #2C4C6C",
"%. c #08726A",
"&. c #28725C",
"*. c #595143",
"=. c #4A4C53",
"-. c #655F43",
";. c #53625D",
":. c #5D5E66",
">. c #4A6077",
",. c #696768",
"<. c #676748",
"1. c #8B5B2D",
"2. c #83572B",
"3. c #8C5E31",
"4. c #805A34",
"5. c #886636",
"6. c #976B38",
"7. c #9C7E3F",
"8. c #9A793E",
"9. c #847C3C",
"0. c #966B46",
"q. c #9E7B40",
"w. c #9F7551",
"e. c #A47B41",
"r. c #A87E43",
"t. c #2E801F",
"y. c #158129",
"u. c #1E8729",
"i. c #1E8829",
"p. c #258C29",
"a. c #288F29",
"s. c #2A8524",
"d. c #318520",
"f. c #358B22",
"g. c #299129",
"h. c #399625",
"j. c #3C9B27",
"k. c #3B9E29",
"l. c #359828",
"z. c #3EA229",
"x. c #518426",
"c. c #479628",
"v. c #509E2D",
"b. c #51922A",
"n. c #4C8426",
"m. c #41A529",
"M. c #43A92A",
"N. c #4DA32B",
"B. c #54AD25",
"V. c #6FA728",
"C. c #7AC11C",
"Z. c #648265",
"A. c #90900C",
"S. c #AAAA00",
"D. c #B4B801",
"F. c #AFB000",
"G. c #BD9F2F",
"H. c #8FAD36",
"J. c #B39D1F",
"K. c #C3A72B",
"L. c #D7DC02",
"P. c #DAC91B",
"I. c #DBE402",
"U. c #E5E500",
"Y. c #FFFF00",
"T. c #F6F600",
"R. c #EAF505",
"E. c #AA8147",
"W. c #AB835D",
"Q. c #B6905C",
"!. c #B9A24A",
"~. c #9E9568",
"^. c #AE8763",
"/. c #B1AC7D",
"(. c #CC9C4D",
"). c #DEAA51",
"_. c #CAA87B",
"`. c #E4AE53",
"'. c #077F87",
"]. c #55728F",
"[. c #04808A",
"{. c #1296BC",
"}. c #7CAE82",
"|. c #1E9CC7",
" X c #03A1CD",
".X c #00B9FC",
"XX c #01AFF0",
"oX c #00C1FF",
"OX c #86BB92",
"+X c #B9B588",
"@X c #B9AEAC",
"#X c #D5B48B",
"$X c #D9B78E",
"%X c #D8B892",
"&X c #C3B6B4",
"*X c #89C197",
"=X c #E5C799",
"-X c #E8CBA3",
";X c #EFD3A9",
":X c #EED2A6",
">X c #F4D7AE",
",X c #FEE6BD",
"<X c #FFE8BF",
"1X c #DED9D6",
"2X c #FFEBC2",
"3X c #ECE7E5",
"4X c #FDFDFE",
"5X c #F4F4F4",
/* pixels */
"                                    . . 0 e.e.e.e.e.e.e.1.s }                               ",
"                                    o o q q.7.7.7.7.7.q.4.} {                               ",
"                                . o H f.c.v.v.v.v.v.v.v.c.c.b.7.e.                          ",
"                                . o f.M.m.m.m.m.m.m.m.m.m.m.N.7.e.e.                        ",
"                              , 8 4 H d.d.d.d.d.d.d.d.d.h.m.N.G.K.G.                        ",
"                          . . Z M.k.N h h h h h h h h h J m.B.R.Y.P.e.e.                    ",
"                          . . Z m.k.N h h h h h h h h h J m.B.R.Y.P.e.e.                    ",
"                      . % F H F B D t.d.d.d.d.d.d.d.d.d.G B F C.C.H.(.(.1.s }               ",
"                    . . % k.M.G 2 h h.m.m.m.m.m.m.m.m.m.F 2 v h.z.H.`.).1.s }               ",
"                    @ # , f.h.G N B h.m.m.m.m.m.m.m.m.m.H N B f.h.V.!.!.2.s }               ",
"                . . x T P v h G z.k.m.m.m.m.m.m.m.m.m.m.z.k.h.N h M W W ' g }               ",
"                . . m E U h 2 G m.m.m.m.m.m.m.m.m.m.m.m.m.m.j.v h M Y E ' g (               ",
"                . . 6 M D G G f.m.m.m.m.m.m.m.m.m.m.m.m.m.m.j.v h M E W +.3.3.              ",
"                . . < h N k.m.m.m.m.m.m.m.m.m.m.m.m.m.m.m.m.j.v h M E E 9.r.e.              ",
"                . . , h N h.k.z.m.m.m.m.m.m.m.m.m.m.m.m.z.z.h.N h M E W +.8.8.              ",
"                . . x R I N N J m.m.m.m.m.m.m.m.m.m.m.m.g.y.y.R U S l l V V C } }           ",
"                . . m y.R h 2 G m.m.m.m.m.m.m.m.m.m.m.m.p.Y E E E S 2 h h h V s s           ",
"              -.@ @ 6 m m n n J m.m.m.m.m.m.m.m.m.z.l.l.u.Y T M m n n n h h A 0.0.0.        ",
"      e.e._.$X~.h h @ . @ U Y a.m.m.m.m.m.m.m.m.m.l.E E E E P o . 5 E E z 2 X.#X#XQ.e.e.    ",
"      e.e._.$X~.h h @ . @ U Y a.m.m.m.m.m.m.m.m.m.l.E E E E P o . 5 E E z 2 X.#X#XQ.e.e.    ",
"} s W.=X=X;X>X+Xh h @ . @ U Y a.m.m.m.m.m.m.m.g.u.u.E E S n z o . 5 E E z 2 o.;X>X=X=X#X| ( ",
"} s ^.2X2X2X2X+Xh h @ . @ U Y g.m.m.m.m.m.m.m.u.Y Y E E M h 2 o . 5 E E z 2 o.<X<X2X2X;X| ( ",
"} s W.-X-X:X>X/.h h @ . @ P U p.k.k.m.m.m.m.m.u.Y E R R n 1 1 @ o 6 E E z 2 o.:X;X-X-X%X| ( ",
"      | | q.E.+.h h @ . o h h S E y.k.m.m.m.m.u.Y U l h : . o 1 2 n E E z h A E.E.3.| |     ",
"      } } 6.r.+.h h @ . o 2 h M E E k.m.m.m.m.i.Y U h h % . o 2 h M E E z 3 A e.e.2.s }     ",
"      } } 1.1.<.'.[.K % : : % x E E p.g.a.a.a.D M n : : : : > 2 h z M M %.[.&.3.3.2.        ",
"          ( s ;..X.X%.h 1 . . 6 E E Y Y Y Y Y n h 1 . . > h h h h 2 2 l  XoX|.} (           ",
"          } s ;.XXXX%.k j o . 6 E T E E E E E z 2 1 o . < h h j j j k N {.XX{.} }           ",
"                e e A.I.D.O . > z z R E E E E < o @ 1 1 2 h j ~ a A.I.L.A e e               ",
"                . . S.Y.L.& . : h h R E E E E > . o 2 2 2 2 4 / g J.Y.Y.9 . .               ",
"                . . ` F.A.O . @ , 1 M P P P P $ . & _ ) ) ) _ i u ` F.S.9 . .               ",
"                    . . . . . . . o 1 h h h h @ . 9 T.Y.Y.Y.U.& . . . .                     ",
"                    . . . . . . . o 1 h h h h @ . 9 T.Y.Y.Y.U.& . . . .                     ",
"                    . . o < , @ . o 1 h h h h @ . & _ ) ) x._ i p = . .                     ",
"                    . . o 2 h : . o 1 h h h h @ . o 2 2 2 2 4 /  .y . .                     ",
"                    @ # $ l z , o o 1 1 1 1 1 $ @ : l z h h j ~ { q @ #                     ",
"                . . x U U R E M 2 2 o . o o o m U U R E M h l R W T U U $ . .               ",
"                . . c T T Y Y M 2 2 o . . . . M E Y E E M 2 h R E Y T U $ . .               ",
"              + - - Z.*X}.X.] F M M l 6 6 6 6 P E E E E P M M l 7 o.OXOXr . .               ",
"          . . + d u &X4X3X..s ] Y E E E E E E E E E E E E E P o . ,.4X4Xt . .               ",
"          X . + d u @X4X1X| s L Y E E E E E E E E E E E E E P @ . ,.5X3Xt . .               ",
"      . . p a a g s :.].>.+ + b E E E E E E E E E E E E E Y W i a d t t O . .               ",
"      . . i } ( s s =.$.$.o . 6 Y Y Y Y Y Y Y Y Y Y Y Y Y Y W {  .y . . . . .               ",
"      . . i } | w.w.=.#.@.# @ 4 Q Q Q Q Q Q Q Q Q Q Q Q Q Q Q O.O.q . . . . .               ",
"      . . i s 0.,X<X*.. o 2 h ^ } } } } } } } } } } } } } } { c.M.F . .                     ",
"      . . i s 0.<X<X*.. o 2 h ^ } } } } } } } } } } } } } } { c.M.F . .                     ",
"          * * 0 [ [ w < 1 S P H x.x.x.x.x.x.x.x.x.x.x.x.x.x.n.p.p.n . .                     ",
"          . . . . . < h z T Y g.m.m.m.m.m.m.m.m.m.m.m.m.m.m.z.y.Y x . .                     ",
"          . . . . . < 1 l R Y a.m.m.m.m.m.m.m.m.m.m.m.m.z.k.l.I P l . .                     ",
"                    o . # U Y a.m.m.m.m.m.m.m.m.m.m.m.m.p.E R # o o                         ",
"                    . . @ U Y g.M.m.m.m.m.m.m.m.m.m.m.m.p.Y U o . .                         ",
"                      . @ 6 6 v Z Z Z Z Z Z Z Z Z Z Z Z v 6 7 o . .                         ",
"                          . . . . . . . . . . . . . . . . . . . . .                         ",
"                          . . . . . . . . . . . . . . . X X X X X X                         ",
"                                              . . O 0 0 { 5.5.5.5.' . .                     ",
"                                              . . + d d 4.r.e.e.E.{ . .                     ",
"                                                . O ; ; { 6.6.6.6.f . .                     ",
"                                                    . . y } } } } y . .                     ",
"                                                    . . y } } } } y . .                     ",
"                                                        & * * * * &                         ",
"                                                        . . . . . .                         ",
"                                                          . . . .                           ",
"                                                                                            ",
"                                                                                            "
};
