/* XPM */
static char *f0fddbbd11a04129951e5b7ab96583b8xNmIFvUGA4k40vPL[] = {
/* columns rows colors chars-per-pixel */
"48 63 222 2 ",
"   c None",
".  c #000001",
"X  c #0B0604",
"o  c #030C04",
"O  c #070708",
"+  c #130C09",
"@  c #190E0A",
"#  c #140B06",
"$  c #031405",
"%  c #051906",
"&  c #031A0A",
"*  c #051508",
"=  c #1E120D",
"-  c #181608",
";  c #1A1612",
":  c #23170C",
">  c #331B15",
",  c #06260B",
"<  c #0A340A",
"1  c #0B3E0B",
"2  c #07300F",
"3  c #16380E",
"4  c #073613",
"5  c #142E0F",
"6  c #252502",
"7  c #3B2714",
"8  c #303318",
"9  c #042A38",
"0  c #36322B",
"q  c #001E2A",
"w  c #47261D",
"e  c #462818",
"r  c #522E17",
"t  c #57371B",
"y  c #423909",
"u  c #6D3D1E",
"i  c #64381C",
"p  c #713E1E",
"a  c #4A2920",
"s  c #563926",
"d  c #453A2B",
"f  c #6B3C20",
"g  c #633921",
"h  c #733E20",
"j  c #0D420D",
"k  c #11480F",
"l  c #0B4413",
"z  c #0D4B12",
"x  c #0A4B1A",
"c  c #184A14",
"v  c #0D5416",
"b  c #0D5A1A",
"n  c #0A551A",
"m  c #175513",
"M  c #285216",
"N  c #0F651E",
"B  c #0F681F",
"V  c #1E641A",
"C  c #226818",
"Z  c #2C7C1E",
"A  c #2E731D",
"S  c #327818",
"D  c #275825",
"F  c #365628",
"G  c #0F6C22",
"H  c #0E6320",
"J  c #146F24",
"K  c #0F7326",
"L  c #0E7C29",
"P  c #0D7926",
"I  c #107627",
"U  c #117927",
"Y  c #107B29",
"T  c #1A7728",
"R  c #296827",
"E  c #397B22",
"W  c #145C20",
"Q  c #4F4211",
"!  c #74411F",
"~  c #51562E",
"^  c #684821",
"/  c #744120",
"(  c #794926",
")  c #775B2B",
"_  c #6D5738",
"`  c #587625",
"'  c #777437",
"]  c #3A6D46",
"[  c #574A56",
"{  c #675744",
"}  c #705F4A",
"|  c #716F4E",
" . c #746E6E",
".. c #437E51",
"X. c #997417",
"o. c #83532A",
"O. c #875935",
"+. c #8E6836",
"@. c #976A37",
"#. c #97743A",
"$. c #916F32",
"%. c #A47A3E",
"&. c #8C7458",
"*. c #A17742",
"=. c #A37A42",
"-. c #A97D42",
";. c #917E66",
":. c #1A8329",
">. c #1E892A",
",. c #298A27",
"<. c #378E24",
"1. c #2C9429",
"2. c #399425",
"3. c #399D29",
"4. c #379928",
"5. c #3EA329",
"6. c #4A9029",
"7. c #639931",
"8. c #41A429",
"9. c #43A82A",
"0. c #5EB323",
"q. c #73A636",
"w. c #748A58",
"e. c #57A368",
"r. c #7BAC6C",
"t. c #799661",
"y. c #AFAE00",
"u. c #A9823E",
"i. c #AF8E37",
"p. c #B89733",
"a. c #B18D2F",
"s. c #96A41D",
"d. c #CEB816",
"f. c #C3A82B",
"g. c #D1BD21",
"h. c #C3A136",
"j. c #CCB525",
"k. c #C09D39",
"l. c #8AC718",
"z. c #B1D610",
"x. c #D2C10A",
"c. c #D7CF0C",
"v. c #D6C41D",
"b. c #DAC91A",
"n. c #D9D70E",
"m. c #E3D516",
"M. c #ECED01",
"N. c #EEE60C",
"B. c #F3EC0B",
"V. c #EFF703",
"C. c #FEFE01",
"Z. c #F7F707",
"A. c #F8E919",
"S. c #DEC824",
"D. c #F1D928",
"F. c #AC8244",
"G. c #B68946",
"H. c #AB815A",
"J. c #B78E52",
"K. c #998163",
"L. c #A2896A",
"P. c #B89468",
"I. c #A89377",
"U. c #B7936E",
"Y. c #BDA07C",
"T. c #CD9E4D",
"R. c #C4AB4A",
"E. c #D6A54F",
"W. c #DBB249",
"Q. c #DEAB53",
"!. c #D7A650",
"~. c #E4B946",
"^. c #E2AE54",
"/. c #E5B254",
"(. c #C19C76",
"). c #C09B66",
"_. c #C8A67D",
"`. c #CBA970",
"'. c #EBD950",
"]. c #E7CF70",
"[. c #FFF267",
"{. c #DEC75A",
"}. c #2D4F9D",
"|. c #3C589B",
" X c #337783",
".X c #626F97",
"XX c #647096",
"oX c #4361A6",
"OX c #5069A3",
"+X c #0086B8",
"@X c #50A6B2",
"#X c #0ABBF9",
"$X c #008BC1",
"%X c #1DC1FA",
"&X c #9B8E87",
"*X c #A99887",
"=X c #ADAEAE",
"-X c #C8AB87",
";X c #D5B48C",
":X c #D9B78D",
">X c #DAB98F",
",X c #D6B686",
"<X c #DCBB91",
"1X c #DEBE99",
"2X c #CBB08D",
"3X c #E9CCA3",
"4X c #F5DBB2",
"5X c #F8DDB4",
"6X c #EDD5AE",
"7X c #FEE6BD",
"8X c #FBE3BB",
"9X c #EFE0BC",
"0X c #E0C096",
"qX c #C9C9C9",
"wX c #FFE9C1",
"eX c #FFE5C0",
"rX c #F4E9C4",
"tX c #FFF9EE",
"yX c #E6EAF4",
"uX c #FFFFFF",
"iX c #FFFCF2",
"pX c #E7E8ED",
/* pixels */
"                                                                                                ",
"                                                                                                ",
"                      -.-.@.( h ~ L Y v j k 2.9.9.8.8.8.8.8.,.L Y                               ",
"                      =.=.@.h h F L Y v j k 2.5.9.5.8.8.8.5.>.L L                               ",
"            =.=.T.^.W.b.b.x.d.d.s.1.1.V j k 2.9.8.5.8.8.8.8.4.1.1.T L Y Y Y                     ",
"            =.=.T.Q.~.Z.C.C.C.C.z.5.5.C j k 4.5.8.8.8.8.8.8.8.8.8.:.L Y Y Y Y                   ",
"          u.u.u.T.Q./.B.Z.C.C.C.z.5.9.C j k 2.5.5.8.8.8.8.8.8.8.5.:.Y Y Y Y U                   ",
"      =.*.j.B.N.h.F.F.i.p.k.~.~.R.R.R.7.2.<.m m C 8.8.8.8.8.8.8.8.3.3.4.Y Y B j j               ",
"      *.*.g.C.C.h.%.#.=.-.G.!.^.^.^.^.q.5.8.m 1 m 3.8.8.8.8.8.8.8.8.8.3.Y L B 1 j               ",
"      p.p.g.N.N.h.F.F.-.-.u.~.~.W.T.E.q.5.3.c 1 m 8.8.8.8.8.8.8.8.3.3.4.Y L B z z k             ",
"%.*.p.C.C.g.%.u.T.Q.!.F.*.p.Z.C.v.=.%.7.5.3.m 1 m 8.8.8.8.8.8.8.5.:.Y Y Y Y Y Y Y b j j         ",
"=.*.h.C.C.g.-.%.T.^.Q.F.%.p.C.C.v.*.%.7.5.3.z 1 m 8.8.8.8.8.8.8.5.:.Y Y Y Y Y Y Y v j j         ",
"+.+.a.C.C.S.G.G.u.u.%.).J.T.C.C.v.=.=.s.l.l.S C C Z Z Z Z Z Z Z Z U Y Y Y Y Y Y Y b j j         ",
"p p X.C.C.D.Q.Q.@.p o.-X;X].C.C.v.*.F.m.C.Z.0.9.2.j j j j j j 1 j K Y Y Y Y Y Y Y b j j         ",
"h h X.C.C.D.Q.Q.@.p h (.;X].C.C.v.*.=.m.C.V.0.5.<.j j j j j j j j K Y Y Y Y U Y Y v 1 j         ",
"    X.f.f.a.@.@.-.P.U.;X;X`.f.f.p.=.=.m.C.V.8.,.T j j c G B B H B U Y Y U Y Y Y Y J B B z j j   ",
"      *.%.O.p f U.>X:X;X,X_.=.*.*.=.=.m.C.V.1.L G l j b L Y Y Y Y Y Y Y Y Y Y U L Y Y U z j j   ",
"      =.F.O.u u P.;X;X:X>X-X-.F.F.u.F.n.Z.M.<.T J l l n P P U Y Y I I I U I U Y L Y Y L z j j   ",
"          : # # K.:X>X4X8X3X-X-X{.M.B.f.i.i.u.#.' P K N z l B L U v z z z z b Y Y Y Y U v j j   ",
"            . . K.<X<X7XwX5X;X;X'.C.C.f.*.=.=.-.u.P L N j j B :.I z j j j j b Y Y Y L U z j j   ",
"            . . &.(.Y.-X2X2X1X1X'.C.C.f.*.=.#.@.' G B N z v N G G k j j < < l K G I Y Y 1 < <   ",
"            . . r / u + . d rXeX[.C.C.f.=.*.( ! Q j j b Y U v j l j j < o . % k j B Y K & . .   ",
"            . . r p u X . 0 8XeX[.C.C.f.*.%.( p ^ j j v P P v 1 1 j j < . . % j j B Y Y * . .   ",
"          d { ~ [ [ [  . .&X7XeX].b.v.h.J.G.o.p ^ ' | w.r.r.t.w.w.m j < . . % j j v N b * . .   ",
"      . . { <X>X.X}.oXyXuXiX7XwX,X%.%.T.^.E.o.p O.2X;X3XeXeXeXwX8XF j < . . % j j j 1 1 o . .   ",
"      . . { >X;X.X}.oXyXuXtX7XeX,X%.=.T.^.E.o.p O.;X;X3X7X7X7X7X4XD j < o . % j j j l 1 o . .   ",
"      . . { :X;X.X}.oXyXuXtXeXeX_.( o.d.A.m.y @ ~ 3X6X5X7XwX,X).P.8 $ $     o $ $ l G N * . .   ",
"      . . { :X;X.X}.oXyXuXtX7XeX(.p ! d.C.M.6 . 0 5XeXeX7XwX).%.#.= . .       . . x :.K & . .   ",
"      . . _ -XY.XX|.OXpXuXtX7X7X(.p p x.C.M.6 . 0 9XrXrX5X4XP.$.+.- . .       . . x I K & . .   ",
"          ; ; ; ;.2X2X8XwXwX7XwX(.p h x.C.M.6 . 9 #X#X@XJ.J.d + - . . .       . . 2 z j o . .   ",
"            . . ;.<X<X8XwX7X7XwX(.p / x.C.M.6 . 9 #X#X@X-.-.7 . o . . .       . . , j j o . .   ",
"            . . | L.L.3X4X4X4X5XU.p h x.C.V.6 $ 9 }.$X X) ) Q 7 7 8 Q Q       . . , < < o . .   ",
"                . . + Y.;X;X;X>X-.h ( x.C.B.6 . . . . O . . $.Q.^.B.C.C.          . . .         ",
"                . . + -X>X>X:X>XH.p h x.C.M.6 . . . . . . . $././.Z.C.C.          . . .         ",
"                  . + { { } | w.~ > 7 s.D.S.6 . o 4 4 4 , % Q ) ) c.C.              .           ",
"                      . . o 1 j , . X #./.T.: . & L :.H j l * . .                               ",
"                      . . $ j j , . . *.^.E.: . & L L H l j % . .                               ",
"                . . o x b H G G H n b 8 7 7 r r e , & l G G , . .                               ",
"                . . o G Y Y L L L :.L , o . i ( t . . 2 Y Y 2 . .                               ",
"                - - 6 I Y Y Y Y I G G 2 o * t ^ t . . 4 Y Y 2 . .                               ",
"            . . y.M.n.,.P P :.L x O O x K K I T W . . 2 Y L , . .                               ",
"            . . y.C.V.<.P P P :.x . . n L P P P H . . 4 L L 2 X .                               ",
"            . . s.z.z.E R R R R 3 . . ] e.e.e.e...O . 5 R J 5 @ @                               ",
"            . . v P T ^ ! ! ! ^ 7 . . =XuXuXuXuXqXO . = a a a w a X . .                         ",
"            . . n L T ^ ! ! h / e . . =XuXuXuXuXqXO . = a a a w w X . .                         ",
"            . . V 1.1.` ` ` ` ` M . . } &X&X&X&X .. . = a a F D D O . .                         ",
"            . . A 9.8.8.8.8.9.9.V . X > w w a w > . . = a a D L I * . .                         ",
"            . . A 8.8.8.8.8.8.8.M . . > a a a a w . . = a a D Y K * . .                         ",
"                , 5 5 2.8.3.:.>.x . . e f f f f r . X 3 6.6.c & &                               ",
"                . . o 2.8.4.L :.l . . r / / ! ! r . . c 8.3.3 . .                               ",
"                . . o E 2.<.H G 4 . . s O.O.o.) g X . 3 <.<.3 X .                               ",
"                      o o o o . . . . I.5X4X;X-XL.O . O o o                                     ",
"                      . . . . . . . X *XwXwX0X<XI.. . . . .                                     ",
"                      : : : @ @ @ @ @ | *XI.;.;.} O . . . .                                     ",
"                . . X i ! u a a a a a @ . . X . . . . .                                         ",
"                . . X i / f a w a a a @ . . . . . . . .                                         ",
"                . . O i / / g g s a a + . . . . .                                               ",
"                . . X i / / / / i a a @ . . . . .                                               ",
"                . . X i p u u p t a a + . . . . .                                               ",
"                      @ @ - @ @ # + +                                                           ",
"                      . . . . . . . .                                                           ",
"                      . . . . . . . .                                                           ",
"                                                                                                "
};
