/* XPM */
static char *b80b0b5b00da4cd182d66ba8edc18932659tagOIKURX2yd4[] = {
/* columns rows colors chars-per-pixel */
"48 63 220 2 ",
"   c None",
".  c #000001",
"X  c #030C04",
"o  c #0B0805",
"O  c #180E09",
"+  c #140B08",
"@  c #041405",
"#  c #031B0A",
"$  c #051F06",
"%  c #1C120B",
"&  c #1C1604",
"*  c #1B1612",
"=  c #171410",
"-  c #0D161F",
";  c #23130A",
":  c #25180F",
">  c #361E17",
",  c #371E0E",
"<  c #05240C",
"1  c #092609",
"2  c #07290B",
"3  c #0A320A",
"4  c #0B3C0B",
"5  c #073F0A",
"6  c #083B13",
"7  c #162C13",
"8  c #3B2212",
"9  c #382C16",
"0  c #332E15",
"q  c #0E1822",
"w  c #3D3328",
"e  c #2E2E2E",
"r  c #472C1A",
"t  c #532F17",
"y  c #6D3C1E",
"u  c #65391C",
"i  c #723F1E",
"p  c #4B2920",
"a  c #44372B",
"s  c #573620",
"d  c #463D32",
"f  c #552F20",
"g  c #6B3B20",
"h  c #733E20",
"j  c #0D420D",
"k  c #0A4416",
"l  c #0D4B12",
"z  c #094819",
"x  c #1A4E17",
"c  c #0E5416",
"v  c #0C5B1D",
"b  c #0B541B",
"n  c #175814",
"m  c #10470F",
"M  c #2B460F",
"N  c #0F641E",
"B  c #0D691F",
"V  c #266A1A",
"C  c #2C7C1E",
"Z  c #27731B",
"A  c #327D1F",
"S  c #0C5F20",
"D  c #265C21",
"F  c #0E6D23",
"G  c #0E6620",
"H  c #0E7224",
"J  c #0B7925",
"K  c #0E7B29",
"L  c #107626",
"P  c #107827",
"I  c #107B29",
"U  c #1B7727",
"Y  c #106E22",
"T  c #2D6A27",
"R  c #34772A",
"E  c #474601",
"W  c #74411F",
"Q  c #6B5217",
"!  c #5B4A22",
"~  c #4F5232",
"^  c #684721",
"/  c #744120",
"(  c #7C4A27",
")  c #71572B",
"_  c #634534",
"`  c #745A32",
"'  c #597525",
"]  c #4B6C28",
"[  c #736A28",
"{  c #2D4F70",
"}  c #325272",
"|  c #2C4E6F",
" . c #494849",
".. c #584A51",
"X. c #6E5D48",
"o. c #705E49",
"O. c #6D7448",
"+. c #737373",
"@. c #645E65",
"#. c #997417",
"$. c #80512E",
"%. c #835432",
"&. c #895B34",
"*. c #804F2C",
"=. c #8B643A",
"-. c #966935",
";. c #9B733D",
":. c #8D7B3D",
">. c #A77A3D",
",. c #A17A26",
"<. c #8F7154",
"1. c #A47A41",
"2. c #A57942",
"3. c #A57C57",
"4. c #18842A",
"5. c #238B29",
"6. c #358A22",
"7. c #2C9329",
"8. c #399224",
"9. c #389B29",
"0. c #3EA229",
"q. c #41A529",
"w. c #44A82A",
"e. c #59AF26",
"r. c #619B1C",
"t. c #7A8D5D",
"y. c #56A167",
"u. c #7AA668",
"i. c #848400",
"p. c #968518",
"a. c #8ABD15",
"s. c #908939",
"d. c #BD9F2D",
"f. c #AE8A3A",
"g. c #A7823D",
"h. c #B2863D",
"j. c #B49236",
"k. c #BC9E30",
"l. c #BFA22D",
"z. c #B8B20F",
"x. c #CCB80E",
"c. c #CAAC2E",
"v. c #91C817",
"b. c #AFD710",
"n. c #DAC91B",
"m. c #DDD108",
"M. c #E6DB12",
"N. c #E7DC11",
"B. c #E4D90D",
"V. c #EAE704",
"C. c #F2EC09",
"Z. c #FEFE00",
"A. c #F8F408",
"S. c #FEFC12",
"D. c #F0EA13",
"F. c #DCC42E",
"G. c #EDD42A",
"H. c #EFD62A",
"J. c #F4EC26",
"K. c #AD8447",
"L. c #B68A45",
"P. c #BA8B47",
"I. c #BF9249",
"U. c #B28B55",
"Y. c #B8935E",
"T. c #B1A747",
"R. c #9E8769",
"E. c #96996C",
"W. c #B99268",
"Q. c #B99A76",
"!. c #B0906D",
"~. c #97944D",
"^. c #C59849",
"/. c #D4A64A",
"(. c #DDAA53",
"). c #D7A750",
"_. c #C6AC48",
"`. c #E3B946",
"'. c #E1AE54",
"]. c #C39F6A",
"[. c #C5A57E",
"{. c #D5B778",
"}. c #2D4F9B",
"|. c #33539C",
" X c #006186",
".X c #405B9A",
"XX c #0B86B2",
"oX c #13AADF",
"OX c #00C1FF",
"+X c #20C4FC",
"@X c #A59891",
"#X c #A89D85",
"$X c #BAA68A",
"%X c #92A3B5",
"&X c #9B8E87",
"*X c #C8A983",
"=X c #D6B58C",
"-X c #D9B78D",
";X c #DAB88E",
":X c #DCBC94",
">X c #C8B291",
",X c #E4C69B",
"<X c #E2C686",
"1X c #E5C9A4",
"2X c #F1D5AC",
"3X c #F3D8AF",
"4X c #F5DAB1",
"5X c #F9DEB5",
"6X c #EED1A7",
"7X c #FDE6AA",
"8X c #FFE6BD",
"9X c #FEE6BD",
"0X c #DCC59F",
"qX c #9BABCF",
"wX c #9DAED2",
"eX c #A2AECB",
"rX c #FFEAC2",
"tX c #FFEDCF",
"yX c #F2E7C8",
"uX c #FFFFFE",
/* pixels */
"                                                                                                ",
"                                                                                                ",
"                              I P P 9.w.q.q.q.q.w.q.V 4 j F K U ^ i ) 1.1.1.                    ",
"                              P K K 9.w.q.0.q.q.q.w.Z j j F K U ^ i *.;.1.1.                    ",
"                    I P I I I 5.7.7.9.q.q.q.q.q.q.q.Z j j C 7.9.z.z.n.n.n.F.(.(.L.1.1.          ",
"                    I I I I I 7.w.w.q.q.q.q.q.q.q.q.Z j j 6.w.e.A.Z.Z.Z.Z.H.(.(.L.1.1.          ",
"                    I I I I I 7.w.q.q.q.q.q.0.q.0.0.Z m m 8.w.e.A.Z.Z.Z.Z.G.(.).L.1.g.          ",
"              j j l P I 4.9.9.0.q.q.q.q.q.q.q.6.x x Z 8.8.~._._.`.`./.j.j.f.K.K.n.C.N.f.1.1.    ",
"              j j l I P 5.w.q.q.q.q.q.q.q.0.0.6.j j Z w.w.T.'.'.(.(./.1.1.1.>.>.M.Z.A.f.1.1.    ",
"              l l c P P 4.9.9.0.q.q.q.q.q.q.0.6.j j Z q.q.k.).).`.`./.>.;.K.K.K.n.C.N.d.j.j.    ",
"        j j j B P P I I I I K 7.q.q.q.q.q.q.q.6.j 4 Z w.0.s.1.f.C.Z.M.>.1.I.(.(.L.g.f.C.Z.M.g.1.",
"        j j j Y I I I I K K K 7.q.q.q.w.q.q.q.6.5 5 Z q.0.s.2.f.A.Z.M.>.;.^.'.'.L.1.f.C.Z.N.1.>.",
"        j j j L I I P I I I I C C C C C C C C C V N r.v.v.s.1.f.A.Z.N.W.W.^.>.>.L.P.^.A.Z.B.-.=.",
"        j j j Y I I I I I K I v j j 5 j j j j n w.0.b.Z.Z.k.2.f.C.Z.J.-X-X3.h y P.'.`.A.Z.m.W W ",
"        j j j L I I I I I P I v j j j j j j j n q.0.v.Z.Z.k.2.f.C.Z.J.=X=X3.h h ^.'.`.A.Z.m./ / ",
"    j j v N N I I I I I I I I H N N N N N m j n 5.4.v.Z.Z.k.1.K.d.c./.=X=X[.W.U.;.-.-.k.c.d.    ",
"    j j N P I I P I P P I I I P 4.I I I L l 4 c P K a.Z.Z.k.1.1.1.1.U.=X=X=X=X=X<.y h ;.1.2.    ",
"    j j N I I I I I P L P L P J J I I I L m j c I U a.Z.A.l.g.g.K.2.U.=X=X=X=X=X&.u h ;.1.1.    ",
"    j j N P I I I L l l l l l N I I c l c Y L R 1.<.s.j.h.M.C.D.{.[.:X5X5X1X=X=Xa + O           ",
"    j j N I I I I L l j j j 4 N I I l 4 k L I R 1.1.g.>.2.M.Z.A.{.=X0XrXrX6X=X=Xa . .           ",
"    3 3 v I I L H G 3 3 4 j j v L F c c c B F R -.;.;.1.1.N.Z.S.<X:X:X>X>X*X[.Q.w . .           ",
"    . . z I I c j 4 X . @ j j j j j F K H m j x W W =.1.1.N.Z.S.7XrX$XX . 8 / / ; . X           ",
"    . . k I P c j 3 . . @ j k k j 5 B J H j j 0 W W &.>.>.D.Z.S.7XrX$X. . , / h % X .           ",
"    . . 6 N N l j 3 X . @ j 5 ] t.t.u.u.u.O.O.' W W -.I.I.c.n.F.7XtX0X+.+.@......._ _ =         ",
"    . . 1 j j j j 3 X . @ j 5 E.rXrX8XrX9X:X=XQ.W W >.'.'.2.2.K.4X8XtXuXuXwX}.|.@X;X*X* . .     ",
"    . . 1 j j j j 4 . . @ j k E.rX8X8X8X5X;X=XW./ W >.'.'.L.2.U.4X8XtXuXuXqX}.}.@X=X$X* . .     ",
"    . . 6 F N 2 @ @     X @ @ ` ].].2X8X9X2X3XQ.; % p.D.D.,.*.=.2X8XtXuXuXqX}.|.@X-X[.* . .     ",
"    . . z I P # . .       . . ! K.1.,XrX8X8X9X$X. . i.Z.Z.#.i *.2X8XtXuXuXqX}.|.@X-X[.* . .     ",
"    . . z I L # . .       . . ! ;.;.:X9X5X9XyX#X. . i.Z.A.#.h $.2X8XtXuXuXwX.X|.&X[.Q.* . .     ",
"    . . 2 l j X . .       . . o + & <.K.E.oX+XXX. . i.Z.Z.#.h %.2X8X8XrXtX1X*X*X~ O *           ",
"    . . 1 j j @ . .       . . . . . ) g.R.OXOXXX. . r.A.Z.#.g $.2X8X9X9X9X6X=X=Xw . .           ",
"    . . 1 3 3 X . .       E E 9 9 9 ) ` X.XXXX X. . #.Z.Z.#.h $.1X4X3X3X4X>XR.R.w . .           ",
"        . . .             Z.Z.G.'.).8 . . . . . . . i.Z.Z.#.g ( *X-X-X=X;Xo.. .                 ",
"        . . .             Z.Z.G.'.'.9 . . . . . . . i.Z.Z.#.h $.*X;X-X-X:Xo.. .                 ",
"          .               Z.Z.p.) ) 7 $ 1 6 6 2 . . [ J.G.Q , r O.t.O.o.X.d . .                 ",
"                              . . . 3 m l P 4.b . . ) '.(.9 . . 3 j 2 . . .                     ",
"                              . . . 6 4 l L I b . . ) '.(.9 . X 4 j 3 . . .                     ",
"                              . . . b F S < < 7 t t r 9 9 x v S B B N v b 6 . .                 ",
"                              . . . S I F X . ; / ( , . X S 4.K P I I 4.4.6 . X                 ",
"                              . . . S I F X . : ^ / 0 X X b F F P I I I K l & &                 ",
"                              . . X v K F X . < U U H F F 2 X # H K I U 4.r.V.V.E . .           ",
"                              . . . v K F X . < J J J J J # . X F 4.J P J a.Z.Z.E . .           ",
"                              # < < D T D X . 7 y.y.y.y.y.7 . X T T T T T r.b.b.E . .           ",
"                          . . z K 4.! W g X .  .uXuXuXuXuX .. o u y W W i ] 4.P < . .           ",
"                          . . z I I ! ( g o .  .uXuXuXuXuX .. o u i i i i ~ P J < . .           ",
"                          . . k I I ] ' ] o . e %X%X%X%X%Xe . o ] ' ' ' ' 6.7.7.2 . .           ",
"                          . . k K I 9.q.6.@ . q | { | | { - . @ 8.q.w.q.0.q.q.q.7 X .           ",
"                          . . k K K 9.q.8.X . q } } } } } q . @ 8.q.q.q.q.q.q.0.7 . .           ",
"                              # # < 6.w.8.o . % _ _ _ _ _ ; . X U 4.5.w.w.V 1 7                 ",
"                              . . . A w.8.X . ; i i i i i ; . X Y I 4.w.w.x . .                 ",
"                                . . T 8.A X . : %.%.` &.%.: . X S G U 6.8.x . .                 ",
"                                    @ X X . . w *X*X,X5X3Xa . . X X X X o o                     ",
"                                    . . . . . a :X:X2XrXrXd . . . . . . X .                     ",
"                                    . . . . X > <.<.R.#X#Xa O * O O ; : ; %                     ",
"                                          . . . . . . . . > p p p p f W / 8 . .                 ",
"                                          . . . . . . . . > p p p p f / / 8 . .                 ",
"                                              . . . . . . > p p s g g g / 8 . .                 ",
"                                                . . . . . > p p h h W / / 8 . .                 ",
"                                                . . . . . > p p y W y g W 8 . .                 ",
"                                                          o + + + O O O O +                     ",
"                                                          . . . X . . . . .                     ",
"                                                          . . . . . . . .                       ",
"                                                                                                "
};
