/* XPM */
static char *ad83b5e5f07648dbffc9975975cad459SDUEWmliJjqrnQbX[] = {
/* columns rows colors chars-per-pixel */
"48 64 236 2 ",
"   c None",
".  c #000001",
"X  c #010C04",
"o  c #0C0906",
"O  c #150C07",
"+  c #170D0A",
"@  c #041909",
"#  c #1A140A",
"$  c #000910",
"%  c #0A1118",
"&  c #21130B",
"*  c #29190C",
"=  c #261612",
"-  c #341D16",
";  c #361F0F",
":  c #05260C",
">  c #0A3809",
",  c #083913",
"<  c #142B12",
"1  c #3A2111",
"2  c #382617",
"3  c #2D2F19",
"4  c #111C27",
"5  c #322B22",
"6  c #3A342B",
"7  c #47281B",
"8  c #4B3619",
"9  c #57381D",
"0  c #542F1C",
"q  c #6E3D1E",
"w  c #64391D",
"e  c #713E1E",
"r  c #492A21",
"t  c #523322",
"y  c #663A20",
"u  c #763E20",
"i  c #0C420C",
"p  c #0A4717",
"a  c #164A13",
"s  c #0B571D",
"d  c #165C1A",
"f  c #11460F",
"g  c #2D4E19",
"h  c #16641B",
"j  c #29671A",
"k  c #21601A",
"l  c #34731E",
"z  c #2F5C24",
"x  c #0D6823",
"c  c #146C23",
"v  c #0E7B29",
"b  c #0E7626",
"n  c #117B29",
"m  c #1B7E2D",
"M  c #137526",
"N  c #286A25",
"B  c #376425",
"V  c #277727",
"C  c #0D5F20",
"Z  c #52451C",
"A  c #51510C",
"S  c #73411F",
"D  c #6E401F",
"F  c #4F5523",
"G  c #535523",
"H  c #594B2D",
"J  c #6B4821",
"K  c #744221",
"L  c #794624",
"P  c #7B4B26",
"I  c #7C4C2B",
"U  c #764924",
"Y  c #6C512D",
"T  c #557129",
"R  c #726D2F",
"E  c #2E4E6F",
"W  c #38624B",
"Q  c #574C4E",
"!  c #6B5248",
"~  c #5A7E58",
"^  c #746850",
"/  c #706D6C",
"(  c #454D78",
")  c #875A1B",
"_  c #85552A",
"`  c #875934",
"'  c #804E26",
"]  c #8D6438",
"[  c #956838",
"{  c #9B753B",
"}  c #916D2C",
"|  c #A57C3E",
" . c #A5783C",
".. c #A37E2B",
"X. c #A07E15",
"o. c #9D714C",
"O. c #946D4C",
"+. c #A27743",
"@. c #A47B42",
"#. c #A87D45",
"$. c #A37854",
"%. c #1B8429",
"&. c #198329",
"*. c #0D812A",
"=. c #248928",
"-. c #2E9429",
";. c #349A29",
":. c #389929",
">. c #338624",
",. c #3EA229",
"<. c #3FA829",
"1. c #498C28",
"2. c #459724",
"3. c #56922C",
"4. c #6C9034",
"5. c #41A529",
"6. c #4CA12B",
"7. c #42A92A",
"8. c #53AC26",
"9. c #7B9019",
"0. c #5EA56E",
"q. c #608859",
"w. c #B19913",
"e. c #B7AE0C",
"r. c #8C843C",
"t. c #97833D",
"y. c #979335",
"u. c #AC873B",
"i. c #B28D39",
"p. c #B49336",
"a. c #B89834",
"s. c #B18D27",
"d. c #B8AD28",
"f. c #C3A82B",
"g. c #CDB723",
"h. c #D1BC21",
"j. c #CDAA37",
"k. c #D0AF32",
"l. c #AAD00F",
"z. c #ACD124",
"x. c #D9C81A",
"c. c #D1D613",
"v. c #E5D616",
"b. c #E6DC06",
"n. c #D8EB08",
"m. c #EEE70A",
"M. c #F2EC0A",
"N. c #F5EC05",
"B. c #FEFE01",
"V. c #F8F408",
"C. c #F4E31B",
"Z. c #EDF10F",
"A. c #D7C222",
"S. c #EAD325",
"D. c #EBCF2D",
"F. c #F8E322",
"G. c #AB8345",
"H. c #BC8D45",
"J. c #AA825D",
"K. c #B28B58",
"L. c #B8945A",
"P. c #929368",
"I. c #A48669",
"U. c #B48D67",
"Y. c #BB966A",
"T. c #BC9A75",
"R. c #A89673",
"E. c #95A16B",
"W. c #A1976B",
"Q. c #CB9C4C",
"!. c #C49648",
"~. c #D19F4C",
"^. c #D4A749",
"/. c #DEAC53",
"(. c #D7A552",
"). c #C6A946",
"_. c #E3B847",
"`. c #E0AE53",
"'. c #E3B154",
"]. c #C29E77",
"[. c #C09C68",
"{. c #C7A47A",
"}. c #B8E449",
"|. c #2D4E9B",
" X c #2F509B",
".X c #37559A",
"XX c #3C5BA2",
"oX c #526CA8",
"OX c #526AA3",
"+X c #5C6E9F",
"@X c #6996A6",
"#X c #60CDA3",
"$X c #008CC4",
"%X c #00BCFF",
"&X c #25B7EB",
"*X c #35B4D3",
"=X c #19C2E7",
"-X c #1B97B1",
";X c #838485",
":X c #B8B094",
">X c #9498AB",
",X c #98A9B8",
"<X c #B2B3A4",
"1X c #AD9D81",
"2X c #C9AB86",
"3X c #D1AF85",
"4X c #D5B58C",
"5X c #D8B68D",
"6X c #D6B689",
"7X c #DBBB92",
"8X c #D9BF99",
"9X c #C9B6A5",
"0X c #AEC0AE",
"qX c #E3C49B",
"wX c #D6C8B7",
"eX c #D6C8AB",
"rX c #E8CBA2",
"tX c #EED2A9",
"yX c #F1D7AD",
"uX c #F6DCB3",
"iX c #F8DEB5",
"pX c #E1CBB0",
"aX c #FEE6BD",
"sX c #FFE8BF",
"dX c #F9E0B7",
"fX c #DEC099",
"gX c #90A2C9",
"hX c #DCDAD2",
"jX c #FFEAC2",
"kX c #FCE9CB",
"lX c #FDF1D5",
"zX c #CED5E6",
"xX c #DEE6E7",
"cX c #FEFEFD",
"vX c #F7F8F5",
"bX c #F5EDE3",
/* pixels */
"                                . . : M v n n n v n n n v C X . .                               ",
"                                . . : b v v n n v v v v v C . . .                               ",
"                                @ : f %.%.=.%.%.=.%.%.%.=.c : : @                               ",
"                          . . @ x M %.:.5.:.,.,.,.,.,.5.2.-.v v p . .                           ",
"                          . . @ x v %.,.5.,.5.5.5.5.2.7.7.;.n n p . .                           ",
"                          : , p b n &.-.-.-.-.-.-.-.-.-.-.=.n n C , , :                         ",
"                    . . . s v n v n v n v n n n v v v n v v v v v v v : . .                     ",
"                    . . X s n n n n n n n n n n v n n n v v m n n v n : . .                     ",
"                . . : s s V ;.-.-.-.-.;.-.-.-.-.;.-.-.;.-.-.-.;.-.-.-.c s p X .                 ",
"                . . p n n -.7.,.,.,.<.,.,.,.5.<.,.5.5.5.5.5.5.5.5.5.2.=.*.x @ . .               ",
"                . . p &.m :.6.6.7.8.8.8.8.8.5.6.6.6.2.8.8.8.2.6.6.6.6.=.&.c @ . .               ",
"                . . a ;.:.4.r.y.c.n.n.n.n.d.r.r.r.r.y.c.n.z.y.r.r.r.r.3.,.>.@ . .               ",
"                . . z 7.6.r.#.p.M.B.B.B.B.x.+.+.+.+.i.N.B.v.| @.$.+.{ 3.7.:.: . .               ",
"                @ @ z 6.3.r.+.p.m.B.V.m.v.h.a.a.G.+.i.M.B.m.a.a.i.@.u.4.3.1.< @ @               ",
"          . . : x b T t.t.o.+.p.m.B.v.p.i.g.M.M.a.@.u.M.B.B.M.M.g.@.@.o.t.r.V b s X .           ",
"          . . : b n T | | @.+.i.M.B.v.| +.h.B.B.f.+.u.M.B.B.B.B.x.+.@.@.#.o.V *.s X . .         ",
"          2 & 3 B B R H.H.a.f.g.S.F.D.f.f.h.x.v.g.f.f.v.C.C.v.x.x.f.f.u.| O.T B z * = t         ",
"@.G.{.5X{.I D D S K u./.`.C.B.Z._./.D.V.V.h.| u.v.V.V._.`.^.u.| g.V.V.f.o.{ U J u u J O.4X4XL.@.",
"@.G.{.5X{.I S S e e | /.`.C.B.V._.`.D.B.B.x.@.| v.B.V._./.~.+. .g.B.B.d.u.{ P S J u u o.4X4XL.| ",
"` ] 3XrXqX{.Y.J.] ` f.S.S.A.h.A.S.S.D.h.g.a.+.u.v.B.V.j.!.L.Y.[.).h.h.h.A.g..._ O.U.Y.4XrXqXJ.` ",
"u I 7XjXsXsXjXfXG.@.h.B.V.f.+.i.m.B.v.u.+.+.@.G.v.B.N.i.+.K.3X4XY.+.| v.B.N.p.o.Y.uXsXsXsXdXJ.u ",
"q I 4XiXdXdXaX7X#.| g.B.M.f.@.a.m.B.v.u.u.@.@.u.x.N.m.i.#.K.4X7X[.+.u.x.B.M.p. .L.uXaXdXiXyX$.K ",
"    o.$.J.5XqX{.` I ..f.f.!.Q.j.V.B.V.v.v.k.Q.!.s.X.s.[.].3XtXyX{.@.@.j.D._.G.{ L.7XqX{.$.$.O.  ",
"    D D _ {.5XU.U u ` +.G.Q.`._.V.B.B.B.B.S././.] w L {.4XqXiXjX6X+.#.Q.`./.G. .K.3X5XJ.e q     ",
"    K e ] :X:XR.) ) } {  .!.`._.C.V.V.V.N.D.Q.~.[ ' ` 3X7XqXaXaX6XG.G.!.(.Q.i.i.!.:X:XI.J K     ",
"          =X&X#Xv.m.w.L _ !.`.`._._.^.p.p.{ _ _ K.].2XyXuXuXaXjXtX{.{.O.' } x.N.}.*X=X*X        ",
"          %X%X#XZ.B.w.u S H.`./././.^.#.+.` u L U.5X7XiXaXjXaXkXtX5X4X] q ) b.B.}.=X%X%X        ",
"          $X$X0.Z.B.e.I I { G.H.Q.(.H.{ { ] ` ` ].fXfXyXuXtXfX8X{.W.I.O.L } b.B.}.-X$X$X        ",
"          $ $ A V.B.h. .[ 2 X = ] G.[ P S $.3X3XyXaXiXfX5X].` I 7 + $ Y  .u.m.B.e.* X $         ",
"          . . A N.B.h.+.{ 2 . # ] @.[ K S $.4X4XyXjXiX7X4XY.u u 1 . . Y +.i.m.B.l.# . .         ",
"          . . A v.F.a.} ] ^ / / / / ^ K S J.qXrXuXaXuXT.$.O.Q Q Q / / ] ] { A.F.w.# . .         ",
"          . . 8 ~.`. .S I wXcXzXoX X( u S Y.sXsXiXjXtX` L ! .X|.gXcXcX$.e ' Q.'.| # . .         ",
"          . . 8 ^./. .K I wXcXxXoX|.( u L U.aXsXjXaXtX] e !  X XgXcXvXI.y P !.'.u.+ . .         ",
"              2 Z H 7 * 5 :XlXhXoX|.oX9X9XpXaXaXiXjXiX9X9X>X.X|.,XlXkX^ * ; 9 J 9               ",
"                . . . . # 1XsXwXoX|.@XvXcXbXaXaXjXaXjXvXcXzX X|.>XdXuXQ . . . . .               ",
"                . . . . + 1XaXpX+X X@XvXcXlXaXaXaXaXsXvXvXzXOXXX>XuXuXQ . . . . .               ",
"                    . . o O.L.Y.9X9XhXkXkXkXaXaXaXaXjXkXkXkX9XwX:XY.U.8 . .                     ",
"                    . . o Y { L.uXkXaXaXaXjXaXsXjXaXaXaXsXsXjXjX{.G.{ 2 . .                     ",
"                    @ @ # Y { #.5XpXrXuXuXuXuXuXuXuXuXuXiXuXrXrX{. .{ 3 @ X                     ",
"                . . , x c G P P ` ` o.5X7X5X7X7X7X7X7X7X7X].` ` _ S U z c x @ . .               ",
"                . . , v b F e S u e ] 2X5X5X5X5X6X4X4X5X5X[.L S S e S B v x @ . .               ",
"              % 4 4 W 0.0.T Z Z G Z R E.E.E.E.E.E.E.E.E.P.P.G G G Z Z q.0.q.3 % +               ",
"          . . 4 E E ,XvXxX~ > a c M m m m m m m m &.m m m m M n h i f <XvXhX! 7 - o . .         ",
"          . . 4 E E ,XcXbX~ > p M n v v v v v v v v v v b v v v C i i 0XcXxX! r - . . .         ",
"        O ; ; 6 Q Q / ;X$.H g g M v n n v v v n v v n n n n n n k g A / q.;XH y 0 1 - * .       ",
"    . . O w S e S K * . $ 0 e J N v v n v v v v v b v v v v n n F e D & . + 9 K u K u 7 . .     ",
"    . . O w L L U U 1 . $ r K J V v M n M m m m M &.V M n n n n B e S * . o w U L L L 2 . .     ",
"    . . = $.U.Y.3X{.^ : > B 3.T F F F F F 9.l.l.l.l.l.T F F G G T 1.T g : 3 R.3X{.U.U.Y . .     ",
"    . . = 1X7XrXjXjXP.f f >.7.2.U P S S S e.B.B.B.B.N.) S S S S T 5.5.k i k eXjXdXfX7X^ . .     ",
"    . . 5 I.{.2XeXeXq., f V 5.2.G U J J J w.n.n.n.Z.b.R J J J J T ,.:.d > g :XpX8X].{.! . .     ",
"          3 5 5 6 r < X @ d %.=.1.1.1.V c l 2.2.2.:.>.l N V 1.1.>.=.&.> X @ 5 6 6 5 5 5         ",
"          . . . . . . . X s v m ;.5.-.n v v v v b b v v v %.<.5.-.n v : . . . . . . . .         ",
"          . . . . . . . . p s c -.;.-.%.&.&.%.%.&.&.&.&.&.=.;.;.=.s s : . . . . . . .           ",
"                    . . . X X : c &.=.;.,.,.,.2.,.,.,.,.,.;.&.&.p X X . . .                     ",
"                    . . . . . X x n %.,.7.7.5.5.<.<.5.5.5.;.n v p . . . . .                     ",
"                    & * * & # # p p d j j N j j j j j j j k p s < # # * * *                     ",
"                . . 1 u y t r 2 o . . . . . X . . X . . X . . . = 7 r y u w O . .               ",
"                . . 1 u K t r 7 o . . . . . . . . . . . . . . . = r r y u y + . .               ",
"                . . 1 u u y y 0 - = = . . .         . . . o & = 2 9 y y K w O . .               ",
"                . . 1 L K u u y t r - . . .           . . + r r y u u u K w O . .               ",
"                . . 1 q u q q w r r - . .             . . + 7 r 0 q q q e w O . .               ",
"                    + & # & & # + + O                       O O # & & & & &                     ",
"                    . . . . . . . . .                       . . . . . . . .                     ",
"                    . . . . . . . . .                       . . . . . . . .                     "
};
