/* XPM */
static char *a10d81b1ef824416cca0c654e22398b5LQKumMhksVSNRHO5[] = {
/* columns rows colors chars-per-pixel */
"48 63 218 2 ",
"   c None",
".  c #010001",
"X  c #0A0505",
"o  c #020C04",
"O  c #0E0805",
"+  c #150C0A",
"@  c #190E0A",
"#  c #190C07",
"$  c #031305",
"%  c #051B06",
"&  c #061909",
"*  c #181407",
"=  c #15181B",
"-  c #2A180D",
";  c #281914",
":  c #321C15",
">  c #381F17",
",  c #351D0E",
"<  c #062307",
"1  c #05230B",
"2  c #092B0A",
"3  c #07280A",
"4  c #0A330A",
"5  c #0B3E0B",
"6  c #0B3E07",
"7  c #15340E",
"8  c #073813",
"9  c #163C10",
"0  c #14290E",
"q  c #2C2D04",
"w  c #3B2316",
"e  c #2E2D11",
"r  c #121A23",
"t  c #292929",
"y  c #3C3125",
"u  c #43251D",
"i  c #4A2A19",
"p  c #48391C",
"a  c #563118",
"s  c #57361C",
"d  c #4D3213",
"f  c #62371B",
"g  c #673A1D",
"h  c #713E1E",
"j  c #4C2B21",
"k  c #543C23",
"l  c #483328",
"z  c #653A21",
"x  c #733E20",
"c  c #0D420D",
"v  c #0E490D",
"b  c #114A0F",
"n  c #13410E",
"m  c #0A4315",
"M  c #0D4B12",
"N  c #0B4D1C",
"B  c #074217",
"V  c #144E11",
"C  c #1C4A14",
"Z  c #164515",
"A  c #0E5215",
"S  c #0E5D1C",
"D  c #0C531A",
"F  c #1A5B14",
"G  c #175614",
"H  c #255619",
"J  c #2F5117",
"K  c #0F641E",
"L  c #0F681F",
"P  c #1E6116",
"I  c #12641D",
"U  c #1C651B",
"Y  c #246C19",
"T  c #236515",
"R  c #2A771C",
"E  c #317A1F",
"W  c #0C5E20",
"Q  c #3B5429",
"!  c #0F6C22",
"~  c #0E6724",
"^  c #0F7225",
"/  c #0F7B29",
"(  c #0E7927",
")  c #117626",
"_  c #197628",
"`  c #107B29",
"'  c #157927",
"]  c #166A24",
"[  c #276D26",
"{  c #3B6128",
"}  c #23782A",
"|  c #37683A",
" . c #4C4219",
".. c #504B0F",
"X. c #63421D",
"o. c #73401F",
"O. c #7F4E1E",
"+. c #73511F",
"@. c #544D26",
"#. c #6C4D21",
"$. c #684725",
"%. c #744221",
"&. c #7A4826",
"*. c #675822",
"=. c #74572D",
"-. c #725236",
";. c #5D6C24",
":. c #556822",
">. c #416533",
",. c #4F6B25",
"<. c #7A6D34",
"1. c #1E3449",
"2. c #0B6B4D",
"3. c #325170",
"4. c #086D64",
"5. c #266B59",
"6. c #675646",
"7. c #4F734D",
"8. c #756E4E",
"9. c #516563",
"0. c #9B7819",
"q. c #82532A",
"w. c #895B2F",
"e. c #895C38",
"r. c #925F2E",
"t. c #8A6438",
"y. c #946836",
"u. c #9D733D",
"i. c #97682E",
"p. c #A1773E",
"a. c #936643",
"s. c #A47B41",
"d. c #A97E43",
"f. c #A37A56",
"g. c #887A64",
"h. c #198329",
"j. c #238B29",
"k. c #268929",
"l. c #338922",
"z. c #2D9329",
"x. c #3B9626",
"c. c #3C9B27",
"v. c #3A9E29",
"b. c #359829",
"n. c #3EA329",
"m. c #6BB71E",
"M. c #459C28",
"N. c #449828",
"B. c #58902B",
"V. c #719136",
"C. c #709035",
"Z. c #41A429",
"A. c #44AA2A",
"S. c #54AD24",
"D. c #6AA635",
"F. c #77A27D",
"G. c #B69C10",
"H. c #809C2F",
"J. c #AC853C",
"K. c #B69433",
"L. c #8BAE32",
"P. c #BEA12F",
"I. c #D2BB22",
"U. c #DBBE30",
"Y. c #9CD015",
"T. c #9BCC19",
"R. c #C6C500",
"E. c #DEDE00",
"W. c #E7DC11",
"Q. c #E8DE10",
"!. c #E5DD0A",
"~. c #F4F304",
"^. c #FFFE00",
"/. c #FCF708",
"(. c #EBEF03",
"). c #E1CC29",
"_. c #AA8249",
"`. c #91836C",
"'. c #978C6A",
"]. c #B4A579",
"[. c #82B852",
"{. c #C6A34D",
"}. c #DFAD52",
"|. c #E2AD54",
" X c #E4B748",
".X c #C19D6D",
"XX c #CF9E4F",
"oX c #9BE666",
"OX c #8ECC5A",
"+X c #067C83",
"@X c #678580",
"#X c #01A8DE",
"$X c #19A0D0",
"%X c #00BCFF",
"&X c #179FD1",
"*X c #B5B386",
"=X c #9AA9B8",
"-X c #A8B7A6",
";X c #D1AF85",
":X c #D4B38A",
">X c #D8B68D",
",X c #DCBA91",
"<X c #CBAD85",
"1X c #ABCCB1",
"2X c #DFC099",
"3X c #E3C399",
"4X c #EACDA4",
"5X c #E5CEA8",
"6X c #ECD0A4",
"7X c #EFD5AC",
"8X c #F2D6AA",
"9X c #F7DCB3",
"0X c #EDD6B0",
"qX c #FDE5BC",
"wX c #FFEBC2",
"eX c #FFF0C5",
"rX c #E9E7E7",
"tX c #FAF9F9",
/* pixels */
"                                                                                                ",
"                                    %.%.&.s.s.s.s.s.s.s.s.q.o.%.                                ",
"                                    h o.%.u.s.s.s.s.s.s.s.&.o.o.                                ",
"                                    q.r.i.P.P.P.K.P.J.s.s.w.=.q.                                ",
"                              . . . J.|. X/.^.^.^.^.I.p.s.s.s.K.~.^.W.s.s.s.                    ",
"                              . . . _.|. X/.^.^.^.^.I.s.s.s.s.J.~.^.W.s.s.s.                    ",
"                          . . 9 H H V.L.L.T.Y.T.Y.Y.L.C.C.C.C.H.~.^.W.s.s.s.s.s.                ",
"                          . . H A.A.n.n.Z.n.n.v.n.n.n.n.Z.n.Z.S.(.^.Q.p.s.s.J.s.                ",
"                          . . H A.n.n.Z.Z.Z.Z.Z.Z.n.Z.n.Z.Z.M.S.(.^.W.s.s.s.u._.                ",
"                    . . 7 E E Y F F F F F F F F F F F F F F F T m.m.L.{.XXU.!.W.0.x %.          ",
"                    . . 7 A.A.Y 5 5 c c c 5 5 5 5 5 c c 5 5 5 b b.n.D.}.|.W.^.^.0.x %.          ",
"                    $ o 9 x.x.Y V V V V V V V V V V V V V V V F x.x.B.{.{.U.E.E.0.%.&.          ",
"              . . $ ~ ^ K M V R c.c.c.c.c.c.c.c.c.c.c.c.c.c.c.x.G b I } } H * * =.s.s.          ",
"              . . $ ) ` ! 5 5 R A.Z.Z.Z.Z.Z.Z.Z.Z.Z.Z.Z.Z.Z.Z.c.M 5 M / h.8 . . =.s.s.          ",
"              . . o S ~ I P P l.Z.Z.Z.Z.Z.Z.Z.Z.M.Z.Z.Z.Z.Z.Z.c.Y P U ! ! 8 . . $._.s.          ",
"              . . o 5 5 T Z.Z.Z.Z.Z.Z.Z.Z.Z.Z.Z.n.n.Z.Z.Z.Z.Z.Z.Z.Z.l.c c < . .                 ",
"              . . o 5 5 P Z.Z.Z.Z.Z.Z.Z.Z.Z.Z.Z.Z.Z.Z.Z.Z.Z.Z.Z.n.A.l.c c < . .                 ",
"    s.s..X>X<Xe < 2 S K U Y Y l.Z.Z.Z.Z.Z.Z.Z.Z.Z.Z.Z.Z.Z.Z.Z.c.R Y T K K m < 2 8.,X;X_.s.      ",
"    s.s..X>X<X{ c M ` / L c 5 R Z.Z.Z.Z.Z.Z.Z.Z.Z.Z.Z.Z.Z.Z.Z.c.b 5 A / ` K n c '.,X;X_.s.s.    ",
"    s.s..X>X:X{ c M ) ` L v c R Z.M.Z.Z.Z.Z.Z.Z.Z.Z.Z.Z.Z.Z.n.c.V c A ) ` S c c '.,X:X_.s.s.    ",
"h f.6X5X0X9X0X>.6 M ) / ( ! ) k.Z.Z.Z.Z.Z.Z.Z.Z.M.n.Z.Z.Z.Z.Z.c.) ! ) ` ` S c c ].9X9X8X4X:X&.%.",
"h f.wXwXwXqXqX>.6 M ( ( ` ` / z.Z.Z.Z.Z.Z.Z.Z.Z.Z.Z.Z.Z.Z.Z.Z.n.h./ ` / ` S c c *XeXqXwXwX2X%.%.",
"h f.4X4X7X8X4X{ c M ( ( ) ^ ^ j.v.v.Z.Z.Z.Z.Z.Z.Z.Z.Z.Z.Z.v.v.b.) ^ ) ` ` S c c ].9X7X7X4X;X&.%.",
"    &.&.y._.s.J 5 M ( / ! c v I h.` v.Z.Z.Z.Z.Z.Z.Z.Z.Z.Z.j.` ) b v A ` ` I c c <._._.q.&.&.    ",
"    %.%.t.s.s.J 5 v ( / ! c c K / ` b.Z.Z.Z.Z.Z.Z.Z.Z.Z.Z.h./ ) v v A ( ` S 6 9 <.J.u.#.%.%.    ",
"    %.%.w.y.t.5.4.4.L L D 2 2 D ` ` z.z.z.Z.Z.Z.Z.Z.v.z.z.h.` ) 4 2 5 ~ K ^ 4.4.6.i.y.&.%.      ",
"        %.x %.$X%X#XD c 2 . . m ` ` ` ` ' n.Z.Z.Z.Z.j./ ` ` ` ! o . $ 5 8 +X%X%X9.h h           ",
"        %.%.$.&X%X#XN c 2 . . m ` ` ` ` h.n.Z.Z.Z.Z.z./ ` ` ` ! o . $ c m +X%X%X9.o.%.          ",
"        - , : [.oXOX . .e . . m ` ` ` ` ` j.j.j.k.k.h.( ` ` ` ! o . +  .p V.oXoX@., :           ",
"        . . X R.^.(.O.x i . . m ` ` ` ` / / / ) ) ` ` ` ` ` ` ! o . @ o.o.G.^.^.... .           ",
"        . . o R.^.E.O.%.d . . m ` ` ` ` ) ` ` ` ` ` ` ` ` ` / ! o . - o.%.G.~.~...o .           ",
"              q q d y.u.$.. . 2 M M ! ` ` ` ` ` ` ` ` ` ) S M m o . - u.u.#.q q                 ",
"              . . + u._.=.. . 3 m v ! ` ` ` ` ` ` ` ` ` ` A c 5 o . : d._. .. .                 ",
"              . . @ =.t.@.. . & 5 5 ! ` ` ` ` ` ` ` ` ` / M 4 4 . . ; t.t.l . .                 ",
"                    X X X . . . . . W ` / ` ) ` ` ` ` ` / 1 . . . . . . X X                     ",
"                    . . . . . . . . S ` ` ` ` ` ` ` / ` / & . . . . . . . .                     ",
"                    8 2 3 % & o . . N ~ ~ ) ` ` ` ` ! K ~ % . . $ % 1 8 8 1                     ",
"              . . $ ( / ! c v % . . 4 c v ) ` ` ` ` S 5 c $ . o 5 c A h./ B . .                 ",
"              . . $ ^ h.! c c % . . 4 c M ) ` ` ` ` S c c $ . . 5 c A / ( B . o                 ",
"          . . ; : y -X1XF.5 c M N N 3 $ 1 ^ ` ` ` ` N % $ 8 D N c c | 1X1X@X1.1.r . .           ",
"        . . . w j 6.tXtX1Xc c K h./ & . o ^ ` ` ` ` 8 . . S h.( m 6 7.tXtX=X3.3.r . .           ",
"        . X X w j 6.rXtX-Xn n I / ` & . $ ^ ` ) ) ` 8 . . W ` ) b 9 7.rXtX=X3.3.r . X           ",
"    . . w z f z z f t t y s f { / / & . o m M M M M 3 . . S h._ X.X.k t t l $.$.g f a X . .     ",
"    . . i h x x x f X . - h o.{ / / % . . 5 c c v c 1 . . W ` _ X.%.d . . , o.o.o.h g X . .     ",
"    . . k a.a.e.e.&.O o q *.*.,.[ [ 0 # * 4 4 4 4 4 * + + H [ [ *.*. .$ o i e.r.a.a.e.+ . .     ",
"    . . `.wX9X,X:X].C 5 G Z.Z.;.h %.h o.f X . . . . w o.o.#.o.#.M.Z.l.5 c 7.>X;X0XqX5X; . .     ",
"    . . '.eXwX3X,X].C c F n.Z.;.h h x %.g X . . . . w o.o.o.x #.M.A.l.n B 8.2X>X9XeX0X; . .     ",
"    . . 6.`.g.g.8.6.2 < C Z.Z.B.;.;.;.;.:.C C C C C J ;.;.;.;.;.M.Z.l.< <  .8.8.g.`.g.= .       ",
"        . . . . . . . . 7 Z.n.n.Z.Z.A.Z.Z.A.Z.A.Z.A.A.A.n.A.n.Z.Z.Z.E . . . . . . . .           ",
"        . . . . . . . . 7 Z.Z.Z.Z.Z.Z.Z.Z.Z.Z.Z.Z.Z.Z.Z.Z.Z.Z.Z.Z.A.E . . . . . . . .           ",
"              . . X : : ; 7 7 U j.j.v.Z.Z.Z.Z.Z.Z.Z.Z.Z.n.z.j._ 9 7 0 : > @ . . .               ",
"              . . X j j w . . B / / b.Z.Z.Z.Z.Z.n.Z.Z.n.n.h.( ! o . + j j ; . .                 ",
"              . . X > j : . X B _ _ b.M.N.N.x.x.x.x.N.M.M.k._ ] $ X + u u ; . .                 ",
"                    X X @ u > k X.$.#.+.$.& & & % & w +.#.$.$.$.u u : O X X                     ",
"                    . . @ j j z O.%.o.o.f X . . . . w O.o.o.o.x j j > . . .                     ",
"                    . . + > > i a a a a i O . . . . , a a a a a w > ; . .                       ",
"                          . . . . . X . .           . . . . . . . . .                           ",
"                          . . . . . . . .           . . . . . . . . .                           ",
"                          . . . . . . .               . . . . . . .                             ",
"                                                                                                ",
"                                                                                                ",
"                                                                                                ",
"                                                                                                "
};
