/* XPM */
static char *_5055ef866c94132cedca7e4d9a61499VUZgk7CeWacJGf8B[] = {
/* columns rows colors chars-per-pixel */
"50 64 233 2 ",
"   c None",
".  c #000001",
"X  c #0B0605",
"o  c #0D0907",
"O  c #020A04",
"+  c #130B06",
"@  c #120D0A",
"#  c #190E0C",
"$  c #041406",
"%  c #0A1A07",
"&  c #041D0A",
"*  c #051A07",
"=  c #1D1109",
"-  c #18170B",
";  c #151413",
":  c #23150B",
">  c #261814",
",  c #311B16",
"<  c #06290C",
"1  c #083E15",
"2  c #073412",
"3  c #123510",
"4  c #313101",
"5  c #2A241D",
"6  c #382415",
"7  c #2F2D02",
"8  c #323839",
"9  c #46271E",
"0  c #462617",
"q  c #57321A",
"w  c #51351B",
"e  c #6D3C1D",
"r  c #62371A",
"t  c #713E1D",
"y  c #4B2920",
"u  c #593321",
"i  c #483930",
"p  c #653921",
"a  c #733E20",
"s  c #0C420D",
"d  c #094316",
"f  c #0B581E",
"g  c #154D18",
"h  c #324616",
"j  c #28761C",
"k  c #2A741E",
"l  c #135420",
"z  c #2E4E33",
"x  c #0D6622",
"c  c #0E7A29",
"v  c #0F7527",
"b  c #107B29",
"n  c #197528",
"m  c #1F762B",
"M  c #2D6C26",
"N  c #306F26",
"B  c #17631E",
"V  c #434219",
"C  c #73411F",
"Z  c #7B4B1E",
"A  c #6C411F",
"S  c #565223",
"D  c #5B463B",
"F  c #5B482A",
"G  c #6A4725",
"H  c #744120",
"J  c #7D4D29",
"K  c #664536",
"L  c #755433",
"P  c #5D7224",
"I  c #4A7A2E",
"U  c #7F632E",
"Y  c #013449",
"T  c #2E5175",
"R  c #315274",
"E  c #2C5067",
"W  c #544B47",
"Q  c #6D6454",
"!  c #4D6B6E",
"~  c #4F536A",
"^  c #997518",
"/  c #83542B",
"(  c #915F2E",
")  c #875A37",
"_  c #814E26",
"`  c #896635",
"'  c #966936",
"]  c #99723D",
"[  c #A47A3E",
"{  c #A4793E",
"}  c #A57A2F",
"|  c #926542",
" . c #976B47",
".. c #9D734E",
"X. c #906F52",
"o. c #A27743",
"O. c #A47A42",
"+. c #A87E44",
"@. c #A37954",
"#. c #857F7D",
"$. c #18832A",
"%. c #0F802A",
"&. c #258D29",
"*. c #288826",
"=. c #2A9229",
"-. c #3D9A27",
";. c #329629",
":. c #369C29",
">. c #208031",
",. c #3FA329",
"<. c #54A11D",
"1. c #519029",
"2. c #7B8B38",
"3. c #789134",
"4. c #42A529",
"5. c #46A62B",
"6. c #50A12C",
"7. c #66A01C",
"8. c #929200",
"9. c #8D870B",
"0. c #818939",
"q. c #96823D",
"w. c #89972F",
"e. c #A9823D",
"r. c #AF8B36",
"t. c #B08D38",
"y. c #B59335",
"u. c #B99932",
"i. c #AF8B2C",
"p. c #BFA32D",
"a. c #B0A63D",
"s. c #90B21E",
"d. c #C8B01A",
"f. c #C4AA2A",
"g. c #C0A42C",
"h. c #CFB922",
"j. c #C1B624",
"k. c #D1BA23",
"l. c #D2B136",
"z. c #C5983D",
"x. c #8DC114",
"c. c #BBDF0F",
"v. c #B2D115",
"b. c #BCE00E",
"n. c #D6C70A",
"m. c #D5C21F",
"M. c #D9CC0E",
"N. c #E3D615",
"B. c #E6DA12",
"V. c #E8DA17",
"C. c #E8DD10",
"Z. c #EEE60B",
"A. c #F1EA0A",
"S. c #FFFE01",
"D. c #FAF20D",
"F. c #F7F504",
"G. c #F6E817",
"H. c #F3E813",
"J. c #ECD428",
"K. c #E9C639",
"L. c #E8C835",
"P. c #ECD132",
"I. c #DEC726",
"U. c #919350",
"Y. c #AB8244",
"T. c #AC854E",
"R. c #AC8459",
"E. c #B38D57",
"W. c #BA9048",
"Q. c #96866C",
"!. c #AD8761",
"~. c #AB8C77",
"^. c #B89975",
"/. c #B4936B",
"(. c #BBAC7E",
"). c #C7984A",
"_. c #DAAA4D",
"`. c #DEAB53",
"'. c #D6A550",
"]. c #CAAC45",
"[. c #E4BB44",
"{. c #E0B14E",
"}. c #E3B847",
"|. c #E1AE56",
" X c #E3B256",
".X c #C09C75",
"XX c #C7A476",
"oX c #D7B776",
"OX c #2C4E9A",
"+X c #36549A",
"@X c #2F529E",
"#X c #3A5AA1",
"$X c #65739B",
"%X c #5D9693",
"&X c #7489BA",
"*X c #7180A6",
"=X c #7DB9BE",
"-X c #13A4D8",
";X c #00BBFF",
":X c #0BA8E1",
">X c #79D0E2",
",X c #B5A593",
"<X c #AFABAE",
"1X c #99A48F",
"2X c #C9AB85",
"3X c #D5B48B",
"4X c #D6B588",
"5X c #DDBE95",
"6X c #D7BC9D",
"7X c #CFB58F",
"8X c #DFC097",
"9X c #E3C499",
"0X c #D7C7B1",
"qX c #F4D7AC",
"wX c #F6DCB3",
"eX c #EFD6AD",
"rX c #FEE5BC",
"tX c #FFE8BE",
"yX c #FCE0B1",
"uX c #82C6CF",
"iX c #CCC3C0",
"pX c #D3CECD",
"aX c #FFEAC1",
"sX c #FFEBC9",
"dX c #FFF1DA",
"fX c #F2E6D5",
"gX c #D4DAE9",
"hX c #DDE3F0",
"jX c #FDF6E9",
"kX c #FEFEFE",
"lX c #FDF9F4",
"zX c #EDEAE7",
"xX c #E6DAC9",
/* pixels */
"                          . . . f b b b b b b b b c b b b n c b c $ . .                             ",
"                          . . . f b b b b b b b b b c b b b b b c $ . .                             ",
"                          * & < f b b b b b b b b b b b b c b b c 2 * &                             ",
"                      . . 1 b v c b b b b b b b n b c b b b c c b b c x O . .                       ",
"                      . . 1 c c c b c c c b c b c c b c b c c c c c c x O . .                       ",
"                    & 1 2 B &.&.&.&.&.&.&.&.&.&.&.&.&.&.&.&.&.&.&.&.&.*.1 2 2                       ",
"                . . < c c =.5.4.4.4.4.4.4.4.4.4.4.4.4.4.4.4.4.4.4.4.4.:.$.%.f . . .                 ",
"                . . < b c =.4.4.4.,.,.4.4.4.4.4.4.4.4.,.4.,.,.4.4.4.4.,.b b f . . .                 ",
"                . . 3 ;.;.1.0.0.v.v.c.w.0.w.v.b.v.0.0.s.b.b.c.c.c.w.0.2.:.;.m . . .                 ",
"                . . 3 ,.,.3.+.+.B.S.F.y.+.t.S.S.N.O.+.k.S.S.S.S.S.y.[ ..6.5.k . . .                 ",
"                . . 3 4.4.3.+.e.N.S.F.y.+.y.F.S.N.+.o.h.S.S.S.F.F.u.e.q.6.5.N O . O                 ",
"          . . $ x x N Y.q.j.Z.Z.f.y.u.B.Z.A.S.S.N.o.o.h.S.S.h.y.u.N.A.C.].].w.x x d . .             ",
"          . . * c c I O.o.k.S.S.g.o.Y.A.S.S.S.S.N.O.O.k.S.S.f.o.e.Z.S.D.{. Xa.b b d . .             ",
"          # + - M m I Y.Y.k.A.A.f.t.y.C.D.D.S.S.N.O.o.k.S.S.f.o.O.N.A.Z.[.[.a.m m g + +             ",
"O.O.XX3X2XJ e e G A ( _.`.W.e.e.N.F.F.[.{.[.F.S.N.O.O.k.S.S.f.o.O.e.e.y.D.S.M.A H G e e !.3X3XE.O.O.",
"O.Y.XX3X2XJ e t A e ' `.`.).o.O.N.S.S.}.`.[.S.S.N.o.o.h.S.S.f.] O.O.o.t.F.S.M.C H a t e !.3X4XT.O.O.",
"' ' 2X9X5X@.@.../ / } K.K.l.g.g.N.G.G.L.K.L.N.N.m.f.p.k.N.N.].E.E.Y.O.t.F.S.B./ / ` @.@.XX9X9X@.' ' ",
"H H 5XaXrXrXrXeX+.o.g.S.S.S.S.S.K.`.`.D.S.A.e.o.p.S.S.m.o.[ XX3X3XT.O.r.F.S.C.[ O.XXaXrXaXrXrX| t C ",
"H H 5XaXrXrXrXqXY.+.f.S.S.S.S.S.K.`.{.D.S.A.e.o.p.S.S.m.o.O.XX4X3XT.] r.F.S.C.Y.o.XXaXrXaXaXrX .t C ",
"    !././.uX>X=X) / i.J.J.I.k.k._.`.{.D.S.A.e.o.p.S.S.m.O.[ .X4X4X4X4XoXP.J.l.o.{ 1X>X>X1X/./.)     ",
"    C C K :X;X-XG t ' `.`.W.[ ..).|.{.D.S.A.e.o.p.S.S.m.{ { XX3X3XwXaXyX|.`.'.+.{ %X;X;X! p G       ",
"    C C K :X;X-XG A ' `.{.W.e.O.).|.{.A.S.A.e.o.p.S.S.k.O.{ .X3X3XwXtXwX|.{.).+.{ %X;X;X! C H       ",
"          Y Y z n.n.d.( ( ] O.O.'.`.{.D.S.S.B.B.J.K.K.z.O.O.4XwXwX9X9X4X' ( } N.C.w.Y Y 8           ",
"          . . 4 F.S.d.a e ( O.e.).`.{.D.S.S.S.S.G.`.|.).O.{ 5XaXaX5X3XXXH t ^ S.S.8.. .             ",
"          . . 4 F.S.n.H H ( ] ] ).`.`.H.F.F.F.S.J.'.'.).+.+.3XwXeX2X2X^._ H ^ S.S.8.. .             ",
"          . . 4 F.S.M.] ] F @ @ U Y.Y._.}.}.}.[.z./ _ o.4X2X..) ) 6 ; 5 '  .u.S.S.8.. .             ",
"          . . 4 F.S.N.+.Y.w . . L Y.e._.`.|.{.|.).t e @.6X3X| a e + . @ ] O.p.S.S.8.. .             ",
"          . . 7 B.Z.h.] ] K 8 8 Q X.X.W.).).).).+.| | @.^.^.| D K 8 8 i ' ] i.H.D.9.. .             ",
"          . . : ] e.' A t ,XkXlX&XOX+XK C H H C ..wXwX.Xa H ~ OX@XgXkXfXL a ( _.{.U . .             ",
"          . . : ] Y.' e t ,XkXkX&XOX+XK t C e e ..rXaX^.t a ~ @X+XgXkXzX) t ( |.{.` . .             ",
"          . . - G G L U / 2XjXjX*XOX+XQ.~.~.R.R.XXaXwX6X~.~.$XOX#XpXjXxXu 0 q ` ` F . .             ",
"                . . 6 Y.{ oXaXrX*XOX#XhXkXlXsXtXaXrXaXdXkXkX&XOX#X0XaX9X; . . . . .                 ",
"                . O 6 { O.oXtXtX*X@X+XhXkXlXaXtXrXrXrXdXkXkX&XOX#X0XtX9X- . . . . .                 ",
"          . . + 0 0 u ! Q Q.XXXX<X<X<XfXdXdXrXrXaXrXrXsXdXdXiX<X<X,XXX/.% O .                       ",
"          . . + A C D T T Q { { 9XtXtXrXrXrXtXrXrXrXrXrXrXrXrXrXtXE.[ ` o . .                       ",
"          . . + C C D E OXQ { O.8XrXyXrXrXrXrXrXrXrXrXrXrXrXrXwXyXE.[ ` o . .                       ",
"          . . # e C D R T W _ _ ` '  .3X9X8X8X8X5X5X8X5X5X5X!.| | J J a X . .                       ",
"          . . + C C D R T W t a t t H .X3X4X4X3X3X3X3X3X5X7X| e a a a q X . .                       ",
"          . . + r r D E E W C C G G G ^.(.(.(.(.(.(.,XXX^.^.X.L ) ) ) L X . .                       ",
"                X X % s g V H H M n b >.>.>.>.>.>.>.>.g @ o <XlXlXzXlXpX; . .                       ",
"                . . $ s s V C H M c v v v v v c v c c d . . <XkXkXkXkXgX; . .                       ",
"                . . $ < < h S S M M k 1.<.<.<.<.1.N k 3 . . Q.iXiXiX0X<X5 = =                       ",
"                      . . d b b S t _ C.S.S.F.S.n.C C 6 . . , y y y y y a H q . . .                 ",
"                      . . d b b S t _ Z.S.S.S.S.n.C C 7 . . , 9 y y y y t t q . . .                 ",
"                    $ < < B =.=.I P P s.x.x.x.x.s.P P h * < K X.X.p u p a H q . . .                 ",
"                . . $ s 3 j 4.4.,.,.,.%.c c c c $.4.,.j s s Q.5X3X) t a H H q . . .                 ",
"                . . * s s j 5.4.,.,.,.$.c c c c $.4.4.j 1 s U.3X3X) G a H a q . . .                 ",
"                    O * * s $.$.,.4.,.:.;.;.=.=.:.,.4.*.x x z i i ^.3X3X3X3XQ.. . .                 ",
"                      . . 1 b b ;.4.4.4.4.4.4.4.4.4.4.=.c b < . O 8XaXaXtXtX,X. . .                 ",
"                      . . 1 c v =.-.-.-.-.4.-.4.-.-.-.*.v v < . O ,XwXwXwXwX,X. . .                 ",
"                      . . O $ $ % % % % $ % % % % % % $ $ $ O . O > 5 5 5 5 5                       ",
"                      . . . . . . . . . . . . . . . . . . . . . . . . . . . .                       ",
"                      . . . + o o o o . . . . . . . . . . . . . . . . . . . .                       ",
"                      . . > y y 9 9 9 X . .                                                         ",
"                      . . > y y y y y X . .                                                         ",
"                    + # # , u u y y y o . .                                                         ",
"                . . # y y q H H u 9 9 X . .                                                         ",
"                . . # 9 y p a H u 9 9 X . .                                                         ",
"                . . : p p p H H p p q + . .                                                         ",
"                . . : C t H H H H H a @ . .                                                         ",
"                . . : C H t a H H a p + . .                                                         ",
"                    + = # : = # = = =                                                               ",
"                      . . . . . . . .                                                               ",
"                      . . . . . . . .                                                               "
};
