/* XPM */
static char *_55c2b6f37cf4d43c8c970281defa366Hg8KGMFwOrm0bHWT[] = {
/* columns rows colors chars-per-pixel */
"49 64 218 2 ",
"   c None",
".  c #000101",
"X  c #090805",
"o  c #150C09",
"O  c #061A09",
"+  c #1D110A",
"@  c #191613",
"#  c #091118",
"$  c #2A190D",
"%  c #341D0F",
"&  c #261B14",
"*  c #371F10",
"=  c #06250B",
"-  c #073512",
";  c #11330F",
":  c #3D3C01",
">  c #2A2318",
",  c #3A2717",
"<  c #353B17",
"1  c #172637",
"2  c #39393A",
"3  c #2A2622",
"4  c #462817",
"5  c #532E18",
"6  c #48351C",
"7  c #5A3319",
"8  c #6C3B1D",
"9  c #64381C",
"0  c #713E1D",
"q  c #4A2920",
"w  c #472B20",
"e  c #512D20",
"r  c #4F3523",
"t  c #683B22",
"y  c #723D20",
"u  c #0C420D",
"i  c #0A4D1A",
"p  c #154E15",
"a  c #294917",
"s  c #29661A",
"d  c #3F5F25",
"f  c #334E2A",
"g  c #0C6221",
"h  c #0D6C24",
"j  c #196D23",
"k  c #0E7B29",
"l  c #0D7523",
"z  c #117C29",
"x  c #187527",
"c  c #196D3C",
"v  c #316926",
"b  c #2E7029",
"n  c #185821",
"m  c #73401F",
"M  c #67411E",
"N  c #465A23",
"B  c #564D33",
"V  c #644B22",
"C  c #694824",
"Z  c #744120",
"A  c #7D4D2A",
"S  c #754728",
"D  c #654A36",
"F  c #78512D",
"G  c #707C39",
"H  c #54711B",
"J  c #023449",
"K  c #2E3642",
"L  c #315374",
"P  c #2F4F6F",
"I  c #555150",
"U  c #6E564B",
"Y  c #7C674C",
"T  c #6B6B6C",
"R  c #987417",
"E  c #A07B16",
"W  c #81522B",
"Q  c #87592E",
"!  c #875835",
"~  c #804E28",
"^  c #876534",
"/  c #976C39",
"(  c #9E733E",
")  c #A47B3F",
"_  c #A97A3D",
"`  c #A17D20",
"'  c #956844",
"]  c #957351",
"[  c #A17742",
"{  c #A47A42",
"}  c #A97D42",
"|  c #A37A56",
" . c #188229",
".. c #258D29",
"X. c #2B8123",
"o. c #358421",
"O. c #2E9529",
"+. c #359A29",
"@. c #399D29",
"#. c #3A9A28",
"$. c #208031",
"%. c #3EA329",
"&. c #5CA51C",
"*. c #51842A",
"=. c #6F8E37",
"-. c #42A529",
";. c #47A82B",
":. c #68A875",
">. c #599277",
",. c #B59B15",
"<. c #AC9114",
"1. c #82BA15",
"2. c #9FBA1E",
"3. c #818938",
"4. c #848E37",
"5. c #8A9831",
"6. c #A9823E",
"7. c #AF8B39",
"8. c #B28E38",
"9. c #B2883A",
"0. c #B49335",
"q. c #B99832",
"w. c #B89A29",
"e. c #AEAB29",
"r. c #C5B10E",
"t. c #C4AC16",
"y. c #C5AB2B",
"u. c #CBB425",
"i. c #D1BC22",
"p. c #D0B723",
"a. c #C8A439",
"s. c #C19934",
"d. c #BBDF0F",
"f. c #B4D514",
"g. c #BDE00E",
"h. c #DCCC19",
"j. c #D6C41C",
"k. c #D6C909",
"l. c #E4D714",
"z. c #E1CF1B",
"x. c #EDE50D",
"c. c #EFE80B",
"v. c #F2EB0A",
"b. c #FAF604",
"n. c #FEFE00",
"m. c #FAF30B",
"M. c #F6E816",
"N. c #DAC822",
"B. c #EDD527",
"V. c #E5C339",
"C. c #F2DD23",
"Z. c #AD8245",
"A. c #B78946",
"S. c #AA8259",
"D. c #B38C58",
"F. c #BC9350",
"G. c #9A8468",
"H. c #BB9669",
"J. c #A68A79",
"K. c #A59377",
"L. c #B89874",
"P. c #B08964",
"I. c #BAAA7D",
"U. c #C2944A",
"Y. c #CB9D4C",
"T. c #C29146",
"R. c #DDAB53",
"E. c #D6A650",
"W. c #D1AD50",
"Q. c #E1B34B",
"!. c #E1AE53",
"~. c #E3B153",
"^. c #C9A67C",
"/. c #C9A678",
"(. c #C29E77",
"). c #2C4E9A",
"_. c #365090",
"`. c #435B97",
"'. c #556EA7",
"]. c #5A75B0",
"[. c #5570AB",
"{. c #5A9B97",
"}. c #1B9DCA",
"|. c #34B6D5",
" X c #0BACE7",
".X c #00BCFF",
"XX c #78D1E3",
"oX c #989696",
"OX c #968E8F",
"+X c #AC9D94",
"@X c #BAA991",
"#X c #C9AA84",
"$X c #D5B48B",
"%X c #D8B78B",
"&X c #DCBD94",
"*X c #CBB28F",
"=X c #C9B7AA",
"-X c #8BC1BB",
";X c #E3C59C",
":X c #E8CA9E",
">X c #DACAB7",
",X c #EACDA4",
"<X c #F2D7AE",
"1X c #F4DBB2",
"2X c #F9DFB5",
"3X c #E7D0AB",
"4X c #FEE6BD",
"5X c #FFE8BF",
"6X c #D8C09C",
"7X c #81C8D2",
"8X c #C7D0DA",
"9X c #FFEBC2",
"0X c #FFEDCF",
"qX c #FCEDD2",
"wX c #FFF9EC",
"eX c #FDFDFE",
"rX c #F2F4F8",
"tX c #F0EDE9",
/* pixels */
"                          . . . o.%.%.-.-.%.-.%.-.-.-.-.-.-.-.-.o.. . .                           ",
"                          . . . o.%.;.%.-.-.-.%.-.-.-.-.-.-.-.-.o.X . .                           ",
"                          O = = b %.+.#.%.+.+.+.+.+.+.+.+.+.+.+.b = = O                           ",
"                      . . i k z z x k k k k k  .z z z z z z z z  .l k i . .                       ",
"                      . . i k z k k k k k k k k l z l z k k k z k z z i . .                       ",
"                    = - - j ..........................................j - - =                     ",
"                . . - z k O.-.-.-.-.-.-.-.-.-.-.-.-.-.-.-.-.-.-.-.-.-.O.k z - . .                 ",
"                . . - k k O.-.-.-.-.-.#.-.-.-.-.-.%.%.-.-.%.-.%.-.-.-.O.k z - . .                 ",
"                . . < G G 2.g.d.5.3.5.f.g.f.3.3.2.g.d.d.d.d.5.=.3.3.3.=.+.O.p . .                 ",
"                . . 6 Z.( h.n.n.q.{ 8.b.n.l.} { i.n.n.n.n.b.9.{ { { } =.%.%.p . .                 ",
"                X X 6 Z.) h.b.b.q.{ 0.b.n.l.[ [ i.n.n.n.n.b.8.{ ) ) _ 4.;.;.p . .                 ",
"          . . & ^ F w.v.c.u.0.q.l.x.c.n.n.l.{ [ i.n.n.n.n.b.8.[ 8.x.c.B.Y.W.*.g g O . .           ",
"          . . $ { [ u.n.n.y.[ { x.n.n.n.n.l.{ [ i.n.n.n.n.b.8.[ q.n.n.C.!.!.=.k k = . .           ",
"          o o , 8.8.p.v.v.y.Z.Z.c.n.n.v.v.z.8.8.j.m.m.v.c.x.7.{ 8.c.v.l.Q.Q.=.j x @ o o           ",
"{ { /.%X#XS 7 R b.b.j.6.6.U.R.Q.M.n.v.8.6.y.b.b.B.Q.~.A.6.6.{ { ) 6.6.y.n.n.<.C C 8 8 S ^.%X/.{ { ",
"{ [ /.%X#XA t R n.n.j.{ { Y.R.Q.m.n.v.Z.[ w.n.n.B.R.~.A.) { { { ) { { y.n.n.<.y m 0 m A #X$X/.{ { ",
"/ / #X;X%X^ W ` n.n.z.A.A.U.Y.Y.N.l.h.y.w.p.M.C.V.Y.Y.D.D.D.D.D.D.{ { y.n.n.,.A Q ' | | &X:X#X/ / ",
"Z Z &X9X1XS.{ q.n.n.C.R.R.A.{ { { { 8.b.n.M.!.!.U.{ { /.%X$X$X%X^.Z.{ y.n.n.u.{ { ,X9X4X4X5X&XZ m ",
"Z Z &X9X2X| _ q.n.n.C.!.!.F.[ { { { 8.m.n.v.!.!.U.{ _ (.$X$X$X$X^.( [ y.n.n.u.{ } :X4X4X9X9X&XZ Z ",
"    P.H.K.{.{.:.,.,.w.U.U.y.j.i.j.i.j.B.B.V.F.F.U.H.H.&X,X,X,X,X:X%X$XW.i.i.a.U.U.-XXX7XK.H.P.    ",
"    0 y D  X.X}.y t ! { ) z.n.n.n.n.m.Q.!.Y.{ [ H.%X%X<X4X9X9X9X4X5X5X&X{ [ U.!.R.|..X XD 0 0     ",
"    Z Z D  X.X}.Z 0 Q { { h.n.n.n.n.m.!.R.Y.{ _ H.$X$X<X4X9X2X2X4X4X5X&X{ { U.~.R.|..X XD m m     ",
"          J J f k.k.,.W A s.V.V.V.V.V.R.!.T.W A | &X$X<X9X2X4X9X4X;X;XH.W A y.M.C.d J J           ",
"          . X : n.n.r.y y 9.!.!.R.!.R.Q.!.A.m 0 | $X$X<X9X9X4X9X4X%X%XP.8 8 r.n.n.: . .           ",
"          . . a b.n.r.Z Z _ Y.Y.E.E.R.E.R.A.~ S | &X%X<X2X2X2X<X;XI.#XS.S Z r.n.b.a . .           ",
"          . . 6 n.n.j.( ) 6 $ @ / Z.Z.Z._ D./.^.;X4X2X;X&X$X' ! F @ @ r ( ( j.n.b.: . .           ",
"          . X a n.n.j.{ } , . . F { _ { _ D.$X$X,X4X4X;X$X#XW y 7 . . , } { j.n.n.: . .           ",
"          . . : M.m.p./ ( B 2 2 Y ] ] / / | $X$X,X4X4X$XL.H.U D B 2 2 B ( / p.m.M.: . .           ",
"          . . , E.~._ m m =XeXrX{.).`.y 8 / $X$X,X4X2X| y y _._.[.rXeX=Xy Z 6.!.E., . .           ",
"          . . , R.~.9.8 m =XeXrX].)._.y y ! $X$X,X9X9X] y t _.).].eXeX=XZ Z 9.~.Q., . .           ",
"          . . > ^ ^ ^ Q Q >XeXeX].).`.OXJ.@X;X;X<X4X4X#XJ.J.`.).[.tXwX@X4 4 S ^ ^ > . .           ",
"                . . 6 ) _ >XeXrX].).[.rXeXwX2X9X4X4X4XwXeXrX[.).'.4X4XK.. . . . .                 ",
"                . . 6 } ) >XeXrX].).[.rXeXwX2X9X4X4X9XwXeXrX'.).'.4X9XK.. . . . .                 ",
"                    & 6 6 G.*X*XoXOXoXqXqX0X9X9X4X4X4XqXqXqXoXOXK././.Y . . T oXoX2 . .           ",
"                      . . V ) ) #X$X&X2X9X2X9X2X4X4X9X2X9X2X&X%X/.{ { C . . oXeXeX2 . .           ",
"                      . . C ) Z.^.$X&X2X2X9X2X9X4X4X4X4X9X2X%X$X/.{ { V . . OXeXrXr . .           ",
"                      . . 5 A W ! ! ' %X&X&X;X&X&X&X&X&X;X%X' ! ! A A V g g N U U t e 5 X . .     ",
"                      . . 4 Z m y 0 W #X$X$X$X$X$X$X%X%X%X/.W 0 0 Z m N  .k f q q t Z t X . .     ",
"                      3 @ r V C y y W L.L.I.@XI.@X^.@XI.@XI.F V C M 8 N h h f q q F ! F X . .     ",
"                . . T tXtX:.x x V y t + o ; .. ...$.$.x $.$.z x j u u - X . 4 y y $X2X&X@ . .     ",
"                . . T eXeX:.l z V S 9 . . = k k k k k k k z k z j u u = . . 4 Z S ;X9X3X@ . .     ",
"                . . I 8X8X>.c c 6 5 4 O X - k k k k z k k k z k x a < ; . . $ 5 7 G.@XK.@ . .     ",
"                . . 1 L L L L L # . . u u p z z k k z z x z z k j m m 4 . . . . . . X .           ",
"                . . 1 L L L L L # . X u u i k k k k k k k k k k b m m 4 . . . . . . . .           ",
"              o * * w I I K 1 1 > * , 6 a H 1.1.&.1.1.H d N v N d N v < . . . . . . .             ",
"          . . + y Z S m 0 % . . 9 m m m 0 E n.b.n.n.n.<.y y 0 0 V  .k i . .                       ",
"          . . + t S Z y 0 $ . X 7 m m m m E n.n.b.b.b.<.y Z m m V z z i . .                       ",
"          . . > H.P.(.$X&Xr . . s v v v v b &.&.&.&.&.H v v *.*.o.#.+.s . .                       ",
"          . . , %X%X,X9X9XI . . g  .k k k k k k k k k k k z %.-.-.-.;.s . .                       ",
"          . . 3 #X#X&X<X1XI . . g k k k k  .k  .k k k k z  .+.%.-.#.-.s . .                       ",
"          . . X @ & 3 3 > o . . g k  .+.%.%.+.%.@.@.@.@.@.+... .j O O O                           ",
"          . . . . . . . . . . X g  . .%.%.%.%.;.;.%.;.%.;.-.z z g . . .                           ",
"          . . . . . . . . . . X g g j o.o.o.o.o.o.o.X.o.o.o.j c n o X X                           ",
"                                . . . . X X X . X X X X X X , w w 4 q & . .                       ",
"                                . . . . . . . . . . . . . . , q q q q % . .                       ",
"                                . . . . . . . . . . . . . X 4 q e e e q o @ o                     ",
"                                                      . . . , q e y Z 9 q q + . .                 ",
"                                                      . . . w 4 e y Z t q q + . .                 ",
"                                                      . . X 5 t t Z Z y t t & . .                 ",
"                                                      . . X 9 m y y Z y 0 Z % . .                 ",
"                                                      . . X 9 m Z 0 Z 0 y 0 $ . .                 ",
"                                                            o + + + + + + + o                     ",
"                                                            . . . . . . . .                       ",
"                                                            . . . . . . . .                       "
};
