/* XPM */
static char *_910891de32041f4b5783977805355f4b5NXGYtRpb675mVU[] = {
/* columns rows colors chars-per-pixel */
"49 64 212 2 ",
"   c None",
".  c #000001",
"X  c #090504",
"o  c #0A0B05",
"O  c #140B06",
"+  c #170D09",
"@  c #031D0A",
"#  c #031206",
"$  c #1D100A",
"%  c #171513",
"&  c #21130B",
"*  c #29170E",
"=  c #311C0E",
"-  c #271B16",
";  c #05240C",
":  c #0A360C",
">  c #073412",
",  c #083B14",
"<  c #153A14",
"1  c #142710",
"2  c #3D3C02",
"3  c #393702",
"4  c #2A241A",
"5  c #3B2616",
"6  c #3E3F16",
"7  c #383839",
"8  c #322F26",
"9  c #442616",
"0  c #58321A",
"q  c #522F1B",
"w  c #6D3C1D",
"e  c #64381C",
"r  c #713E1D",
"t  c #4A2A20",
"y  c #4D3B2A",
"u  c #563020",
"i  c #673A21",
"p  c #723D20",
"a  c #0D420D",
"s  c #0A4D19",
"d  c #1B4714",
"f  c #104D14",
"g  c #3F5F25",
"h  c #375C3C",
"j  c #0C6221",
"k  c #0E6923",
"l  c #196A23",
"z  c #0E7A29",
"x  c #0F7426",
"c  c #117C29",
"v  c #187628",
"b  c #2C6826",
"n  c #23752A",
"m  c #337827",
"M  c #3C5D1E",
"N  c #68411E",
"B  c #74411F",
"V  c #7D4F1D",
"C  c #5B493B",
"Z  c #6A4725",
"A  c #744120",
"S  c #7E4E29",
"D  c #774A29",
"F  c #664935",
"G  c #715427",
"H  c #5A7726",
"J  c #48702D",
"K  c #536616",
"L  c #023449",
"P  c #1F3846",
"I  c #273748",
"U  c #355474",
"Y  c #335372",
"T  c #4D4B50",
"R  c #7C674C",
"E  c #725143",
"W  c #9E7B16",
"Q  c #A07B16",
"!  c #804F29",
"~  c #82522B",
"^  c #825027",
"/  c #845937",
"(  c #896436",
")  c #986B37",
"_  c #9C753E",
"`  c #92652D",
"'  c #A67B3C",
"]  c #936643",
"[  c #9C744A",
"{  c #927150",
"}  c #A17643",
"|  c #A47B42",
" . c #A87B42",
".. c #A57B55",
"X. c #168129",
"o. c #1B852A",
"O. c #258D29",
"+. c #358521",
"@. c #3B8627",
"#. c #2F9529",
"$. c #349A29",
"%. c #399D29",
"&. c #208031",
"*. c #3EA229",
"=. c #5CA51C",
"-. c #488927",
";. c #56832D",
":. c #708E37",
">. c #42A529",
",. c #49A72B",
"<. c #AF9415",
"1. c #82BA15",
"2. c #BDA318",
"3. c #828B38",
"4. c #8B8939",
"5. c #AA833E",
"6. c #AD8737",
"7. c #B28939",
"8. c #B49236",
"9. c #BA9835",
"0. c #BD9D2F",
"q. c #92A32C",
"w. c #BEA22E",
"e. c #C3AD10",
"r. c #C1A42D",
"t. c #C6AD29",
"y. c #CBB525",
"u. c #D1BC21",
"i. c #D3B82A",
"p. c #DBB639",
"a. c #C69F3E",
"s. c #BBDF0F",
"d. c #B1D016",
"f. c #BDE10E",
"g. c #DAC91A",
"h. c #D6C91C",
"j. c #E3D714",
"k. c #ECE30E",
"l. c #EEE709",
"z. c #F2EC0A",
"x. c #F0E60C",
"c. c #F9F705",
"v. c #FFFE00",
"b. c #F7EB13",
"n. c #FBF012",
"m. c #E8C63A",
"M. c #ECD820",
"N. c #DDD023",
"B. c #AC8246",
"V. c #B68846",
"C. c #BD934C",
"Z. c #AE8859",
"A. c #B9936A",
"S. c #A68A79",
"D. c #A39176",
"F. c #B99874",
"G. c #B08964",
"H. c #BAAA7D",
"J. c #C49347",
"K. c #D7A64E",
"L. c #DDAB53",
"P. c #D4A251",
"I. c #C2A84D",
"U. c #E1AD54",
"Y. c #E3B153",
"T. c #E3B649",
"R. c #C29D6B",
"E. c #C9A67D",
"W. c #C9A778",
"Q. c #2C4E9A",
"!. c #365090",
"~. c #435B97",
"^. c #566EA5",
"/. c #5A73AC",
"(. c #5470AD",
"). c #5C9D99",
"_. c #26AAD2",
"`. c #0BACE7",
"'. c #00BCFF",
"]. c #79D1E3",
"[. c #BAA997",
"{. c #B4AEAD",
"}. c #A0AD9F",
"|. c #CEAC83",
" X c #C5A784",
".X c #D6B58C",
"XX c #D7B78A",
"oX c #DCBD94",
"OX c #D0AE83",
"+X c #CAB7AB",
"@X c #E3C59B",
"#X c #E7C99C",
"$X c #EACDA3",
"%X c #E1C6A0",
"&X c #F1D5A9",
"*X c #F4DAB1",
"=X c #F9DFB5",
"-X c #E7D0AB",
";X c #FEE5BC",
":X c #FFE9BE",
">X c #FAE0B7",
",X c #DEC091",
"<X c #81C8D2",
"1X c #D6D2D0",
"2X c #FFEAC1",
"3X c #FFEDCF",
"4X c #FCEED6",
"5X c #FFF9EB",
"6X c #FDFDFE",
"7X c #F2F3F7",
"8X c #F8EFE2",
"9X c #D8E0E7",
/* pixels */
"                          . . . j c X.>.>.>.>.>.>.>.>.>.>.%.v c j . . .                           ",
"                          . . . j z X.>.>.>.>.>.>.>.>.>.>.>.o.c j . . .                           ",
"                          @ ; ; k c c $.$.$.$.$.$.%.$.$.%.$.c z k ; ; @                           ",
"                      . . s c z c c c c v z c c z c c z c c c z c c z s . .                       ",
"                      . . s z z z z z z c z z c z z x x z z z z z z z s . .                       ",
"                    ; > > l O.O.O.O.O.O.O.O.O.O.O.O.O.O.O.O.O.O.O.O.O.l > > ;                     ",
"                . . > X.z $.>.>.>.>.>.>.>.>.>.>.>.>.>.>.>.>.>.>.>.>.>.$.c c > . .                 ",
"                . . > c z #.>.>.*.*.*.>.*.>.*.*.>.>.>.>.>.>.*.>.*.>.>.#.z c > . .                 ",
"                . . < $.#.:.:.3.d.f.d.3.3.q.s.s.s.f.s.q.3.3.d.f.d.3.3.:.$.$.f . .                 ",
"                . . d ,.*.3. .5.k.v.z.5. .r.v.v.v.v.v.r.| 5.z.v.k.5. .:.*.>.d . .                 ",
"                . . d ,.>.3.' 5.k.v.x.6.B.r.c.c.v.v.v.r.B.6.l.v.k.5.' 3.,.,.d . .                 ",
"          . . @ j j J 4.4.u.z.k.w.8.w.k.l.g.9.8.g.v.v.z.l.k.w.8.r.k.z.N.I.I.;.k j @ . .           ",
"          . . @ c z J ' } g.v.v.8.} 7.c.v.j.} [ u.v.v.v.v.c.7._ 9.v.v.b.L.U.:.X.z @ . .           ",
"          + O 1 n n ;.8.8.g.z.x.9.B.8.k.z.g.8.8.g.v.v.v.v.c.8.[ 8.k.z.M.T.T.:.n n 1 O +           ",
"| | W..XE.D w p Z i <.c.c.t.B.5.P.L.K.5.5.r.c.c.v.v.v.v.v.c.8.[ | 5.5.t.c.v.t.[ [ D N D E..XW.| | ",
"| | W..X XS w r r p <.v.v.t.} | P.L.P.5.} w.v.v.v.v.v.v.v.c.8.B.' } } t.v.v.y.} ' S B S |..XW.| | ",
") ) |.@XoX....] ~ S 2.v.v.i.V.V.p.m.p.B.' r.v.v.v.v.v.k.j.g.C.Z.Z.| } 0.j.j.u.w.r.` ~ ( .X@X|.) ) ",
"A A oX2X2X;X2X$XB.} y.v.v.m.K.T.n.v.l.5.[ r.v.v.v.v.v.w.} B.OX.XW.B.| | ' } h.v.v.0.} Z.=X2XoXA A ",
"A A oX2X;X>X2X#X| } y.v.v.m.Y.Y.n.v.z.5.[ w.v.v.v.v.v.w.} B.E.XXW.| _ ' } } g.v.v.0.[ B.>X2XoXA A ",
"    G.A.F.<X].<X| } y.v.v.i.C.J.b.v.c.h.u.j.v.v.j.u.y.I.A.R.#X$X#XXXXXR.' | w.u.u.).).).D.A.G.    ",
"    r r F `.'._.| } y.v.v.t.[ 5.k.v.v.v.v.v.v.v.u.} | W..X.X=X2X:X:X2X,X} | } [ ' _.'.`.F B w     ",
"    B B F `.'._.} } y.v.v.t.' 5.k.v.v.c.v.v.v.v.u.} | W..X.X=X2X;X;X:X,X' | ' B.| _.'.`.F B B     ",
"          L L P ^ ^ 6.m.m.' S ~ p.m.m.m.m.m.m.m.J.'  ..X=X*X=X2X=X@X@XF.~ S 2.j.j.b L L           ",
"          . . O r r ) U.U.` B A J.L.L.L.L.L.L.L.J.| } @X2X2X;X2X=XXXXXG.r A e.v.v.9 . .           ",
"          . . $ V V ' K.P.` e r J.L.L.L.U.L.P.P.J. .B.@X=X=X=X*X$X XE.Z.A A e.v.v.2 . .           ",
"          . . 3 l.l.2.V ^ 5 X O ( B.V.L.U.J.^ ^ ..E.OXXXoX.X] / D % % y _ _ h.v.c.2 . .           ",
"          . . 2 v.v.e.w A * . . R | B.L.Y.J.r p ...X.X.X.XOX/ p 0 . . 5  .| g.v.v.2 . .           ",
"          . . 2 x.b.e.r p y 7 7 R { { J.J. ./ / G.@XoXE.F.F.E i C 7 7 C _ ) y.n.b.3 . .           ",
"          . . 5 L.U.' r r +X6X7X^.!.!.A B ) .X|.$X;X;X..p Z !.!.^.7X6X+Xr A 7.U.K.6 . .           ",
"          . . 5 L.Y.7.B r +X6X6X/.Q.!.Z w ] .XOX$X;X2X{ w p !.Q./.6X6X+XB B ' Y.L.5 . .           ",
"          . . 4 ( ( G 9 9 [.5X8X/.Q.~.S.S. X@X@X*X;X;X XS.S.~.Q./.8X5X[.9 9 D ( ( = . .           ",
"                . . . . X D.;X=X^.Q.(.7X6X5X;X2X;X;X;X5X6X7X(.Q.^.>X:XD.. . . . .                 ",
"                . . . . . D.2X>X^.Q.(.7X6X5X:X;X;X;X2X5X6X7X(.Q.^.;X2XD.# . . . .                 ",
"                    . . . R W.W.{.{.{.4X4X3X;X;X;X;X;X3X4X4X{.{.{.W.W.{ - - O . .                 ",
"                      . . Z | B.$X2X:X;X;X:X;X;X;X;X;X;X2X>X:X2X$X' ' S t t & . .                 ",
"                      . . G | | $X>X>X;X;X;X;X;X;X;X;X;X;X;X>X;X#XB.| / t t & . .                 ",
"                      . . q ^ S ( ] [ oX,XoXoXoXoXoXoX@X,XXX[ ] / S ! i t t u 0 0 $ . .           ",
"                      . . 9 B B w w S |..XOX.X.X.X.X.X.XXXW.~ A A A p i t t i p B $ . .           ",
"                      . . 9 Z Z / E ] F.H.H.[.H.H.[.H.H.[.H.G N Z e i u 5 9 u e e + . .           ",
"                      . . I U Y 1X7X1X- O 1 &.o.O.&.&.n &.&.v c l o X X X X X X X                 ",
"                      . . P U !.9X6X1X% . ; z z z z c c z z z c j . . . . . . . .                 ",
"                    + & & I U U {.1X{.% # : c z z z z z z c c c j & & + . . . . .                 ",
"                . . = A A T U Y i A Z d a f z c z z z z z c z c n B B 9 . .                       ",
"                . . = A A T U Y F A w a a s z z z z x z c c c c n B B 9 . .                       ",
"                . . = A B F T T 9 5 5 6 6 K =.1.1.1.1.H M J g J K H H M , , ;                     ",
"                . . = B B B B r O . O w B W v.v.v.v.v.Q i p p p Z %.>.#.c c > . .                 ",
"                . . = p A B p i + . O w B Q v.v.v.v.v.Q p p p p G >.>.#.c c > . .                 ",
"                . . y A.A.E..X|.4 . o b b m =.=.=.=.=.m b g -.-.-.>.>.#.c c > . .                 ",
"                . . C oX.X*X2X>X8 . # x z z z z z z z z z X.*.*.>.>.>.#.z c > . .                 ",
"                . . C |. X%X*X-X8 . # v c c X.z z z z z z X.*.*.>.%.>.#.x z > . .                 ",
"                    % - - 4 4 4 < : , z z o.*.*.$.*.*.$.*.*.>.>.$.v o.j # # #                     ",
"                      . . . . . : a f z z o.*.>.>.>.>.>.>.>.>.>.*.c z s . .                       ",
"                      . . . . . ; : a k j x +.+.+.+.+.+.+.+.@.-.@.v l s . .                       ",
"                                X . . . . X X X . # o . . o 5 t t t t = . .                       ",
"                                . . . . . . . . . . . . . . 5 t t t t - . .                       ",
"                                . . . . . . . . . . . . . o t t t u u t + $ O                     ",
"                                                      . . . 5 t u p A i t t % . .                 ",
"                                                      . . . t 9 u p A i t 9 & . .                 ",
"                                                      . . X q i i A A p i i * . .                 ",
"                                                      . . X e B p p A A p A = . .                 ",
"                                                      . . X e B B p A r p A = . .                 ",
"                                                            + $ $ $ $ $ $ $ +                     ",
"                                                            . . . . . . . .                       ",
"                                                            . . . . . . . .                       "
};
