/* XPM */
static char *f__281_29__283_29[] = {
/* columns rows colors chars-per-pixel */
"50 64 213 2 ",
"   c None",
".  c #000001",
"X  c #010B04",
"o  c #060808",
"O  c #130B06",
"+  c #130A09",
"@  c #1B0E0A",
"#  c #110703",
"$  c #021207",
"%  c #031508",
"&  c #051E0A",
"*  c #1C110A",
"=  c #171716",
"-  c #24140C",
";  c #2B180C",
":  c #341D0F",
">  c #271A15",
",  c #331C13",
"<  c #052A0D",
"1  c #192411",
"2  c #073512",
"3  c #0C370D",
"4  c #27231D",
"5  c #352111",
"6  c #101B23",
"7  c #472B1A",
"8  c #5F361B",
"9  c #4B341B",
"0  c #6E3D1D",
"q  c #60361B",
"w  c #713E1E",
"e  c #4B2A20",
"r  c #53362C",
"t  c #663920",
"y  c #733F20",
"u  c #0B400C",
"i  c #0A4E1B",
"p  c #094417",
"a  c #184D16",
"s  c #0C5319",
"d  c #155A1A",
"f  c #334B1A",
"g  c #09641F",
"h  c #2A691B",
"j  c #0C5F20",
"k  c #304F25",
"l  c #0D6622",
"z  c #0F7527",
"x  c #0F7B29",
"c  c #0D7927",
"v  c #107B29",
"b  c #1A7627",
"n  c #1E6F24",
"m  c #356729",
"M  c #216E27",
"N  c #56451C",
"B  c #41451C",
"V  c #74411F",
"C  c #7D4F1B",
"Z  c #564228",
"A  c #545423",
"S  c #5C4E3D",
"D  c #6E4621",
"F  c #744220",
"G  c #7C4B26",
"H  c #7A4A27",
"J  c #527425",
"K  c #1F364D",
"L  c #365778",
"P  c #605140",
"I  c #7E7F4D",
"U  c #7B7975",
"Y  c #524C4D",
"T  c #8F671A",
"R  c #84542A",
"E  c #89592C",
"W  c #8B5D32",
"Q  c #875835",
"!  c #804D26",
"~  c #946C20",
"^  c #956A38",
"/  c #877B3C",
"(  c #9C723C",
")  c #927238",
"_  c #8F6234",
"`  c #A37A3F",
"'  c #A17838",
"]  c #90671E",
"[  c #966B48",
"{  c #9C7448",
"}  c #997757",
"|  c #A17643",
" . c #A47B42",
".. c #A57C49",
"X. c #A67D56",
"o. c #1B8429",
"O. c #1B8529",
"+. c #278928",
"@. c #328625",
"#. c #2C9229",
"$. c #309529",
"%. c #399D29",
"&. c #369524",
"*. c #3FA229",
"=. c #3FA829",
"-. c #4A8226",
";. c #528526",
":. c #499629",
">. c #599B2F",
",. c #49A827",
"<. c #42A429",
"1. c #42A82A",
"2. c #51A02D",
"3. c #4E8C59",
"4. c #55A468",
"5. c #9F9216",
"6. c #9AB413",
"7. c #A8A902",
"8. c #BABE1F",
"9. c #91823D",
"0. c #8D843B",
"q. c #AA833D",
"w. c #AE8A3A",
"e. c #B18E38",
"r. c #BB9C31",
"t. c #B49136",
"y. c #A8942F",
"u. c #B5A52C",
"i. c #C1A52C",
"p. c #C4AA2A",
"a. c #CEB724",
"s. c #D1BC22",
"d. c #DDB93A",
"f. c #CAA939",
"g. c #C69F3F",
"h. c #B4D60D",
"j. c #D9C71C",
"k. c #D4CC0E",
"l. c #E5D914",
"z. c #E2D507",
"x. c #DBEE08",
"c. c #DDF007",
"v. c #EFE70B",
"b. c #F0EA0B",
"n. c #F5EB02",
"m. c #F5F306",
"M. c #F9F603",
"N. c #FEFE01",
"B. c #F3FA02",
"V. c #F5E619",
"C. c #EFE313",
"Z. c #DCC425",
"A. c #EDD624",
"S. c #F1DA26",
"D. c #E9C63A",
"F. c #F7E321",
"G. c #AA815B",
"H. c #B38C57",
"J. c #B8935C",
"K. c #B38745",
"L. c #B38C66",
"P. c #BA9569",
"I. c #BC9772",
"U. c #9DA46F",
"Y. c #9EA571",
"T. c #9F8541",
"R. c #CD9C4C",
"E. c #C39649",
"W. c #D4A34E",
"Q. c #DEAB53",
"!. c #D7A450",
"~. c #DFB04E",
"^. c #E3B946",
"/. c #E1AE54",
"(. c #E6B255",
"). c #C4A16D",
"_. c #C8A572",
"`. c #C8A579",
"'. c #DEB160",
"]. c #E3B668",
"[. c #C19C74",
"{. c #A7D94E",
"}. c #A7E959",
"|. c #0091C9",
" X c #28A8D2",
".X c #00BDFF",
"XX c #1CB9F1",
"oX c #868788",
"OX c #CBAB83",
"+X c #D6B48C",
"@X c #D9B68D",
"#X c #D8B88F",
"$X c #D1B087",
"%X c #DBBB92",
"&X c #C4B696",
"*X c #E3C59C",
"=X c #E5C89A",
"-X c #EBCEA3",
";X c #E4C8A1",
":X c #EAD1A9",
">X c #F2D7AC",
",X c #F9DFB6",
"<X c #F3D9B1",
"1X c #FFE6BD",
"2X c #FFE8BF",
"3X c #F9E0B7",
"4X c #DFC096",
"5X c #D7DCD5",
"6X c #D9E2D9",
"7X c #FFEAC1",
"8X c #DDE3E9",
"9X c white",
"0X c #E3DEDC",
/* pixels */
"                                  . . p v v v v v v v v v v p . .                                   ",
"                                  . . p x x x x x x x x x x p . .                                   ",
"                                % & & d O.O.O.O.O.O.O.O.O.O.d & & %                                 ",
"                            . . < v x #.<.<.<.<.<.<.<.<.<.<.#.x v < . .                             ",
"                            . . < v x #.<.<.<.<.<.<.<.<.<.<.#.x v < . .                             ",
"                          $ 2 2 i v v O.#.#.#.#.#.#.#.#.#.#.O.v v i 2 2 $                           ",
"                      . . % z v v v v v x x x x x x x x x x v v v v v z % . .                       ",
"                      . . % z v v v v v v v v v v v v v v v v v v v v z % . .                       ",
"                  . X p i d #.$.$.$.$.$.$.$.$.$.$.$.$.$.$.$.$.$.$.$.$.#.d i p X .                   ",
"                . . X l v o.*.<.<.<.<.<.<.<.<.<.<.<.<.<.<.<.<.<.<.<.<.*.o.v l X . .                 ",
"                . . X l v o.<.<.<.,.,.,.,.,.<.<.<.<.<.<.,.,.<.<.<.<.<.<.o.v l X . .                 ",
"                . . X @.%.:.0.9.u.c.x.x.x.x.y.9.9.9.9.y.x.c.8.9.9.9.9.0.:.%.@.X . .                 ",
"                . . X @.1.2. . .p.N.N.N.N.N.r.|  . . .r.N.N.j.|  . . . .2.1.@.X . .                 ",
"                $ $ & -.2.>. . .p.N.N.m.b.b.i.e.e. . .r.N.N.j.e.t.q. . .>.2.-.& $ $                 ",
"            . . i z b /  .{  . .p.N.N.s.q.q.l.M.b.w. .r.N.N.N.M.M.i. . .{  ./ b z i . .             ",
"            . . i x v /  . . .| i.N.N.a.|  .l.N.m.w.| r.N.N.N.N.N.p.|  . . ./ v x i . .             ",
"          Z - - f m m T.K.K.i.i.s.V.V.Z.i.i.j.l.j.p.i.a.V.V.l.l.l.a.i.i.q. .) m m f - - Z           ",
" . .H.+X@XG.w F F F F R.Q.^.M.N.V.Q.Q.S.N.N.r.| w.m.N.V.Q.Q.E. . .l.N.M.t. .( F F F F w G.@X+XH. . .",
" . .H.+X@XX.0 w w V F R.Q.^.N.N.V.Q.Q.S.N.N.r. .w.m.N.V././.E.`  .l.N.N.t.| ( F V w w 0 X.@X+XH. . .",
"W E ..-X-X@XI.I.{ W _ Z.S.A.s.s.Z.S.S.Z.s.s.w. .w.m.N.C.E.E.J.P.P.f.s.s.s.j.p._ W { I.I.@X-X-X..E W ",
"V w [ 1X1X2X7X7X).` q.b.N.b.` | i.N.N.a.|  . . .w.m.N.l. .` P.@X@XH.| ` b.N.b.q.` ).7X7X2X1X1X[ w V ",
"F w [ 3X1X1X1X1X).` q.v.N.v.q. .p.N.N.a. . . . .w.m.N.l. . .P.@X@XJ. .q.v.N.v.q.` ).1X1X1X1X3X[ w F ",
"      { [ I.*X*X..G R t.r.i.R.R.d.N.N.b.l.l.f.R.E.~ ~ q._._.#X<X<XP.`  .d.D.d. .` J.*X*XI.[ {       ",
"      w 0 { +X+X[ 0 F (  .K.Q.Q.D.N.N.N.N.N.D./.W.G 0 Q +X+X-X2X2X).`  .W.Q.W. . .J.+X+X{ 0 w       ",
"      F w } &X&X{ C ! ( ` K.Q.Q.D.M.M.M.m.m.d.W.R.R H [ @X@X-X1X1X_. .K.R.!.R.w.q.J.&X&X} w F       ",
"           XXXXX{.n.z.] F E !.Q.~.^.^.g.w.w.E ! E [.`.+X,X,X3X1X1X4XOX`.W G ~ v.m.{.XXXX X          ",
"            .X.X}.N.M.T 0 R !.Q.Q.Q./.K. . .G 0 G OX+X*X1X2X2X2X2X*X@X$XQ 0 T M.N.}..X.X            ",
"            |.|.{.N.M.~ H _ ].].'.W.W.K.( ( W Q [ @X%X*X-X-X-X-X-XOXI.I.W H ~ M.N.{.|.|.            ",
"            o o 7.N.M.t.` H.,X1X*X . .W F F I.+X@X,X1X=X.. . . . .E F H (  .t.M.N.7.o o             ",
"            . . 7.N.M.t. .H.3X7X*X` ` E 0 w I.@X#X3X7X=X .` ` ` ` R w F (  .t.M.N.7.. .             ",
"            . . 5.F.A.' _ | -X>X*X_._.P.G.G.@X;X-X3X1X>X_._._._._.G.[ [ ^ _ ' A.F.5.. .             ",
"            . . ) /.!.R w Q OX+X*X2X1X2X2X7X1X1X1X1X1X1X1X1X1X1X2X*X@X$XQ w R !./.) . .             ",
"            . . ) (.Q.R w Q $X@X*X2X1X1X1X1X1X1X1X1X1X1X1X1X1X1X2X*X@X$XQ w R Q.(.) . .             ",
"                9 Z Z 5 ; 7 [ [ G._._._._._.>X1X1X1X1X>X_._._._._.G.[ [ 7 ; 5 Z Z 9                 ",
"                . . . . . O 0 w R ` ` ` `  .=X2X1X1X2X=X .` ` ` ` R w 0 O . . . . .                 ",
"                . . . . . O 0 V R  . . . ...=X2X1X1X2X=X.. . . . .R F 0 O . . . . .                 ",
"                      . . * ^ ( J.-X-X-X-X-X3X1X1X1X1X3X-X-X-X-X-XJ.( ^ * . .                       ",
"                      . . * ( ` ).7X7X7X2X2X1X1X1X1X1X1X2X2X7X7X7X).` ( * . .                       ",
"                      $ X 1 ^ ( P.>X>X<X3X,X,X,X,X,X,X,X,X3X<X>X>XP.( ^ 1 X $                       ",
"                . . X j z M D F H G G L.%X#X#X#X#X#X#X#X#X%XL.G G H F D M z j X . .                 ",
"                . . X g c n D F V w w G.@X@X@X@X@X@X@X@X@X@XG.w w F F D n c g X . .                 ",
"                6 6 6 3.4.3.N N N A A I Y.U.U.U.U.U.U.U.U.Y.I A A N N N 3.4.3.* + +                 ",
"            . . K L L 8X9X5Xa u s v v v v v v v v v v v v v v v v s u a 5X9X5Xr e , . .             ",
"            . . K L L 8X9X6Xa u s v v v v v v v v v v v v v v v v s u a 6X9X0Xr e , . .             ",
"          - : : r Y Y U oXU B f k v v v v v v v v v v v v v v v v k f B U oXU t 8 e : : -           ",
"      . . : F F V V 0 # . # 0 F A x v v v v v v v v v v v v v v x A F 0 # . # 0 F F F F : . .       ",
"      . . : F F F F 0 O . O 0 F A x v v v v x x x x x x v v v v x A F 0 O . O 0 F F F F : . .       ",
"      . . Z P.L.`.+XOXf < 3 -.;.J A A A A A 6.h.h.h.h.6.A A A A A J ;.-.3 < f OX+XOXL.P.Z . .       ",
"      . . P %X@X<X7X3Xm u d *.=.;.w F F F V z.N.N.N.N.z.V y F F y ;.=.*.d u m 3X7X<X@X%XP . .       ",
"      . . S OXOX;X<X:Xk 3 a %.*.-.V F D D D k.B.B.B.B.k.D D D F V ;.*.%.a 3 k :X<X;XOXOXS . .       ",
"          = > > 4 4 4 $ X & b o.+.:.:.@.n M @.&.&.&.&.@.M n @.:.:.+.o.b & X $ 4 4 4 > > =           ",
"            . . . . . . . % z x +.<.<.+.x x x x x x x x x x +.<.<.+.x z % . . . . . . .             ",
"            . . . . . . . $ j l b %.%.+.o.o.o.o.o.o.o.o.o.o.+.%.%.b l j $ . . . . . . .             ",
"                      . . . X . < v v #.<.*.*.*.*.*.*.*.*.<.#.v v < . X . . .                       ",
"                      . . . . . < v x #.1.<.<.<.<.<.<.1.<.1.#.x v < . . . . .                       ",
"                      - ; - @ @ 1 i i d h h h h h h h h h h d i i 1 @ @ - ; -                       ",
"                . . . q F t e e , . . . . . . . . . . . . . . . . , e e t F q . . .                 ",
"                . . . 8 F t e e , . . . . . . . . . . . . . . . . , e e t F q . . .                 ",
"                . . . 8 F y t t 7 > > + . . .         . . . + > > 7 t t y F 8 . . .                 ",
"                . . . 8 F F F F t e e - . .             . . - e e t F F F F 8 . . .                 ",
"                . . . 8 F F F F t e e - . .             . . - e e t F F F F 8 . . .                 ",
"                      @ * * * * @ + + #                     # + + @ * * * * @                       ",
"                      . . . . . . . .                         . . . . . . . .                       ",
"                      . . . . . . . .                         . . . . . . . .                       "
};
