/* XPM */
static char *a561c013d53a431fbf0b3066400e3dc1L1eVP7LurZXQmCFG[] = {
/* columns rows colors chars-per-pixel */
"49 64 224 2 ",
"   c None",
".  c #000001",
"X  c #020C04",
"o  c #080706",
"O  c #140C07",
"+  c #041A08",
"@  c #1C110A",
"#  c #1E180C",
"$  c #141313",
"%  c #28180D",
"&  c #311B0E",
"*  c #321C16",
"=  c #2D1914",
"-  c #05280C",
";  c #0B3A0B",
":  c #063312",
">  c #0B3A13",
",  c #3D3D01",
"<  c #3B2818",
"1  c #2E3112",
"2  c #342F27",
"3  c #4A2A15",
"4  c #442719",
"5  c #5B331B",
"6  c #56361C",
"7  c #4A3418",
"8  c #6C3B1D",
"9  c #62371C",
"0  c #713E1E",
"q  c #4B2920",
"w  c #412F21",
"e  c #522E20",
"r  c #583A21",
"t  c #4F3B20",
"y  c #673A21",
"u  c #723D20",
"i  c #0D430D",
"p  c #094818",
"a  c #194614",
"s  c #0D581C",
"d  c #1C5817",
"f  c #225716",
"g  c #28771E",
"h  c #0E6823",
"j  c #0C7A27",
"k  c #0E7B29",
"l  c #0F7427",
"z  c #117C29",
"x  c #197E29",
"c  c #2E6C29",
"v  c #27641E",
"b  c #4D4219",
"n  c #72401F",
"m  c #76651E",
"M  c #4C5623",
"N  c #584E29",
"B  c #6B4824",
"V  c #744120",
"C  c #7D4D2A",
"Z  c #784927",
"A  c #654C35",
"S  c #77543A",
"D  c #74502E",
"F  c #4F7C34",
"G  c #2D4F71",
"H  c #334E69",
"J  c #545148",
"K  c #695946",
"L  c #6D6251",
"P  c #4F5771",
"I  c #4C647A",
"U  c #7D7068",
"Y  c #9D7C17",
"T  c #80502B",
"R  c #865932",
"E  c #86542D",
"W  c #92602F",
"Q  c #886137",
"!  c #966938",
"~  c #96723B",
"^  c #A57538",
"/  c #AC793B",
"(  c #8A5C1B",
")  c #9A6F4C",
"_  c #94724C",
"`  c #A17643",
"'  c #A47B42",
"]  c #A87E43",
"[  c #A57D5A",
"{  c #867964",
"}  c #9A7E60",
"|  c #1D8629",
" . c #15822A",
".. c #268926",
"X. c #3C9F29",
"o. c #359829",
"O. c #2E9529",
"+. c #3EA329",
"@. c #3DA427",
"#. c #2F811F",
"$. c #6FBA1F",
"%. c #70BB1F",
"&. c #449829",
"*. c #5A9B2F",
"=. c #7E8938",
"-. c #6C9334",
";. c #41A529",
":. c #43A82A",
">. c #69B024",
",. c #619252",
"<. c #5D8F4E",
"1. c #AD9612",
"2. c #A9833D",
"3. c #B18E38",
"4. c #B79535",
"5. c #AB8229",
"6. c #BEA32E",
"7. c #ACAC30",
"8. c #A1991A",
"9. c #C4AF0D",
"0. c #CEBB15",
"q. c #C5AB29",
"w. c #C2A62B",
"e. c #CCB425",
"r. c #D2BD21",
"t. c #CCAC36",
"y. c #DCCC19",
"u. c #D7C51D",
"i. c #C2D70B",
"p. c #E3D714",
"a. c #E6D719",
"s. c #E0CE1C",
"d. c #CAE209",
"f. c #D9E307",
"g. c #ECE50D",
"h. c #E5ED06",
"j. c #F2EC0A",
"k. c #F9F604",
"l. c #FEFE01",
"z. c #FBF30D",
"x. c #F5F107",
"c. c #F6E718",
"v. c #E3F105",
"b. c #D8C328",
"n. c #EED42A",
"m. c #E8C638",
"M. c #F0D927",
"N. c #F1E533",
"B. c #AA8144",
"V. c #AA8249",
"C. c #BB8B45",
"Z. c #B38C59",
"A. c #BE9445",
"S. c #81AC54",
"D. c #9B8568",
"F. c #B9946B",
"G. c #BB9872",
"H. c #AA8F6F",
"J. c #BCA67B",
"K. c #C89A4A",
"L. c #D3A34F",
"P. c #DDAB53",
"I. c #D9A752",
"U. c #CFA04D",
"Y. c #E3B945",
"T. c #E1B24D",
"R. c #E3B747",
"E. c #E1AE53",
"W. c #E2B054",
"Q. c #C29F78",
"!. c #C9A679",
"~. c #2B4D9B",
"^. c #2D509D",
"/. c #3A508C",
"(. c #097BA4",
"). c #267F8B",
"_. c #5E748F",
"`. c #637590",
"'. c #4D69A9",
"]. c #596FA2",
"[. c #5A72AA",
"{. c #5A76B3",
"}. c #505D82",
"|. c #0080B3",
" X c #2E8990",
".X c #7785A9",
"XX c #2CA9CE",
"oX c #13B3EB",
"OX c #1A9FCD",
"+X c #05C0FF",
"@X c #A29081",
"#X c #B4B4B6",
"$X c #A2A3A4",
"%X c #AAA19A",
"&X c #CEAC83",
"*X c #CAA986",
"=X c #D5B58C",
"-X c #D8B58D",
";X c #D8B78C",
":X c #DCBC93",
">X c #D1AE85",
",X c #CAB6A9",
"<X c #EBCB98",
"1X c #CBC6A7",
"2X c #EBCFA5",
"3X c #E7CBA3",
"4X c #EFD3AA",
"5X c #EFD4A7",
"6X c #F2D6AB",
"7X c #F7DCB3",
"8X c #FEE6BD",
"9X c #FFE9BF",
"0X c #FAE0B7",
"qX c #DCDADB",
"wX c #DADDC3",
"eX c #D9E1CA",
"rX c #FFEBC1",
"tX c #FCE9C7",
"yX c #F2E5D6",
"uX c #FBF4E9",
"iX c #FEFEFE",
"pX c #F8F8F6",
"aX c #ECE6E2",
"sX c #ECDECF",
/* pixels */
"                          . . . s k z z k z k z k z k z k z k z h . . .                           ",
"                          . . X h z k z z k z z z l k z z z z k h o . .                           ",
"                      . . p s s l k z z z k z k k k z k z k k z l s s p . .                       ",
"                      . . p  . .z z k z k z l z k k z z k z z k k k  .p . .                       ",
"                      o X s  . .z z  .x  .z z z x x x z x  .x z x x  .s X X                       ",
"                . . : l h ..+.X.X.X.X.X.X.X.+.+.X.X.X.X.X.X.X.X.X.X.X...h l : . .                 ",
"                . . : z k O.;.;.X.+.;.:.;.;.+.+.+.+.+.+.+.+.+.+.+.+.+.O.k z : . .                 ",
"                . . > |  .&.*.*.$.$.$.*.*.*.$.$.$.$.$.$.$.$.$.$.>.*.*.&.| | > . .                 ",
"                . . a ;.&.=.' 2.g.l.h.2.` 6.l.l.l.l.l.l.l.l.l.l.g.B.` =.:.:.a . .                 ",
"                . . a ;.;.=.` / g.l.j.2.` 6.l.l.l.l.l.l.l.l.l.l.g.B.` =.:.:.a o .                 ",
"              + : : v -.-.7.e.e.u.u.u.e.e.y.l.l.g.u.u.x.l.l.s.u.u.e.e.7.,.S.c : > +               ",
"          . . + z k F ] ^ s.l.l.4.` 3.l.l.l.l.l.r.` ` p.l.k.3.` 4.l.l.N.-X:X,.j z + . .           ",
"          . . + j  .F ] ` s.l.l.4.` 3.k.l.l.l.l.r.` ' p.l.k.3.` 4.l.l.N.=X=X,.j k + . .           ",
"' ' !.-XQ.6 3 7 M M Q K.K.a.l.l.p.y.s.m.m.M.l.l.r.` ^ p.l.k.3.` 2.w.q.b.N.N.8.N N 7 3 e G.:X!.' ' ",
"' ' !.=X&XT n n n n ! W.P.M.l.l.l.l.z.T.P.m.l.l.r.` ' p.l.k.3.' ' ` ` q.l.l.1.u V V V C &X=X!.' ' ",
"^ ` !.:X>XT C Z n n ^ T.T.c.l.l.k.l.z.R.P.m.k.l.r.2.B.p.l.x.3.' ' ' ' q.l.l.1.u V Z Z E &X:X!.` ^ ",
"C C =X0X7X3X3X&X~ ! q.z.z.z.l.l.m.Y.m.c.z.a.4.4.r.g.g.q.4.A.!.!.Q.' ^ q.l.l.q.! ^ >X3X3X7X0X=XC C ",
"V V :XrXrX9X9X2X] ` e.l.l.l.l.l.Y.P.R.k.l.p.` ` r.l.l.w.` ' &X:X!.B.` e.l.l.e.` ' 2X9X9X9XrX:XV V ",
"n V >X4X2XwXeX1X^ ~ q.z.z.j.j.j.Y.P.Y.l.l.p.' ` r.l.l.w.` B.&X=X!.Z.Z.t.z.z.w.` ' 1XeXeX2X4X&XZ V ",
"    C C K oXoXXXZ n ^ T.T.A.2.2.I.P.Y.k.l.p.' ` r.l.l.w.` V.!.=X:X0X0X<XT.T.K.] B.XXoXoXK Z C     ",
"    V u A oX+XOXu y ^ E.E.A.' ' L.E.R.k.l.p.` ` u.l.l.w.' ] !.>X:X9XrX<XE.E.C.` ' XX+XoXA n V     ",
"    V V A (.(. XY Y ^ 4.C.B.' ' L.E.R.l.l.g.6.w.b.c.c.4.` ] -X3X<X6X5X<X3.K.4.w.6. X|.(.A n V     ",
"          . . , l.l.9.u V ! ' B.L.P.R.k.l.l.l.l.n.P.P.C.] V.4XtX7X-X=XZ.V y 9.l.k., . .           ",
"          . . , k.l.9.8 8 ! ' B.L.E.R.l.l.l.l.l.n.P.P.C.` V.6X8X0X-X;XH.n 8 9.l.l., . o           ",
"          . . , k.l.0.R W B b t B.A.K.n.n.n.n.n.t.^ ^ Z.F.Q.F.F.Z.K K S Q R 0.l.k.7 . .           ",
"          . . , l.l.y.' B.< . o Q ' B.I.E.I.I.E.^ 8 0 F.-X*XC 8 5 . . < B.B.u.l.l.a . .           ",
"          . . , l.l.u.` ' < . . Q B.B.I.E.E.I.E./ u u F.=X*XT y 5 o . 4 ] ' u.l.k.7 . .           ",
"          . . 1 m.m.4.T T @X#X#X`.}.P Q W W W W Z.-X-X[ ) Q P P }.#X#X@XT T 4.m.m.1 . .           ",
"          . . < I.E.2.0 0 ,XiXiX{.^./.u u u u 8 G.tXrX) 8 u /.~.{.iXiX1X0 8 / T.I.1 . .           ",
"          . . < K.K.^ n V ,XiXpX[.^./.S S C T Z Q.rXrX[ C S /.~.{.pXiX,X8 8 ^ L.K.< . .           ",
"                % # 4 V V *XtXtX].^.'.qXaXsX4X2X6XrXrXyXaXqX'.~.].tXtX@Xo O @ # #                 ",
"                . . & V V &XrXrX].~.'.pXiXuXrXrXrX7X7XpXiXpX'.~.].0XtXH.. . . . .                 ",
"                . . & 5 6 G.5X3X.X]..XuXuXuX8X8X8X8X8XuXpXuX.X]..X3X5XD.o O O O O                 ",
"                      . . B B.V.3X7XtX8X9X8X8X8X8X8X8X8X8X8XtX0X3XV.V.R 4 q r V 8 @ . .           ",
"                      . . B ' B.4XrXrX8X9X9X8X9X8X8XrX8X8X9X9XrX5XB.' R q q y u n @ . .           ",
"                      . . N ! ! G.*X&X5X4X4X4X5X5X5X4X4X4X2X&X*XG.! ! D 4 q y V n @ . .           ",
"                      . . 3 n 0 0 0 T &X;X=X=X=X=X=X>X=X=X&XC n 8 V n y q q r u n @ . .           ",
"                      . . 3 n 0 0 8 T >X-X-X=X=X-X-X-X-X;X&XE V V V V 8 q q y u n @ . .           ",
"                      . . U ,X,X,X,X%XA N J ,.,.,.,.,.,.,.<.M c M B n b 1 1 & & & O               ",
"                      . . $XiXiXiXiXqX$ . - j j j j j j j j  .k x n B b p i + . .                 ",
"                      . . $XiXiXpXiXqX$ . - z l j  .z z z  .j j c n n b i i + . .                 ",
"                . . & 5 5 P `.`.`.`.I o . # N N 8.d.d.d.d.i.m N M c c p X X X                     ",
"                . . & V n J G G G G G . . % 0 0 9.k.l.l.l.k.( n N z  .p . .                       ",
"                . . & V n J H H I I H X X % B n 8.h.h.h.v.f.( B N  . .s o X                       ",
"                . . & n V V V B G.=XH.i ; d ;.&.o...........&.&.&.;.@.g ; i + . .                 ",
"                . . & 0 y 8 u n J.:XJ.a i d ;.;...l l k l k X.;.;.;.;.#.i i + . .                 ",
"                . . w ) ) ) ) ) D.D.{ d p v ;.;.O.| | | | | +.;.;.o.o.g ; - + . .                 ",
"                . . L 9X8X9X8X7X2 . X j  ...;.;.;.;.;.;.;.;.;.;.o.z  .p . .                       ",
"                . . L tXtXrXrX8X2 . + l k | ;.:.;.:.;.:.;.:.;.:.X.z k s . .                       ",
"                . . N { { { { { # . o > p p f f f f f f f f f f d > p - . .                       ",
"                      . . . . . . . . . . . . . . . . . . . . . . . . . . .                       ",
"                      . . . . . . . . . . . . . . . . . . . . . . . . . . .                       ",
"                                                      . . . = = * * * $ . .                       ",
"                                                      . . o 4 q q q e * . .                       ",
"                                                      . . o 4 q q q e * . o                       ",
"                                                      . . . < q e u u e 4 < @ . .                 ",
"                                                      . . . < q e u V y q q @ . .                 ",
"                                                      . . o 4 e e V V y e e % . .                 ",
"                                                      . . o 5 n V V V V V V = . .                 ",
"                                                      . . o 8 V V V V V V V & . .                 ",
"                                                        . o 4 3 3 3 3 3 3 3 % . .                 ",
"                                                            . . . . . . . .                       ",
"                                                            . . . . . . . .                       ",
"                                                              .           .                       "
};
