/* XPM */
static char *link_front_1[] = {
/* columns rows colors chars-per-pixel */
"49 64 220 2 ",
"   c None",
".  c #010001",
"X  c #0A0504",
"o  c #0F0805",
"O  c #040B06",
"+  c #140B07",
"@  c #031205",
"#  c #041E0B",
"$  c #0B1C08",
"%  c #051907",
"&  c #06121B",
"*  c #151617",
"=  c #15170B",
"-  c #361D15",
";  c #2C190E",
":  c #082409",
">  c #093909",
",  c #163A0D",
"<  c #063412",
"1  c #0A3716",
"2  c #372616",
"3  c #33390D",
"4  c #3D3126",
"5  c #162A32",
"6  c #4A2917",
"7  c #522E17",
"8  c #493319",
"9  c #5D341A",
"0  c #59371A",
"q  c #6B3B1C",
"w  c #61371B",
"e  c #723F1E",
"r  c #492A23",
"t  c #453923",
"y  c #563122",
"u  c #723D20",
"i  c #6D3E23",
"p  c #0C430D",
"a  c #094B19",
"s  c #184A11",
"d  c #165C1B",
"f  c #0E5319",
"g  c #244312",
"h  c #27681A",
"j  c #2D7A1E",
"k  c #0D6923",
"l  c #0D7A27",
"z  c #0E7B29",
"x  c #0F7225",
"c  c #117C29",
"v  c #167526",
"b  c #126520",
"n  c #2B6B27",
"m  c #256B26",
"M  c #267129",
"N  c #386F29",
"B  c #1C5C1D",
"V  c #414117",
"C  c #69421E",
"Z  c #72401F",
"A  c #5B7B1F",
"S  c #4A5924",
"D  c #5C4B30",
"F  c #684828",
"G  c #744121",
"H  c #784623",
"J  c #7E4D2B",
"K  c #774A28",
"L  c #675923",
"P  c #7B5335",
"I  c #624433",
"U  c #5A6E24",
"Y  c #517B30",
"T  c #0E3248",
"R  c #243D55",
"E  c #27384A",
"W  c #325374",
"Q  c #314F6F",
"!  c #725D48",
"~  c #615240",
"^  c #72604B",
"/  c #627D5A",
"(  c #556067",
")  c #977316",
"_  c #A07B16",
"`  c #86562C",
"'  c #895B32",
"]  c #814E28",
"[  c #8B6239",
"{  c #93663B",
"}  c #9D743D",
"|  c #94652D",
" . c #A4783D",
".. c #A06E35",
"X. c #9C744B",
"o. c #8C6B50",
"O. c #A17642",
"+. c #A47B42",
"@. c #A87C42",
"#. c #A47B56",
"$. c #877977",
"%. c #2E801F",
"&. c #15802A",
"*. c #1C8529",
"=. c #248C29",
"-. c #3D9B27",
";. c #319629",
":. c #349929",
">. c #3A9B28",
",. c #3C883F",
"<. c #3B863D",
"1. c #31912A",
"2. c #3DA229",
"3. c #52A01E",
"4. c #46982B",
"5. c #6C9233",
"6. c #749535",
"7. c #41A429",
"8. c #43A82A",
"9. c #7FAF25",
"0. c #6C8760",
"q. c #948B1C",
"w. c #B29514",
"e. c #87883A",
"r. c #A9813E",
"t. c #A8823E",
"y. c #B38839",
"u. c #B79734",
"i. c #85AE32",
"p. c #BFA22E",
"a. c #BAA01D",
"s. c #C4AE0E",
"d. c #C3A82A",
"f. c #D2BD23",
"g. c #D0B32E",
"h. c #8EC115",
"j. c #92CB17",
"k. c #D9C81B",
"l. c #D7C80E",
"z. c #E4D715",
"x. c #EDE50D",
"c. c #EFE80B",
"v. c #F2EC0A",
"b. c #F0E60D",
"n. c #FFFE00",
"m. c #F9F407",
"M. c #F5E51A",
"N. c #F6ED10",
"B. c #F4E913",
"V. c #E6CA2D",
"C. c #EED42A",
"Z. c #E4C533",
"A. c #EFD42B",
"S. c #D6C221",
"D. c #AB8447",
"F. c #B58945",
"G. c #B88B47",
"H. c #BA9445",
"J. c #B48D5A",
"K. c #9E8567",
"L. c #A68767",
"P. c #BA956C",
"I. c #A29279",
"U. c #B58F6B",
"Y. c #CB9B4D",
"T. c #C3944A",
"R. c #DEAB53",
"E. c #D5A350",
"W. c #DAB149",
"Q. c #E3B748",
"!. c #E0AE53",
"~. c #E3B055",
"^. c #C19C72",
"/. c #CAA67B",
"(. c #C8A67A",
"). c #D1AC7C",
"_. c #2B4E9B",
"`. c #3A5290",
"'. c #4E6AAA",
"]. c #5A72A8",
"[. c #5972AA",
"{. c #566693",
"}. c #7D8BA6",
"|. c #69A8B0",
" X c #6B848B",
".X c #00BAFF",
"XX c #00A5E3",
"oX c #26ABD2",
"OX c #67B9CA",
"+X c #3CCBC2",
"@X c #B7A497",
"#X c #9299AC",
"$X c #8EA090",
"%X c #CCAB82",
"&X c #D1AF86",
"*X c #D4B48B",
"=X c #D9B98E",
"-X c #D9B68C",
";X c #DCBC93",
":X c #C8B5A8",
">X c #E6C89F",
",X c #E4C497",
"<X c #F4D296",
"1X c #EACDA4",
"2X c #EFD2A7",
"3X c #F8DDB4",
"4X c #F5D9AB",
"5X c #FEE6BD",
"6X c #FFE8BF",
"7X c #FAE0B7",
"8X c #D6D7D9",
"9X c #CCE4D1",
"0X c #FFEBC2",
"qX c #FFF1D9",
"wX c #DEDFE0",
"eX c #E1E1E1",
"rX c #FDF5EA",
"tX c #FEFEFE",
"yX c #F8F9F7",
"uX c #F2EEEA",
/* pixels */
"                                . . @ x c c c c c c c c c x @ . .                                 ",
"                                . . @ x c c c c c c c c c x @ . .                                 ",
"                            . . a d b ;.:.:.:.:.:.:.:.:.:.;.b d a . .                             ",
"                          . . . k c &.2.7.7.7.7.7.7.7.7.7.2.&.c k . . .                           ",
"                          O O @ k c &.>.2.2.2.2.2.2.2.2.2.>.&.c k @ O O                           ",
"                      . . a x x c c c c &.&.&.&.&.&.&.&.&.c c c c x x a . .                       ",
"                      . . a c l l l l l l l l l l l l l l l l l l l c a . .                       ",
"                    % # # d *.*.*.*.*.*.*.*.*.*.*.*.*.*.*.*.*.*.*.*.*.d # # %                     ",
"                . . < c l ;.7.7.7.7.7.7.7.7.7.7.7.7.7.7.7.7.7.7.7.7.7.1.l c < . .                 ",
"                . . < z l ;.2.2.2.2.2.2.2.2.2.2.2.2.2.2.2.2.2.2.2.2.7.;.l z < . .                 ",
"              % < < B Y Y 6.i.i.6.5.6.j.j.j.j.j.9.5.5.i.j.j.j.j.h.5.5.4.=.=.d < < %               ",
"          . . # c z Y @.+.Y.!.R.D.+.y.m.n.n.n.n.f.+.+.z.n.n.n.n.b. .@.e.7.7.=.z c # . .           ",
"          . . # l z Y +.+.Y.!.R.D.+.y.m.n.n.n.n.f.+.+.z.n.n.n.n.x. .+.6.2.7.=.l c # . .           ",
"          . . = S S q.z.z.d.G.G.S.k.z.n.n.x.d.d.u.+.+.u.d.g.m.n.x.t.+.t.6.e.<.l c # . .           ",
"          . . + e u w.n.n.d.O. .x.n.n.n.n.z.+.+.+.+.+.+.+.t.v.n.x. .+.+.+.@.Y l c # . .           ",
"          X . = G G w.n.n.d.+.D.x.n.n.n.n.z.t.t.t.t.t.t.t.y.c.n.x.t.t.t.t.t.Y c v $ X X           ",
"+.+.(.*X(.F 9 K T.T.V.n.n.Z.E.E.N.n.v.u.u.d.x.x.x.x.x.x.x.x.p.u.d.x.x.x.x.b.q.F F 0 9 F (.*X(.+.+.",
"+.+.(.*X%XJ Z ' R.R.A.n.n.V.R.!.N.n.v.t.O.p.n.n.n.n.n.n.n.n.y.O.u.n.n.n.n.n.w.u e Z e J %X*X(.+.+.",
"} } /.;X&X` K | Q.Q.V.v.v.V.Q.Q.M.v.z.t.+.d.n.n.m.m.m.v.v.x.H.D.u.c.v.m.n.n.a.] ] ' ' o.*X;X/.} } ",
"G H ;X6X4XD.O.u.m.n.k.t.t.k.n.m.u.t.t.+.+.d.n.n.C.!.!.H.t.D./.*X(.t.t.g.n.n.V.E.E.<X3X3X7X6X;XH G ",
"G G ;X0X3XD.O.u.n.n.k.O.+.k.n.n.u.O.+.+.O.p.n.n.C.R.R.F. .@.%X*X/.+.O.d.n.n.C.R.!.4X0X6X0X0X;XG G ",
"G G ^.*X&XJ.J.H.l.l.d.F.F.z.n.n.f.d.d.d.p.f.M.M.Z.Y.Y.J.J.J.&X*X&X^.P.W.M.M.g.Y.Y.,X4X2X*X*X^.G G ",
"    G Z J (.*XP.G e ..!.R.M.n.n.n.n.n.n.n.M.R.R.T.+.+.(.*X*X*X*X;X5X6X<XR.R.H.+.+.(.*X(.J Z G     ",
"    G G J /.-X^.G e ..!.R.M.n.n.n.n.n.n.n.M.R.!.T.+.+.(.*X*X*X*X;X6X0X<X!.!.G.O.+./.-X/.J Z G     ",
"    2 - 4 |.OX|.[ '  .T.T.g.C.C.C.C.C.C.C.Z.T.T. .' ' P.*X*X1X1X1X1X1X). . .d.k.f.$XOX|.P         ",
"    . . & XX.XoX+.+.+.+.+.Y.R.R.R.R.R.R.R.Y.+.+.' e Z U.*X=X3X6X3X*X*XL.e u s.n.n.+X.X.X          ",
"    . . & XX.XoX+.+.+.+.+.Y.R.R.R.R.R.R.R.Y.+.+.' G G U.-X=X3X6X3X*X*XU.Z u s.n.n.+X.X.X          ",
"    . . O ( ( 0.z.z.a.] ] 0 2 8 } F.F.F.F. .] ] X.P.P.%X*X&X#.X.o.t 4 I { { k.n.n.N T T           ",
"    . . X q e ) n.n.s.u G ; . . [ +.+.+.+.{ e e #.=X-X*X*X%XJ e 9 . . 2 +.+.k.n.n.3 . .           ",
"    . . X 9 q ) m.n.s.u G 2 * * [ X.X. . .{ K K L.;X=X&X%X(.P F y * * t  .} k.m.m.3 . .           ",
"          o X 8 Q.Q.y.e Z @XwX8X].`.`.K H { (.(.,X7X3X#.J P W `.{.8XwX@XH H y.Q.Q.2 . .           ",
"          . . 2 R.~.y.G Z :XtXtX[._.`.i q { *X*X1X6X6XX.q i `._.[.tXtX:Xe Z y.~.R.2 . .           ",
"          . . 2 D.F.' 9 9 :XyXrX[._.`.o.o.L.;X;X2X6X6XU.o.o.`._.[.rXyX:X9 9 [ F.D.2 . .           ",
"                X X X . . I.0X7X]._.'.uXyXrX6X5X6X6X6XrXyXuX'._.].7X0XI.. . X X X                 ",
"                . . . . . I.0X7X]._.'.yXtXrX6X6X6X6X6XrXtXyX'._.].7X0XI.. . . . .                 ",
"                . . . . . o.,X=X#X}.#XuXrXqX6X6X6X6X6XqXrXuX#X}.#X=X,Xo.. . . . .                 ",
"                      . . F +.@.2X6X6X6X6X6X6X6X6X6X6X6X6X6X6X6X2X@.+.F . .                       ",
"                      . . F @.D.2X0X6X6X6X6X6X6X6X6X6X6X6X6X6X0X2XD.@.F . .                       ",
"                . . : a a D ' ' #.L.U.,X>X>X>X>X>X>X>X>X>X,XU.L.#.' ' D a a : . .                 ",
"                . . < c z S Z Z e q J %X*X*X*X*X*X*X*X*X*X%XJ q e Z e S z c < . .                 ",
"                . . 1 &.c S Z G G Z P %X*X*X*X&X*X*X*X*X*X%XP Z G G G S c c 1 . .                 ",
"    . . . . . & R R  X9X9X/ , g m m M <.,.,.,.,.,.,.,.,.,.<.M m m g , / 9X9X/ - - + . . . . .     ",
"    . . . . . & W Q #XtXtX0.> p x z z l l l l l l l l l l l z z x p > 0.tXtX$X6 6 + . . . . .     ",
"    o o o o X * W Q }.eXeX/ , s x c c c c c c c c c c c c c c c x s , / eXeX$.r r = o o o o o     ",
". . 7 q q q q I W W E * * 8 C C M z c c l c c c c l l l c c c z M F C 8 * * E Q Q I q q q q 7 . . ",
". . 7 Z e e e I W W E . . 6 G G M z z z z l l l l l l l z z z z M G G 6 . . T W W I e e e Z 7 . . ",
". . F { { { { ! R R 5 @ @ V L L N n n n n j 3.3.3.3.3.j n n n n N L L V @ @ 5 R R ! { { { { F . . ",
". . K.-X*X*X-XL.. . % p p M 7.7.L G G G u _ n.n.n.n.n._ u G G G L 7.7.j p p % . . L.-X*X*X-XK.. . ",
". . L.;X=X=X;XL.X . % p p %.7.7.L u u G u _ n.n.n.n.n._ u G u u L 7.7.j p p % . X L.;X=X=X;XL.. . ",
". . D ^ ! ! ^ ~ X . @ : : j 7.7.A U U S S A h.h.h.h.h.A S S U U A 7.7.j : : @ . X ~ ^ ! ! ^ D . . ",
"    . . . . . .       . . h 7.7.7.7.2.c z l l l l l l l z c 2.7.7.7.7.h . .       . . . . . .     ",
"    . . . . . .       . . h 8.7.7.7.>.c c c c c c c c c c c >.7.7.7.8.h . .       . . . . . .     ",
"                . . . . . : , , v =.=.;.;.;.;.;.;.;.;.;.;.;.h B d , , : . .                       ",
"                . . . . . . . . b z &.2.7.7.7.7.7.7.7.7.7.-.s p > . . . . .                       ",
"                . . . X X X X X b c v -.4.4.-.-.-.-.-.-.-.>.s p > . . . . .                       ",
"                . . ; w w w w 9 t t t t t 4 $ $ $ $ $ $ $ $ 0 C 7 X . .                           ",
"                . . ; H G G G G y r r r r - . . . . . . . X w H 9 X . .                           ",
"                . . ; 9 9 q G G y y 6 2 2 ; . . . . . . . X 7 w 7 X . .                           ",
"                      X X 6 G G u G w X . .                 X X X                                 ",
"                      . . 6 H G G G w X . .                 . . .                                 ",
"                      . . - 6 6 6 6 6 X .                   . . .                                 ",
"                          . . . . . .                                                             ",
"                          . . . . . .                                                             ",
"                            .     .                                                               "
};
