/* XPM */
static char *e90513e5969a4610b119dcede9a650a3k506vuSvXO46WO8c[] = {
/* columns rows colors chars-per-pixel */
"50 64 229 2 ",
"   c None",
".  c #000001",
"X  c #080A06",
"o  c #150C09",
"O  c #021106",
"+  c #041E0B",
"@  c #051608",
"#  c #1C100B",
"$  c #1C180E",
"%  c #0E1115",
"&  c #27170D",
"*  c #341D0E",
"=  c #221D17",
"-  c #2A1D10",
";  c #341E12",
":  c #381F14",
">  c #052A0E",
",  c #05240D",
"<  c #083E08",
"1  c #073613",
"2  c #082E10",
"3  c #392615",
"4  c #33310E",
"5  c #091722",
"6  c #111C26",
"7  c #15292E",
"8  c #362821",
"9  c #482718",
"0  c #5A3619",
"q  c #453118",
"w  c #693B1D",
"e  c #713E1D",
"r  c #4B2920",
"t  c #522D20",
"y  c #6B3B21",
"u  c #733D20",
"i  c #0D440E",
"p  c #0A4A19",
"a  c #0B541D",
"s  c #1D4A13",
"d  c #3D4417",
"f  c #295817",
"g  c #2A6A1B",
"h  c #27621A",
"j  c #28512D",
"k  c #0D6822",
"l  c #0E7326",
"z  c #0E7B29",
"x  c #0C7926",
"c  c #107B29",
"v  c #1B7326",
"b  c #196C24",
"n  c #2B6827",
"m  c #237726",
"M  c #356D25",
"N  c #414101",
"B  c #56421B",
"V  c #73401F",
"C  c #66441B",
"Z  c #584822",
"A  c #535323",
"S  c #595B27",
"D  c #4C592B",
"F  c #6D4321",
"G  c #69432C",
"H  c #744221",
"J  c #7D4C2B",
"K  c #794825",
"L  c #695625",
"P  c #644936",
"I  c #7A5D33",
"U  c #4D732F",
"Y  c #6E6037",
"T  c #6C741D",
"R  c #1D3145",
"E  c #343A49",
"W  c #325475",
"Q  c #304F6F",
"!  c #5A4A53",
"~  c #6E574B",
"^  c #6C6765",
"/  c #60625E",
"(  c #936D19",
")  c #87572C",
"_  c #8A5C32",
"`  c #875835",
"'  c #804E26",
"]  c #8E6235",
"[  c #976936",
"{  c #9E753D",
"}  c #917932",
"|  c #A4783E",
" . c #B17E3C",
".. c #986C49",
"X. c #9D7449",
"o. c #967859",
"O. c #8A7257",
"+. c #A17743",
"@. c #A47A42",
"#. c #A97E42",
"$. c #A37955",
"%. c #1A8429",
"&. c #14802A",
"*. c #358622",
"=. c #2C9229",
"-. c #309529",
";. c #379626",
":. c #2A8D29",
">. c #3EA229",
",. c #528526",
"<. c #479728",
"1. c #4C992B",
"2. c #728830",
"3. c #49A827",
"4. c #42A529",
"5. c #48A629",
"6. c #42A92A",
"7. c #74801B",
"8. c #6D8E6E",
"9. c #54A267",
"0. c #9C8217",
"q. c #AB8C13",
"w. c #92843C",
"e. c #8A8F36",
"r. c #AA833D",
"t. c #AE8A39",
"y. c #B49236",
"u. c #BA9B31",
"i. c #B89733",
"p. c #AF8A2D",
"a. c #BFA12F",
"s. c #C6B111",
"d. c #C3A72B",
"f. c #CEB724",
"g. c #D0AF36",
"h. c #C29B3E",
"j. c #B3D50D",
"k. c #D6C41D",
"l. c #DACD19",
"z. c #DDD317",
"x. c #C8D215",
"c. c #E1D415",
"v. c #E7DA15",
"b. c #DBEE08",
"n. c #DDF007",
"m. c #F2EC09",
"M. c #F4F405",
"N. c #FEFE01",
"B. c #F7F604",
"V. c #F7E916",
"C. c #EBE50C",
"Z. c #D9C324",
"A. c #ECD526",
"S. c #F1DA26",
"D. c #E8C53A",
"F. c #F5E221",
"G. c #AC8343",
"H. c #B78945",
"J. c #B69154",
"K. c #998062",
"L. c #969B67",
"P. c #A68A6A",
"I. c #B58E67",
"U. c #BA9569",
"Y. c #B79773",
"T. c #A6967B",
"R. c #9DA46F",
"E. c #9EA470",
"W. c #C7984B",
"Q. c #C19F5B",
"!. c #D3A24E",
"~. c #D3A943",
"^. c #DEAB53",
"/. c #D9A651",
"(. c #C2AB4A",
"). c #E3B846",
"_. c #E0AD53",
"`. c #E3B154",
"'. c #C29E75",
"]. c #C19B65",
"[. c #C9A679",
"{. c #E6C679",
"}. c #2C4F9B",
"|. c #355094",
" X c #5671AE",
".X c #516BA5",
"XX c #667BAD",
"oX c #46609E",
"OX c #2CA1BE",
"+X c #798EA4",
"@X c #429FAF",
"#X c #0EA3DA",
"$X c #26A7D0",
"%X c #05BDFE",
"&X c #04ADEC",
"*X c #59B8CE",
"=X c #46C8F0",
"-X c #8F8985",
";X c #B7AD93",
":X c #B7A9A6",
">X c #CCAB83",
",X c #D5B58C",
"<X c #D9B68D",
"1X c #D9B88F",
"2X c #D3B286",
"3X c #DCBC93",
"4X c #D6B993",
"5X c #CBAF91",
"6X c #CAB7A9",
"7X c #DFC097",
"8X c #E7C99C",
"9X c #F5D39A",
"0X c #D4C7B7",
"qX c #DBC5AE",
"wX c #E8CAA1",
"eX c #EED2A9",
"rX c #EDD0A7",
"tX c #F9DFB6",
"yX c #F4DCB5",
"uX c #F3D7AC",
"iX c #FAE0B7",
"pX c #FFE6BD",
"aX c #FFE8BE",
"sX c #FFEAC1",
"dX c #FEEACA",
"fX c #FCF0D8",
"gX c #FEFFFF",
"hX c #F8F9F9",
"jX c #F7F4EF",
/* pixels */
"                                  . . O k z c c z c c z c c x O . .                                 ",
"                                  . . X l z c z z c c z c c l O . .                                 ",
"                                  , + > v %.%.%.%.%.%.%.%.%.m 2 , +                                 ",
"                            . . . a c &.>.>.4.>.4.4.4.4.4.4.>.%.z k . . .                           ",
"                            . . . a &.&.;.4.4.4.4.4.4.4.4.4.4.c c k . . .                           ",
"                            > 1 1 k z &.=.=.=.=.=.=.=.=.=.=.-.c c x 1 1 >                           ",
"                        . . p c c c c c c c c c z z z z z z z c c c c c a . .                       ",
"                        . . p c c z c c c c c c c c c c z z c z c c c z a . .                       ",
"                  . . , p p v -.=.-.-.-.-.-.-.-.-.-.-.-.-.-.-.-.-.-.-.-.%.a a 2 . .                 ",
"                  . . 2 z &.=.6.4.4.6.4.4.4.4.4.4.4.4.4.4.4.4.4.4.4.4.4.-.c c 1 . .                 ",
"                  . . 2 &.z -.5.6.3.3.3.3.3.3.4.4.4.4.4.3.3.3.3.3.3.4.5.-.c c p . .                 ",
"            . . @ k k M } } J.(.(.z.n.n.b.n.x.w.w.X.w.} x.n.b.b.n.x.w.} 2.>.;.m k k + . .           ",
"            . . @ z z ,.X.X.W.`._.V.N.N.N.N.v.@.X.+.@.@.c.N.N.N.N.m.#.@.e.>.6.:.z c + . .           ",
"            . . O v v U y.y.g.).).v.m.m.N.N.C.t.y.t.@.@.c.N.N.m.m.v.y.y.e.1.1.:.z c + . .           ",
"            . . o y F 0.B.B.B.B.N.u.#.y.M.N.N.N.N.k.+.| c.N.B.i.G.i.M.N.z.X.G.,.z z + . .           ",
"            . . o y u 0.N.N.N.N.N.u.X.t.B.N.N.N.N.k.+.+.z.N.N.y.+.y.N.N.c.+.+.U z z + . .           ",
"            ; & * ] [ p.c.c.v.V.F.f.d.d.z.c.v.N.N.v.a.d.C.N.N.y.+.t.z.v.k.d.f.2.n n - & -           ",
"@.@.| [.,X2X` w ) /.).W.| | W._.^.V.N.B.t.+.u.N.N.N.N.N.N.N.B.y.+.@.| +.d.N.N.q.u H H u J >X,X[.@.@.",
"  @.@.[.,X>X) w ' /.`.W.| #.W.^.^.V.N.B.t.+.u.N.N.N.N.N.N.N.N.y.| @.+.+.d.N.N.q.e u e w J [.,X[.@.@.",
"  _ _ [.rX8XX._ { A.S.g.| | g.S.A.f.f.f.r.@.u.N.N.V.A.A.Z.f.f.Q.U.U.G.+.d.N.B.s._ ] I.Y.'.wXrX2X] _ ",
"  e u 2XsXiXJ.+.y.N.N.z.| +.k.N.N.u.| X.@.+.u.N.N.S.^.^.H.+.@.>X1X[.G.@.d.N.N.f.+.G.8XsXsXsXsX3XH H ",
"  H u >XsXtXJ.+.y.N.N.c.@.@.k.N.N.u.@.| @.@.u.N.N.S.^.^.H.@.#.[.,X[.G.@.d.N.N.f.+.@.8XsXsXsXsX4XH H ",
"      ..X.o.@X$X@X( ( p.W.!.A.N.N.C.v.v.v.v.v.D.D.g.H.H.].[.[.2X,X4X8X8X{.D.D.(.| @.*X=X*Xo.X...    ",
"      e e G #X%X#XG e [ _._.S.N.N.N.N.N.N.N.V.^.^.W.X.+.[.<X4X,X,X3XaXsX9X^._.H.@.@.$X%X&XP e F     ",
"      w w G $X%X$XL H [ /./.A.N.B.B.B.N.B.B.F.^.^.J.| | '.,X2X<X,X3XiXiX9X!./.H.r.r.OX&X#XP H H     ",
"      o o % T.;X;XX.{ | G.G.(.).).).).`.).).~.G.G.[ K K I.<X<XuXiXyX3X3XU.' ' s.M.m.d 5 5           ",
"      . . o Y.3X[.@.+.@.G.@.W.`.`._._._.^.^.!.@.r.] e e I.<X4XtXsXtX,X1XI.e y s.N.N.N . .           ",
"      . . X o.Y.].i.i.t.[ [ | G.G.W.!.!.!.!.W.[ [ ] ` ` Y.<X<X3X8X4XP.T.o.K K s.N.N.N . .           ",
"      . . . w H ( m.N.s.V V 3 . X I #.@.#.@.{ H H X.,X2X,X,X>X` K 0 X . q +.| k.N.N.d . .           ",
"      . . X w e ( B.N.s.V V ; . . I #.@.@.@.[ u y X.,X2X,X,X2X` u w . . 3 +.@.k.N.N.N . .           ",
"        . X : 9 C A.V.d.V V ~ / ^ ^ ^ O.[ ] [ ....Y.wXwX'.I.$.~ ! ! / ^ ~ ] ] d.F.S.4 . .           ",
"            . . & !.^.H.K V 5XgXgXXX}.|.G u ..>X4XwXaXaX$.w u |.}. XgXgX0XV e  .`._.3 . .           ",
"            . . - /.`.H.F e 5XgXhXXX}.}.G e _ 2X2XwXaXaX$.w H |.}. XhXgX6XH u #._._.3 . .           ",
"                3 [ [ [ ] ] 5XfXfXXX}.oX:X6X6XeXeXtXiXaX6X6X6XoX}. XfXfX;X& * q Z Z -               ",
"                  V F ' | | 2XpXsXXX}..XjXgXhXpXaXaXaXpXjXgXhX X}..XiXaXT.. . . . .                 ",
"                  V V ) { | 2XpXtXXX}.oXjXgXjXpXpXpXaXsXfXgXhX X}..XtXaXT.. . . . .                 ",
"                        & $ I U.J.6X0XqXdXdXdXaXpXaXpXpXdXdXdX0X0X6XU.J.I . . .                     ",
"                        . . Z @.@.8XsXaXaXaXiXaXpXpXpXpXpXaXaXaXsXuXG.| L . .                       ",
"                        O O Z | { 3XeXeXtXtXtXtXtXtXtXtXtXtXtXeXeX8X+.| P O O O                     ",
"                  . . > l x D V K J J ` >X3X,X4X3X<X<X<X3X<X,X_ J K K K A l l 1 . .                 ",
"                  . . , z x A V H V e ' >X<X<X<X<X<X<X<X<X<X,X` e V V V A x x 2 . .                 ",
"                  5 5 j 9.9.U 0 B A A S L.E.R.R.R.R.R.R.R.R.R.L A Z B B U 9.9.j o o                 ",
"      . . . . . % Q |.+XgXgX8.i i b c c c c v c c c c c c c c c c l i i / gXgX-X9 r o . . . . .     ",
"      . . . . . O Q Q +XgXgX+Xi i k c c c c c c c c c c z c c c c l i < 8.gXgX-X9 9 o . . . . .     ",
"      * * * 3 * 3 W W / -X-X~ d d b z c c c c c z c c z c z c c c b d N ! -X-X/ E E r ; * ; * *     ",
". . . 9 K V H V G W W R . . 4 V H n z c c c c z c c c c c c c c z m V V 9 O . R W W P u H u e 0 . . ",
"  . . 9 H u V e G Q W R . . 3 V H n z c z z c z c c z &.c c c c z m F V 9 . . 7 W W P u V H H 0 . . ",
"  . X ~ Y.I.I.].o.7 5 7 a a M ,.,.S A A A A T j.j.j.j.j.T A A A A A ,.,.f . . % 6 6 O.U.I.I.U.O.. . ",
". . . o.3X,X<X1XY.X . 2 z z =.6.4.L V K V V ( N.N.N.N.N.q.u y H V L 4.6.g . . . . X K.3X,X4X3XP.X . ",
"  . . O.>X>X>X>XP.X . 2 l l :.4.3.S V V F F ( M.M.M.M.M.0.w H F V L <.4.g . . . . . K.>X>X>X>Xo.. . ",
"      = = = = = =       O O h 6.4.<.<.<.m v m ;.;.*.-.;.m m m ;.<.<.4.6.g . . .     = = = = = =     ",
"      . . . . . .       . . h 6.4.4.6.>.&.z z z x x x x z z z >.4.6.6.6.g . .       . . . . . .     ",
"      . . . . . .       . . s *.*.*.*.*.%.%.%.%.&.%.%.&.%.%.%.;.;.;.*.*.f . . .     . . . . . .     ",
"                        . . . X X . . @ ;.>.>.>.>.>.>.>.>.>.4.%.&.k O X . . . . . .                 ",
"                        . . . . . . . X ;.4.4.4.6.4.4.4.6.6.>.%.z k O . . . . . . .                 ",
"                        . . . . . o # $ h g g n g g g g M U M g j f & & & & & o . .                 ",
"                            . . . 8 r 9 . . . . . . . . ; r r r r t H H H H H * . .                 ",
"                            . . . : r r X . . . . . . . ; r r 9 9 t F H V H H ; . .                 ",
"                                  # = $                 # # & t y y y H 0 * * &                     ",
"                                  . . .                 . . . 0 F H H H 9 . .                       ",
"                                  . . .                 . . . w V V V V 9 . .                       ",
"                                                              # # # # # #                           ",
"                                                              . . . . . .                           ",
"                                                              . . . . . .                           "
};
