/* XPM */
static char *_efea84f7242486ca14927f3249031b4M2FElOkCxXMzd5lL[] = {
/* columns rows colors chars-per-pixel */
"50 64 232 2 ",
"   c None",
".  c #000001",
"X  c #0A0504",
"o  c #020B04",
"O  c #0D0906",
"+  c #0B0A09",
"@  c #120C06",
"#  c #170D0B",
"$  c #041D0A",
"%  c #021408",
"&  c #1C130C",
"*  c #111513",
"=  c #23160D",
"-  c #281810",
";  c #341D15",
":  c #341D0F",
">  c #07290C",
",  c #102A0B",
"<  c #083B14",
"1  c #15360F",
"2  c #382815",
"3  c #2E2E16",
"4  c #212122",
"5  c #1F2022",
"6  c #492A18",
"7  c #45341B",
"8  c #583719",
"9  c #512E16",
"0  c #6D3C1D",
"q  c #64381C",
"w  c #713E1D",
"e  c #4C2A21",
"r  c #503B2A",
"t  c #723E20",
"y  c #663920",
"u  c #0C430D",
"i  c #084116",
"p  c #094C1A",
"a  c #0C551C",
"s  c #174413",
"d  c #3E4518",
"f  c #245018",
"g  c #2A691B",
"h  c #236619",
"j  c #2C761E",
"k  c #3F5E24",
"l  c #0D6B23",
"z  c #0D6622",
"x  c #0E7A29",
"c  c #0E7426",
"v  c #117C29",
"b  c #177525",
"n  c #106F23",
"m  c #2F6726",
"M  c #326A26",
"N  c #3B752A",
"B  c #1E6518",
"V  c #50451C",
"C  c #73411F",
"Z  c #584521",
"A  c #565323",
"S  c #67432B",
"D  c #744120",
"F  c #7C4C2A",
"G  c #794825",
"H  c #75592D",
"J  c #664732",
"K  c #795533",
"L  c #4B772A",
"P  c #766334",
"I  c #253F59",
"U  c #324E6C",
"Y  c #584852",
"T  c #725D4F",
"R  c #756751",
"E  c #4D6C74",
"W  c #6B6868",
"Q  c #50526C",
"!  c #8B5F1B",
"~  c #97701A",
"^  c #85562D",
"/  c #8A5C32",
"(  c #865635",
")  c #88562A",
"_  c #8B6434",
"`  c #926433",
"'  c #966B38",
"]  c #9B753D",
"[  c #95702B",
"{  c #A47B3E",
"}  c #A7793D",
"|  c #A07D1D",
" . c #976A46",
".. c #9D7648",
"X. c #8D775A",
"o. c #A17643",
"O. c #A47A41",
"+. c #A77D45",
"@. c #A47A55",
"#. c #827262",
"$. c #13812A",
"%. c #1B8429",
"&. c #278C28",
"*. c #2C9229",
"=. c #309529",
"-. c #3A9D29",
";. c #359929",
":. c #368722",
">. c #3EA229",
",. c #5CA51C",
"<. c #4D8E28",
"1. c #49A827",
"2. c #42A429",
"3. c #45A729",
"4. c #5BA830",
"5. c #6C9B29",
"6. c #76A37B",
"7. c #83BB15",
"8. c #BDA60F",
"9. c #91823D",
"0. c #919235",
"q. c #AA833C",
"w. c #AC873B",
"e. c #B08D38",
"r. c #B38B39",
"t. c #B69435",
"y. c #AF9331",
"u. c #BFA32D",
"i. c #B6B22C",
"p. c #B79B1E",
"a. c #D3BF1E",
"s. c #C0A810",
"d. c #C4AA2A",
"f. c #C1A52B",
"g. c #CEB724",
"h. c #D5B92D",
"j. c #E1BE35",
"k. c #D5C21E",
"l. c #DCCB1A",
"z. c #D2CE11",
"x. c #E3D80A",
"c. c #E3D614",
"v. c #E6DA13",
"b. c #D9EB09",
"n. c #DDF007",
"m. c #EDE40D",
"M. c #F1EB0A",
"N. c #F9F504",
"B. c #FFFE00",
"V. c #F8F209",
"C. c #F5E619",
"Z. c #F1DB24",
"A. c #E8C639",
"S. c #EAD129",
"D. c #DED126",
"F. c #8F845B",
"G. c #AC8343",
"H. c #A98248",
"J. c #B68A47",
"K. c #AC8651",
"L. c #B9935C",
"P. c #B1954A",
"I. c #978A68",
"U. c #AB8864",
"Y. c #B89874",
"T. c #B8956A",
"R. c #9DA46F",
"E. c #9EA570",
"W. c #C7994A",
"Q. c #D7A74E",
"!. c #DDAB53",
"~. c #D6A753",
"^. c #CCA750",
"/. c #E2B549",
"(. c #E2AE54",
"). c #E4B157",
"_. c #C29F79",
"`. c #C7A477",
"'. c #D0AF7E",
"]. c #E7C442",
"[. c #2C4F9B",
"{. c #36559B",
"}. c #2E509C",
"|. c #3758A1",
" X c #6A7989",
".X c #546AA1",
"XX c #76908D",
"oX c #7386A7",
"OX c #758BBD",
"+X c #5B9594",
"@X c #06B8F9",
"#X c #0BA8E1",
"$X c #27AFD6",
"%X c #65ADCC",
"&X c #47C8EF",
"*X c #BCA392",
"=X c #B4B1B2",
"-X c #9AA98B",
";X c #CCAB84",
":X c #D5B48B",
">X c #D9B68D",
",X c #D8B88F",
"<X c #D4B384",
"1X c #DABA91",
"2X c #D3BE9C",
"3X c #CFB490",
"4X c #C8B3A5",
"5X c #E3C499",
"6X c #E5C78D",
"7X c #D3C7B5",
"8X c #DCC4A8",
"9X c #E9CCA4",
"0X c #EED1A8",
"qX c #F2D7AB",
"wX c #F9DFB6",
"eX c #F6DCB3",
"rX c #E2D3BD",
"tX c #FFE6BC",
"yX c #FFE9BF",
"uX c #FBE0B5",
"iX c #DEC099",
"pX c #E9DBCE",
"aX c #FFEAC1",
"sX c #FEEAC9",
"dX c #FFF2DA",
"fX c #FFF0C5",
"gX c #D8DEED",
"hX c #DEE4F0",
"jX c #ECE8E6",
"kX c #FFFFFF",
"lX c #FFFAF3",
"zX c #D6D1CB",
/* pixels */
"                          . . . . . . z x v v v v v v x v v > . . . . .                             ",
"                          . . . . . o z x x x v x v v c x v > . . . . .                             ",
"                          $ $ > , , , b %.%.%.%.%.%.%.%.%.%.s , , > $ $                             ",
"                      . . < v c =.2.2.2.2.2.2.>.2.>.2.2.2.2.-.2.-.%.c l o . .                       ",
"                      . . < v v =.2.2.2.2.2.2.2.2.2.2.2.2.2.2.2.2.%.v l o . .                       ",
"                      . . i $.x &.*.*.*.*.*.*.*.*.*.*.*.*.*.*.*.*.v v l o . .                       ",
"                      . . i x v x v x x v x v x v x x x v v v x x v v l o . .                       ",
"                      . . i x v v b x v x v v v v v v x v c v v v v x l o . .                       ",
"                . . > p p b =.=.=.=.=.=.=.=.=.=.=.=.=.=.=.=.=.*.=.=.=.&.a a < . .                   ",
"                . . > x $.*.3.2.>.>.3.3.3.>.2.2.2.2.2.2.2.2.3.2.2.2.2.-.$.$.z . . .                 ",
"                . . > v v =.3.2.>.3.1.1.2.1.1.1.1.2.2.1.1.1.1.1.3.3.3.2.$.v a . . .                 ",
"                . . 1 -.;.<.9.H.z.m.b.0.9.0.b.n.z.9.9.i.n.n.b.n.n.0.9.] -.-.j . . .                 ",
"                . . 1 >.2.5.@.o.v.B.B.e.o.e.B.B.c.{ O.g.B.B.B.B.B.t.O.H.>.>.j . . .                 ",
"                % % s 3.1.0.r.r.l.M.m.u.e.u.N.B.c...{ g.B.B.V.M.m.u.e.e.4.4.<.$ % %                 ",
"          . . $ n c N H.] g.N.N.d.q.w.m.B.N.B.B.v.{ O.g.B.B.d.q.w.m.B.M./.~.P.x x i . .             ",
"          . . % x x L O.O.k.B.B.u...+.M.B.B.B.B.v.{ ..g.B.B.d.o.q.m.B.V./.!.0.$.x p . .             ",
"          - = - m m L J.J.h.c.c.g.u.d.V.B.N.c.c.l.f.u.l.B.B.d.o.} k.c.c.A.A.i.M m d = = J           ",
"O.O.`.,X;X^ C C D w ' (.Q.W.O.O.c.B.B.B.B.M.q.O.u.B.B.B.B.B.d.O.+.O.o.e.N.N.x.C C w w w U.>X:XK.O.O.",
"+.+.`.:X;XF C C C w ` !.(.W.o.o.c.B.B.B.B.M.q.o.u.B.B.B.B.B.d.] { O.O.e.N.B.z.C C C w w U.>X3XK.O.+.",
"/ / <X9X5X`.Y.U./ / e.Z.S.l.g.a.S.S.S.N.B.M.q.O.u.B.B.v.g.a.^.T.T.H.o.e.N.B.x._ / ..Y.Y.,X0X9X../ / ",
"D D 3XaXaXyXaXqXH.+.d.B.B.B.B.B.A.!.(.V.B.M.q...u.B.B.a...{ `.:X:XK.{ e.N.B.v.+.O.'.yXyXtXtXtX .0 C ",
"D D 1XaXyXyXtX0XH.o.u.B.B.B.B.B.A.!./.V.B.M.q.{ f.B.B.k.{ { _.:X<XK.O.e.N.B.v.+.{ `.yXyXtXtXuX .w C ",
"    ' ..@.&X&X%X^.W.j.B.B.Z.A.A.(.!.(.V.B.N.v.v.m.B.B.k.{ { `.<X:X5X5X6X/.].h.O.q.XX&X&XXX ...      ",
"    C C J #X@X$X!.!.A.B.B.S.!.!.!.!.(.V.B.B.B.B.B.B.B.k...O.`.>X,XuXyXuX).!.^.O.+.+X@X@XE w w       ",
"    0 0 S $X@X$XQ.Q.j.N.N.S.!.!.Q.!.Q.V.B.N.B.B.B.B.B.a. .] `.1X,XeXtXqX!.Q.W.q.w.+X@X@XE w 0       ",
"    O O & R F.X.) C ` e.e.W.!.!.P.G.G.Q./.A.B.B.B.B.B.s.G G ;XuXeX5X1X;X^ ) | M.V.g.F.F.7 O O       ",
"    . . O _ } ] C C ) { O.W.).(.J.{ +.Q.!./.B.B.B.B.B.8.t t ;XaXyXiX:X;XG 0 ~ B.B.k.{ { 7 . .       ",
"    . . O ] J.} ~ ! [ { O.G.w.q.+.O.+.Q.(./.v.m.x.x.x.p.( ( _.9XiXY.U.I.^ G | B.B.l.G.J.7 . .       ",
"    . . @ J.(.j.N.B.l.{ +.V . X H O.+.Q.(.Q.q.G.] C D @.:X:X .D C & . & ' O.t.B.B.Z.!.(.Z . .       ",
"    . . @ W.(.A.B.B.c.{ G.7 . . H } +.~.(.Q.+.+.' C t @.1X:X .t w @ . O  .O.u.B.B.Z.(.).Z . .       ",
"      . @ P _ 9.k.l.d._ ` R W W W W #.+.r.} ` ` '  . .@.U.U.T Y Y W W W ` ` w.v.C.d._ _ 7 . .       ",
"          . . & ] O.` C w *XkXkXOX[.{.y t t t w _ >X1X@.w w Q }.{.gXkXjXF w / (.(.P . .             ",
"          . . = { H.' C 0 *XkXkXOX[.{.S w 0 t t  .:X,X@.w C Q {.{.gXkXjXF w / (.)._ . .             ",
"              & 2 2 Z ` _ ;XdXdX X[.{.=X4X4X;X`.3X0X0X8X4X4X.X}.{.zXdXaX ._ ^ Z Z 7                 ",
"                . . 2 +.{ '.yXtXOX}.|.hXkXlXaXaXtXtXtXdXkXkXOX}.{.7XyXqXK.} H . . .                 ",
"                X . 2 { ] '.tXuX X{.|.hXkXlXaXtXtXtXtXdXkXkXOX{.|.7XyXqXH.+.H . . .                 ",
"          . . @ 8 8 6 - = H T.L.4X7X7XsXsXsXtXaXtXtXtXaXsXsXzX7X7XT.L.K.3 = =                       ",
"          . . @ w D 6 . . r +.{ 9XaXaXaXtXtXtXtXtXtXtXaXtXtXyXyXyXL.{ _ O . .                       ",
"          @ O = S S r - 5 Z { ] :X0X0XeXwXwXwXwXwXwXwXwXwXwXqX0X9XK.] _ O . .                       ",
"    . . X 8 0 S U U oXjXjX*Xw G G F ( ;X1X1X1X:X1X1X:X1X1X1X..F F G G q O . .                       ",
"    . . X q C J U U OXkXkX*Xt D t t C `.>X>X>X>X>X>X>X>X>X>X' w C w t 0 X . .                       ",
"    . . X q C J W E XX=X=X#.9 9 8 Z A I.E.E.E.E.R.R.R.R.R.R.P V V A A V X . .                       ",
"    . . X q C ( <X1XX.. . X . . > u u c v v v v x v v v v v a u u n v l o . .                       ",
"    . . X 0 w / >X1XX.. . . . . > u u c $.v x c x x c c x x a u u l x z o . .                       ",
"      . X : 2 6 T T r . . > < < 3 V d A M L 7.7.,.7.7.5.A M d d d 6.-X+X3 = =                       ",
"          . . . . . . . . i $.x A D w w w ! N.N.B.B.B.s.0 C D C G pXlXjXr 7 ; . . .                 ",
"          . . . . . . . . < $.x A C w w w ! N.N.B.B.B.8.t D C C G pXkXgXr e ; . . .                 ",
"                . . $ a a b =.*.<.<.<.M m N ,.,.,.,.,.<.m m 3 = -  XoXXXS t y e 9 ; . .             ",
"                . . > $.x *.2.2.3.>.>.$.$.x x x x x x x x x > . . I U U D D D C C 6 . .             ",
"                . . > c x &.2.2.>.2.>.%.x $.$.v x v v x v x < . % I U U J G G F F 6 . .             ",
"                . . . % % h 2.2.2.2.>.>.>.-.-.-.-.-.-.&.v v l l z * + 5 Y.`.;X9X0X#.. .             ",
"                . . . . . f 3.2.2.2.2.2.>.2.2.2.2.>.2.*.x v v v x $ . & ;X,X5XyXaXI.. .             ",
"                . . . X O f :.:.;.-.-.>.2.>.2.2.2.>.3.=.$.%.v n l $ . & I.Y.Y.4X2X#.. .             ",
"                . . # e e = o . a x $.-.2.2.2.>.2.2.3.>.>.>.B u i o . . X + + + + +                 ",
"                . . # e e = . . a $.$.>.3.3.2.3.3.>.3.>.3.3.B u u o . . . . . . . .                 ",
"                . . # ; ; # . . < p a h g g g g m g g g g g u > > o . . . . . . .                   ",
"                      . . . . . . . . . . . . . . . . . . . . . .                                   ",
"                      . . . . . . . . . . . . . . . . . . . . . .                                   ",
"                                                                                                    ",
"                                                                                                    ",
"                                                                                                    ",
"                                                                                                    ",
"                                                                                                    ",
"                                                                                                    "
};
