/* XPM */
static char *f680988b71c44d8e913ca0d721a16494YqPq4S8RG2uvdaT0[] = {
/* columns rows colors chars-per-pixel */
"50 64 224 2 ",
"   c None",
".  c #000101",
"X  c #0A0604",
"o  c #0A0B08",
"O  c #150C09",
"+  c #061B09",
"@  c #1D110A",
"#  c #1B150D",
"$  c #181717",
"%  c #090E15",
"&  c #23140B",
"*  c #261C0E",
"=  c #241915",
"-  c #361F10",
";  c #361D0E",
":  c #05260D",
">  c #073612",
",  c #10350E",
"<  c #2D2A04",
"1  c #29241A",
"2  c #392714",
"3  c #383812",
"4  c #272728",
"5  c #373432",
"6  c #13202E",
"7  c #462719",
"8  c #45341C",
"9  c #5B341B",
"0  c #4D340F",
"q  c #673A1C",
"w  c #713E1D",
"e  c #4A2920",
"r  c #472B20",
"t  c #4B3622",
"y  c #593422",
"u  c #503425",
"i  c #673A21",
"p  c #723D21",
"a  c #0D430D",
"s  c #094618",
"d  c #174613",
"f  c #0C5519",
"g  c #184E17",
"h  c #2A5016",
"j  c #317A1F",
"k  c #3F5F25",
"l  c #27532F",
"z  c #0C6522",
"x  c #196C23",
"c  c #0E7B29",
"v  c #0B7624",
"b  c #117C29",
"n  c #177527",
"m  c #2C6A27",
"M  c #316926",
"N  c #337429",
"B  c #18661F",
"V  c #414101",
"C  c #73401F",
"Z  c #65411D",
"A  c #584823",
"S  c #435E25",
"D  c #58473B",
"F  c #6A4727",
"G  c #744120",
"H  c #7A4A28",
"J  c #78542A",
"K  c #7C5335",
"L  c #664C35",
"P  c #6F7B39",
"I  c #53711C",
"U  c #033449",
"Y  c #1E3246",
"T  c #22384E",
"R  c #37506B",
"E  c #305070",
"W  c #5B5249",
"Q  c #736E6C",
"!  c #765C4A",
"~  c #946C19",
"^  c #82532B",
"/  c #86582D",
"(  c #875835",
")  c #804F28",
"_  c #856533",
"`  c #976B39",
"'  c #9D733E",
"]  c #987223",
"[  c #A5793D",
"{  c #B07E3C",
"}  c #855D1A",
"|  c #956A46",
" . c #947553",
".. c #A17643",
"X. c #A47B41",
"o. c #A87D42",
"O. c #A47B56",
"+. c #997D6B",
"@. c #178229",
"#. c #258D29",
"$. c #2C8424",
"%. c #358521",
"&. c #368822",
"*. c #2D9429",
"=. c #359A29",
"-. c #399D29",
";. c #389928",
":. c #208031",
">. c #3EA329",
",. c #5CA51C",
"<. c #51842A",
"1. c #748D38",
"2. c #42A529",
"3. c #45A82A",
"4. c #5AA169",
"5. c #AD9114",
"6. c #82BA15",
"7. c #BAA016",
"8. c #838B38",
"9. c #8C9931",
"0. c #AA833D",
"q. c #AC8937",
"w. c #B18D38",
"e. c #B49235",
"r. c #BB9931",
"t. c #B59829",
"y. c #9AB124",
"u. c #BFA22F",
"i. c #C7B210",
"p. c #C4A92A",
"a. c #C3A92B",
"s. c #CDB624",
"d. c #CDB527",
"f. c #D1BC22",
"g. c #CDA93B",
"h. c #BBDF0F",
"j. c #B1CF16",
"k. c #BDE10E",
"l. c #D8C71B",
"z. c #DFD117",
"x. c #D3C70A",
"c. c #E9DE11",
"v. c #E4D519",
"b. c #EEE60D",
"n. c #F2EB0A",
"m. c #F2ED05",
"M. c #F5F204",
"N. c #FEFE00",
"B. c #FAF507",
"V. c #F6E817",
"C. c #F3E911",
"Z. c #D9C721",
"A. c #E6C538",
"S. c #EDD625",
"D. c #AC8245",
"F. c #B98A44",
"G. c #B38C56",
"H. c #B98F51",
"J. c #9D8877",
"K. c #81807F",
"L. c #B99469",
"P. c #A98C79",
"I. c #B89975",
"U. c #AE8B67",
"Y. c #BAAA7D",
"T. c #C3944A",
"R. c #CA9A4B",
"E. c #D7A74E",
"W. c #DDAB53",
"Q. c #C2AB4B",
"!. c #E2B54A",
"~. c #E1AD53",
"^. c #E3B153",
"/. c #C29D74",
"(. c #C9A67B",
"). c #C8A577",
"_. c #D2B561",
"`. c #2C4E9B",
"'. c #375191",
"]. c #546EA7",
"[. c #4E6AAB",
"{. c #657EB5",
"}. c #566B93",
"|. c #679291",
" X c #6C9D9B",
".X c #13A5D9",
"XX c #37B6D3",
"oX c #00BCFF",
"OX c #0AACE7",
"+X c #78D1E3",
"@X c #938E8F",
"#X c #B09C8F",
"$X c #BBA891",
"%X c #CAAA83",
"&X c #D1AF87",
"*X c #D5B48B",
"=X c #D7B689",
"-X c #DDBD94",
";X c #DCBE98",
":X c #C6AD94",
">X c #CABAB0",
",X c #8CC0B9",
"<X c #DCC198",
"1X c #E4C69D",
"2X c #E5C699",
"3X c #EACDA4",
"4X c #E7CAA1",
"5X c #F1D5AC",
"6X c #F5DCB4",
"7X c #EFD3AA",
"8X c #FFE6BD",
"9X c #FFE8BF",
"0X c #FAE0B8",
"qX c #81C8D3",
"wX c #CBC7C5",
"eX c #DFDEDE",
"rX c #FFEBC2",
"tX c #FFECCE",
"yX c #FCEDD2",
"uX c #FFF8EB",
"iX c #FEFEFF",
"pX c #F6F7F7",
"aX c #EDEEEF",
"sX c #DFE0E1",
/* pixels */
"                            . . . j 2.>.2.2.2.2.2.2.2.2.2.2.2.2.2.%.. . .                           ",
"                            . . . j 3.2.2.2.2.2.2.2.2.2.2.2.2.2.3.%.X . .                           ",
"                            + + + j =.=.=.=.=.=.=.=.=.=.=.=.=.=.=.$.: + +                           ",
"                        . . s c c b b c b b b b b b b b b b b b b b c b f . .                       ",
"                        . . s c c c n c c c c c c c c c c c c b c c b c f . .                       ",
"                      : > > B #.#.#.#.#.#.#.#.#.#.#.#.#.#.$.#.#.#.#.#.#.x > > :                     ",
"                  . . : b c *.2.2.2.2.2.2.2.2.2.2.2.2.2.2.2.2.2.2.2.2.2.=.b b > . .                 ",
"                  . . : b b #.2.2.2.2.-.2.2.>.>.2.2.-.2.>.2.>.>.>.2.2.>.*.c b > . .                 ",
"                  . . 1 P P y.k.h.9.8.9.j.k.j.8.1.y.k.k.h.h.h.h.k.j.8.8.1.*.*.g . .                 ",
"                  . . 2 o.X.l.N.N.r.X.q.B.N.c.o...s.N.N.N.N.N.N.N.n.{ o.8.3.>.g . .                 ",
"                  X . 3 0.D.l.B.B.u.X.w.M.N.c.X...d.N.N.N.N.N.N.M.b.0.D.8.3.3.g . .                 ",
"            . . # _ ( t.b.b.f.e.r.z.b.n.N.N.c.X.o.d.N.N.N.N.N.u.e.u.b.n.Z.Q.Q.1.z z : . .           ",
"            . . # ' X.a.N.N.s...X.b.N.N.N.N.c.X...s.N.N.N.N.B.e...e.N.N.V.W.^.1.c c : . .           ",
"            @ X < q.w.p.n.n.d.D.D.c.N.N.n.n.z.e.w.f.B.B.B.n.b.w.X.w.b.b.v.!.!.1.n x # O O           ",
"  X.X.).*X&X^ q } n.N.z.0.0.H.W.W.C.N.M.e.0.u.B.N.S.~.~.F.q.D.X.X.[ 0.0.p.N.N.5.G F q q H %X*X).X.X.",
"X.X.[ /.*X&X( w } M.N.z.X.[ T.W.~.V.N.M.0...r.N.N.S.W.~.F.' X.X.' X.D.X.a.N.N.5.p p w w H (.*X(.D.X.",
"  ` ` ).1X-X` ^ ] M.N.v.F.F.E.A.A.v.v.z.a.u.d.V.V.A.R.R.H.G.G.G.G.G.D.X.a.N.N.7.^ ^ | O.O.-X1X%X` ` ",
"  C w %XrX6XG...e.N.N.V.W.W.S.N.N.u.X.q.M.N.V.W.~.T.X.X.).*X*X*X*X(.X.X.a.N.N.s.X.o.1X8X8X8X8X-XG G ",
"C G C %XyX0XG.[ e.N.N.V.W.~.S.N.N.r...0.M.N.V.^.~.T.[ [ ).*X*X*X*X%XD.[ a.N.N.s...X.2X8X8XrXrX-XG C ",
"      U.L.P.|. X|.5.7.t.H.T.v.N.N.z.f.l.S.S.A.H.T.T.L./.*X3X3X3X3X4X(.&X_.s.f.g.T.T.,X+X+XI.L.U.    ",
"      C Z F .XoX.XL p ^ X...l.N.N.N.N.B.!.W.R.o.[ G.*X*X5X8X8X8X9X9X9X9X-X[ [ T.W.W.XXoXOXL w w     ",
"      G C F .XoX.XF p ^ X...Z.N.N.N.N.B.!.W.R.o.[ L.*X*X5XrX8X8X9X9X8X9X2X[ ..T.W.W.XXoXOXL C G     ",
"            U U l x.x.i.J ) e.A.A.A.A.A.W.~.R.^ ) O.*X*X5X8X8X8XrX0X2X2X/.J ^ p.V.V.k U U           ",
"            . . < M.N.i.w w { ~.~.W.W.~.W.~.T.p q O.*X*X7XrX8XrX8X6X*X*XU.C C 7.N.B.V . .           ",
"            . . < M.N.x.G G [ R.R.E.W.E.W.W.T.H H O.-X*X7X6X8X6X6X3X%X%XO.G G i.N.N.3 . .           ",
"            . . < M.N.z.' ' A # = _ D.D.D.o.D.(.(.;X8X6X4X*X*X| ( H = # t ..| l.N.N.h X .           ",
"            . . < M.N.z.X.D.t . . J o.X.[ X.G.*X*X4X8XrX4X*X&X( p 9 . X 2 X.X.l.N.N.V . .           ",
"            . . < c.C.l.` ' L 5 5 !  . .` ` O.*X*X4X8X8X*X/.L.K D D t T D ` ` d.B.n.0 . .           ",
"            . . 1 E.^.F.G C $XiXpX X`.'.H p ` &X*X4X8X8XO.G H '.`.].aXiX>XC G 0.^.W.2 . .           ",
"            . . * E.^.w.C C $XiXpX{.`.'.i w ( &X*X4XrX8XO.q G '.`.].pXiX>XC w 0.^.^.3 . .           ",
"              . # _ _ J 7 7 #XiXpX{.`.'.@XP.#X1X1X5X8X8X:XP.P.'.`.].aXuX;X/ / _ _ _ 1 . .           ",
"                  . . . . . @XiXiX{.`.[.aXiXuX8X8X8X8X8XuXiXpX].`.].6XrX2X[ o.8 . .                 ",
"                  . . . . . @XiXiX{.`.[.aXiXuX8X8X8X8X8XuXiXpX[.`.].0XrX2X[ D.8 . .                 ",
"              . % Y T 6 . . W P.P.@X@X@XyXyXyX8X8X8X8X8XtXuXyX#X@X@X).). .8 8 1                     ",
"            . . % E E T . . - w w /.*X-X6XrX8X8X8X8X8X8X8X8X8X-X=X(.o.o.F . .                       ",
"            . . % E E T X X 7 C p L.*X*X6XrX8X8X6X8X8X8X8X8X6X-X=X(.o.o.F . .                       ",
"      . . X 7 9 u E E }.wXwX+.w p ( ( | *X2X-X-X-X;X2X-X-X;X-X| ( ( ) ) 9 . .                       ",
"      . . X q w L R E @XiXiX#Xw G p w H (.=X=X*X*X=X*X*X=X=X&X/ C C C C 8 . .                       ",
"      . . X H ( ! R E |.eXsX+.q q Z q H Y.Y.$XY.Y.Y.Y.%X$XI.I.^ C C F Z 8 4 4 $                     ",
"      . . O :X6X-XH F e $ $ o X X , d d n :.@.:.:.:.:.:., o # 9 C F n n 4.aXaXQ . .                 ",
"      . . O <XyX3XH G 0 . . . . . , a a v c c c c c b c : . . q C F v v 4.iXiXQ X .                 ",
"        . o J.$XP.9 9 - . . O & @ a f f c c b b c c b b > o + 2 0 A 4.4. XwXwXW . .                 ",
"            . . . . . . . . 2 w C m c c c b c b c c b c f a , o . 5 aXpX>Xr e & . .                 ",
"            . . . . . . . . 7 w C m @.c c c c v c c c c f a a o . 4 pXiX>Xe e # . .                 ",
"              . . . . . . . 1 M S S S S M S I 6.6.6.6.6.I 3 3 2 ; r K.@XQ 9 i 7 2 - O               ",
"                        . . s @.@.A C C w w ] N.N.N.N.N.5.G G G H 9 . . & C G G G p @ . .           ",
"                        . . s @.b A C C C w ~ N.N.N.N.N.] w G G C 9 o . & G G G G w @ . .           ",
"                        . . g =.=.<.<.<.M M N ,.,.,.,.,.j M m m M h . . t *X*XI.L.U.1 . .           ",
"                        . . h 3.2.3.2.>.b c c c c c c c c c c c c v o . W rXrX3X*X&X5 . .           ",
"                        . . B >.;.-.2.;.@.b @.b c c b c c @.@.c c z . . D 6X6X<X%X%X2 . .           ",
"                            + + + x @.:.;.-.-.-.-.-.-.-.>.>.>.@.b z . . o 1 4 = $ = X . .           ",
"                            . . . z b b >.3.3.2.>.3.2.2.>.>.>.@.@.z . . . . . . . . . . .           ",
"                            O X X g x n &.&.&.&.&.%.%.%.%.%.&.x z z . . . . . . . . . . .           ",
"                        . . = 7 e e e r o . . . o . o . o . . . . .                                 ",
"                        . X = e e e e 2 X . . . . . . . . . . . . .                                 ",
"                      O @ O 7 9 y e e r X . . . . . . . . . . . . .                                 ",
"                  . . @ e e i p w y 7 r X . .                                                       ",
"                  . . O e e y p w u e 7 X . .                                                       ",
"                  . . & q y p C G i y 9 X . .                                                       ",
"                  . . * G G G G G G G q X . .                                                       ",
"                  . . & G w p G p G w q o . .                                                       ",
"                      O @ @ @ @ @ @ @ @                                                             ",
"                        . . . . . . . .                                                             ",
"                        . . . . . . . .                                                             "
};
