/* XPM */
static char *f__281_29__282_29[] = {
/* columns rows colors chars-per-pixel */
"50 64 212 2 ",
"   c None",
".  c #000001",
"X  c #040906",
"o  c #130A09",
"O  c #1B0E0A",
"+  c #120904",
"@  c #021207",
"#  c #031508",
"$  c #051E0A",
"%  c #1C110A",
"&  c #171716",
"*  c #24140C",
"=  c #2A170C",
"-  c #341D0F",
";  c #261A14",
":  c #331C13",
">  c #052A0D",
",  c #192411",
"<  c #073512",
"1  c #0C370D",
"2  c #27231D",
"3  c #352111",
"4  c #101B23",
"5  c #2C2822",
"6  c #5F361B",
"7  c #4C311B",
"8  c #6E3C1D",
"9  c #60361B",
"0  c #713E1E",
"q  c #4B2A20",
"w  c #4F3528",
"e  c #663920",
"r  c #733F20",
"t  c #0B400C",
"y  c #0A4E1B",
"u  c #094417",
"i  c #184D16",
"p  c #0C5319",
"a  c #155A1A",
"s  c #334B1A",
"d  c #09641F",
"f  c #2A691B",
"g  c #0C5F20",
"h  c #304F25",
"j  c #0D6622",
"k  c #0F7527",
"l  c #0F7B29",
"z  c #0D7927",
"x  c #107B29",
"c  c #1A7627",
"v  c #1E6F24",
"b  c #356729",
"n  c #216E27",
"m  c #56451C",
"M  c #41451C",
"N  c #73401F",
"B  c #7D4F1B",
"V  c #564228",
"C  c #545423",
"Z  c #5C4E3D",
"A  c #6E4621",
"S  c #744220",
"D  c #7C4B26",
"F  c #7A4A27",
"G  c #527425",
"H  c #1F364D",
"J  c #365778",
"K  c #605140",
"L  c #7E7F4D",
"P  c #5D6177",
"I  c #7B7975",
"U  c #524C4D",
"Y  c #8F671A",
"T  c #84542A",
"R  c #895A2C",
"E  c #8B5D31",
"W  c #885A37",
"Q  c #804D26",
"!  c #956A37",
"~  c #98723A",
"^  c #8D7331",
"/  c #A37A3F",
"(  c #A17838",
")  c #90671E",
"_  c #976B47",
"`  c #9C7448",
"'  c #997757",
"]  c #A17643",
"[  c #A47B41",
"{  c #A57C4B",
"}  c #A67D56",
"|  c #1B8429",
" . c #1B8529",
".. c #278928",
"X. c #328625",
"o. c #2C9229",
"O. c #309529",
"+. c #389927",
"@. c #3FA229",
"#. c #3FA829",
"$. c #4A8226",
"%. c #528526",
"&. c #499629",
"*. c #599B2F",
"=. c #49A827",
"-. c #42A429",
";. c #42A82A",
":. c #51A02D",
">. c #4E8C59",
",. c #55A468",
"<. c #9F9216",
"1. c #A8A902",
"2. c #BABE1F",
"3. c #91823D",
"4. c #8D843B",
"5. c #AA833D",
"6. c #AE8A3A",
"7. c #B89733",
"8. c #AC9233",
"9. c #B5A52C",
"0. c #9AB413",
"q. c #C1A52C",
"w. c #C4AA2A",
"e. c #CEB724",
"r. c #D1BC22",
"t. c #DDB93A",
"y. c #CAA939",
"u. c #C69F3F",
"i. c #B4D60D",
"p. c #D9C71C",
"a. c #D4CC0E",
"s. c #E5D914",
"d. c #E2D507",
"f. c #DBEE08",
"g. c #DDF007",
"h. c #EFE70B",
"j. c #F1EA09",
"k. c #F5F306",
"l. c #FEFE01",
"z. c #F7F703",
"x. c #F5E619",
"c. c #EFE313",
"v. c #DCC425",
"b. c #EDD624",
"n. c #F1DA26",
"m. c #E9C63A",
"M. c #F7E321",
"N. c #AC8559",
"B. c #B38C57",
"V. c #B9945B",
"C. c #B38745",
"Z. c #B38C66",
"A. c #BB9568",
"S. c #BC9772",
"D. c #A38E7C",
"F. c #9DA46F",
"G. c #9EA571",
"H. c #9F8541",
"J. c #CD9C4C",
"K. c #C39649",
"L. c #D4A34E",
"P. c #DEAB53",
"I. c #D7A450",
"U. c #DFB04E",
"Y. c #E1AE54",
"T. c #E4B74B",
"R. c #C09C71",
"E. c #C4A16C",
"W. c #C7A57B",
"Q. c #DEB160",
"!. c #E3B668",
"~. c #A7D94E",
"^. c #A7E959",
"/. c #34549C",
"(. c #2C4F9D",
"). c #0091C9",
"_. c #00BDFF",
"`. c #1CB9F1",
"'. c #28A8D2",
"]. c #868788",
"[. c #B9B4B2",
"{. c #AEA9A9",
"}. c #CAAB83",
"|. c #C8A680",
" X c #D5B48C",
".X c #D9B68D",
"XX c #D8B88F",
"oX c #DBBB92",
"OX c #C4B696",
"+X c #E3C599",
"@X c #D2C6B6",
"#X c #EBCEA3",
"$X c #E4C8A1",
"%X c #EAD0A8",
"&X c #F4DAB2",
"*X c #F9DFB6",
"=X c #F0D7B0",
"-X c #F4D8AF",
";X c #FFE6BD",
":X c #FFE8BF",
">X c #F8E1B7",
",X c #DFC096",
"<X c #A4B3D4",
"1X c #D7DCD5",
"2X c #E8DCCB",
"3X c #D9E2D9",
"4X c #FFEBC1",
"5X c #FFECCD",
"6X c #FDE6C2",
"7X c #F0E3D2",
"8X c #DDE3E9",
"9X c #FFFFFF",
/* pixels */
"                                  . . u x x x x x x x x x x u . .                                   ",
"                                  . . u l l l l l l l l l l u . .                                   ",
"                                # $ $ a  . . . . . . . . . .a $ $ #                                 ",
"                            . . > x l o.-.-.-.-.-.-.-.-.-.-.o.l x > . .                             ",
"                            . . > x l o.-.-.-.-.-.-.-.-.-.-.o.l x > . .                             ",
"                          @ < < y x x  .o.o.o.o.o.o.o.o.o.o. .x x y < < @                           ",
"                      . . # k x x x x x l l l l l l l l l l x x x x x k # . .                       ",
"                      . . # k x x x x x x x x x x x x x x x x x x x x k # . .                       ",
"                  . X u y a o.O.O.O.O.O.O.O.O.O.O.O.O.O.O.O.O.O.O.O.O.o.a y u X .                   ",
"                . . X j x | @.-.-.-.-.-.-.-.-.-.-.-.-.-.-.-.-.-.-.-.-.@.| x j X . .                 ",
"                . . X j x | -.-.-.=.=.=.=.=.-.-.-.-.-.-.=.=.-.-.-.-.-.-.| x j X . .                 ",
"                . . X X.+.&.4.3.9.g.f.f.f.f.8.3.3.3.3.8.f.g.2.3.3.3.3.4.&.+.X.X . .                 ",
"                . . X X.;.:.[ [ w.l.l.l.l.l.7.] [ [ [ 7.l.l.p.] [ [ [ [ :.;.X.X . .                 ",
"                @ @ $ $.:.*.[ [ w.l.l.k.j.j.q.6.6.[ [ 7.l.l.p.6.8.5.[ [ *.:.$.$ @ @                 ",
"            . . y k c ^ [ ` [ [ w.l.l.r.5.5.s.l.j.6.[ 7.l.l.l.z.z.q.[ [ ` [ ^ c k y . .             ",
"            . . y l x ^ [ [ [ ` q.l.l.e.] [ c.l.k.6.] 7.l.l.l.l.l.w.] [ [ [ ^ x l y . .             ",
"          V * * s b b H.C.C.q.q.r.x.x.v.q.q.p.s.s.w.q.e.x.x.s.s.s.e.q.q.5.[ ~ b b s * * V           ",
"[ [ B. X.XN.0 S S S S J.P.T.z.l.x.P.P.n.l.l.7.] 6.k.l.x.P.P.K.[ [ s.l.l.8.[ ~ S S S S 0 N..X XB.[ [ ",
"[ [ B. X.X} 8 0 0 N S J.P.T.l.l.x.P.P.n.l.l.7.[ 6.k.l.x.Y.Y.K./ [ s.l.l.8.] ~ S N 0 0 8 } .X XB.[ [ ",
"E R { #X#X.XS.S.` E ! v.n.b.r.r.v.n.n.v.r.r.6.[ 6.k.l.c.K.K.V.A.A.y.r.r.r.p.w.! E ` S.S..X#X#X{ R E ",
"N 0 _ ;X;X:X4X4XE./ 5.j.l.h./ ] q.l.l.e.] [ [ [ 6.k.l.s.[ / A..X.XB.] / j.l.j.5./ E.4X4X:X;X;X_ 0 N ",
"S 0 _ >X;X;X;X;XE./ 5.h.l.h.5.[ w.l.l.e.[ [ [ [ 6.k.l.s.[ [ A..X.XV.[ 5.h.l.h.5./ E.;X;X;X;X>X_ 0 S ",
"      ` _ S.+X+X{ D T 8.9.q.J.J.t.l.l.j.s.s.y.J.K.) Y 5.W.W.XX&X&XA./ [ t.m.t.[ / V.+X+XS._ `       ",
"      0 8 `  X X_ 8 S ~ [ C.P.P.m.l.l.l.l.l.m.Y.L.D 8 W  X X#X:X:XE./ [ L.P.L.[ [ V. X X` 8 0       ",
"      S 0 ' OXOX` B Q ~ / C.P.P.m.z.z.z.k.k.t.L.J.T F _ .X.X#X;X;XE.[ C.J.I.J.5.5.V.OXOX' 0 S       ",
"          '.`.`.~.j.d.) S R I.P.U.T.T.u.6.6.R Q R R.W. X*X*X>X;X;X,X}.W.! D ) h.k.~.`.`.'.          ",
"            _._.^.l.z.Y 8 T I.P.P.P.Y.C.[ [ D 8 D |. X+X;X:X:X;X:X+X.X XT 8 Y z.l.^._._.            ",
"            ).).~.l.z.) F ! !.!.Q.L.L.C.~ ~ W W _ .X+X+X#X#X#X#X#X}.S.S.W D ) z.l.~.).).            ",
"            X X 1.l.l.8./ B.*X;X+X[ [ E S S S. X.X*X;X+X{ [ [ [ [ R S F ~ [ 8.l.l.1.X X             ",
"            . . 1.l.l.7.[ B.;X4X+X[ [ R 0 N S..XXX>X4X+X[ / [ [ [ T N S ~ [ 7.l.l.1.. .             ",
"            . . <.M.b.( E _ W.|.A.[ [ ` _ `  X#X#X>X:X%XA.V.B.[ [ T 0 S E ! ( b.M.<.. .             ",
"            . . ~ Y.I.T 0 N 0 0 T [ [ R..X.X&X:X;X;X;X&X.X.XA.[ [ T 0 S S 0 T I.Y.~ . .             ",
"            . . ~ Y.P.T S S 0 0 T [ / R. X X-X;X;X;X;X&X X XR./ [ T 0 0 S S T P.Y.~ . .             ",
"                7 V V 3 = 7 R.W.D.P P {.7X7X6X;X;X;X;X6X7X7X{.P P D.W.R.7 = 3 V V 7                 ",
"                . . . . . 5 *X4X[.(.(.<X9X9X5X;X;X;X;X5X9X9X<X(.(.[.4X*X5 . . . . .                 ",
"                . . . . . 5 =X;X[././.<X9X9X5X;X;X;X;X5X9X9X<X/./.[.;X=X5 . . . . .                 ",
"                      . . ; B.V.W.@X@X2X5X5X6X;X;X;X;X6X5X5X2X@X@XW.V.B.; . .                       ",
"                      . . % ~ / E.4X:X:X;X;X;X;X;X;X;X;X;X;X:X:X4XE./ ~ % . .                       ",
"                      @ @ , ~ ~ A.%X%X&X>X*X*X*X*X*X*X*X*X>X&X%X%XA.~ ~ , @ @                       ",
"                . . X g k n A S F D D Z.oXXXXXXXXXXXXXXXXXoXZ.D D F S A n k g X . .                 ",
"                . . X d z v A S N 0 0 N..X.X.X.X.X.X.X.X.X.XN.0 0 S S A v z d X . .                 ",
"                4 4 4 >.,.>.m m m C C L G.F.F.F.F.F.F.F.F.G.L C C m m m >.,.>.% o o                 ",
"            . . H J J 8X9X1Xi t p x x x x x x x x x x x x x x x x p t i 1X9X1Xw q : . .             ",
"            . . H J J 8X9X3Xi t p x x x x x x x x x x x x x x x x p 1 i 3X9X3Xw q : . .             ",
"          * - - w U U I ].I M s h x x x x x x x x x x x x x x x x h s M I ].I e 6 7 - - *           ",
"      . . - S S N N 8 + . + 8 S C l x x x x x x x x x x x x x x l C S 8 + . + 8 S S S S - . .       ",
"      . . - S S S S 8 + . + 8 S C l x x x x l l l l l l x x x x l C S 8 + . + 8 S S S S - . .       ",
"      . . V A.Z.W. X}.s > 1 $.%.G C C C C C 0.i.i.i.i.0.C C C C C G %.$.1 > s }. X|.Z.A.V . .       ",
"      . . K oX.X-X4X>Xb t a @.#.%.0 S S S N d.l.l.l.l.d.N 0 S S r %.#.@.a t b >X4X-X.XoXK . .       ",
"      . . Z }.|.$X=X%Xh 1 i +.@.$.A S A A A a.z.k.k.z.a.A A A S N %.@.+.i 1 h %X=X$X|.}.Z . .       ",
"          & ; ; 2 2 2 @ X $ c | ..&.&.X.v n X.+.+.+.+.X.v v X.&.&...| c $ X @ 2 2 2 ; ; &           ",
"            . . . . . . . # k l ..-.-...l l l l l l l l l l ..-.-...l k # . . . . . . .             ",
"            . . . . . . . @ g j c +.+...| | | | | | | | | | ..+.+.c j g @ . . . . . . .             ",
"                      . . . X . > x x o.-.@.@.@.@.@.@.@.@.-.o.x x > . X . . .                       ",
"                      . . . . . > x l o.;.-.-.-.-.-.;.;.-.;.o.l x > . . . . .                       ",
"                      * = * O O , y y a f f f f f f f f f f a y y , O O * = *                       ",
"                . . . 9 S e q q : . . . . . . . . . . . . . . . . : q q e S 9 . . .                 ",
"                . . . 6 S e q q : . . . . . . . . . . . . . . . . : q q e S 9 . . .                 ",
"                . . . 6 S r e e 7 ; ; o . . .         . . . o ; ; 7 e e r S 6 . . .                 ",
"                . . . 6 S S S S e q q * . .             . . * q q e S S S S 6 . . .                 ",
"                . . . 6 S S S S e q q * . .             . . * q q e S S S S 6 . . .                 ",
"                      O % % % % O o o +                     + o o O O O % % O                       ",
"                      . . . . . . . .                         . . . . . . . .                       ",
"                      . . . . . . . .                         . . . . . . . .                       "
};
