/* XPM */
static char *_78891420def437fd737829f5f037f8afsM1IS5Hp6JtnRDk[] = {
/* columns rows colors chars-per-pixel */
"49 64 211 2 ",
"   c None",
".  c #000001",
"X  c #0A0504",
"o  c #090907",
"O  c #140B06",
"+  c #170D09",
"@  c #031D0A",
"#  c #031206",
"$  c #1D100A",
"%  c #171513",
"&  c #25150C",
"*  c #311C0E",
"=  c #261C17",
"-  c #05240C",
";  c #0A360C",
":  c #073412",
">  c #083B14",
",  c #142F11",
"<  c #3D3C02",
"1  c #393702",
"2  c #2A241A",
"3  c #3B2617",
"4  c #3E3F16",
"5  c #363431",
"6  c #442613",
"7  c #462716",
"8  c #56311A",
"9  c #6D3C1D",
"0  c #64381B",
"q  c #713E1D",
"w  c #4A2A20",
"e  c #5D3420",
"r  c #543927",
"t  c #4F382B",
"y  c #683B21",
"u  c #723D20",
"i  c #0D420D",
"p  c #0A4D19",
"a  c #1B4714",
"s  c #104D14",
"d  c #3F5F25",
"f  c #375C3C",
"g  c #0C6221",
"h  c #0E6923",
"j  c #196A23",
"k  c #0E7B29",
"l  c #0F7426",
"z  c #107C29",
"x  c #187628",
"c  c #2A6726",
"v  c #23752A",
"b  c #29752C",
"n  c #3C5D1E",
"m  c #68411E",
"M  c #74411F",
"N  c #7D4F1D",
"B  c #5B493B",
"V  c #694823",
"C  c #744120",
"Z  c #7E4D29",
"A  c #774A29",
"S  c #654A36",
"D  c #715427",
"F  c #5A7726",
"G  c #48702D",
"H  c #536616",
"J  c #023449",
"K  c #1D3545",
"L  c #305375",
"P  c #2A4765",
"I  c #584944",
"U  c #6A5043",
"Y  c #7B694F",
"T  c #9E7A16",
"R  c #A07B16",
"E  c #804F29",
"W  c #82522A",
"Q  c #825027",
"!  c #86593A",
"~  c #896436",
"^  c #986B37",
"/  c #9C753E",
"(  c #92652D",
")  c #A67A3B",
"_  c #936643",
"`  c #9C744A",
"'  c #937150",
"]  c #A17643",
"[  c #A47B42",
"{  c #A87942",
"}  c #A47A55",
"|  c #897C6F",
" . c #168129",
".. c #1B852A",
"X. c #258D29",
"o. c #288C27",
"O. c #358521",
"+. c #3B8627",
"@. c #2F9529",
"#. c #349A29",
"$. c #399E29",
"%. c #208031",
"&. c #3EA229",
"*. c #6E961B",
"=. c #57A31D",
"-. c #488927",
";. c #56832D",
":. c #699036",
">. c #42A529",
",. c #47A629",
"<. c #5FB222",
"1. c #AF9415",
"2. c #82BA15",
"3. c #BDA318",
"4. c #818A38",
"5. c #838D37",
"6. c #92833D",
"7. c #A9823E",
"8. c #AC8231",
"9. c #B28939",
"0. c #B49236",
"q. c #BA9836",
"w. c #BD9A2E",
"e. c #BFA32D",
"r. c #C3AD10",
"t. c #C6AC29",
"y. c #C2A62C",
"u. c #CBB425",
"i. c #D1BC21",
"p. c #D3B82A",
"a. c #D9B439",
"s. c #BBDF0F",
"d. c #ACCA19",
"f. c #BCE00E",
"g. c #D7C51C",
"h. c #D6C91C",
"j. c #E2D614",
"k. c #E6DA12",
"l. c #ECE40D",
"z. c #EDE708",
"x. c #F1EB0A",
"c. c #F0E60C",
"v. c #F9F605",
"b. c #FEFE00",
"n. c #F3F903",
"m. c #F7EB13",
"M. c #FBF012",
"N. c #E8C639",
"B. c #ECD820",
"V. c #DDD023",
"C. c #AD8347",
"Z. c #B68846",
"A. c #B48D54",
"S. c #B9936A",
"D. c #A68A79",
"F. c #A39176",
"G. c #B99874",
"H. c #B08964",
"J. c #BAAA7D",
"K. c #C49447",
"L. c #D8A74E",
"P. c #DDAB53",
"I. c #D2A150",
"U. c #C6AC52",
"Y. c #E2B648",
"T. c #E1AD54",
"R. c #E3B153",
"E. c #C9A67D",
"W. c #C9A777",
"Q. c #C19C6C",
"!. c #2C4E9A",
"~. c #365090",
"^. c #435B97",
"/. c #566EA5",
"(. c #5A73AC",
"). c #5470AD",
"_. c #5C9D99",
"`. c #26AAD2",
"'. c #0BACE7",
"]. c #00BCFF",
"[. c #79D1E3",
"{. c #BAA997",
"}. c #B1ADAC",
"|. c #9EA59B",
" X c #CEAC83",
".X c #C5A784",
"XX c #D6B58C",
"oX c #D6B689",
"OX c #DCBD94",
"+X c #D0AF86",
"@X c #CAB7AB",
"#X c #E3C59C",
"$X c #E8CA9E",
"%X c #EACDA3",
"&X c #E1C6A0",
"*X c #F1D5A9",
"=X c #F4DAB1",
"-X c #F9DFB5",
";X c #E7D0AB",
":X c #FEE5BC",
">X c #FEE7BD",
",X c #81C8D2",
"<X c #D4CCC8",
"1X c #FFEBC1",
"2X c #FFEDCF",
"3X c #FCEED6",
"4X c #F6EFE7",
"5X c #FFF9EB",
"6X c #F6F2EF",
"7X c #FDFEFE",
"8X c #F2F3F7",
/* pixels */
"                          . . . g z  .$.,.>.>.>.&.>.>.>.>.$. .z g . . .                           ",
"                          . . . g z  .>.>.>.,.>.>.>.>.>.,.$. .z g . . .                           ",
"                          @ - - h z z #.#.#.#.$.#.#.#.#.$.#.z z h - @ @                           ",
"                      . . p z k z z z z z z z z z z z z z z z z z z z p . .                       ",
"                      . . p k k k k l z l k k k z l k k k z k z k k k p . .                       ",
"                    - > : j X.X.X.X.X.X.X.X.X.X.X.X.X.X.X.X.X.X.X.X.X.j : : -                     ",
"                . . :  . .@.,.>.>.>.>.>.>.>.,.>.,.>.>.>.>.>.>.>.>.>.>.#.z z : . .                 ",
"                . . : k k @.>.&.>.&.&.>.&.>.,.,.>.&.>.>.&.>.&.&.&.>.>.@.z z : . .                 ",
"                . . a @.@.:.:.5.d.f.f.f.f.d.:.4.4.4.:.d.f.f.f.f.d.5.4.:.@.#.i . .                 ",
"                . . a >.>.4.{ { c.b.b.b.b.j.{ { { { { k.b.b.b.b.x.7.{ :.>.,.a . .                 ",
"                . . a ,.>.4.7.9.l.v.v.b.b.k.7.7.{ { [ k.b.b.v.b.l.7.) 6.>.,.a . o                 ",
"          . . @ g g G 6./ g.c.l.y.0.y.v.b.v.l.x.u.{ [ j.b.v.e.0.y.c.x.V.U.U.;.h g @ . .           ",
"          . . - z k G ) ` j.b.b.q.` 0.v.b.b.b.b.i.] [ j.b.v.9.[ q.b.b.B.R.R.:. .k @ . .           ",
"          + O % v v ;.0.0.h.x.l.q.{ 0.v.b.v.x.x.i.0.0.k.b.v.0.` 0.l.x.k.Y.Y.:.v b , O +           ",
"[ [ W.XX XA 9 u V y 1.v.v.t.7.7.I.P.Y.v.b.k.7.7.i.v.v.b.b.v.0.[ [ 7.7.u.b.b.t.` ` A 9 A E.XXW.[ { ",
"[ [ W.XXE.A 9 q u u 1.b.b.t.[ [ I.P.Y.b.b.k.[ [ i.b.b.b.b.n.9.7.) [ ` t.b.b.u.] / Z 9 Z  XXXW.{ [ ",
"^ ^  X#XOX} } ' W W 3.b.b.p.Z.Z.N.N.N.j.j.i.[ ` i.b.b.l.j.h.A.A.A.[ [ t.b.b.h.e.e.( W ! OX#X X^ ^ ",
"C C OX1X:X1X:X$X[ ] u.b.b.N.T.R.m.b.x.7.) [ [ ) i.b.b.y.] C. XXXE.[ ] t.b.b.b.b.b.w.[ A.=X1XOXC C ",
"C C OX1X:X-X>X%X[ [ u.b.b.N.R.R.M.b.x.7.) ` [ ` i.b.b.w.] C.E.XXE.[ [ t.b.b.b.b.b.w.` C.=X1XOXC M ",
"    H.S.G.,X[.,X[ [ u.b.b.p.Z.K.x.b.n.g.g.g.i.g.i.i.i.U.S.Q.$X%X$XoXoXU.i.i.i.i.i._._._.F.S.H.    ",
"    q M S '.].`.[ ` u.b.b.t.[ ) l.b.b.b.b.b.b.b.i.] ] Q.XXOX-X1X>X>X1XOX[ ] [ [ ) `.].'.S q q     ",
"    M M S '.].`.[ ] u.b.b.t.[ C.l.b.b.b.b.b.b.b.i.] { W.XXXX-X:X>X>X>XOX) [ [ [ C.`.].'.S M M     ",
"          J J K W W 8.N.N.) E W a.N.N.Y.N.N.N.N.9.E E +X=X=X-X1X:X$X#XS.Z Z 3.k.j.f J J           ",
"          . . O q q ^ T.T.( q C K.P.P.P.P.P.P.P.{ u u XX1X:X1X-X=XoXoXH.9 u r.b.b.< . .           ",
"          . . $ N N ) I.L.( 0 q K.P.P.P.T.L.L.L.) u E XX:X-X=X=X%X.XE.H.m C r.b.n.< . .           ",
"          . . 1 z.z.3.N Q 3 X + ~ C.Z.P.T.K.Q Q } E.E.XXOXXX_ ! V = % t / / g.b.b.< . .           ",
"          . . < b.b.r.q C & . . D [ 7.P.R.K.q q } XXXXXXOX XE u 8 . . 3 [ { h.b.v.< . .           ",
"          . . < c.m.r.M A t 5 5 Y ' ' K.K.{ ! ! H.#XOXE.G.G.U y B 5 5 U / ^ i.m.m.< . .           ",
"          . . 3 P.R.7.C q @X7X8X(.^.^.q q ( +X+X%X-X:X} u u ~.~.(.8X7X@XM C 7.R.Y.3 . .           ",
"          . . 3 P.R.9.M M @X7X8X(.!.~.0 q ! XXXX%X1X:X' u y ^.!.(.8X7X@XM M 9.R.L.3 . .           ",
"          . . 2 ~ ~ V 6 6 {.5X4X(.!.^.|.D..X#X&X=X1X-X.XD.|.^.!.(.4X5X{.6 6 A ~ ~ 2 . .           ",
"                . . . . . F.>X:X(.!.).8X7X5X1X-X:X:X1X5X7X8X^.~./.:X>XF.. . . . .                 ",
"                . . . . . F.1X:X).!./.8X7X5X:X:X:X:X:X5X7X8X).!./.:X1XF.. . . . .                 ",
"          . . + 6 6 5 K K | W.W.}.}.}.3X3X2X:X:X:X:X:X2X3X3X}.}.}.W.W.Y . . .                     ",
"          . . $ M M I L L Y ) [ %X>X>X>X:X>X>X:X:X:X:X:X1X:X:X1X%X[ ) D . .                       ",
"          . . $ M M I L L Y ) [ %X:X:X>X:X:X>X>X:X:X:X:X:X:X-X:X$X7.[ V . .                       ",
"          . . $ M M I L L I Z Z ! _ ` OXOX#XOXOXOXOX#XOXOXOX' _ ! Z Z 8 . .                       ",
"          . . $ C M I L L B q M M q E  XXXXXXXXXXXXXXXXXXX.XE 9 q q q 6 . .                       ",
"          . . $ 0 e t P P B 0 0 V V D J.J.J.J.J.J.{.J.J..XF._ ! ! ! ! r . .                       ",
"                X o o o o o X o g x x v %.%.X.%.%.%.v , % = <X6X6X6X6X|.. .                       ",
"                . . . . . . . . g k k z k k z k k k k - . % 4X8X7X7X7X|.. .                       ",
"                . . . . . + $ & h k z z z z z z k k k : # @ {.<X<X@X<X| O + o                     ",
"                      . . 7 M C b k z k k k l z k k  .s ; i m C y w w w w w & . .                 ",
"                      . . 7 M M v k k k k k k k k k k s i a m M u w w w w w $ . .                 ",
"                    - > ; n F F H G d d d F <.2.2.2.2.H 4 4 3 3 7 e e e e e & . .                 ",
"                . . : z z o.>.>.V u M M u T b.b.b.b.b.R q q X . + u C C C C * . .                 ",
"                . . : z z #.>.>.V V M M u T b.b.b.b.v.T q 9 O . + u C u C C * . .                 ",
"                . . : z k @.>.>.-.;.;.c c *.b.b.b.b.b.*.c c # . 2 .XXX.XS.S.t . .                 ",
"                . . : z z @.>.>.&.&.&. .k ,.b.b.b.b.b.=.k l # . 5 :X1X=XXXOXI . .                 ",
"                . . : l l @.>.$.&.&.&. .k =.n.n.n.n.n.=.k l # . 2 ;X=X&X.X XB . .                 ",
"                    # # # g  . .&.&.&.&.&.>.<.<.<.<.<.o.k k i ; : 2 2 2 = = =                     ",
"                      . . p  .z &.>.&.>.&.&.&.>.>.>.>...k z s i ; . . . . .                       ",
"                      . . p j j +.-.+.+.O.O.O.O.O.O.O.x g g i ; - . . . . .                       ",
"                      . . * w w w w 3 o . o . o . o . o . . . . .                                 ",
"                      . . = w w w w 3 . . . . . . . . . . . . . .                                 ",
"                    O $ + w e e w w w o . . . . . . . . . . . . .                                 ",
"                . . $ w w y u u r w 3 X . .                                                       ",
"                . . $ w w y C u w 7 3 X . .                                                       ",
"                . . = y y y u C y y 8 . . .                                                       ",
"                . . * C u C C C C C 0 X . .                                                       ",
"                . . * M V q u u M C 0 X . .                                                       ",
"                    O $ $ $ $ $ $ $ +                                                             ",
"                      . . . . . . . .                                                             ",
"                      . . . . . . . .                                                             "
};
