/* XPM */
static char *link_front_2[] = {
/* columns rows colors chars-per-pixel */
"50 64 232 2 ",
"   c None",
".  c #000001",
"X  c #0B0704",
"o  c #020C04",
"O  c #07090A",
"+  c #170C08",
"@  c #041608",
"#  c #0B1B08",
"$  c #041909",
"%  c #1C130A",
"&  c #14110D",
"*  c #06141D",
"=  c #161515",
"-  c #26180E",
";  c #2F1D14",
":  c #06270D",
">  c #0B350C",
",  c #16380E",
"<  c #083914",
"1  c #173813",
"2  c #3B2312",
"3  c #382A16",
"4  c #302F14",
"5  c #101C28",
"6  c #192B3D",
"7  c #342F2B",
"8  c #452619",
"9  c #453319",
"0  c #5A341A",
"q  c #512C14",
"w  c #6D3C1C",
"e  c #66391C",
"r  c #713E1D",
"t  c #4C2B21",
"y  c #45392B",
"u  c #5C3723",
"i  c #6C3D22",
"p  c #733D20",
"a  c #0B430D",
"s  c #17430F",
"d  c #094317",
"f  c #094B18",
"g  c #1A4912",
"h  c #0C571C",
"j  c #16581B",
"k  c #254815",
"l  c #15631F",
"z  c #2C731E",
"x  c #0E6A24",
"c  c #0E7A29",
"v  c #0E7627",
"b  c #117C29",
"n  c #187627",
"m  c #186E25",
"M  c #2A7525",
"N  c #1C522D",
"B  c #6C411F",
"V  c #72401F",
"C  c #594924",
"Z  c #574D39",
"A  c #684725",
"S  c #744221",
"D  c #7B4A25",
"F  c #7C4C2B",
"G  c #784724",
"H  c #695527",
"J  c #7B5635",
"K  c #4D742D",
"L  c #615A1C",
"P  c #315375",
"I  c #2B4C6C",
"U  c #386E7C",
"Y  c #4B4C52",
"T  c #6C5846",
"R  c #796554",
"E  c #46507B",
"W  c #977517",
"Q  c #85562B",
"!  c #845532",
"~  c #895B33",
"^  c #804E29",
"/  c #8C6539",
"(  c #956735",
")  c #9D733C",
"_  c #89622F",
"`  c #A2763D",
"'  c #A47A3F",
"]  c #AA7E34",
"[  c #926848",
"{  c #9E7548",
"}  c #8B6B54",
"|  c #916F53",
" . c #A17643",
".. c #A47A42",
"X. c #A97E43",
"o. c #A17C49",
"O. c #A37954",
"+. c #9F7F6A",
"@. c #148029",
"#. c #1C8529",
"$. c #1E882A",
"%. c #268D29",
"&. c #2C8A25",
"*. c #2C9229",
"=. c #3D9B27",
"-. c #319629",
";. c #349929",
":. c #389927",
">. c #3C883F",
",. c #3B823C",
"<. c #3DA229",
"1. c #6C9235",
"2. c #788F36",
"3. c #41A429",
"4. c #43A82A",
"5. c #64902A",
"6. c #2F8D44",
"7. c #AA8D15",
"8. c #828939",
"9. c #AA833E",
"0. c #AE893A",
"q. c #B49236",
"w. c #BB9735",
"e. c #B5912C",
"r. c #83B523",
"t. c #BEA12F",
"y. c #B4B026",
"u. c #90A01B",
"i. c #C8B316",
"p. c #C3A92B",
"a. c #C3A62E",
"s. c #CBB425",
"d. c #CEB725",
"f. c #D1BD21",
"g. c #D1AE38",
"h. c #E4BF3C",
"j. c #93CB17",
"k. c #8DC31B",
"l. c #BDDA0B",
"z. c #D6C31D",
"x. c #DAC919",
"c. c #DCCE12",
"v. c #E1D216",
"b. c #E8DD11",
"n. c #E6DB12",
"m. c #EAF304",
"M. c #F6F207",
"N. c #FEFE01",
"B. c #FBF608",
"V. c #F5E51A",
"C. c #F2EB0D",
"Z. c #D4C525",
"A. c #EDD428",
"S. c #E7C23D",
"D. c #EBD228",
"F. c #AB8346",
"G. c #B58A43",
"H. c #BD9247",
"J. c #AC845F",
"K. c #A6AA44",
"L. c #889772",
"P. c #AA8664",
"I. c #B38C67",
"U. c #B9946C",
"Y. c #B79775",
"T. c #A8987E",
"R. c #B3AA76",
"E. c #CC9D4C",
"W. c #C69849",
"Q. c #D8AA4A",
"!. c #DEAB53",
"~. c #D6A551",
"^. c #D8B44B",
"/. c #E4B748",
"(. c #E2AD53",
"). c #E4B055",
"_. c #C19E73",
"`. c #C9A67B",
"'. c #CCA97E",
"]. c #C6A377",
"[. c #D3AE7F",
"{. c #B6C463",
"}. c #384E8B",
"|. c #2B4D9B",
" X c #355297",
".X c #45578A",
"XX c #4F718D",
"oX c #546DA8",
"OX c #4A68A9",
"+X c #657AAB",
"@X c #378195",
"#X c #7F8AA9",
"$X c #63A7B3",
"%X c #41CBBE",
"&X c #019AD4",
"*X c #14A6DA",
"=X c #00BBFF",
"-X c #01A6E5",
";X c #66B8CB",
":X c #1FC6E0",
">X c #9A918F",
",X c #95B48F",
"<X c #9298A8",
"1X c #ABA49E",
"2X c #CEAD84",
"3X c #D4B48B",
"4X c #D9B88B",
"5X c #DCBC93",
"6X c #D7B690",
"7X c #CAAD90",
"8X c #C6B5A7",
"9X c #E6C89F",
"0X c #E5C69A",
"qX c #F5D399",
"wX c #E9CCA3",
"eX c #EED2A9",
"rX c #F2D6AB",
"tX c #F6DCB4",
"yX c #F6DFB9",
"uX c #FFE6BD",
"iX c #FFE8BF",
"pX c #F6E0BE",
"aX c #D1C0B4",
"sX c #A5B4C4",
"dX c #CFD4D9",
"fX c #FFEAC1",
"gX c #FBEEDB",
"hX c #DEDFE0",
"jX c #FCF4E8",
"kX c #FEFEFE",
"lX c #F9F9F7",
"zX c #E9EFEF",
/* pixels */
"                            . . . . . o x b b b b b b b b b v @ . . . . .                           ",
"                            . . . . . o x b b b b b b b b b v $ . . . . .                           ",
"                        . . < h h z z z -.;.;.;.;.;.;.;.;.;.;.z z z h h d . .                       ",
"                        . . d @.b ;.4.4.3.3.3.3.3.3.3.3.3.3.3.3.4.<.b @.h . .                       ",
"                        . . d b b -.<.<.<.<.=.<.=.=.<.<.<.<.<.<.<.;.b b f . .                       ",
"                        . . d b b b @.@.@.@.@.@.b @.@.@.@.@.@.@.@.@.b b f . .                       ",
"                        . . d c c c c c c c c c c c c c c c c c c c c c f . .                       ",
"                      @ $ $ j $.$.$.$.$.$.$.$.$.$.$.$.$.$.$.$.$.$.$.$.$.l $ $ @                     ",
"                  . . : b c *.3.3.3.3.3.3.3.3.3.3.3.3.3.3.3.3.3.3.3.3.3.-.c b < . .                 ",
"                  . . : c c *.3.<.<.<.<.<.<.<.<.<.<.<.<.<.<.<.<.<.<.<.3.-.c c < . .                 ",
"                  . . > %.%.=.1.1.k.j.k.1.1.1.j.j.r.1.1.r.j.j.j.j.k.1.1.5.%.%.1 . .                 ",
"                  . . , 3.3.2...X.b.N.M.0...w.N.N.z.....v.N.N.N.N.C.9...8.3.3.g . .                 ",
"                  . . , 3.<.2.....b.N.M.0. .w.N.N.z.....v.N.N.N.N.C.9...8.<.3.g . .                 ",
"            . . @ f f z 8.2.y.v.v.M.N.B.v.c.n.N.N.z.....v.N.N.f.p.s.c.v.Z.K.K.K f f $ . .           ",
"            . . @ v c K ....z.N.N.N.N.N.N.N.N.N.N.z.....v.N.B.q. .q.N.N.V.(.(.1.c b $ . .           ",
"            X . $ n b K X...z.N.N.N.B.N.N.N.N.B.N.z.....v.N.B.q...q.M.N.V.!.(.1.b n : . .           ",
"  ....].3X2XA 0 0 C C _ ~.~.A.N.N.s.q.t.M.N.b.w.q.0.....v.N.B.q...' q.q.s.C.C.7.C A 0 0 A `.3X`.X...",
"X.X...].3X2X! r V V r ( (.!.A.N.N.w. .0.M.N.b...........v.N.B.q....... .p.N.N.7.p S V V F `.3X`.X.X.",
"  ) ) ].5X3X[ ~ ! D G ( ~.~.A.N.N.a.X.q.M.N.b.X...9.q.q.x.C.C.H.F.F.....p.N.N.7.G D ! ~ [ 3X5X'.) ) ",
"  G G 2XuXuXtXtX9XX.` ..X.X.z.N.N.h.~.^.B.N.b.X...s.B.B.p.9.F.`.3X`.X...p.N.N.s.{ ..0XtXtXuXuX6XG G ",
"S V V 2XfXfXfXfXrXF.X..... .z.N.N.S.!./.B.N.b.X...d.N.N.p...X.'.3X'.X. .p.N.N.d...X.9XfXiXfXfX5XS S ",
"  V V U.3X3X3X3X'.X...0.a.a.x.V.V./.!./.B.N.b.X...d.N.N.p...X.'.3X2X_.U.^.V.V.a...X.5XtXeX6X3X_.S S ",
"      S S S S V D ' ..p.N.N.D.!.!.!.!./.B.N.b.X...d.N.N.p...X.'.3X5XuXuXqX!.!.H...X.`.3X'.F V S     ",
"      S S S r r D ....p.N.N.D.!.!.!.!./.B.N.b... .d.N.N.p...X.'.3X5XuXfXqX(.(.H. ...`.4X'.^ S S     ",
"      2 2 3 U @XXX~ ~ ] f.f.g.!.!.W.H.W.D.A.D.f.f.n.N.N.e.~ / 4XeXwXwXwX[.` ` t.z.f.,X;X$X7 2 2     ",
"      . . O &X=X*XA r Q ....W.!.!.G...X.~.!.S.N.N.N.N.N.7.p D wXfXtX3X3XI.r p i.N.N.%X=X-X* . .     ",
"      . . O &X=X*XA V Q ....W.!.!.G...F.~.!.S.N.N.N.N.N.7.p D wXiXtX4X3XI.V p i.N.N.%X=X-X* . .     ",
"      . . O L.,XR.c.c.i...X.H 3 9 / X.F.~.!.Q.t.t.e.W W F.U.U.O.{ [ y 7 C ( ( f.N.N.{.,XL.& . .     ",
"      . . X G.(./.N.N.v...X.9 . . J X.F.~.(.E.....~ w w I.6X3X! r 0 . . 3 X...z.N.N.S.(.W.% . .     ",
"      . . X 9.E.Q.B.B.c.) ' C = = J { o.E.~.W.` ` ( F F I.2X`.J A u = = y ` ) f.B.B.g.E.G.& . .     ",
"            % % 9 Q./.w.D G 1XhXhX+X}..XJ ^ ^ D G J.eXeXO.F J E }.oXdXhX1XG G 0././.C % %           ",
"            . . - ~.).G.r w 8XkXkX+X|.}.i r r r w I.fXfXO.w p }.|.oXlXkXaXV V ] ).!.3 . .           ",
"            . . - 9.G.) F D 7XlXlX+X|. X} | [ [ / _.fXuXY.[ } .X|.oXjXlX8X0 0 _ G.F.3 . .           ",
"                  X . 3 ..` 3XfXuX+X|.OXzXlXjXpXpXuXuXuXjXlXzXoX|.oXyXfXT.. . X X X                 ",
"                  . . 3 X.X.4XfXuX+X|.OXzXkXjXuXuXuXuXuXjXkXlXoX|.oXpXfXT.. . . . .                 ",
"                  . . ; A A P.5X4X<X#X<XgXjXgXuXuXuXuXuXgXjXjX<X#X<X6X0X| . . + ; ; +               ",
"                        . . C X...9XfXiXuXuXuXuXuXuXuXuXuXuXuXuXiXrXX.X.H . . 8 S S % . .           ",
"                        . . C X.X.9XfXiXuXuXuXuXuXuXuXuXuXuXuXiXfXrXF.X.H . . 2 S S % . .           ",
"                        . . 9 ~ Q O.P.I.0XwX9X9X9X9X9X9X9X9X0XU.J.O.~ Q | >X>XR 0 0 8 8 8 X .       ",
"                        . . 2 V V r w D `.3X3X3X3X3X3X3X3X3X2X! w r V w P.kXkX>X8 8 i S e X . .     ",
"                        . . 2 S V S V F `.3X3X3X3X3X3X3X3X3X2X! B V S w +.lXkX>X8 t i S e X . .     ",
"                        . . 1 M M k k k ,.>.>.>.>.>.>.>.>.>.,.k k 1 % + ; 7 7 R Y.Y.! S e X . .     ",
"                        . . d c c f a a v c c c c c c c c c v f a > . . . . . R 5X4X/ S e X . .     ",
"                        O O N 6.6.j s g m n n &.&.&.&.&.M n m g s , o o o . . T Y.Y.J e 0 X . .     ",
"                  . . 5 I I <XzXzX} w B A A W m.m.m.m.m.7.A A B B C x v f . . O & & X X X           ",
"                  . . 5 P P sXkXkXO.V S S p W N.N.N.N.N.7.p S V p A n c f . . . . . . . .           ",
"                  % % 7 Y Y <XdXdXT q 0 C C L l.l.l.l.l.2.C C H H L %.$.l : : o . . . . .           ",
"            . . + w S S S V Y P P * . o x b b b b b b b b b b :.3.3.3.3.-.b b < . .                 ",
"            . . + e w w r r Y P P * . o x b b c c c c c c c b :.3.3.3.3.-.b @.< . .                 ",
"            . . = P.I.P.O.O.Y 6 6 < < d v b @.%.%.%.%.%.%.%.%.<.3.3.3.3.&.d d $ . .                 ",
"            . . 7 tXfXrX3X4XZ . . h @.b b c $.3.3.3.3.3.3.3.3.3.3.3.3.4.z . . . . .                 ",
"            . . 7 tXiXrX3X4XZ . . h b b b c $.3.3.3.3.3.3.3.3.3.3.3.3.4.z . . . . .                 ",
"                  Z Z Z y y = . . < h j *.-.;.3.3.3.3.3.3.3.<.%.%.n , , 1 ; ; + . .                 ",
"                  . . . . . . . . > a g =.3.3.3.3.3.3.3.3.3.<.@.c x . . + t t - . .                 ",
"                  . . . . . . . . > > s :.=.=.=.=.=.=.=.=.=.=.n v x . . + 8 8 - . .                 ",
"                                  o o o # # # # # # # # # # # $ @ o . . . X X X                     ",
"                                  . . . . . . . . . . . . . . . . . . . . . .                       ",
"                                  . . . . . . . . . . . . . . . . . . . . . .                       ",
"                                                                                                    ",
"                                                                                                    ",
"                                                                                                    ",
"                                                                                                    ",
"                                                                                                    ",
"                                                                                                    "
};
