/* XPM */
static char *_e573ec3fb95488be34f62c5642df360VTgUAJGehYVfGD5y[] = {
/* columns rows colors chars-per-pixel */
"64 64 172 2 ",
"   c #020204",
".  c #080703",
"X  c #03040C",
"o  c #08070E",
"O  c #07080C",
"+  c #0A0A0E",
"@  c #15150D",
"#  c #030412",
"$  c #090715",
"%  c #060A15",
"&  c #0B0C14",
"*  c #020519",
"=  c #080719",
"-  c #050A1B",
";  c #0B0C1B",
":  c #100F1E",
">  c #0D1017",
",  c #0B121D",
"<  c #141414",
"1  c #12121C",
"2  c #060B22",
"3  c #0B0E22",
"4  c #0D1323",
"5  c #0D132B",
"6  c #131424",
"7  c #171925",
"8  c #1A1B26",
"9  c #12162B",
"0  c #141A2C",
"q  c #1B1D2C",
"w  c #0F1230",
"e  c #131632",
"r  c #161C33",
"t  c #1B1E33",
"y  c #151839",
"u  c #1A1E3A",
"i  c #201F2F",
"p  c #19212E",
"a  c #1D2235",
"s  c #1D223B",
"d  c #21242E",
"f  c #27282D",
"g  c #2A2A28",
"h  c #232533",
"j  c #262936",
"k  c #292933",
"l  c #23263A",
"z  c #242B3D",
"x  c #2B2B3B",
"c  c #29313E",
"v  c #1D2342",
"b  c #1F2849",
"n  c #212644",
"m  c #252B43",
"M  c #2B2E42",
"N  c #252B4A",
"B  c #2A2E4C",
"V  c #263143",
"C  c #2D3245",
"Z  c #27304D",
"A  c #2D344A",
"S  c #323345",
"D  c #3E3D42",
"F  c #32364A",
"G  c #343A4D",
"H  c #393B4E",
"J  c #292F51",
"K  c #273051",
"L  c #2D3353",
"P  c #2E3758",
"I  c #2F3B5D",
"U  c #323654",
"Y  c #353B54",
"T  c #3A3D55",
"R  c #343C5C",
"E  c #393E5D",
"W  c #2E3A60",
"Q  c #343E62",
"!  c #393E63",
"~  c #353E69",
"^  c #393E6A",
"/  c #413F54",
"(  c #403F5F",
")  c #364155",
"_  c #3B4155",
"`  c #36415D",
"'  c #3B425C",
"]  c #3E495E",
"[  c #354163",
"{  c #3D4561",
"}  c #384064",
"|  c #384065",
" . c #394165",
".. c #3A4064",
"X. c #384265",
"o. c #3A4364",
"O. c #394166",
"+. c #394366",
"@. c #3C4264",
"#. c #3D4365",
"$. c #3E4265",
"%. c #3E4066",
"&. c #3C4266",
"*. c #3D4367",
"=. c #3F4366",
"-. c #394464",
";. c #3B4465",
":. c #3A4565",
">. c #394764",
",. c #3B4664",
"<. c #384567",
"1. c #3A4467",
"2. c #394666",
"3. c #3B4666",
"4. c #3F4565",
"5. c #3D4665",
"6. c #3C4566",
"7. c #3E4466",
"8. c #3F4567",
"9. c #3A4264",
"0. c #3A4865",
"q. c #3D4866",
"w. c #3F4867",
"e. c #3D4964",
"r. c #354269",
"t. c #3A4269",
"y. c #3B436A",
"u. c #3D4268",
"i. c #3F4369",
"p. c #3E416A",
"a. c #3B4568",
"s. c #3F4569",
"d. c #3C446B",
"f. c #3B426C",
"g. c #3C436D",
"h. c #3D456C",
"j. c #3A436A",
"k. c #3D496C",
"l. c #3B4771",
"z. c #3B4970",
"x. c #464854",
"c. c #46475B",
"v. c #41475F",
"b. c #45475E",
"n. c #41445C",
"m. c #41485B",
"M. c #414A5B",
"N. c #40485D",
"B. c #42485E",
"V. c #424A5F",
"C. c #47485C",
"Z. c #42495D",
"A. c #404362",
"S. c #414761",
"D. c #434463",
"F. c #404066",
"G. c #424564",
"H. c #404467",
"J. c #404666",
"K. c #414663",
"L. c #434961",
"P. c #444861",
"I. c #474962",
"U. c #454967",
"Y. c #434A64",
"T. c #404668",
"R. c #40466A",
"E. c #444468",
"W. c #41456B",
"Q. c #44486B",
"!. c #43496A",
"~. c #4A4F6C",
/* pixels */
"[ [ ! [ [ Q } Q Q } } -.-.X.Q Y c 4 - V L.-.Y Q.W.T.T.%.' ` ' e.} X.Q Q ^ Q ! Q Q Q E [ [ -.-.-.e.[ <.>.a.u.^ ! R E c.x.D g @ . ",
"[ Q Q [ } [ [ [ } [ [ } -.X.Q R A a 4 0 F ' E ' T.a.6.6.} ' ` -.} ! X.Q Q Q Q ' E [ Q E ' } -.e.e.-.[ [ ! X.6.G.D.I.C.D f < .   ",
"[ [ [ [ [ [ Q [ } } [ } X.X.X.[ Y A 0 - s Y ' ' @.} ' ! ' } @.' ` Q E R Q E } ' ` ` ` ` ` ' } -.0.-.-.-.} 6.J.U.E.b.T l < O + < ",
"} } } } [ } } X.-.[ Q [ X.6.-.-.) ' m 5 5 n U ' T ' E Y E @.%.! Q ' E [ ` ` ' } ' ` ` ] ' ` ` ) ` [ 0.0.5.5.' M.C.G l 1 = 1 d f ",
"[ } [ } } [ X.[ -.} Q } X.a.a.6.E 6.Y s 5 4 p ) _ N.' ) E @.%.X.R ` ` ` ` ` } ' ] ` ) ` ) ] ) ` P R ' 5.' ' ' ' _ z 9 ; 6 h M S ",
"X.X.X.X.X.-.X.X.-.} [ Q X.X.X.X.X.a.} U s - , z _ M.V.' ' %.u.! [ ` R R ` ` ` ` ` ` ` ` ` ` ` ` -.-.} ' v.N.M._ l 9 = 3 l Y E T ",
"X.X.X.X.X.X.X.X.-.X.Q Q X.X.X.Q r.k.>.` A r % 4 c G M.' E %.u.Q [ [ [ ` ` ` ` ` ` ` -.) ` ` ` ' q.6.5.N.N._ G c , 4 9 l U F.E.F.",
"X.X.X.X.X.X.X.X.X.X.Q Q Q [ Q Q g.g.[ ` ] V 7 % , c _ _ ' u.W.^ X.} X.Q Q [ ` [ [ ` ` -.` >.' } E E ' N.m.C 7 # - 0 M ( ( F.! ! ",
"} } [ [ [ X.} [ X.X.} } [ } } [ ~ ~ ~ <.-.) c p X 4 x E D.! ! W.X.^ ^ R R W ! ^ ! Q ! } } -.5.6.E ' v.v.G p ; = a G v.S.%.%.p.^ ",
"[ [ X.X.} [ } X.Q Q [ [ [ [ [ [ ~ ~ W [ e.] _ C 4 - 4 M E ( ! ! ! Q t.t.^ ^ ! ! ! Q ! } ! [ E E D.I.b.F 0 - 4 q C _ S.5.! u.l.^ ",
"X.[ -.[ } [ } [ [ } [ } Q [ ! [ ~ r.[ W ' e.] _ z , # 9 F ( ( ! ^ ! ^ } ! ! E R ! ^ ' A.U.U.E.' b.T S t ; 2 h Y _ N.S.E Q ^ ^ ^ ",
"} } } } [ X.} [ Q Q Q Q Q [ Q Q ~ r.[ I R ) ' ' G a 3 2 i F / E E E E T E E E E ' E Y T E n.E Y S i 3 3 q m F n.L.5.} ' Q t.t.f.",
"[ } } -.X.[ } X.E [ Q Q Q E Q [ [ [ [ [ R R Y E ) ) z 2 * t S H T T T T / E T T S m i t t t q 9 9 $ = t F ( n.E ! Q R Q X.-.6.a.",
"X.[ X.[ [ } } [ [ } } Q } [ Q [ [ W r.[ [ [ E E Y Y._ 0 X = q j S S H H F x i i 6 ; $ # # # # X # $ i S / ( ( E E R R X.} -.-.0.",
"[ } [ [ [ } [ X.[ Q [ [ [ [ [ [ [ ` W [ X.Q ! ! E G.b.M 3 # % 1 8 h k f 8 1 > > > > > > & > & & o : x / I.( ( ! ! W [ X.[ ` ` >.",
"X.} [ X.X.[ } [ [ X.} [ } } [ } >.[ I [ [ R I Q X.Y T T h %   X o & 1 : & ; 7 d h h f d 8 1 < & 1 i k / E.F.F.p.p.^ [ [ [ ` ) ` ",
"[ } Q Q Q Q } } X.X.X.Q [ Q Q Q [ ` [ [ [ r.r.[ ` R ' _ x >     X % & % 6 l F n.U ' ` ) ) ) V , X = j / T ! Q.^ p.^ ^ W W R } e.",
"-.} [ Q Q [ [ } X.X.X.[ [ Q R Q [ [ [ [ [ [ [ [ [ ` ) _ j O   O X # & 9 M E D.! @.w.e.0.] ] ) V ; # t / E U ! W.^ ^ ^ Q ! Q ' } ",
"X.X.X.[ } [ -.X.-.X.} Q [ [ E Q ` [ [ [ r.r.[ W [ ` ) _ j %   O X % q V n.~.Q.@.%.R.k.0.0.e.>.) z 2 2 s Y D.%.Q ^ ! Q Q X.[ Q R ",
"X.X.X.X.-.X.X.X.[ } } [ ! Q Q Q [ ` [ [ r.W [ [ R ) ' _ j % X % X p H m.v.@.6.a.u.w.0.>.) 0.>.) T M 9 2 u ' U.U ! ! W ! Q X.Q I ",
"X.X.X.X.X.X.X.X.} } [ } } [ Q ` ` [ [ [ [ [ [ [ ` ` ' Y a X X X 4 C V.~.) I X.h.t.a.k.-.>.W >.>.Y n.Y y 5 u L ' E R E Q Q X.^ X.",
"} [ X.X.X.X.[ X.[ } ` Q [ Q [ } [ ` [ [ W [ [ W [ ` ' G r # X % C ) ] e.-.[ a.k.Q r.a.r.>.>.I >.! A.E U M y s Y Y R E ! Q ^ ^ t.",
"[ [ [ X.} [ [ Q [ Q [ [ Q } Q [ ` ` [ ` [ [ [ r.` R ) U a 4 6 z ' ] ' ` [ >.r.r.r.r.r.[ r.W >.>.W.! P E D.m 0 s C Y ' @.! ! ^ p.",
"E Q -.} } } Q Q [ } Q } Q [ [ ` [ [ ` [ [ [ [ ` R R R Y n p V V.] 0.e.-.[ [ r.[ z.r.r.r.W >.r.W ~ W.! E E A r a m A E D.! W ^ l.",
"X.[ Q [ Q X.Q Q [ [ Q [ } [ [ [ ` I ` [ -.R R ! @.U N N A ) ' ' ` -.[ [ [ [ r.r.r.r.r.r.r.r.r.r.p.u.%.} ' Y A z 4 m ) ' } %.p.p.",
"Q [ [ Q [ Q [ [ ! [ ! [ Q [ ! ` ` ` ` ` ` } ! Q Y R A U Y ' ' ' ` [ W [ [ [ r.r.r.r.r.r.r.r.r.W r.^ ^ %.} ' Y Y s p s Y S.! Q X.",
"[ [ [ Q Q [ X.Q [ [ [ [ [ [ [ ` ` ` [ ) Y %.%.Y U R E ' -.' ` ` [ Q Q Q W r.[ [ [ W r.W W r.>.r.~ ~ X.X.5.5.' ' Y s 5 v R T E ( ",
"} [ } X.X.X.Q [ } } } [ } [ [ -.` [ [ ` R ! E U J Y @.a.0.>.>.[ [ [ Q Q [ W r.[ r.r.r.[ >.W W >.t.t.} } %.@.5.' ' L s 5 u Y S.E.",
"} [ X.X.[ X.X.X.[ } [ [ } } [ } ` ` ` >.` L B L U R %.6.-.} [ <.X.^ Q ^ [ [ r.<.[ [ [ [ [ [ [ [ a.X.X.Q ^ ^ } } @.E U u 9 l U / ",
"X.X.X.X.X.X.X.X.X.X.X.} X.-.[ -.` ` ` [ Y b N U R E ! X.` [ [ <.t.X.^ Q W r.X.X.W [ [ W [ [ [ [ Q Q Q Q ! ^ %.! ! E E T l 3 9 M ",
"X.X.X.X.X.X.X.X.X.X.X.[ X.X.X.-.[ ` ) Z s v Z E ! ! ! ' Q [ [ <.X.^ ! ! Q Q X.[ [ ` ` W ` [ [ [ R R Q Q ! ^ ^ ^ ^ ! ! I.T t 6 6 ",
"X.X.X.<.X.X.X.[ X.X.X.<.X.<.X.[ ` >.P r w s R T.F.F.@.! [ X.[ [ Q Q ! Q Q Q Q E I ` [ ` [ [ [ [ [ Q Q Q ^ W ! ! W ! @.n.T F a % ",
"l.r.r.r.g.k.r.[ z.r.<.[ [ >.-.' P.M 5 3 s U X.a.r.r.r.[ Q Q ` [ Q Q Q Q Q [ Q Q Q Q Q Q Q Q [ [ Q [ [ r.X.[ Q Q R Q ! S.S.T u 2 ",
"~ ~ Q Q r.r.a.X.[ ` ` -.0.w.-.' H h 2 9 N ` h.r.r.r.r.[ Q Q ` [ [ Q [ Q E Q [ Q E Q Q Q [ Q [ [ Q W [ [ [ Q Q Q R E ! E U n u e ",
"! ! @.S.J.!.E.G.J.Y.!.~.Y.e.E F 0 % * 0 L -.r.[ r.r.r.W Q Q [ X.Q Q Q Q Q E Q Q Q [ Q Q E Q Q [ [ W [ I Q R R E ! ! T J v u u n ",
"n._ n.n.m.m./ / H H S M M a 9 3 # X - a Y ' X.[ r.r.r.Q Q Q [ W [ E [ Q [ [ Q Q [ [ [ Q Q Q R W [ [ [ [ Q R [ } ! R J N n n L ! ",
"x x x x f h i i 6 6 : ; = = = X # # 9 M T ' -.k.r.r.r.r.r.W r.r.Q Q Q Q Q Q [ Q X.[ Q [ Q Q Q E [ [ Q Q Q Q ` } W.P n n B P E D.",
"1 1 1 : $ # # # # # # X $ % $ $ # % q F ' R E k.[ r.r.r.r.W W r.Q [ Q [ Q Q E Q Q [ Q Q Q Q Q Q [ [ X.Q [ Q } [ ! J v N U E E ! ",
"+ + + + o o $ & & : : : 6 1 = # # # 6 C ) T I X.~ r.r.r.r.r.r.r.Q [ Q Q Q Q [ Q Q R Q Q Q Q Q [ W Q X.` ' } E Q J N J R ! R E E ",
"# $ & & & : 8 i k x c F F x a 7 % * 4 C ' ' E X.Q ~ r.r.r.r.W W Q Q E [ Q [ Q Q Q Q E [ Q Q Q X.W ` Q Q Q Q R R v b P T.A.Q Y ! ",
", 4 p p c ) ) ) e.] ) ] ' ) A b 6 - 3 z ) ' ' E } X.Q r.~ r.W r.Q Q [ R R [ Q Q Q R Q Q } -.X.X.X.! R R ^ Q L b K K E [ } [ Q } ",
"c V Z A ) ) ) ) ) ) ` ) ' ' ` Z z , - a Y ' R [ } ^ X.Q r.Q r.r.[ Q Q [ [ Q Q [ [ Q R Q } } [ ` E E ! ! E I L N P Q Q Q ` E E Q ",
"` ` ` ` ` >.` ] ` ` ` [ -.>.[ ` A a 5 5 N _ D.E ! X.[ [ Q r.[ r.[ Q Q [ Q Q Q Q X.[ Q Q Q Q Q Q Y ! @.' U L L L Q ! X.X.Q R Q R ",
"` ` [ ` ` [ r.` [ [ [ W [ [ [ ` R Y m 5 e Y E.E ' Q E [ [ [ [ r.[ Q Q Q Q [ Q [ X.[ R Q Q [ [ ` E E %.E L L R ! X.X.X.X.Q Q Q W ",
"Q Q ~ Q [ >.r.<.-.X.[ [ Q [ [ ` E E U u e n Y A.E Q ` [ ` [ [ [ ` Q Q Q Q [ Q E Q Q Q [ } -.X.[ E ! T R P R ! T.-.-.[ Q W [ [ [ ",
"~ t.r.~ r.<.r.r.X.X.X.Q [ X.X.} 6.E R R n e n E.Q ` E [ [ [ ` [ [ Q Q [ [ R Q [ Q Q [ X.6.X.[ R R Y Y R T E ! E.[ [ R [ [ r.[ [ ",
"f.^ ^ Q Q ~ r.[ ! Q } } Q [ ! X.6.E ! D.U y y L ` ` ` ` ` I [ [ W [ R Q Q Q Q Q Q Q X.-.X.[ R L N U U E ' @.@.%.[ E I [ [ [ [ W ",
"l.f.^ ~ ~ X.r.>.X.%.6.-.} Q E Q R a.W.! U B v e ) ` ` ` ` ` ` Q [ [ [ Q Q [ ` Q R ` [ } } Y K N s N E ! 6.} ` [ Q Q [ [ r.r.r.W ",
"Q ^ X.Q ! Q Q Q ! [ ! X.X.} } [ ` [ [ >.-.Y N u u N T ' / T T E [ [ [ [ -.-.} ' ' ' ' C.T a 3 - v P t.a.>.<.<.>.r.r.[ [ ` [ W W ",
"Q r.} [ [ Q [ Q Q [ [ [ [ [ Q Q [ [ [ [ 0.[ Y Z u v B T n.( ( T [ [ [ [ ) R R E v.m._ G l 6 ; 9 N W r.a.r.<.<.r.<.` r.[ [ [ [ [ ",
"[ } } [ Q Q Q [ E Q Q [ [ Q E Q [ [ [ [ k.e.` R n v u m U / / T ) [ R ` ` ' ' ' P.) V a 4 * 7 V R <.k.r.>.r.r.[ r.<.<.r.[ [ [ W ",
"} [ } [ [ [ Q E Q Q [ Q [ [ Q Q r.[ [ Q [ -.} ) U M t e t M T _ T R ' ) T ' ) T Y m 5 * * 4 z ] -.<.<.<.>.[ r.[ <.<.[ [ W r.[ [ ",
"} [ } [ [ [ Q Q [ [ [ X.} [ [ [ r.r.Q Q Q ` E ' E Y m 9 3 9 a C F G C C C j s r 0 2 * 2 0 V ) e.0.X.[ [ r.r.r.r.>.W [ r.[ [ W r.",
"[ X.} [ [ E Q [ [ } X.-.} X.} [ r.r.~ Q Q [ } 5.E E Y m 9 2 ; 4 7 8 8 q 6 6 ; * # # - u ) ] e.` <.[ [ [ r.[ [ [ r.>.W W W [ [ [ ",
"} X.[ [ [ Q [ Q Q [ } } } } [ Q ~ W ~ ~ Q Q } -.E ' _ T M u ; # X X O % % % * = - 9 l Y >.>.>.) X.[ [ [ >.[ [ [ W >.W >.W [ W >.",
"} [ } [ Q Q Q Q E Q Q [ [ Q Q Q ~ ~ Q Q Q R W R E E ' v.n.F r = & o O X X # - - a C ) ` ) I ) >.[ [ [ z.<.[ [ [ >.r.r.>.>.r.[ r.",
"X.[ [ X.X.[ [ } X.X.X.[ X.Q [ X.~ ~ ~ t.Q Q E R ) ' ' ) ] ' A p & + o X X ; q S ) ) ) ) >.` >.I W r.r.>.r.>.r.r.>.r.>.r.W W >.W ",
"[ } } [ [ -.} X.X.X.X.[ Q [ Q Q ~ ~ r.t.X.X.[ Q Q } ` ` ' e.) C 7 & X o : i S T ) ) ) >.>.` [ W W >.W r.>.>.W >.r.r.W >.W >.r.W ",
"} } } } [ X.} [ X.X.X.X.} [ X.Q Q X.X.} Q Q [ R R ` ` ) ' ] e._ k 6 # : j H m.C.>.>.>.I ` I W >.>.W W >.r.r.W >.I >.W W W r.>.W ",
"X.[ [ X.[ } [ } X.X.X.X.[ } Q X.X.X.X.} Q X.[ E R -.` ` Y ` >.` F h 6 e F L.P.5.>.>.>.>.` ` >.W W >.r.>.>.W r.>.I W r.>.>.W >.I ",
"[ -.[ X.X.} [ X.X.X.-.} } [ [ Q } } } } ` [ ` ` I R [ R I ` [ ` E B u N E S.5.' >.>.I W W r.r.>.r.W >.W >.r.W W W W >.W >.r.W >.",
"} } [ [ [ } } [ X.X.X.[ } [ [ } } } ` Q W ` [ [ ` ` [ [ [ [ [ [ R P J I Q } Q Q >.W W >.>.>.W >.W >.W >.>.W >.r.r.>.W >.W W W I ",
"[ X.X.[ } [ X.[ X.X.X.} } Q [ ` ' ` R ` ` ` ` [ [ ` [ [ ~ [ Q Q ! W W Q Q Q Q X.>.W W W r.W W >.>.W >.r.>.r.W r.>.r.r.W W W >.W ",
"} [ } } X.[ [ X.X.X.X.} [ [ ! [ -.[ ` ` I ` [ [ <.r.I [ Q W W I l.^ Q ~ ~ Q Q r.I I r.>.W >.>.W W W >.W W r.>.W >.>.>.W >.>.W r."
};
