/* XPM */
static char *c742521f04a84235b9aba29484fd20fa04DUjfcy6zC015KX[] = {
/* columns rows colors chars-per-pixel */
"64 64 195 2 ",
"   c #040413",
".  c #080715",
"X  c #060A16",
"o  c #0B0917",
"O  c #070A1D",
"+  c #0A0D1B",
"@  c #0D131E",
"#  c #10141F",
"$  c #0B0E23",
"%  c #0D1325",
"&  c #0E1927",
"*  c #06122C",
"=  c #0C142C",
"-  c #0C1828",
";  c #121524",
":  c #181727",
">  c #131924",
",  c #12162A",
"<  c #151C2C",
"1  c #1A1D2D",
"2  c #0B1731",
"3  c #0B1935",
"4  c #141D33",
"5  c #1A1E32",
"6  c #1B1F39",
"7  c #16202A",
"8  c #1C242D",
"9  c #152132",
"0  c #1C2234",
"q  c #1C2836",
"w  c #16213B",
"e  c #1D243A",
"r  c #1E2A3C",
"t  c #21232F",
"y  c #21292C",
"u  c #212435",
"i  c #242C34",
"p  c #282B37",
"a  c #21263B",
"s  c #242A3C",
"d  c #292D3D",
"f  c #273035",
"g  c #293237",
"h  c #27303F",
"j  c #2D323C",
"k  c #1B2742",
"l  c #1D2943",
"z  c #212741",
"x  c #242B43",
"c  c #2A2D43",
"v  c #242E4A",
"b  c #282E48",
"n  c #263144",
"m  c #2B3244",
"M  c #27314C",
"N  c #2C334C",
"B  c #2D394D",
"V  c #31354B",
"C  c #343A4C",
"Z  c #343843",
"A  c #2C3552",
"S  c #2E3952",
"D  c #303751",
"F  c #343C53",
"G  c #383E55",
"H  c #353C59",
"J  c #393F5C",
"K  c #354157",
"L  c #3C4254",
"P  c #35415B",
"I  c #3B435A",
"U  c #3E485D",
"Y  c #3C4561",
"T  c #3E4964",
"R  c #3E4468",
"E  c #3E4B6C",
"W  c #434656",
"Q  c #414956",
"!  c #444759",
"~  c #444A5C",
"^  c #494A5C",
"/  c #4A515E",
"(  c #404764",
")  c #444C65",
"_  c #434D6B",
"`  c #494F6C",
"'  c #4D5562",
"]  c #46526D",
"[  c #49536D",
"{  c #4D586E",
"}  c #525A67",
"|  c #535B68",
" . c #444D71",
".. c #484E72",
"X. c #465474",
"o. c #4A5573",
"O. c #4C5975",
"+. c #475679",
"@. c #4A5679",
"#. c #4C5B7C",
"$. c #505774",
"%. c #525B74",
"&. c #515E7C",
"*. c #4F607A",
"=. c #596073",
"-. c #53627E",
";. c #59637E",
":. c #5E697B",
">. c #4C5D80",
",. c #515F81",
"<. c #4E6182",
"1. c #556483",
"2. c #596684",
"3. c #566985",
"4. c #5A6986",
"5. c #576588",
"6. c #596789",
"7. c #546B8A",
"8. c #5C6B8A",
"9. c #57708E",
"0. c #5C718C",
"q. c #5D6E91",
"w. c #5D7194",
"e. c #626C83",
"r. c #616E8C",
"t. c #647184",
"y. c #63718E",
"u. c #69748E",
"i. c #6D798F",
"p. c #626E90",
"a. c #657392",
"s. c #6A7694",
"d. c #6A7996",
"f. c #68779C",
"g. c #667999",
"h. c #6D7B9A",
"j. c #64769C",
"k. c #717C93",
"l. c #7D7F96",
"z. c #727D9C",
"x. c #6F7DA2",
"c. c #717FA4",
"v. c #6F809E",
"b. c #758096",
"n. c #73829E",
"m. c #7A869E",
"M. c #7685A2",
"N. c #7986A3",
"B. c #7B8AA5",
"V. c #7886A9",
"C. c #7E8DAA",
"Z. c #7D8CA9",
"A. c #7585A9",
"S. c #81849C",
"D. c #828CA5",
"F. c #808FAC",
"G. c #808EAF",
"H. c #828FAB",
"J. c #8190AD",
"K. c #8291AE",
"L. c #8291AF",
"P. c #8591AF",
"I. c #8292AC",
"U. c #818FB1",
"Y. c #818EB1",
"T. c #8291B0",
"R. c #8593B0",
"E. c #8692B2",
"W. c #8695B2",
"Q. c #8795B5",
"!. c #8694B2",
"~. c #8896B3",
"^. c #8896B5",
"/. c #8B94B3",
"(. c #8A99B6",
"). c #8B9AB5",
"_. c #8996B8",
"`. c #8E9DBB",
"'. c #8E9DBB",
"]. c #949EBC",
"[. c #989EB8",
"{. c #939AB6",
"}. c #92A0B7",
"|. c #95A5BD",
" X c #98A8BF",
".X c #94A3C0",
"XX c #9AA6C5",
"oX c #9BAAC3",
"OX c #9BAAC9",
"+X c #A3AFC4",
"@X c #A5B1C5",
"#X c #A2B1C8",
"$X c #A9B6CA",
"%X c #ACB9CD",
"&X c #B5C5DC",
/* pixels */
"XX.X`.(.W.J.B.M.a.W.).).C.E 3 k v r v 4.I.I._.Y._.E._.].T.d.3.*.-.-.y.H.).(.I.I.C.Z.B.N.N.B.C.J.T.`.XX_.h.8.d.B.M.C.Q.^.`.OXOX.X",
"`.).(.W.W.L.C.Z.M.M.M.^.W.E 3 w 3 4 M 4.H.I._.Y.Y.Y.Y.Y.B.d.4.4.4.4.y.Z.).(.^.^.B.C.H.E.J.E.W.(.`..X`.Z.a.6.a.n.C.T.C.V.V.B.A.g.",
"J.J.C.J.P.L.I.J.a.M.B.B.M.g.E k 2 4 S r.N.z.c.a.z.f.f.h.d.0.4.4.y.4.y.z.M.M.n.M.H.H.I.~.J.C.M.m.C.C.A.g.8.4.8.r.q.a.a.a.a.M.h.d.",
"r.y.0.y.y.a.s.a.-.d.C.C.n.C.n.+.4 w F e.s.e.r.,.8.8.8.r.0.0.:.3.8.4.4.y.r.r.8.e.r.y.a.y.8.-.&.O.8.8.a.r.8.6.6.6.8.a.q.8.8.a.a.8.",
"1.1.1.-.-.1.2.-.4.*.a.W.C.B.C.C.l 4 M e.u.,.p.,.5.5.8.8.8.8.3.4.&.-.-.4.r.8.4.r.r.r.y.a.y.y.y.y.1.6.8.a.8.8.r.a.a.g.a.a.a.a.8.6.",
"8.y.y.y.0.4.4.4.y.O.4.n.B.Z.W.C.F 4 l 4.u.,.p.6.,.5.8.6.6.8.4.;.-.-.2.4.8.4.4.2.-.-.-.-.2.4.4.y.8.8.y.8.6.3.r.a.8.8.8.8.a.a.a.a.",
"4.4.8.4.4.-.1.4.0.8.0.4.0.B.W.Z.$.4 6 e.r.&.p.,.,.,.6.,.2.6.4.3.2.4.4.2.2.-.-.-.4.8.4.4.2.2.r.r.8.8.6.4.3.3.6.6.a.a.a.y.r.8.6.3.",
"4.4.y.4.4.4.4.0.8.y.y.y.0.a.Z.oX&.= * &.u.&.p.6.r.p.8.2.5.8.e.4.-.2.2.1.;.2.2.4.;.2.2.1.-.;.4.8.3.3.6.8.r.p.8.3.8.6.6.y.8.8.6.3.",
"4.4.4.4.4.4.8.4.y.4.y.r.4.d.I.).d.r * O.t.&.8.6.5.6.4.6.5.7.:.0.&.-.4.4.4.;.1.;.1.-.-.4.4.2.4.8.1.1.3.5.4.6.4.4.6.8.6.6.6.4.8.8.",
"4.4.4.4.8.y.4.8.8.4.4.y.4.d.P.).m.n 2 o.r.&.5.5.8.8.3.1.-.*.*.-.;.4.4.4.4.4.4.4.4.-.2.4.4.4.2.e.2.3.5.4.5.4.6.6.8.8.y.y.0.8.8.a.",
"4.8.4.r.4.y.r.4.0.4.4.8.8.d.J.).B.C 4 [ e.&.2.2.p.r.6.3.1.*.;.3.;.2.4.4.2.2.2.4.4.4.4.4.4.4.4.4.1.4.6.8.4.6.6.4.4.8.8.8.4.5.4.8.",
"0.8.4.0.4.4.4.0.4.4.4.y.4.d.I.P.I.T w ] 6.&.,.2.5.5.4.3.3.5.4.0.2.2.2.2.1.-.;.4.4.;.2.4.4.1.;.4.4.4.4.8.4.6.4.4.3.6.8.8.1.1.6.8.",
"4.4.8.4.4.4.4.8.8.-.4.8.8.d.B.Z.I.' l ( 6.$.,.,.@.,.,.2.1.-.-.;.8.r.4.4.2.;.2.4.2.-.-.4.2.2.2.4.3.6.6.4.4.4.3.6.8.8.8.6.1.1.8.y.",
"r.4.4.4.4.4.8.4.0.4.y.y.0.y.n.b.H.%.v Y ,.$.#.#.#.,.5.5.2.2.-.-.4.4.4.2.1.-.2.2.2.-.1.2.4.2.2.4.6.3.6.4.6.6.1.1.8.4.6.3.1.3.8.8.",
"0.4.4.4.1.4.4.4.4.4.4.y.4.y.d.y.N.{ x J ,.&.&.,.,.5.6.6.6.-.-.-.&.-.-.-.-.-.2.4.2.-.1.2.;.-.1.4.2.3.6.2.1.1.1.1.3.1.&.1.6.6.6.4.",
"4.4.4.4.3.:.4.4.4.4.r.y.8.0.y.y.k.[ k G ;.&.2.6.,.,.2.2.1.-.1.,.O.-.-.1.2.4.4.r.1.-.-.;.-.-.&.-.5.3.4.1.5.1.1.1.1.1.3.6.r.0.8.4.",
"4.:.1.-.4.4.4.4.4.4.4.4.4.4.0.e.t.-.v A 2.e.&.,.e.,.,.,.,.&.#.&.&.-.1.4.4.4.1.4.O.O.#.-.-.-.-.-.2.5.,.,.5.2.5.2.,.6.r.p.6.5.6.r.",
":.4.:.4.4.:.4.4.4.:.4.:.4.4.4.4.u.;.v A ,.,.%.2.2.,.,.2.,.,.,.,.-.-.-.1.;.1.1.1.&.-.-.1.2.2.1.1.2.,.,.,.3.4.5.,.5.5.2.6.6.6.5.,.",
"3.4.2.-.-.-.:.4.4.4.2.2.4.:.4.4.u.2.b A $.;.&.2.6.2.,.5.e.5.,.5.1.-.*.1.-.1.1.*.-.1.1.1.1.1.1.1.1.1.2.5.3.1.3.5.6.2.2.6.8.8.2.,.",
"3.6.4.1.*.*.1.4.1.2.1.1.4.4.6.4.u.,.b b &.,.$.&.2.,.5.3.6.,.5.6.3.1.#.#.-.1.1.*.*.#.-.-.1.1.1.-.1.;.1.,.-.1.-.-.2.2.1.6.8.e.2.,.",
"5.8.6.3.<.#.1.3.5.1.1.1.6.6.8.8.r.5.A A &.&.&.&.1.1.1.5.5.1.1.6.1.#.@.@.*.-.*.#.#.#.-.1.1.1.1.1.2.-.-.;.*.-.-.-.-.;.4.4.r.8.4.t.",
"5.6.6.5.1.1.1.5.1.5.3.5.6.6.8.8.r.1.A A $.,.$.&.1.<.#.1.<.<.<.<.O.@.X.+.+.#.#.@.#.#.*.1.1.1.1.1.1.-.-.-.*.*.#.*.-.-.4.0.r.y.y.y.",
"5.5.6.6.5.5.1.1.5.5.5.5.6.8.8.8.6.;.b v o.&.&.&.*.#.#.-.>.#.#.*.#.+.O.+.@.#.#.*.#.#.#.1.1.1.-.1.-.-.*.#.*.#.*.1.3.-.1.4.y.a.a.8.",
"5.5.5.6.6.6.5.,.5.3.5.6.5.8.8.8.2.;.v l _ o.$.&.*.O.#.#.#.+.+.*.#.#.*.*.#.#.-.1.#.#.>.*.1.&.&.#.@.#.#.1.#.>.1.1.6.1.1.6.a.a.w.6.",
"-.&.-.6.6.3.1.2.1.,.2.2.r.a.a.y.u.[ l 6 ! &.&.$.&.[ ] O.#.O.+.o.X.O.*.O.*.-.1.-.-.6.-.o.o.#.1.1.,.,.>...@.,.,.,.1.1.5.,.6.,.,.,.",
"-.O.-.4.4.-.&.-.2.&.o.` o.o.o.o.o.! a w J %.%.%.o.] ) o.%.%.O.-.] O.o.{ -.4.4.-.O.%.&.[ [ o.o.O.>...>.>.>.#.@.@.@.+.@.+.@.@.@.,.",
"o.[ [ O.{ [ [ o.O.] ( Y U T T T I G b x G ` %.%.[ ` ] o.-.-.;.2.;.;.-.*.o.%.%.[ [ [ o.[ ] _ _ ] ....,.$.,.$.$.@.+.o... ._ _ .. .",
"F D C F F F F F F F F F K K G D V C m s V L W ) L K K I ~ ) ) ) ) ` ` ) [ $.$.{ ) ( ( ` ] U ( ) ........$.$.o.o.o...o...R R R R ",
"< < < < & < 1 9 1 0 0 q u q 8 < 1 5 : : 5 u 5 5 d n x x c N m N z b V A G I ! J H D V G G V D J H G G G L I I K G K I I J G G G ",
"> > > ; , < < > < < < > < 1 : 8 : 1 : # 1 1 , : , , , ; % , , - 1 5 5 5 5 a 0 5 a 6 6 6 a a a a u 6 1 1 0 u u u 1 0 u p d a a a ",
"+ % @ + X + + X X X X @ X @ @ @ . # o   + o . . + ; # O O O % O $ $ $ $ $ 1 5 5 , 1 1 , 1 1 1 % : ; ; ; # > > > @ @ > > > # : : ",
"' | | ' / ' / Q Q Q / ' / ^ L L W / ^ W ^ ! L L C G C m c c c s a z 5 = $ $ = $ : 5 5 1 5 6 , + > ; ; ; > > > @ > > > > # @ @ @ ",
"$X@X@X@X$X%X$X@X%X%X%X%X$X$X@X@X@X@X@X+X@X$X$X$X%X%X$X$X@X@X@X@X[.+Xt.F N $ = c 1 p t 1 t ^ l.S.l.k.k.k.u.t.:.:.*.{ [ ) T U U T ",
" X|.|. XoX+X X XoXoXoX X X X|.|. X X X X|. X+X XoXoXoX#XoXoX#X@X&X#XI./.N.J 6 c t p j j d ! S.[.].].}.].).~.L.L.I.I.C.Z.Z.Z.C.I.",
"C.C.Z.C.I.I.I.B.B.B.m.m.M.m.M.M.B.B.B.m.B.B.Z.B.B.B.C.C.C.C.W.~.].W.Z.P.S.e.` 5 8 u f Z Z G i.{.B.B.Z.Z.Z.B.B.B.B.B.B.B.Z.Z.W.W.",
"i.i.u.a.a.d.d.y.0.0.y.4.r.0.r.r.y.y.y.0.0.y.y.r.3.0.y.y.y.y.y.a.n.C.).J.c.XX[.F q 0 0 j V G :.k.h.h.v.M.M.B.A.N.n.M.B.B.B.B.Z.Z.",
"3.3.3.4.6.6.6.-.4.4.8.4.6.8.8.r.3.3.0.4.6.8.6.6.3.4.4.4.6.6.6.6.7.3.x._.Y._./.J 0 s s j V ( e.2.-.-.1.4.y.y.y.a.M.M.B.Z.Z.m.B.B.",
"3.7.4.4.6.6.6.6.8.8.0.8.p.p.6.q.4.8.8.8.8.8.8.8.1.4.8.8.q.p.8.r.0.1.g._.Y.E./.%.4 c m C V ! ,.2.-.1.4.8.y.y.y.a.0.a.d.d.v.v.v.v.",
"q.8.8.8.q.6.8.6.5.6.8.8.6.6.q.6.3.6.8.6.6.q.q.6.>.5.8.8.6.6.q.q.3.9.p.j.x.Y._.u.q r r B C P &.2.-.-.1.6.4.6.4.4.a.a.d.d.g.h.v.v.",
"6.6.q.8.6.6.6.5.5.6.8.q.q.q.,.,.5.6.6.6.6.q.6.6.1.5.6.8.6.5.5.5.<.9.,.p.c.V.V.k.S 0 - n K Y &.1.1.1.1.3.3.3.6.1.5.5.4.8.4.4.4.0.",
"5.6.6.q.6.6.6.q.,.5.5.5.6.,.,.6.5.5.6.5.5.,.6.5.6.6.6.6.6.6.6.5.3.7.7.w.f.c.c.m.B 4 < r U Y *.#.#.-.1.3.4.8.6.6.1.3.3.6.6.6.6.2.",
"5.6.6.q.6.6.6.6.,.5.5.6.6.6.6.6.5.5.6.,.,.6.,.5.6.8.q.6.6.6.6.6.7.7.9.w.j.c.c.N.F 4 9 r I T 1.>.1.&.1.1.1.1.1.1.1.1.1.3.3.5.2.1.",
"5.5.6.5.6.6.6.6.,.5.5.2.6.6.6.6.6.6.6.5.6.6.6.6.6.6.6.6.6.6.6.6.7.7.7.9.j.z.c.c.P 9 9 r I _ 2.,.1.1.>.,.1.>.,.1.1.1.1.1.1.5.1.3.",
"5.5.5.5.,.,.6.6.5.5.5.5.6.6.6.,.6.6.6.5.,.,.6.6.6.6.6.5.6.6.6.6.7.5.7.9.p.f.l.N.U - 9 q I ` &.,.,.1.1.1.#.1.1.,.1.-.>.1.,.1.,.5.",
"5.3.1.5.,.,.6.6.6.3.3.5.5.5.1.5.6.6.3.5.6.6.6.6.6.6.6.5.6.6.6.6.7.3.3.7.q.a.z.D.` 7 0 9 U [ o.o.>.,.#.>.,.,.,.5.1.,.,.,.1.1.1.1.",
"1.1.5.3.6.6.5.6.6.6.5.5.1.5.3.5.3.5.2.5.6.,.1.5.3.3.3.5.6.6.3.4.7.<.3.8.q.p.s.D.{ 7 0 7 L { o.o.@.@.#.#.#.>.,.,.1.5.,.,.#.1.,.1.",
",.6.2.1.5.1.,.5.3.1.1.1.&.1.1.1.,.1.1.3.5.1.,.,.1.4.1.1.3.6.2.4.4.3.3.7.r.r.s.D.=.4 8 < L %.{ $.@.@.#.#.>.,.,.>.>.,.,.>.>.,.,.1.",
"1.-.2.6.1.-.5.5.1.1.1.-.-.&.1.1.&.1.1.1.5.5.1.>.1.1.2.2.1.6.2.2.3.-.3.8.8.r.s.D.:.8 8 - K %.$.&.#.#.>.1.,.,.,.&.,.>.@.@.>.>.,.>.",
"2.-.2.-.1.-.-.-.3.3.-.-.3.-.3.3.1.2.,.2.,.2.2.2.2.6.e.6.2.6.6.2.4.1.2.6.6.6.s.N.:.q - 9 N ` $.$.#.#.,.1.1.#.#.#.#.#.#.O.>.O.,.#.",
"-.-.;.-.1.*.-.-.-.;.-.-.-.-.3.;.1.2.2.2.2.2.2.2.,.,.,.5.1.1.2.2.4.;.&.6.e.2.r.l.:.r - q V ..,.>.#.&.&.,.1.#.#.O.o.@.O.#.#.#.&.&.",
"3.<.3.-.1.1.1.<.3.1.1.3.1.1.1.-.6.6.3.3.5.5.,.,.6.6.8.5.5.5.3.1.4.-.2.2.5.6.r.k.t.r - r B ` $.@.#.#.&.>.*.<.#.*.+.+.o.@.#.&.,.,.",
"1.1.1.3.1.7.6.7.1.3.3.5.6.3.3.3.5.,.5.5.,.2.5.5.6.6.5.5.5.5.5.3.:.-.,.5.6.8.p.u.t.n 7 0 N _ @.@.#.#.#.#.+.#.+.+.+.+.+.@.#.#.>.>.",
"<.<.<.<.7.7.7.<.7.<.7.<.7.1.<.1.,.#.1.1.1.1.1.1.2.5.1.>.,.1.>.-.3.-.2.6.6.r.p.u.t.x < 9 b ( ....@.@.+.+.+.#.+.#.+.+.+.O.#.@.@.#.",
"*.<.>.>.<.>.<.<.>.<.>.>.<.<.<.<.#.#.#.>.>.>.1.,.5.,.1.,.>.,.1.1.1.-.1.1.6.6.p.u.t.n - q v J  ...X.+.X.+.+.+.+.O.*.#.#.+.+.+.+.+.",
">.>.>.>.>.>.>.+.>.>.>.>.>.>.>.<.#.>.>.#.>.,.1.1.5.5.1.1.1.1.5.1.1.;.&.,.5.r.r.u.e.s 9 9 x R  . . .E +.+.@.+.+.+.+.#.#.+.+.o.+.+.",
">.>.>.>.+.>.+.>.>.>.>.>.>.>.>.>.#.#.1.-.,.,.>.*.,.&.#.#.#.1.1.1.-.&.&.&.,.e.r.u.4.n 4 9 x J _ ..E E X.+.#.+.+.+.#.+.+.+.+.+.+.X.",
"#.>.>.#.+.+.#.,.>.>.#.@.@.+.#.>.#.-.1.-.&.&.1.-.-.O.@.O.#.&.&.&.;.&.&.O.,.,.e.e.e.n - < q H ..( E E _ X. . .....+.X.X.X.X.X.o.@.",
"#.#.@.#.@.#.,.1.#.#.#.#.#.#.#.@.O.O.O.O.o.[ ] o.%.*.-.&.%.O.&.-.%.[ _ X.$.,.$.o.=.p > 0 e H ..( E _ X.X. . .....O.O.o.+.o.X.X.[ ",
"&.&.O.#.&.,.,.,.>.&.,.&.&.>.&.O.;.;.&.&.O.o.{ [ ] o.%.o.] ) [ { ) T Y _ o.o...! Q q 7 0 e N ( J J Y ( E ( T R R E _ _ [ o.o.O.O.",
"o.o.` ] ..[ _ _ _ _ _ ] _ _ ( T ( ( ! I K K G G D G F D B N V D n b v n A A b x h 7 7 0 0 a b D v v A D D A D V N S H P ( ) ` ` ",
"H H A N D A S M M M b N b v z z s s a a a a a a s a 0 e 0 0 w 5 4 q r w 6 6 w 0 q 8 8 y t 6 z z z e k z z z z z z c c c b b b v ",
"0 0 0 w 0 e a 0 a e a e 0 e 6 5 a a a s s x d a a q 0 a a a a 0 r n n x e e r s i f f f p a c c b c x z z z c a c z z z a e 6 6 ",
"5 5 5 5 5 5 0 a s s s a a s s s p 5 5 t a a a u p a c d c d s h s s r r l q 0 u f g p y p d a c V V c c c c V V c c c z a a a u ",
"0 0 0 5 < 5 0 a 0 0 0 0 a s s c a a u u u p u 5 : 5 p a u u i h j n n c N m s u y p y t p a a a a a 6 5 a c V V V V c c a a 5 6 "
};
