/* XPM */
static char *b3e79b4d616647cbe37bbaa68c216bffCcqD6PGmWr6mSAWb[] = {
/* columns rows colors chars-per-pixel */
"54 71 70 1 ",
"  c None",
". c #35332E",
"X c #3C362B",
"o c #3F382A",
"O c #2F2F30",
"+ c #313030",
"@ c #463B26",
"# c #4B3E25",
"$ c #433A28",
"% c #55421D",
"& c #5A461F",
"* c #5D481E",
"= c #6F4F0F",
"- c #704F0D",
"; c #73510D",
": c #7D5609",
"> c #62491A",
", c #6A4F18",
"< c #6E5117",
"1 c #755516",
"2 c #795711",
"3 c #7E5A11",
"4 c #71551E",
"5 c #534322",
"6 c #4C473D",
"7 c #5C4F34",
"8 c #5F5136",
"9 c #5D513B",
"0 c #6E5524",
"q c #65532F",
"w c #6A5429",
"e c #705622",
"r c #735821",
"t c #625336",
"y c #6E5A31",
"u c #424242",
"i c #4E4E4E",
"p c #514F4C",
"a c #595141",
"s c #52504D",
"d c #58554F",
"f c #4C4D50",
"g c #4F5052",
"h c #535353",
"j c #595650",
"k c #5B5B5B",
"l c #646464",
"z c #6C6C6C",
"x c #737373",
"c c #7B7B7B",
"v c #815704",
"b c #855901",
"n c #8B5D01",
"m c #835B0C",
"M c #8A5F08",
"N c #8E6107",
"B c #8B600B",
"V c #956401",
"C c #996601",
"Z c #9D6901",
"A c #926408",
"S c #A36D01",
"D c #848484",
"F c #8C8C8C",
"G c #949494",
"H c #9A9A9A",
"J c #A5A5A5",
"K c #AAAAAA",
"L c gray70",
"P c #BBBBBB",
/* pixels */
"               hshhhhhhhgh                            ",
"             izDkcFFFFFlzDhh                          ",
"           hczcHkGKJKKJzcHccli                        ",
"          zkc  HkGKKK JzxKJFxzz                       ",
"       hizJ lk FhDFFG FlzGFlGJFhh                     ",
"      khh JJHxhhhhhhhihhhhhFJK Fhh                    ",
"     kFGclJJxhh           ikGKFlF h        MMnnMM     ",
"    lD KHczzl               zzxFJKGc    yMMbVVVVbB    ",
"   lxDHFDci                  ilDDHGx   t1nVbZSSZbbM   ",
"   cHzDzii                     iiDlh 992nVZnZSSZnnnnb ",
" kzJHHl                          hhptbbbVSZnCSSZnZSVbb",
"hFckkk                            itmSSnVSZbZSSZnZSVbb",
"hFHFDh                            fqnSSnVSZnZSSZbZSVbb",
"hFLLHh                            fqnSSVVSSbCSSZnZSVbb",
"hcKPGk                            fqnSSnVSZnZSSCnZSVbb",
"ikcHFh                            fqnSSnVSSbZSSZnSSVbb",
"hFckkh                            iqnSSnVSZnCSSZbZSVbb",
"hFHGFh                            iqnSSVVSZbZSSZnZSVbb",
"hFKKHh                            ftnSSnVSZnCSSZnZSVbb",
"hxxzch                            pqnSSnVSZnZSSZnSSVbb",
"hhkllh                            i7mSSnVSSbZSSZbZSVbb",
"h KJGh                            iu#ASnVSSbCSSZnZSVbb",
"hFK Gk                            iu+#VnVSSbZSSZnZSVbb",
"hFKKHh                            iu++#;VSSbCSSZnZSVbb",
"hFFczh                            iuX,,:VSSnZSSZnZSVbb",
"hcxklh                            i6*SSnVSZbZSSZbSSVbb",
"ikz Hh                            fqbSSnVSZnCSSZnZSVbb",
"hDJL h                            fqnSSVVSZnZSSZnZSVbb",
"hFKKGh                            pqnSSnVSSbZSSZnZSVbb",
"izxDGk                            fqnSSVVSZnZSSZbZSVbb",
"slllch                            ftnSSnVSZnVSSZNZSCbb",
"hFK kh                            fwnSSnVSZbZSSZnZSVbb",
"hGJJGk                            iqnSSnVSCnCSSCnCSVbb",
"hFJJGh                            iqnSSnVSSbSSSSbSSVbb",
"illDHh                            ftnSSnVSSbCSSCbSSVbb",
"izccxh                            fqnSSVVSSnCSSSnSSVbb",
"hFKGlh                            iqnSSnVSSnCSA2-CSVbb",
"hFKJGk                            iqnSSnVSCbSSm$XmSVbb",
"sFJJGh                            ftnSSVVSSnCSSm.XmVbb",
"fkllkh                            pqnSSnVSZnCSSAX2CVbb",
"hxDDxh                            fqnSSVVSSbZSM5XASVbb",
"hFKKGh                            fqnSSnVSSbZM,5#1AVbb",
"hFJKHh                            fqnSSnVSSbZ&&Sb$2Vbb",
"i JHGk                            fqnSSVVSSbS>&A:@mCbb",
"i  kkh                            fqnSSnVSSbCC1$@mSVbb",
"ihxFch                            i6*SSnVSSnSSA;=CSVbb",
"hzGKGk                            iuX<ZnVSSbCSSSnCSVbb",
"hGKKGh                            iuO.1bVSZbCSSSbSSVbb",
"iDHJ h                            fu+$$-VSSnSSSCnCSVbb",
"ikkz h                            fu#AVnVSCnCSSCnSSVbb",
"hcGcii                            f7vSSVVSCnCSSSnCSCbb",
"hFKHch                            fqnSSnVSSnCSSCbSSVbb",
"hFKKHk                            hqnSSnVSZnCSSSnSSCbb",
"hDF Fh                            gqnSSVVSCnSSSCnCSVbb",
"ihkjkf     hhkhhhkkhjkkhhhhhhhhh  gqnSSnVSSnCSSSbCSVbb",
"hDHHDkfhhhhzcDDDDGGHHGDlihzxzcDzjhgqnSSnVSCnCSSCnSSCbb",
"hGKKHhiiikcDFGGJJJJGHJHDcxkkxDDxhkhqnSSnVSSbCSSCnCSVbb",
"izGJHkzccxzxxzxcccxcGHJJGDxxlzxzhlkqnSSnVSSbSSSSbSSVbb",
"ikcFDkGKKHxzlllllllxccFFDccckgklhzkqnSSVVSSnCSSCnSSVbb",
"hKFkkhGPLKPKKJJKJJJFkkklkkkkkkkggkhtnSSnVSCnCSSSnCSVbb",
"hGJHFkGKJJJJPLKPJJJHHHHHHHHHHxppgsgqnSSnVSSbCSSZbCSVbb",
"i KKHkklllllzlzzlllllllllllllkfgpggqnVSnVSSbZSSZnSSCbb",
"fpzxzhiiiiiiiiiiiiipiiiifpgppfpggpgaqwnbVSSbCSSCbSSVbb",
"hhhhhhhhhhhhfhshhghhghhhhhhhhhgghhhhgjemnCSnZSSSbZSCbb",
"                                      hr3mCnZSSZbSSVbb",
"                                       jstvmCSSZbZSVbb",
"                                        hpa93bVZnZSVbb",
"                                            8trnbSSVbb",
"                                             f900VVVbb",
"                                               fp41121",
"                                                 hppss"
};
