/* XPM */
static char *_f11244bb2db4171b3c87a6cd3b3fb63AuaZzaOMrwnHPH1y[] = {
/* columns rows colors chars-per-pixel */
"22 60 141 2 ",
"   c None",
".  c black",
"X  c #0E1D2C",
"o  c #0C2132",
"O  c #0B263B",
"+  c #0A293F",
"@  c #0A2B42",
"#  c #0A2F49",
"$  c #112F47",
"%  c #0C324E",
"&  c #0C3551",
"*  c #0B3B5B",
"=  c #113E5D",
"-  c #0C3F61",
";  c #0C4062",
":  c #0D466C",
">  c #0C486F",
",  c #144365",
"<  c #15476B",
"1  c #154A6E",
"2  c #0D4A71",
"3  c #104E76",
"4  c #114F78",
"5  c #13537D",
"6  c #1C547B",
"7  c #165683",
"8  c #1A5680",
"9  c #175885",
"0  c #185986",
"q  c #175B88",
"w  c #1A5C8A",
"e  c #1C608E",
"r  c #1D6393",
"t  c #1E6798",
"y  c #1F699A",
"u  c #20618D",
"i  c #246592",
"p  c #246897",
"a  c #296B96",
"s  c #206799",
"d  c #21699B",
"f  c #2C6E9A",
"g  c #32749F",
"h  c #226EA2",
"j  c #2471A6",
"k  c #2676AB",
"l  c #2876AB",
"z  c #2778AE",
"x  c #2878AF",
"c  c #3275A0",
"v  c #3779A4",
"b  c #3A7CA7",
"n  c #3B7EAA",
"m  c #2A7CB4",
"M  c #2B7FB9",
"N  c #2D82BB",
"B  c #3F85B2",
"V  c #3182B8",
"C  c #3B8BBF",
"Z  c #4083AE",
"A  c #4486B1",
"S  c #468AB4",
"D  c #498EBA",
"F  c #4E91BB",
"G  c #2F85C0",
"H  c #3087C2",
"J  c #3189C5",
"K  c #3B8BC1",
"L  c #338DCB",
"P  c #3690CC",
"I  c #3E94CE",
"U  c #3492D1",
"Y  c #3A95D3",
"T  c #3F98D4",
"R  c #3B9AD9",
"E  c #4493C6",
"W  c #4794C6",
"Q  c #4792C1",
"!  c #4A93C2",
"~  c #4393C8",
"^  c #4196CE",
"/  c #4096CF",
"(  c #4397CF",
")  c #4296CE",
"_  c #4599CF",
"`  c #4B98C9",
"'  c #4A9ACF",
"]  c #499ACF",
"[  c #5299C5",
"{  c #579FC9",
"}  c #539FCE",
"|  c #5A9FC9",
" . c #4198D1",
".. c #429AD4",
"X. c #489AD0",
"o. c #4A9CD0",
"O. c #4B9CD1",
"+. c #4E9ED0",
"@. c #4F9ED0",
"#. c #4F9ED1",
"$. c #4B9DD1",
"%. c #509ED0",
"&. c #509FD1",
"*. c #529FD1",
"=. c #509FD0",
"-. c #56A1CF",
";. c #5BA0CA",
":. c #59A3CF",
">. c #59A3CF",
",. c #52A0D0",
"<. c #52A0D1",
"1. c #55A1D0",
"2. c #56A1D0",
"3. c #57A3D2",
"4. c #53A2D4",
"5. c #53A1D1",
"6. c #59A4D2",
"7. c #5BA5D2",
"8. c #5AA5D3",
"9. c #5BA5D3",
"0. c #5CA4D0",
"q. c #5CA5D0",
"w. c #5BA5D2",
"e. c #5FA8D4",
"r. c #64A7CF",
"t. c #62A7CF",
"y. c #62A7D0",
"u. c #63A9D3",
"i. c #60A9D4",
"p. c #61A9D4",
"a. c #60A8D5",
"s. c #61AAD7",
"d. c #61ABD7",
"f. c #64AAD4",
"g. c #65AAD4",
"h. c #64ABD4",
"j. c #66ADD7",
"k. c #63AAD5",
"l. c #63ADDA",
"z. c #66ADD8",
"x. c #68B1DD",
/* pixels */
"                                            ",
"                x.z.z.z.z.x.                ",
"              8.3.%.*.*.*.3.9.              ",
"            d.} J H H H J L %.d.            ",
"          U } F w w e w r J P ' u.          ",
"        R %.B a 0 0 q q q d d m X.l.        ",
"        Y 0.v 7 8 5 5 5 5 0 9 h I e.        ",
"        T [ g 7 5 3 > > 3 7 9 d K 3.        ",
"    U  .| a w 5 3 2 > 2 2 2 5 9 p L 3.      ",
"    L ^ | i 0 5 > > > > 2 > 7 9 e J 3.r.    ",
"     .W Z u 0 5 2 > q q > > 5 9 w x E -.    ",
"  U @.F w 0 9 5 2 7 m m 7 7 7 9 0 0 M ] j.  ",
"  U @.F q 0 3 2 5 N L J J J e 3 0 q M o.d.  ",
"  U @.F q 0 3 9 N L u < 6 J e 3 0 q M o.j.  ",
"  U @.F w 0 r x J p = + % s d r 0 q N X.j.  ",
"  T ` A 0 0 m L x & @ @ % : m m 0 0 x ~ 9.  ",
"  u.n q q q m m 2 # @ @ # > x z 0 0 q l ^ l.",
"T 9.n 9 9 2 k x > # @ @ # > 7 5 3 0 9 h I u.",
"Y 0.b 9 q d h r : @ + O # : > > 3 9 9 j I a.",
"Y -.b 9 w J t : ; # o o @ - > 2 3 9 0 j I u.",
"Y >.b 9 w H y - @ @ o o @ @ ; 2 3 8 9 j / a.",
"Y -.b 9 9 9 4 - @ o X X o @ - 2 2 8 9 j / a.",
"U >.b r j 4 > - @ X X X X @ - 9 d 0 9 j / a.",
"U >.b y J 5 2 - + X X X X @ - r M d q j I a.",
"T >.b d V 7 > - + X X X X + - 2 9 H d j I u.",
"U >.b q r 2 > - @ X X X X @ - > 7 H d j I a.",
"T >.b 9 q h q - + X X X X @ - 2 7 G d h I d.",
"U 0.b 9 e G y - O X X X X @ = 2 7 J y h I u.",
"Y 0.b 9 e J t - @ X X X X @ - 2 7 J y j I u.",
"Y *.b 9 w G t - @ @ o o @ @ - > 7 G y j I u.",
"Y *.b 9 e G M e * @ o o @ * : > 7 H y j I d.",
"Y 0.b 9 w k L M 9 % o # 1 2 > > 7 J y j I a.",
"R >.b 9 9 3 h J G = % 6 m 4 > 3 q H d j T u.",
"  d.n 8 0 9 8 d L H N d = > > r N r 0 h I a.",
"  X.Q b q 9 4 4 d J f , @ : > y H w h K %.  ",
"  U %.F q 9 4 > 3 d , @ # : 9 h m w M @.j.  ",
"  U @.F q q 5 4 : % @ @ % > j x 0 q M X.j.  ",
"  U @.F q 0 x k > > & & > > 3 7 0 q M O.u.  ",
"  U 4.F q 9 s h j 3 & < j 4 3 8 9 q N o.j.  ",
"  U X.! v w 8 r k t 6 r j 2 7 0 w d K %.j.  ",
"    L ^ ;.i 0 5 3 M J j 2 2 5 9 r J -.r.    ",
"    L I | i 0 5 2 5 5 2 2 2 7 9 r J 3.r.    ",
"      T X.D f 9 5 2 > > 2 5 7 y V } 8.      ",
"        Y 8.v 9 9 4 4 4 4 7 9 h I d.        ",
"        Y -.b e 0 9 0 0 q e e l ^ d.        ",
"          Y } S q 0 q 9 w H H ) e.          ",
"            ..I M m M m M L O.9.            ",
"              ..X.X.X.X.X.O.9.              ",
"                j.u.r.u.r.u.                ",
"                                            ",
"                                            ",
"                                            ",
"                                            ",
"                                            ",
"                                            ",
"                                            ",
"                . . . . . .                 ",
"        . . . . . . . . . . . . .           ",
"                . . . . . .                 ",
"                  . . . .                   "
};
