/* XPM */
static char *_a409619aaef4bc7945dc796b23c1c9dpOJgIVCkno8mA1Ch[] = {
/* columns rows colors chars-per-pixel */
"22 60 133 2 ",
"   c None",
".  c black",
"X  c #0E1D2C",
"o  c #0D2133",
"O  c #0B273C",
"+  c #0B283E",
"@  c #0A2B42",
"#  c #0A2F49",
"$  c #0B324D",
"%  c #0D3652",
"&  c #0C3857",
"*  c #0B3D5F",
"=  c #103956",
"-  c #103F5F",
";  c #0C3F61",
":  c #0C4164",
">  c #0D466B",
",  c #0C486F",
"<  c #17496D",
"1  c #0D4A71",
"2  c #104E76",
"3  c #184D72",
"4  c #114F78",
"5  c #13537D",
"6  c #165682",
"7  c #175885",
"8  c #185986",
"9  c #1A5C8A",
"0  c #1B608F",
"q  c #1C6393",
"w  c #1E6799",
"e  c #1F689A",
"r  c #20618E",
"t  c #246692",
"y  c #216A9C",
"u  c #2B6D99",
"i  c #2E709C",
"p  c #236EA2",
"a  c #2471A6",
"s  c #2675AB",
"d  c #2976AB",
"f  c #2978AE",
"g  c #3476A2",
"h  c #3779A4",
"j  c #397BA6",
"k  c #3A7DA9",
"l  c #297BB3",
"z  c #2B7FB9",
"x  c #317FB5",
"c  c #3C81AD",
"v  c #2E83BD",
"b  c #3989BE",
"n  c #4487B2",
"m  c #4489B5",
"M  c #468EBB",
"N  c #498FBC",
"B  c #4E91BB",
"V  c #2F86C1",
"C  c #3087C2",
"Z  c #3189C5",
"A  c #388DC7",
"S  c #338DCB",
"D  c #398FC9",
"F  c #3691CF",
"G  c #3E94CE",
"H  c #3492D1",
"J  c #3A95D3",
"K  c #3B99D9",
"L  c #4695C7",
"P  c #4B93C1",
"I  c #4495CA",
"U  c #4296CD",
"Y  c #4095CE",
"T  c #4297CF",
"R  c #4296CE",
"E  c #4598CE",
"W  c #4598CF",
"Q  c #4799CF",
"!  c #4E9BCB",
"~  c #4E9DCF",
"^  c #4D9BCD",
"/  c #519AC8",
"(  c #569DC9",
")  c #599EC8",
"_  c #5A9FC9",
"`  c #4599D0",
"'  c #4699D1",
"]  c #4299D2",
"[  c #499BD1",
"{  c #4A9CD0",
"}  c #4B9CD1",
"|  c #4A9DD2",
" . c #4B9ED3",
".. c #4E9ED0",
"X. c #4F9FD1",
"o. c #4C9DD0",
"O. c #519FD1",
"+. c #519FD1",
"@. c #54A0CF",
"#. c #56A1CF",
"$. c #58A1CF",
"%. c #59A3CF",
"&. c #5BA3CD",
"*. c #50A0D2",
"=. c #56A2D1",
"-. c #55A2D2",
";. c #5AA4D0",
":. c #5BA5D1",
">. c #58A4D3",
",. c #5CA4D0",
"<. c #58A5D5",
"1. c #59A5D5",
"2. c #5BA6D4",
"3. c #5EA7D4",
"4. c #5BA5D2",
"5. c #60A6CF",
"6. c #61A6CF",
"7. c #64A7CF",
"8. c #63A8D0",
"9. c #62A9D3",
"0. c #61A9D5",
"q. c #61AAD5",
"w. c #63AAD5",
"e. c #61A9D6",
"r. c #61AAD6",
"t. c #62AAD6",
"y. c #64AAD4",
"u. c #65ABD4",
"i. c #65ABD5",
"p. c #64ABD5",
"a. c #66AED8",
"s. c #64AEDB",
"d. c #68B1DC",
/* pixels */
"                y.6.6.6.6.9.                ",
"              <.[ Q W W W ' <.              ",
"            <./ l l l l l S | >.            ",
"          J / n 8 8 8 8 9 v V W 3.          ",
"        J $.k 9 7 7 7 7 7 9 9 a T 9.        ",
"        J ,.h 7 6 4 2 2 5 7 7 p J 9.        ",
"      J Q N u 6 5 2 , , , 5 7 y z ^ :.      ",
"    H T _ t 7 5 , , , 2 5 2 5 7 0 A =.8.    ",
"    S T _ t 7 5 2 , , q v 4 5 7 q Z @.6.    ",
"  J | P i 9 7 6 , , y C S z q 7 9 y b *.a.  ",
"  H X.B 9 7 6 4 4 q y y d S l w 7 7 z [ y.  ",
"  H X.B 7 7 4 , 4 d < $ 2 z S f 7 9 z X.y.  ",
"  H X.B 9 7 4 , > % # @ $ 2 l l 7 9 z [ y.  ",
"  H *.B 9 7 4 , > # @ @ # > l Z l 9 z [ y.  ",
"  | N g 9 p 9 , > # + @ # > q z Z 9 y b +.y.",
"  9.k 7 9 Z w , > # @ @ # > , w Z 9 7 a J 9.",
"K -.j 7 0 V q , > # @ @ # > , w C 9 7 a Y 9.",
"J -.j w z q 4 , > # O o # > , y Z 9 7 a J 9.",
"J %.j e Z 5 , > & @ o o # & > 7 y 9 7 a G 9.",
"J %.h e V 6 , ; @ O X o O @ ; 4 7 9 7 a J t.",
"J %.j e Z 6 , ; @ X X X X @ ; q z 9 7 p Y t.",
"J %.j e V 5 , ; @ X X X X @ ; 5 9 7 7 a J 9.",
"J %.j e V 6 , ; O X X X X @ ; , 1 7 7 a Y 9.",
"J %.j e V 6 , ; O X X X X @ ; 1 2 6 7 a Y 9.",
"J %.j e Z 6 1 : @ X X X X + ; 1 2 7 7 a J t.",
"J %.j e S v 0 * @ X X X X @ ; 1 2 7 7 a T 9.",
"J %.j e S F e * + X X X X @ - 1 2 6 7 p G 9.",
"J @.j q v S w * + o X X o @ ; 4 9 7 7 a J 9.",
"J :.j 7 0 v e > % @ o o @ # ; w v 9 7 a G 9.",
"J -.j 7 6 6 a v d % o o # : > w C 9 7 a G 9.",
"J -.j 7 7 1 8 f V = O O # > , w Z 9 7 a Y 9.",
"J :.j 7 7 4 1 7 a % @ @ # > , y Z 9 7 a J 9.",
"  q.c 0 8 8 4 1 , # @ @ # > 1 e V 9 9 a Y s.",
"  J ! n 9 7 4 < > # @ @ # > s l 9 7 l I e.  ",
"  H @.B 9 7 5 , > # @ + % p Z l 7 9 z X.y.  ",
"  H ~ B 7 7 4 , > % # # - s z e 7 9 z Q y.  ",
"  H *.B 8 7 5 , , 4 & % , 1 1 5 7 9 v X.y.  ",
"  H *.B 9 7 7 5 4 v 3 % , , 5 7 7 7 z Q y.  ",
"    T L n r 7 6 1 q y a a 4 5 8 0 f L @.    ",
"    S G &.t 7 5 , , q f a 5 5 7 0 S =.7.    ",
"      ] ( u 9 6 1 , 1 , 1 2 5 9 y A >.      ",
"        J / g 7 6 1 1 1 2 5 7 y A 3.        ",
"        J ,.g 7 8 5 5 5 6 7 7 a J 9.        ",
"        K / n u 8 8 8 8 9 e p c | s.        ",
"          H X.N q q 0 0 w Z H | y.          ",
"            J J Z Z Z Z Z S +.9.            ",
"              [ <.+.=.=.*.<.:.              ",
"                d.i.y.a.a.d.                ",
"                                            ",
"                                            ",
"                                            ",
"                                            ",
"                                            ",
"                                            ",
"                                            ",
"                                            ",
"                                            ",
"              . . . . . . . .               ",
"                                            ",
"                                            "
};
