/* XPM */
static char *ef533f259bd2417290f3846d4de63dbex38dgxmS06J5SnMJ[] = {
/* columns rows colors chars-per-pixel */
"22 60 96 2 ",
"   c None",
".  c black",
"X  c #0E1D2C",
"o  c #0C2132",
"O  c #0B263B",
"+  c #0A293F",
"@  c #0A2B42",
"#  c #0A2F49",
"$  c #112F47",
"%  c #0C324E",
"&  c #0C3551",
"*  c #0B3B5B",
"=  c #113E5D",
"-  c #0C3F61",
";  c #0C4062",
":  c #0D466C",
">  c #0C486F",
",  c #144365",
"<  c #15476B",
"1  c #154A6E",
"2  c #0D4A71",
"3  c #104E76",
"4  c #114F78",
"5  c #13537D",
"6  c #1C547B",
"7  c #165683",
"8  c #1A5680",
"9  c #175885",
"0  c #185986",
"q  c #175B88",
"w  c #1A5C8A",
"e  c #1C608E",
"r  c #1D6393",
"t  c #1E6798",
"y  c #1F699A",
"u  c #20618D",
"i  c #246592",
"p  c #246897",
"a  c #296B96",
"s  c #206799",
"d  c #21699B",
"f  c #2C6E9A",
"g  c #32749F",
"h  c #226EA2",
"j  c #2471A6",
"k  c #2676AB",
"l  c #2876AB",
"z  c #2778AE",
"x  c #2878AF",
"c  c #3275A0",
"v  c #3779A4",
"b  c #3A7CA7",
"n  c #3B7EAA",
"m  c #2A7CB4",
"M  c #2B7FB9",
"N  c #2D82BB",
"B  c #3F85B2",
"V  c #3182B8",
"C  c #3B8BBF",
"Z  c #4083AE",
"A  c #4486B1",
"S  c #468AB4",
"D  c #498EBA",
"F  c #4E91BB",
"G  c #2F85C0",
"H  c #3087C2",
"J  c #3189C5",
"K  c #3B8BC1",
"L  c #338DCB",
"P  c #3690CC",
"I  c #3E94CE",
"U  c #3492D1",
"Y  c #3A95D3",
"T  c #3F98D4",
"R  c #3B9AD9",
"E  c #4693C4",
"W  c #4A93C2",
"Q  c #4296CD",
"!  c #4599CF",
"~  c #4A9ACE",
"^  c #5299C5",
"/  c #559FCC",
"(  c #5A9FC9",
")  c #4299D3",
"_  c #4B9DD1",
"`  c #519FD1",
"'  c #56A1CF",
"]  c #59A3CF",
"[  c #54A1D1",
"{  c #5BA5D2",
"}  c #5FA8D4",
"|  c #62A7CF",
" . c #62A7D0",
".. c #62AAD5",
"X. c #65ADD9",
"o. c #68B1DD",
/* pixels */
"                                            ",
"                o.X.X.X.X.o.                ",
"              { [ ` ` ` / [ }               ",
"            X./ J H H H J P ` ..            ",
"          U ` D w w u w t J P ~ ..          ",
"        R ` A a 0 9 w 9 w p d m _ X.        ",
"        Y { v 7 9 5 5 5 5 7 7 h Y ..        ",
"        T ^ c 7 7 2 2 2 2 7 9 d J {         ",
"    U ) ( a w 5 3 > 3 > > 2 5 q p L [       ",
"    L Q ] i 9 5 > > > > 2 2 7 9 r J { |     ",
"    ) E Z u 0 5 2 > 0 w > > 5 9 w l E '     ",
"  U _ F 0 0 7 5 2 5 m m 7 7 7 9 0 0 V ~ X.  ",
"  U _ F w 0 5 > 5 N L J J J e 3 0 9 N ~ ..  ",
"  U / F 0 0 3 9 N L u < 6 J e 3 0 w M _ ..  ",
"  U ` F w 0 r l J p = + % t d r 7 q N _ ..  ",
"  T ~ Z w 0 m L x & @ @ % : m m q q z E {   ",
"  ..n w q 9 m m 2 # @ @ # : x x 7 7 w l Q X.",
"Y { b 0 7 2 z x > # @ @ # : 7 7 4 q 0 h I } ",
"Y { b 7 w y h r : # O O # : > > 2 9 9 j I ..",
"Y ] n 9 w J t : - # o o # - 2 > 3 9 0 j I ..",
"Y ] n 7 w H t - @ @ o o @ # * > 3 7 0 j Q ..",
"Y ] b 7 0 0 4 - @ o X X o @ - > 2 7 0 j I ..",
"Y [ b e j 4 > - O X X X X @ - q h 0 9 j I ..",
"Y { b t J 5 > - @ X X X X @ - r m d w h I ..",
"Y { b t N 5 > - @ X X X X O - 2 q H s j I } ",
"Y ] b w r 3 > - @ X X X X @ - > 7 H d j I ..",
"U ] n 9 w h q - + X X X X @ - > 7 G s j I ..",
"Y ] b 7 w J t - O X X X X @ - > 7 J s h I ..",
"Y { b q w H t - @ X X X o @ - > 7 J t j Q ..",
"Y / b 7 w H t - @ + o o @ @ - > 7 G t j Y } ",
"Y { b 7 e G M r * # o o @ * : > 7 J t j I ..",
"Y / b q w k J N w # o # < > > > 7 J d j I } ",
"R { b 9 0 3 j L N , % 6 m 4 > 2 q G t j Y ..",
"  ..b 9 0 7 5 t L V N p = > > t M t 0 j I ..",
"  _ W b 0 0 3 5 y L f , @ : > t H e h K `   ",
"  U _ F w 0 3 > 3 d , @ # : 9 h x w M _ ..  ",
"  U _ F w 0 5 3 : % @ @ % > l l 0 w M _ ..  ",
"  U ` F w 0 x l > > & & > > 2 7 7 q M _ ..  ",
"  U [ F 0 0 p j j 3 % < j 3 5 7 q q m _ X.  ",
"  U ) W c w 7 r l t 7 e j 4 5 9 w f K [ X.  ",
"    L I ( i 0 5 5 m H j > > 5 0 r J [ |     ",
"    L Q ( i 0 5 2 5 5 3 > 2 7 0 r J [ |     ",
"      T ) D f 7 5 > > > > 5 7 t V / {       ",
"        T { b 0 9 5 3 3 5 9 7 j Y ..        ",
"        Y [ n w 9 9 0 0 0 e r l Q ..        ",
"          Y / S w 9 w 0 e N J E }           ",
"            ) I m M m m N L _ [             ",
"              Y _ ~ ~ ) _ ) }               ",
"                X.|  . .| ..                ",
"                                            ",
"                                            ",
"                                            ",
"                                            ",
"                                            ",
"                                            ",
"                                            ",
"                . . . . . .                 ",
"        . . . . . . . . . . . . .           ",
"                . . . . . .                 ",
"                  . . . .                   "
};
