/* XPM */
static char *_dd72084cfb74e2dd2d18377bdf0ffafDWopUcNniY8nel32[] = {
/* columns rows colors chars-per-pixel */
"22 60 137 2 ",
"   c None",
".  c black",
"X  c #0E1D2B",
"o  c #0C1F30",
"O  c #0C2132",
"+  c #0C2539",
"@  c #0B283F",
"#  c #112638",
"$  c #12283C",
"%  c #0A2A42",
"&  c #0A2E48",
"*  c #0B324D",
"=  c #16334A",
"-  c #0C3957",
";  c #0C3D5E",
":  c #173750",
">  c #103A57",
",  c #123D5C",
"<  c #0C3F61",
"1  c #1A415F",
"2  c #0C4164",
"3  c #0D466B",
"4  c #0D486F",
"5  c #144364",
"6  c #1B4767",
"7  c #164668",
"8  c #164A6D",
"9  c #1E4B6C",
"0  c #0E4A72",
"q  c #104E76",
"w  c #194E73",
"e  c #114F78",
"r  c #1B5076",
"t  c #13527D",
"y  c #1B5279",
"u  c #165682",
"i  c #1A5780",
"p  c #175885",
"a  c #185986",
"s  c #1A5C8A",
"d  c #215980",
"f  c #205D88",
"g  c #1C608F",
"h  c #1D6494",
"j  c #1E6798",
"k  c #1F699A",
"l  c #21618E",
"z  c #236592",
"x  c #296B96",
"c  c #206799",
"v  c #21699C",
"b  c #236EA2",
"n  c #2471A5",
"m  c #2675AA",
"M  c #2975A8",
"N  c #3779A4",
"B  c #3A7CA7",
"V  c #3B7EA9",
"C  c #2779B0",
"Z  c #2A7CB4",
"A  c #2B7FB9",
"S  c #317FB3",
"D  c #2D81BA",
"F  c #3085BE",
"G  c #3989BE",
"H  c #4086B3",
"J  c #4188B6",
"K  c #4E91BB",
"L  c #2F86C1",
"P  c #3087C3",
"I  c #3189C5",
"U  c #3C8DC2",
"Y  c #338DCA",
"T  c #3591CF",
"R  c #3C93CE",
"E  c #3493D2",
"W  c #3A97D4",
"Q  c #3996D5",
"!  c #3995D3",
"~  c #3E9BD8",
"^  c #4791C0",
"/  c #4390C2",
"(  c #4F95C0",
")  c #4A94C3",
"_  c #4094CB",
"`  c #4495CB",
"'  c #4396CD",
"]  c #4699CF",
"[  c #4E9ACB",
"{  c #499ACF",
"}  c #4E9DCF",
"|  c #4E9CCD",
" . c #5398C2",
".. c #519DCC",
"X. c #519DCC",
"o. c #4197D0",
"O. c #4197D0",
"+. c #4098D3",
"@. c #469AD1",
"#. c #4298D2",
"$. c #4A9CD0",
"%. c #4E9ED0",
"&. c #4C9ED3",
"*. c #4E9FD2",
"=. c #4C9DD1",
"-. c #5BA0C9",
";. c #59A3CF",
":. c #5BA3CF",
">. c #5AA3CE",
",. c #53A1D1",
"<. c #50A0D3",
"1. c #54A0D0",
"2. c #56A2D1",
"3. c #56A4D4",
"4. c #55A2D2",
"5. c #59A4D3",
"6. c #5CA4D0",
"7. c #5CA6D2",
"8. c #5DA6D2",
"9. c #5FA7D2",
"0. c #59A5D4",
"q. c #5CA6D3",
"w. c #5FA8D4",
"e. c #5EA9D7",
"r. c #60A7D2",
"t. c #64A9D1",
"y. c #64AAD3",
"u. c #61A9D4",
"i. c #63A9D4",
"p. c #61AAD5",
"a. c #62AAD5",
"s. c #61AAD7",
"d. c #64AAD4",
"f. c #66ADD7",
"g. c #62A9D4",
"h. c #66ADD8",
"j. c #63ACD9",
/* pixels */
"                                            ",
"                                            ",
"                                            ",
"                e.9.9.9.9.e.                ",
"            d.1.R Y R Y R R 1.a.            ",
"          E 3.( v v k v b Y R *.h.          ",
"          @.^ N u p p p s m C G ,.          ",
"        W 6.N p s u u u p a a b R s.        ",
"        W :.N s p q 0 0 0 a a b R 9.        ",
"      +.X.N l t q 3 v v 0 0 u s b ' 0.      ",
"    E ' -.z s u 0 h n h 4 4 t a h I 1.y.    ",
"    R ' K l p t t Z a 3 0 4 u a g D [ 6.    ",
"  E %.K g s s t 0 0 - - 0 0 t a s s D %.h.  ",
"  E %.K s p n b 0 0 * 8 Z D s t s p A $.d.  ",
"  E %.K s b P Z 0 ; r l z n b h p s A $.d.  ",
"  E %.K g P I n 3 & g g & 3 n n p s A $.d.  ",
"  T { K g P k 0 4 & & & & 4 0 t p s Z { i.  ",
"  :.G z g P j 4 4 & % % & 4 4 e s p s Z @.i.",
"+.a.B u s I j 4 3 % @ % & 4 4 q t a p n R i.",
"Q ;.B s k I h 4 4 & @ @ * t p t q p p n ! i.",
"W ;.B j I T h 4 2 * o O 2 D P n q p a n _ i.",
"W ;.N k T T h 2 * % O 1 M 8 r k Z s a n ! i.",
"E 6.B g m I j ; @ + o = r & ; k P s p n _ i.",
"W 6.N p g P j 2 @ X X X X @ ; g Z c s n _ i.",
"W ;.V p s D v 2 % X X X X @ 2 4 p P c n R i.",
"W ;.N p s u n c @ X X X X % 2 4 u P c n R i.",
"! ;.N u p 4 m F s # X X X % 5 4 t I v n R a.",
"! ;.B s p q v Z x # X X X % 2 4 u I v n R i.",
"! ;.B p p 4 q < % o X X o @ 2 4 u I k n R i.",
"! ;.B p p q 0 ; @ o X X X @ 2 4 u P k n R a.",
"! ;.B s p 0 4 < @ + o : y * 2 4 t I k n R a.",
"! ;.N p p q 0 2 * & o 9 F 1 2 0 t Z h n R i.",
"! ;.N p p 8 3 0 3 & o 7 Z t 0 0 0 s s n W i.",
"W ;.B p p q 0 0 3 & @ & 7 A s 4 u D j n R i.",
"  6.B p p t e 0 3 & % % , D g 0 p v s n R a.",
"  6.J x p s e 4 3 & % % - D g t a a z A { d.",
"  E %.K s s e 4 4 & % & 5 D s e a s Z $.d.  ",
"  E X.K s p e 4 2 & % w D p 0 q a a A @.d.  ",
"  E } K s p v v 4 2 & y P e 4 q a s D $.d.  ",
"  E %.K s p b b 0 g y g m e e t a s Z $.d.  ",
"  E *.K l s s t t P Y b 0 0 t p s s F ,.h.  ",
"    ! `  .l s t t P k q 4 4 u p g F X.:.    ",
"    T O.-.l s t 0 g e 4 0 4 t p g Y 1.y.    ",
"      $. .D z t q 4 4 4 0 q u h M ] 0.      ",
"        W ;.N u a 0 0 0 0 p p n R a.        ",
"        Q ;.N s a p p p p p p n R j.        ",
"          @.K D a a u p s C Z U 1.          ",
"          T ,./ v n n b M T R <.            ",
"            E R W R R R R R 1.              ",
"                s.a.i.w.w.s.                ",
"                                            ",
"                                            ",
"                                            ",
"                                            ",
"                                            ",
"                                            ",
"              . . . . . . . .               ",
"      . . . . . . . . . . . . . . . .       ",
"              . . . . . . . .               ",
"                . . . . . .                 "
};
